<svg width="428" height="72" viewBox="0 0 428 72" fill="none" xmlns="http://www.w3.org/2000/svg">
<path d="M100.366 25.968C98.0108 28.6473 96.8333 31.9211 96.8333 35.94C96.8333 39.9583 98.0108 43.2332 100.366 46.0608C102.722 48.8884 105.813 50.228 109.641 50.228C115.823 50.228 121.712 45.4652 127.159 35.94C121.712 26.7126 115.971 22.0986 109.935 22.0986C106.108 22.0986 103.016 23.4377 100.366 25.968ZM177.21 45.9119C179.565 43.3821 180.743 40.1072 180.743 35.94C180.743 31.7727 179.565 28.3495 177.21 25.6702C174.855 22.9915 171.763 21.6519 167.936 21.6519C164.55 21.6519 161.459 22.6937 158.661 25.0751C155.865 27.4566 153.215 30.8798 150.565 35.6421C155.865 45.019 161.606 49.6329 167.641 49.6329C171.616 49.6329 174.708 48.2928 177.21 45.9119ZM85.3506 10.7871C91.3866 4.38733 99.3361 1.113 108.905 1.113C120.387 1.113 130.544 7.06657 139.083 18.8243C146.885 6.76875 156.895 0.666267 168.966 0.666267C178.535 0.666267 186.485 3.94061 192.667 10.6382C198.85 17.3358 201.941 25.6702 201.941 35.6421C201.941 46.3581 198.85 54.842 192.667 61.2417C186.485 67.6415 178.535 70.7675 168.819 70.7675C163.372 70.7675 158.073 69.13 153.067 65.8557C147.915 62.7303 143.499 58.4141 139.377 53.0562C130.986 65.2601 120.682 71.3625 108.61 71.3625C99.3361 71.3625 91.5338 67.9393 85.3506 61.0928C79.0208 54.2469 75.9292 45.9119 75.9292 36.0889C75.9292 25.5219 78.8736 17.0379 85.3506 10.7871Z" fill="black"/>
<path d="M37.1684 53.6106H20.6265V44.9263H37.1684C40.1296 44.9263 41.9673 46.8679 41.9673 49.3193C41.9673 51.874 40.1296 53.6106 37.1684 53.6106ZM36.5553 27.7635H20.6265V19.7952H36.5553C38.6998 19.7952 40.6399 21.3277 40.6399 23.6773C40.6399 26.1292 38.6998 27.7635 36.5553 27.7635ZM42.7844 70.7739C56.4669 70.7739 62.8995 61.7834 62.8995 52.2821C62.8995 43.4961 57.284 36.7535 49.9319 35.6301C56.5692 34.1998 61.5726 28.4789 61.5726 19.9992C61.5726 12.0309 55.4457 2.63182 41.3547 2.63182H0V70.7739H42.7844Z" fill="black"/>
<path d="M248.011 72C266.289 72 277.42 63.3163 277.42 48.2986C277.42 22.9629 239.537 28.4798 239.537 22.0435C239.537 20.3069 240.66 18.9785 244.744 18.9785C251.177 18.9785 258.836 21.2263 264.758 25.7211L275.785 11.1124C268.025 4.77837 258.018 1.61161 246.889 1.61161C228.203 1.61161 218.604 12.6449 218.604 24.1891C218.604 51.0573 256.589 44.4164 256.589 50.955C256.589 53.6115 252.913 54.6332 249.033 54.6332C239.843 54.6332 232.184 50.7505 227.079 45.8467L216.357 61.1712C223.607 67.7093 233.512 72 248.011 72Z" fill="black"/>
<path d="M329.744 70.7739V20.6129H347.92V2.63236H290.84V20.6129H309.118V70.7739H329.744Z" fill="black"/>
<path d="M396.652 44.8246H383.174L389.913 22.8597L396.652 44.8246ZM428 70.7739L402.881 2.63182H376.945L351.825 70.7739H375.209L377.659 62.8051H402.165L404.617 70.7739H428Z" fill="black"/>
</svg>
