<svg width="394" height="83" viewBox="0 0 394 83" fill="none" xmlns="http://www.w3.org/2000/svg">
<path d="M94.4945 33.8315C90.2906 27.7717 83.4316 24.0765 74.8273 24.0765C60.4211 24.1382 51.2759 34.6813 51.2759 49.2643C51.2759 63.8474 60.4211 74.2181 74.8643 74.2181C87.66 74.2181 97.3956 65.8675 98.2189 54.0063H65.6576V45.2244H98.9688L107.303 53.5383C106.418 69.39 92.3803 83 74.8643 83C56.0083 83 41.9832 68.0722 41.9832 49.1781C41.9832 30.2844 56.0083 15.3563 75.2944 15.3563C85.2124 15.3152 94.6076 19.8093 100.813 27.5623L94.4945 33.8315Z" fill="#100F0D"/>
<path d="M116.073 17.1174H154.658V25.8993H125.28V44.3745H153.773V53.1564H125.28V72.4565H154.658V81.2384H116.073V17.1174Z" fill="#100F0D"/>
<path d="M203.389 17.1174H212.51V81.2384H202.43L175.167 32.9321V81.2384H166.046V17.1174H176.125L203.389 64.5615V17.1174Z" fill="#100F0D"/>
<path d="M226.535 17.1174H265.107V25.8993H235.741V44.3745H264.234V53.1564H235.741V72.4565H265.107V81.2384H226.535V17.1174Z" fill="#100F0D"/>
<path d="M305.448 33.8251C305.448 28.5535 300.631 24.1564 294.485 24.1564C287.996 24.1564 283.963 28.1101 283.963 33.3817C283.963 38.2098 287.034 41.6464 294.043 43.4813C296.413 44.0972 298.774 44.6268 301.061 45.1567C309.825 47.2627 316.845 52.7069 316.845 63.6319C316.845 73.3003 308.953 82.7842 295.368 82.7842C283.446 82.7842 273.244 73.473 273.011 63.6319L282.217 60.1215C281.857 67.3707 287.43 73.5395 294.664 73.9002C294.901 73.9118 295.134 73.9173 295.368 73.9161C302.819 73.9161 307.663 69.7903 307.663 63.644C307.663 57.0546 301.958 54.8621 297.582 53.9753C295.481 53.5322 292.764 52.8299 290.565 52.1279C282.23 49.5784 274.781 43.8756 274.781 32.8891C274.781 22.7894 283.459 15.4977 294.447 15.4977C305.844 15.4977 315.05 23.2328 315.05 33.7759L305.448 33.8251Z" fill="#100F0D"/>
<path d="M327.809 72.4565H329.295V25.8993H327.809V17.1174H340.1V25.8993H338.587V72.4565H340.074V81.2384H327.783L327.809 72.4565Z" fill="#100F0D"/>
<path d="M382.606 33.8251C382.606 28.5535 377.789 24.1564 371.643 24.1564C365.151 24.1564 361.121 28.1101 361.121 33.3817C361.121 38.2098 364.192 41.6464 371.198 43.4813C373.571 44.0972 375.932 44.6268 378.219 45.1567C386.983 47.2627 394 52.7069 394 63.6319C394 73.3003 386.108 82.7842 372.526 82.7842C360.604 82.7842 350.4 73.473 350.166 63.6319L359.374 60.1215C359.014 67.3707 364.588 73.5395 371.822 73.9002C372.056 73.9118 372.292 73.9173 372.526 73.9161C379.977 73.9161 384.818 69.7903 384.818 63.644C384.818 57.0546 379.116 54.8621 374.74 53.9753C372.636 53.5322 369.919 52.8299 367.72 52.1279C359.386 49.5784 351.938 43.8756 351.938 32.8891C351.938 22.7894 360.616 15.4977 371.605 15.4977C383.037 15.5226 392.306 23.2574 392.306 33.8251H382.606Z" fill="#100F0D"/>
<path d="M30.0639 7.89796C35.2383 15.4083 33.357 25.6998 25.8618 30.8846C18.3666 36.0693 8.09596 34.1843 2.92149 26.6742C-2.25296 19.1639 -0.371674 8.87244 7.12353 3.68766C14.6187 -1.49712 24.8895 0.387909 30.0639 7.89796Z" fill="#F8B212"/>
</svg>
