<svg width="381" height="101" viewBox="0 0 381 101" fill="none" xmlns="http://www.w3.org/2000/svg">
<g clip-path="url(#clip0_453_143)">
<path d="M16.8027 9.42376C16.8027 14.1174 13.0404 17.9147 8.40099 17.9147C3.76636 17.9147 0 14.1174 0 9.42376C0 4.74058 3.76636 0.935688 8.40099 0.935688C13.0404 0.935688 16.8027 4.74058 16.8027 9.42376Z" fill="#7FCA2B"/>
<path d="M67.6548 39.9358V63.1955C67.6548 67.1303 68.2138 70.1532 69.3319 72.2846C67.6217 73.7507 65.6097 74.4802 63.3039 74.4802C61.0651 74.4802 59.5292 73.9312 58.7143 72.8295C57.8868 71.7383 57.4648 70.0916 57.4648 67.8904V42.5278C57.4648 39.072 57.031 36.6087 56.1364 35.146C55.2523 33.6842 53.7219 32.9475 51.5454 32.9475C49.3724 32.9475 47.1502 33.4974 44.8726 34.5928C42.6027 35.6973 40.604 37.2138 38.8931 39.1398V73.788C37.7695 74.0424 36.0967 74.1856 33.8538 74.1856C32.7945 74.1856 31.8342 74.1462 30.9784 74.0798C30.1247 74.0155 29.3742 73.9091 28.7162 73.788V24.6615L29.2966 24.064H33.1592C36.7173 24.064 38.5956 26.1227 38.7934 30.2575C43.6044 25.7915 48.8404 23.5564 54.5148 23.5564C58.9183 23.5564 62.2156 25.0472 64.3942 28.0085C66.559 30.9677 67.6548 34.9463 67.6548 39.9358Z" fill="#434648"/>
<path d="M13.3954 30.2568C13.1961 26.1262 11.3185 24.064 7.76243 24.064H3.90959L3.31738 24.6705V73.7874C3.97531 73.9208 4.73841 74.0246 5.5873 74.0917C6.44864 74.1552 7.39576 74.1864 8.45842 74.1864C10.7021 74.1864 12.3701 74.0529 13.4971 73.7874V39.1391C13.4583 36.8771 13.3629 32.3481 13.3954 30.2568Z" fill="#434648"/>
<path d="M84.9494 73.7873V31.8501L76.4543 32.0507C76.3089 31.5182 76.2191 30.9221 76.1527 30.2568C76.0772 29.5895 76.0503 28.9214 76.0503 28.252C76.0503 26.7222 76.1803 25.4263 76.4543 24.3655L84.4554 24.4595C84.0548 20.4029 83.8589 17.4403 83.8589 15.5757C83.8589 13.3144 84.2022 11.2364 84.9002 9.32967C85.5865 7.43838 86.5924 5.79034 87.9117 4.39069C89.2229 2.99846 90.8119 1.91003 92.6549 1.14594C94.4946 0.380249 96.5756 -0.000747681 98.8802 -0.000747681C103.493 -0.000747681 107.776 0.76902 111.73 2.29597C111.73 5.29375 110.94 7.62161 109.357 9.29037C107.846 8.81857 106.404 8.45422 105.052 8.18655C103.711 7.9217 102.472 7.79104 101.343 7.79104C98.5855 7.79104 96.5923 8.53921 95.3761 10.0357C94.1494 11.5379 93.5469 13.782 93.5469 16.775C93.5469 17.9064 93.6133 19.1076 93.7426 20.3628C93.8706 21.6311 94.0352 23.0335 94.2365 24.5668L108.167 24.3655C108.303 24.9582 108.4 25.5784 108.465 26.2051C108.532 26.8474 108.569 27.5315 108.569 28.252C108.569 28.9214 108.532 29.5895 108.465 30.2568C108.4 30.9221 108.303 31.5182 108.167 32.0507L94.9276 31.8501V73.7873C94.2027 73.9091 93.414 74.0155 92.5519 74.0791C91.6982 74.1469 90.8119 74.1857 89.8918 74.1857C88.9613 74.1857 88.0674 74.1469 87.2247 74.0791C86.362 74.0155 85.6059 73.9091 84.9494 73.7873Z" fill="#434648"/>
<path d="M147.007 69.5875C143.392 73.2522 138.615 75.0923 132.685 75.0923C129.253 75.0923 126.22 74.465 123.589 73.2341C120.949 72.0053 118.728 70.2383 116.917 67.9368C115.106 65.6484 113.722 62.9119 112.77 59.7461C111.813 56.5918 111.341 53.0525 111.341 49.1175C111.341 45.2581 111.813 41.7359 112.77 38.5375C113.722 35.344 115.106 32.6006 116.917 30.3025C118.728 28.0086 120.949 26.2451 123.589 25.0066C126.22 23.7854 129.253 23.1663 132.685 23.1663C136.104 23.1663 139.136 23.7854 141.773 25.0066C144.415 26.2451 146.637 28.0086 148.45 30.3025C150.262 32.6006 151.647 35.344 152.594 38.5375C153.555 41.7359 154.038 45.2581 154.038 49.1175C154.038 58.04 151.695 64.865 147.007 69.5875ZM132.738 31.052C125.582 31.052 122.012 37.0804 122.012 49.1175C122.012 61.1672 125.582 67.1941 132.738 67.1941C139.946 67.1941 143.56 61.1672 143.56 49.1175C143.56 37.0804 139.946 31.052 132.738 31.052Z" fill="#434648"/>
<path d="M186.683 74.6849C183.008 74.6849 179.245 73.5806 175.416 71.385V94.4074C175.416 96.7366 175.011 98.415 174.183 99.4516C173.363 100.486 171.931 101 169.888 101H165.937L165.344 100.398V24.6615L165.937 24.0647H169.098C172.389 24.0647 174.405 25.7645 175.13 29.1496C178.952 25.1622 183.536 23.1663 188.863 23.1663C191.501 23.1663 193.87 23.7659 195.98 24.9588C198.093 26.1621 199.848 27.8903 201.263 30.1504C202.685 32.4153 203.773 35.1275 204.527 38.2934C205.287 41.4537 205.668 45.0333 205.668 49.0228C205.668 53.0173 205.165 56.614 204.18 59.8014C203.195 62.9978 201.816 65.692 200.08 67.8904C198.332 70.0917 196.306 71.7707 194.001 72.9355C191.695 74.0972 189.264 74.6849 186.683 74.6849ZM186.295 31.8509C182.009 31.8509 178.384 34.0217 175.416 38.3612V62.8843C177.139 64.0184 178.8 64.9036 180.419 65.5427C182.027 66.1816 183.563 66.4922 185.01 66.4922C188.109 66.4922 190.589 64.9617 192.473 61.8899C194.347 58.8186 195.287 54.4426 195.287 48.7677C195.287 42.9559 194.428 38.6925 192.716 35.9587C190.998 33.2215 188.863 31.8509 186.295 31.8509Z" fill="#3976A7"/>
<path d="M217.327 58.3013V35.0423C217.327 31.0528 216.767 28.0543 215.653 26.0564C217.299 24.593 219.44 23.858 222.072 23.858C225.692 23.858 227.502 26.0169 227.502 30.3412V55.7323C227.502 59.1865 227.934 61.6479 228.788 63.1099C229.645 64.5669 231.165 65.3 233.336 65.3C235.509 65.3 237.725 64.746 239.962 63.6574C242.204 62.5566 244.209 61.0794 245.985 59.2205V24.4602C247.836 24.1987 249.513 24.064 251.024 24.064C252.542 24.064 254.297 24.1987 256.27 24.4602V59.8007C256.27 64.4624 257.186 67.6298 259.038 69.2922C258.316 71.6829 257.021 73.4228 255.179 74.481C251.024 73.7507 248.261 71.3462 246.876 67.2874C241.738 72.2209 236.232 74.6849 230.368 74.6849C226.027 74.6849 222.763 73.1794 220.586 70.1892C218.416 67.1934 217.327 63.235 217.327 58.3013Z" fill="#3976A7"/>
<path d="M285.527 65.9963H289.179C289.77 67.6836 290.07 69.1594 290.07 70.4486C290.07 71.7231 289.971 72.7382 289.77 73.4706C287.144 73.9484 284.337 74.1857 281.367 74.1857C274.849 74.1857 271.585 70.7556 271.585 63.8975V0.999893L272.279 0.400444H276.136C278.171 0.400444 279.613 0.9142 280.43 1.94598C281.257 2.97369 281.664 4.65271 281.664 6.98465V61.5006C281.664 64.5026 282.946 65.9963 285.527 65.9963Z" fill="#3976A7"/>
<path d="M296.194 70.0924C296.262 68.9521 296.619 67.6747 297.276 66.248C297.932 64.8096 298.7 63.7002 299.545 62.8974C304.797 65.8254 309.063 67.2874 312.342 67.2874C315.692 67.2874 318.174 66.7258 319.77 65.5972C321.379 64.4624 322.189 62.97 322.189 61.1029C322.189 58.1721 320.111 55.9058 315.988 54.3125L310.477 52.2163C302.147 49.0228 297.971 44.2601 297.971 37.9386C297.971 33.3425 299.605 29.7387 302.863 27.1089C306.127 24.4782 310.388 23.1669 315.661 23.1669C321.009 23.1669 326.308 24.3648 331.581 26.7596C331.581 28.0902 331.299 29.4872 330.742 30.9497C330.173 32.4145 329.438 33.5527 328.51 34.3522C323.834 32.1509 319.456 31.0527 315.368 31.0527C313.2 31.0527 311.47 31.5845 310.179 32.6489C308.895 33.7173 308.252 35.0423 308.252 36.6391C308.252 38.2422 308.727 39.4703 309.685 40.3376C310.641 41.2014 312.207 42.065 314.38 42.9281L320.311 45.231C328.676 48.4847 332.87 53.4882 332.87 60.1963C332.87 64.8041 331.113 68.4257 327.624 71.0841C324.128 73.7507 319.39 75.0916 313.394 75.0916C307.397 75.0916 301.658 73.4223 296.194 70.0924Z" fill="#3976A7"/>
<path d="M380.299 52.4107H351.249C351.444 57.0097 352.411 60.5364 354.159 62.9971C355.905 65.4673 358.856 66.6892 363.004 66.6892C364.979 66.6892 367.109 66.3946 369.387 65.7985C371.656 65.1989 374.006 64.2287 376.454 62.8974C378.095 64.4362 379.181 66.6194 379.714 69.4873C374.431 73.2189 368.239 75.0923 361.132 75.0923C357.372 75.0923 354.208 74.411 351.637 73.082C349.072 71.7493 346.982 69.9215 345.364 67.5896C343.75 65.2591 342.588 62.4831 341.858 59.2543C341.125 56.0269 340.769 52.5457 340.769 48.8195C340.769 45.155 341.224 41.7428 342.16 38.5914C343.075 35.4318 344.386 32.7167 346.107 30.454C347.816 28.1918 349.945 26.4117 352.485 25.12C355.013 23.813 357.869 23.167 361.029 23.167C364.187 23.167 367.001 23.6995 369.477 24.7638C371.95 25.8316 374.04 27.3059 375.756 29.2015C377.468 31.0991 378.772 33.364 379.657 35.9919C380.555 38.6199 381 41.4627 381 44.525C381 45.8575 380.945 47.1708 380.849 48.4702C380.743 49.7745 380.561 51.0794 380.299 52.4107ZM361.325 30.855C355.066 30.855 351.704 35.5451 351.249 44.9295H371.209V43.6322C371.209 39.839 370.411 36.7643 368.79 34.3943C367.169 32.0355 364.69 30.855 361.325 30.855Z" fill="#3976A7"/>
<path d="M169.098 100.98H165.936L165.927 100.99L165.936 100.999H169.701C169.504 100.986 169.304 100.98 169.098 100.98Z" fill="#386D98"/>
</g>
<defs>
<clipPath id="clip0_453_143">
<rect width="381" height="101" fill="white"/>
</clipPath>
</defs>
</svg>
