<svg width="237" height="196" viewBox="0 0 237 196" fill="none" xmlns="http://www.w3.org/2000/svg">
<path d="M18.0679 0.756668C15.8098 1.798 13.5919 5.5495 11.4809 11.9044C3.31725 36.456 -2.01381 95.8525 0.725204 131.859C1.15276 137.333 1.98114 143.674 2.66256 146.611C5.68216 159.468 17.6002 170.963 37.094 179.801C57.4028 189.013 84.5258 194.86 111.622 195.875C135.445 196.769 163.236 192.831 185.495 185.408C211.937 176.597 228.692 163.98 233.582 149.215C234.223 147.292 234.517 145.997 235.012 143.007C237.216 129.429 237.617 106.92 236.067 81.9947C234.277 52.9172 230.242 26.096 225.525 11.9044C223.414 5.5495 221.196 1.798 218.938 0.756668C218.056 0.342789 217.522 0.342789 216.212 0.756668C213.113 1.73125 208.343 4.93538 202.411 10.0219C196.625 15.0017 188.622 22.9987 182.917 29.5271C181.728 30.8888 180.699 32.0103 180.645 32.037C180.592 32.0503 179.256 31.7032 177.679 31.2626C163.837 27.3509 147.016 24.4539 132.799 23.5193C124.168 22.9586 112.838 22.9586 104.207 23.5193C89.9905 24.4539 73.1689 27.3509 59.3268 31.2626C57.7502 31.7032 56.4141 32.0503 56.3607 32.037C56.3072 32.0103 55.2784 30.8888 54.0893 29.5271C48.3841 22.9987 40.3808 15.0017 34.5955 10.0219C28.6632 4.93538 23.8933 1.73125 20.7935 0.756668C19.4841 0.342789 18.9497 0.342789 18.0679 0.756668ZM132.479 78.7238C137.649 79.5115 140.789 82.3818 142.005 87.4684C142.633 90.0984 142.86 92.0343 142.874 94.8112C142.874 99.6574 141.845 103.823 140.014 106.493C139.119 107.775 137.556 109.19 136.3 109.844C136.287 109.844 137.355 112.501 138.692 115.718C142.513 124.997 143.715 127.947 143.876 128.521C144.17 129.576 143.595 130.631 142.446 131.151C141.591 131.539 138.732 131.725 136.407 131.552C133.761 131.352 133 130.911 132.118 129.055C131.904 128.615 130.715 125.397 129.472 121.913C128.23 118.428 126.934 114.784 126.586 113.836L125.958 112.1L123.968 112.073L121.99 112.033L121.95 120.618C121.91 130.15 121.95 129.723 121.002 130.551C120.387 131.085 119.532 131.352 117.688 131.539C116.592 131.659 115.871 131.645 114.682 131.525C112.21 131.271 111.408 130.938 110.847 129.883L110.553 129.322V105.358V81.3805L110.901 80.7264C111.542 79.4714 112.477 79.2178 118.303 78.7772C123.66 78.3767 129.967 78.35 132.479 78.7238ZM152.908 79.0576C154.765 79.2311 155.647 79.4848 156.261 80.0321C157.223 80.8732 157.183 80.2858 157.223 91.3668L157.263 101.353H157.891H158.519L162.247 92.3013C164.305 87.3349 166.215 82.7557 166.496 82.1415C167.164 80.673 167.752 79.9654 168.714 79.4981L169.475 79.1243H172.749C175.034 79.1243 176.236 79.1777 176.717 79.2979C177.559 79.5248 178.414 80.2191 178.628 80.8732C178.962 81.8478 179.269 81.1002 171.787 97.735C169.97 101.807 168.473 105.185 168.473 105.251C168.473 105.465 178.267 124.917 178.307 124.783C178.334 124.703 178.534 123.782 178.748 122.714C179.162 120.725 185.028 92.7419 186.244 87.0011C187.019 83.2897 187.272 82.4352 187.9 81.5141C189.263 79.4981 190.693 79.1377 197.2 79.1377C202.811 79.1243 204.361 79.3913 205.671 80.5395C206.339 81.1269 206.833 81.8879 207.234 82.9159C207.367 83.2763 209.064 91.073 211.015 100.245C216.987 128.388 217.001 128.468 216.947 129.135C216.854 130.057 216.426 130.644 215.531 131.085L214.769 131.458H211.296C207.434 131.458 206.953 131.378 205.978 130.577C204.962 129.75 204.856 129.416 203.894 124.076L203.012 119.176L197.293 119.136C192.791 119.109 191.575 119.136 191.521 119.269C191.495 119.363 191.094 121.486 190.653 123.982C190.212 126.479 189.744 128.788 189.624 129.109C189.33 129.923 188.515 130.764 187.7 131.111C187.112 131.365 186.631 131.418 184.133 131.525C180.565 131.672 175.662 131.685 172.281 131.539C170.197 131.445 169.622 131.378 169.141 131.165C168.367 130.818 167.672 130.043 167.057 128.842C166.589 127.907 163.757 121.526 160.256 113.529L158.533 109.63H157.891H157.25V119.042C157.25 125.437 157.197 128.668 157.103 129.135C156.889 130.097 156.141 130.844 155.046 131.178C153.295 131.699 148.779 131.592 147.43 131.004C146.655 130.657 146.08 129.95 145.907 129.095C145.8 128.588 145.76 121.579 145.786 104.891L145.826 81.3939L146.134 80.7531C146.641 79.7251 147.684 79.2578 149.902 79.0576C150.529 79.0042 151.131 78.9508 151.238 78.9374C151.345 78.9374 152.106 78.9908 152.908 79.0576ZM36.0652 79.1911C37.9759 79.4314 39.1249 80.1389 39.9934 81.6209C40.3007 82.1415 42.8393 88.8568 46.3132 98.3491C47.6092 101.914 47.6359 101.954 48.0234 101.994L48.4242 102.034L50.081 97.5213C53.4212 88.4563 55.6793 82.4486 55.9599 81.8745C56.4008 81.0201 57.3761 80.0455 58.1644 79.6583C59.0195 79.2445 60.5828 79.0576 63.2149 79.0576C67.2366 79.0576 68.7197 79.5515 69.4278 81.1269C69.6549 81.6342 69.6683 82.8491 69.7084 105.358C69.7485 131.672 69.8153 129.75 68.8533 130.577C67.9314 131.392 65.2191 131.806 62.5736 131.525C59.8346 131.245 58.9661 130.791 58.5653 129.416C58.3248 128.615 58.3381 124.623 58.6053 105.986L58.6855 99.8577L58.3782 99.9111C58.0976 99.9511 57.9774 100.245 57.0822 103.155C52.8868 116.84 52.9269 116.693 52.1787 117.48C51.3236 118.402 50.9628 118.508 48.344 118.548C46.9411 118.575 45.7787 118.535 45.4581 118.455C44.7499 118.255 43.8948 117.627 43.494 116.986C43.0664 116.319 43.0664 116.332 40.3408 107.508C39.0982 103.449 38.0293 100.071 37.9892 100.005C37.9491 99.9378 37.7888 99.8844 37.6418 99.8844C37.3612 99.8844 37.3612 99.8977 37.4414 103.182C37.4949 105.011 37.575 111.553 37.6285 117.734C37.722 130.297 37.7621 129.736 36.7867 130.577C35.7045 131.539 32.1504 131.899 29.1843 131.365C27.5943 131.071 26.7793 130.47 26.4453 129.322C26.3384 128.922 26.3116 122.66 26.3384 105.291L26.3785 81.7944L26.7793 80.9934C27.3405 79.8586 28.0219 79.4714 29.8523 79.1911C30.8678 79.0442 34.7959 79.0442 36.0652 79.1911ZM82.6285 79.378C83.5905 79.645 84.2719 80.1523 84.6327 80.8732C84.8999 81.3805 84.8999 81.7277 84.9667 99.9511C85.0335 120.164 84.9801 118.815 85.8085 120.017C86.6101 121.205 88.0264 121.779 90.1508 121.779C92.1015 121.779 93.0635 121.459 94.0523 120.471C95.4418 119.082 95.3082 121.058 95.3884 99.8176C95.4418 86.4137 95.4952 81.1669 95.6021 80.9266C95.8026 80.4994 96.4172 79.8853 96.9115 79.6316C97.9537 79.0976 101.762 78.884 103.819 79.2445C105.129 79.4848 105.85 79.8586 106.304 80.5528L106.678 81.1135V100.071C106.678 117.667 106.665 119.136 106.438 120.311C104.835 128.949 100.051 132.513 90.1107 132.513C85.9554 132.513 83.4035 132.019 80.758 130.724C76.3221 128.575 73.9973 124.276 73.6098 117.52C73.4629 114.984 73.4495 83.57 73.5965 82.0214C73.69 81.0868 73.7702 80.8465 74.1042 80.4193C74.9326 79.378 76.3488 79.0442 79.6223 79.111C81.1187 79.151 82.0807 79.2311 82.6285 79.378Z" fill="black"/>
<path d="M123.019 89.0304L121.977 89.0838V96.0128C121.977 99.831 121.977 102.995 121.977 103.049C121.977 103.115 123.259 103.155 124.823 103.142C127.415 103.142 127.722 103.115 128.417 102.835C129.259 102.501 130.114 101.687 130.461 100.859C131.062 99.4439 131.33 96.44 131.076 94.0769C130.795 91.5804 130.167 90.2186 128.965 89.5778C127.856 88.977 126.733 88.8702 123.019 89.0304Z" fill="black"/>
<path d="M196.745 89.9651C196.705 90.1653 195.917 94.571 194.995 99.751C194.073 104.931 193.285 109.27 193.245 109.39C193.178 109.617 193.432 109.63 197.186 109.63C200.927 109.63 201.208 109.617 201.208 109.39C201.208 109.27 200.406 104.771 199.418 99.4172L197.641 89.6714L197.24 89.6313C196.879 89.5912 196.812 89.6447 196.745 89.9651Z" fill="black"/>
</svg>
