<svg width="492" height="164" viewBox="0 0 492 164" fill="none" xmlns="http://www.w3.org/2000/svg">
<path d="M420.976 58.1517C427.146 57.4 432.698 60.1334 434.703 61.6367C434.24 60.68 432.852 58.2884 431.31 56.58C429.767 54.8717 427.84 53.3684 427.068 52.8217C427.146 52.2067 427.068 51.455 425.757 50.02C424.446 48.585 422.673 47.0134 416.966 45.715C411.26 44.485 409.717 45.305 408.406 43.8017C407.095 42.3667 407.944 40.18 408.252 39.8384C407.327 40.8634 405.399 45.305 410.334 47.6284C411.954 48.38 416.812 49.2 419.511 50.4984C421.67 51.5234 422.133 52.1384 421.825 52.6167C418.123 51.1817 409.409 48.2434 403.934 48.175C398.458 48.1067 393.137 51.3867 391.132 53.0267C392.983 53.0267 397.841 53.3684 402.854 54.94C407.867 56.58 411.028 58.7667 411.954 59.5867C412.339 59.5184 414.807 58.9717 420.976 58.1517Z" fill="black"/>
<path fill-rule="evenodd" clip-rule="evenodd" d="M249.856 53.3C304.145 28.29 323.27 74.4151 413.033 65.3267C336.071 86.1684 309.235 34.44 249.856 53.3Z" fill="black"/>
<path fill-rule="evenodd" clip-rule="evenodd" d="M224.793 66.3517C288.799 29.52 311.009 81.6583 400.386 71.6817C387.277 75.3717 375.169 76.875 363.91 77.08C269.906 110.563 209.447 51.455 57.0659 79.13C176.827 44.7583 269.675 91.5667 339.31 75.3717C297.668 69.3583 265.51 49.9517 224.793 66.3517Z" fill="black"/>
<path fill-rule="evenodd" clip-rule="evenodd" d="M319.183 0.273315C311.163 60.68 371.005 58.015 409.1 64.2333C361.983 42.3666 329.054 52.685 319.183 0.273315Z" fill="black"/>
<path fill-rule="evenodd" clip-rule="evenodd" d="M304.068 0.0683594C285.483 59.45 364.836 61.1584 371.468 64.0967C342.395 49.61 304.068 53.6417 304.068 0.0683594Z" fill="black"/>
<path d="M189.011 135.778C189.011 137.213 189.628 138.512 190.862 139.742C192.173 140.903 193.638 141.997 195.489 142.953C197.34 143.842 199.113 144.798 200.887 145.755C202.661 146.712 204.203 147.873 205.437 149.24C206.748 150.607 207.365 152.178 207.365 153.818C207.365 156.483 206.285 158.602 204.049 160.31C201.89 162.018 198.882 162.838 195.103 162.838C191.325 162.838 187.623 162.223 183.922 160.925V158.67C187.623 160.31 190.785 161.13 193.407 161.13C196.029 161.13 198.111 160.583 199.499 159.422C200.964 158.26 201.658 156.757 201.658 154.707C201.658 153.34 201.041 152.11 199.885 151.017C198.651 149.855 197.186 148.898 195.489 148.078C193.792 147.258 192.096 146.37 190.322 145.482C188.626 144.593 187.161 143.5 185.927 142.202C184.693 140.835 184.153 139.195 184.153 137.282C184.153 135.368 185.078 133.592 187.006 131.952C188.934 130.312 191.787 129.492 195.566 129.492C198.034 129.492 201.196 129.97 204.974 130.995L204.434 134.275C199.499 132.43 195.335 131.473 191.787 131.473C189.937 132.43 189.011 133.797 189.011 135.778Z" fill="black"/>
<path d="M238.211 129.628C242.915 129.628 246.848 130.995 249.933 133.797C253.018 136.53 254.56 140.357 254.56 145.277C254.56 148.42 253.943 151.222 252.709 153.613C251.475 155.937 249.856 157.782 247.851 159.08C243.918 161.608 239.676 162.838 234.972 162.838C230.268 162.838 226.335 161.472 223.251 158.67C220.166 155.868 218.624 151.973 218.624 147.122C218.624 144.593 219.009 142.27 219.858 140.22C220.706 138.17 221.786 136.462 223.096 135.163C224.407 133.865 226.027 132.772 227.723 131.883C230.962 130.38 234.433 129.628 238.211 129.628ZM227.184 156.757C228.109 158.192 229.42 159.285 231.039 160.105C232.659 160.857 234.51 161.267 236.592 161.267C238.674 161.267 240.602 160.788 242.221 159.832C243.841 158.875 245.152 157.645 246.077 156.142C247.928 153.135 248.853 149.855 248.853 146.37C248.853 142.065 247.851 138.648 245.923 135.983C243.764 133.045 240.216 131.542 235.281 131.542C231.734 132.635 229.034 134.548 227.261 137.213C225.41 139.878 224.562 142.953 224.562 146.302C224.485 150.538 225.41 153.955 227.184 156.757Z" fill="black"/>
<path d="M272.914 144.525H284.481V146.37H272.914V162.292H267.593V130.243H288.954V133.523L278.851 132.02C277.001 132.02 275.073 132.293 272.914 132.84V144.525Z" fill="black"/>
<path d="M312.628 162.292H307.307V132.567C306.073 132.293 304.839 132.157 303.606 132.157L296.203 133.66L295.894 130.243H324.041L323.733 133.66L316.33 132.157C315.096 132.157 313.862 132.293 312.628 132.567V162.292Z" fill="black"/>
<path d="M374.398 130.175H377.097L363.525 162.975H362.676L354.348 143.09L346.174 162.975H345.325L331.521 130.175H337.459L347.022 156.483L353.114 140.288L348.873 130.243H354.811L364.45 156.483L374.398 130.175Z" fill="black"/>
<path d="M383.498 162.292L399.769 129.423H400.618L416.889 162.292H410.951L406.864 153.545H390.592L386.582 162.292H383.498ZM391.287 151.7H405.861L398.613 135.983L391.287 151.7Z" fill="black"/>
<path d="M433.855 146.985V162.292H428.534V130.243H440.332C444.034 130.243 447.041 130.995 449.355 132.43C451.746 133.865 452.902 135.778 452.902 138.17C452.902 140.562 451.977 142.407 450.049 143.773C448.198 145.14 445.653 146.097 442.415 146.575L457.067 162.292L450.743 162.975L438.096 146.985H433.855ZM433.855 145.55H437.325C443.88 145.55 447.196 143.227 447.196 138.648C447.196 137.897 446.964 137.008 446.502 136.052C445.653 134.002 443.88 132.703 441.181 132.02C438.713 132.02 436.245 132.293 433.855 132.84V145.55Z" fill="black"/>
<path d="M469.636 162.292V130.243H491.537L490.997 133.523L480.818 132.02C479.044 132.02 477.039 132.293 474.88 132.84V144.593H486.987V146.438H474.88V160.583L491.846 159.08L491.306 162.36H469.636V162.292Z" fill="black"/>
<path d="M16.1172 159.217C14.8063 160.242 12.8784 160.788 10.4107 160.788C7.86583 160.788 4.78119 159.968 1.15674 158.328L0 157.85V161.745L0.462696 161.882C4.24138 163.18 8.1743 163.863 12.0301 163.863C16.0401 163.863 19.2019 162.975 21.5925 161.13C23.9831 159.285 25.2169 156.893 25.2169 154.023C25.2169 152.178 24.5229 150.47 23.1348 148.898C21.8238 147.463 20.2044 146.165 18.2765 145.14C16.4257 144.115 14.5749 143.158 12.8013 142.27C11.0276 141.382 9.56238 140.357 8.32853 139.127C7.17179 138.033 6.63198 136.872 6.63198 135.573C6.63198 133.865 7.40314 132.703 8.94546 132.02C12.3386 132.02 16.5028 132.977 21.284 134.822L22.2094 135.163L22.9806 130.38L22.3636 130.243C18.4307 129.218 15.1919 128.672 12.5699 128.672C8.55987 128.672 5.39812 129.56 3.31599 131.405C1.23386 133.182 0.154232 135.163 0.154232 137.282C0.154232 139.4 0.848276 141.177 2.15925 142.68C3.47022 144.115 5.01254 145.277 6.78621 146.233C8.55988 147.122 10.2564 148.01 12.0301 148.83C13.7266 149.65 15.1147 150.607 16.2715 151.632C17.3511 152.657 17.8909 153.75 17.8909 154.912C18.0451 156.825 17.4282 158.192 16.1172 159.217Z" fill="black"/>
<path d="M45.8839 129.355H39.252V163.317H45.8839V129.355Z" fill="black"/>
<path d="M151.996 151.973L131.791 129.355H126.547V163.248H130.557V137.897L153.924 163.795H156.006V129.355H151.996V151.973Z" fill="black"/>
<path d="M110.816 129.355H104.184V163.317H110.816V129.355Z" fill="black"/>
<path d="M87.9122 138.033C87.9122 135.368 86.6013 133.25 83.9793 131.61C81.4345 130.038 78.1956 129.287 74.3398 129.287H61.5386V163.248H68.5561V147.668H71.6408L84.5191 163.932L92.8476 163.043L77.8872 147.053C80.6633 146.507 82.9768 145.55 84.7505 144.252C86.8326 142.748 87.9122 140.698 87.9122 138.033ZM71.3323 144.867H68.5561V133.182C70.7154 132.703 72.9517 132.498 75.111 132.498C77.5787 133.113 79.1981 134.275 79.9693 136.12C80.3549 137.008 80.5862 137.828 80.5862 138.512C80.5862 142.817 77.5787 144.867 71.3323 144.867Z" fill="black"/>
</svg>
