<svg width="521" height="142" viewBox="0 0 521 142" fill="none" xmlns="http://www.w3.org/2000/svg">
<path d="M470.14 59.4196C464.275 59.4196 459.003 63.1194 455.885 68.1512V60.2335H444.822V101.746H455.885V80.3607C455.885 71.629 460.934 68.8172 465.982 68.8172C471.403 68.8172 475.412 72.517 475.412 79.9167C475.412 87.6864 475.338 101.672 475.338 101.672H486.401L486.475 76.4388C486.475 65.9313 479.793 59.4196 470.14 59.4196Z" fill="black"/>
<path d="M386.091 43.2882H375.028V101.746H386.091V43.2882Z" fill="black"/>
<path d="M356.317 60.2335L340.354 77.3268V43.2882H329.365V101.746H340.354L340.206 84.8745L356.02 101.672H369.831L350.526 80.9526L369.831 60.2335H356.317Z" fill="black"/>
<path d="M415.493 59.2715C403.094 59.2715 393.07 69.0391 393.07 81.0266C393.07 93.0141 403.094 102.782 415.493 102.782C427.893 102.782 437.916 93.0141 437.916 81.0266C437.916 69.0391 427.893 59.2715 415.493 59.2715ZM415.493 92.8661C409.108 92.8661 403.911 87.6123 403.911 81.0266C403.911 74.5148 409.108 69.1871 415.493 69.1871C421.879 69.1871 427.076 74.4408 427.076 81.0266C427.076 87.6123 421.879 92.8661 415.493 92.8661Z" fill="black"/>
<path d="M308.502 81.6186C308.502 90.3502 303.453 93.1621 298.404 93.1621C292.984 93.1621 288.974 89.4622 288.974 82.0626C288.974 74.2929 289.049 60.3075 289.049 60.3075H277.986L277.911 85.5404C277.911 96.122 284.594 102.634 294.246 102.634C300.112 102.634 305.383 98.9338 308.502 93.9021V101.746H319.565V60.2335H308.502V81.6186Z" fill="black"/>
<path d="M216.805 101.746H229.279L263.136 43.2882H250.588L216.805 101.746Z" fill="#0066FF"/>
<path d="M48.1871 68.8171V90.1282C48.1871 91.8301 48.6326 93.1621 49.4493 94.05C50.266 94.938 51.751 95.456 53.7557 95.456C55.6862 95.456 57.3196 95.308 58.6561 94.938V101.968C57.1711 102.486 55.3892 102.708 53.3102 102.708C44.6974 102.708 40.4653 98.4899 40.4653 90.1282V68.8171H32.3722V61.5654H40.4653V51.0579H48.1871V61.5654H59.5471V68.8171H48.1871Z" fill="black"/>
<path d="M95.5575 63.4153C98.6759 65.1913 101.052 67.7072 102.685 70.963C104.393 74.2189 105.21 77.9927 105.21 82.3585C105.21 83.4685 105.21 84.3565 105.136 84.8744H71.9465C72.4663 87.9823 73.9513 90.5722 76.3272 92.5701C78.7031 94.568 81.5246 95.604 84.7172 95.604C89.9146 95.604 93.7013 93.6801 95.8545 89.9062H103.799C102.537 93.6801 100.087 96.7139 96.597 99.1558C93.1073 101.524 89.0979 102.782 84.7172 102.782C80.7821 102.782 77.2182 101.894 74.0255 100.044C70.8328 98.2679 68.3826 95.752 66.6007 92.5701C64.8187 89.3882 63.9277 85.7624 63.9277 81.7666C63.9277 77.7707 64.8187 74.2189 66.6007 70.963C68.3826 67.7812 70.8328 65.2653 74.0255 63.4894C77.2182 61.7134 80.7078 60.7515 84.643 60.7515C88.8009 60.7515 92.4391 61.6394 95.5575 63.4153ZM76.3272 70.5191C74.0255 72.517 72.6148 75.0329 72.095 78.2147H96.9682C96.6712 74.9589 95.3347 72.443 93.0331 70.445C90.7314 68.5211 87.9099 67.5592 84.5688 67.5592C81.3018 67.5592 78.6289 68.5211 76.3272 70.5191Z" fill="black"/>
<path d="M114.12 71.111C115.976 67.9292 118.574 65.4133 121.916 63.5633C125.183 61.7134 128.821 60.7515 132.83 60.7515C137.285 60.7515 141.369 62.0834 144.933 64.6733C148.496 67.2632 150.872 70.667 151.986 74.8849H143.596C142.705 72.739 141.22 71.037 139.215 69.7791C137.211 68.5211 134.909 67.8552 132.459 67.8552C129.934 67.8552 127.633 68.4471 125.628 69.7051C123.623 70.889 122.064 72.591 120.95 74.7369C119.837 76.8828 119.243 79.1767 119.243 81.7666C119.243 84.3565 119.837 86.7244 120.95 88.7963C122.064 90.9422 123.623 92.5701 125.628 93.8281C127.633 95.012 129.86 95.678 132.459 95.678C134.909 95.678 137.211 95.012 139.215 93.7541C141.22 92.4961 142.705 90.7942 143.596 88.6483H151.986C150.872 92.8661 148.496 96.27 144.933 98.8598C141.369 101.45 137.285 102.782 132.83 102.782C128.821 102.782 125.183 101.82 121.916 99.9698C118.649 98.1199 116.05 95.604 114.12 92.4221C112.263 89.2402 111.298 85.6884 111.298 81.8406C111.298 77.9927 112.263 74.2929 114.12 71.111Z" fill="black"/>
<path d="M189.778 62.8233C192.526 64.2293 194.679 66.3012 196.238 69.1871C197.797 71.999 198.614 75.4768 198.614 79.5466V101.894H190.892V79.6946C190.892 76.1428 189.853 73.3309 187.7 71.259C185.546 69.1871 182.948 68.0771 179.755 68.0771C177.602 68.0771 175.597 68.6691 173.815 69.7791C172.033 70.889 170.622 72.4429 169.657 74.3669C168.692 76.2908 168.172 78.3627 168.172 80.5086V101.894H160.45V45.0641H167.727V66.9672C169.286 65.1172 171.216 63.5633 173.444 62.4534C175.746 61.3434 178.047 60.7514 180.497 60.7514C183.987 60.7514 187.031 61.4914 189.778 62.8233Z" fill="black"/>
</svg>
