<svg width="397" height="81" viewBox="0 0 397 81" fill="none" xmlns="http://www.w3.org/2000/svg">
<g clip-path="url(#clip0_453_132)">
<path d="M37.691 79.4543H21.2929L0 20.5791H17.3952L29.6609 63.9577H29.8834L42.481 20.5791H59.0958L37.691 79.4543Z" fill="#211D1D"/>
<path d="M95.5642 50.7928C94.0072 52.0071 91.4431 52.9995 84.9772 53.9943C79.1795 54.9978 74.3805 56.434 74.3805 62.8439C74.3805 68.2744 78.617 69.9331 81.6322 69.9331C88.5425 69.9331 95.5642 65.5034 95.5642 58.3124V50.7928ZM110.847 67.9397C110.847 74.9145 112.41 76.4601 114.303 77.1234V79.4544H97.4606C96.576 76.6819 96.3493 75.7968 96.0162 72.4768C92.4445 76.1309 87.4305 81 76.8338 81C67.9143 81 58.7732 76.0186 58.7732 63.8468C58.7732 52.3363 66.1307 46.4725 76.0571 45.0356L90.1031 42.9357C92.5579 42.5946 95.5642 41.6013 95.5642 38.2868C95.5642 31.7612 89.3242 31.4285 85.3088 31.4285C77.5084 31.4285 76.1684 36.1764 75.7205 39.61H60.6667C62.4491 21.5746 75.05 19.0349 87.2046 19.0349C95.5642 19.0349 110.847 21.5746 110.847 36.0765V67.9397Z" fill="#211D1D"/>
<path d="M135.829 79.4543H120.216V-0.00479889H135.829V79.4543Z" fill="#211D1D"/>
<path d="M165.491 20.5792H175.192V31.6482H165.491V63.6271C165.491 67.0594 165.603 68.3833 171.963 68.3833C172.961 68.3833 174.076 68.2744 175.192 68.1615V79.8841C172.738 80.0054 170.281 80.1198 167.829 80.1198H165.828C152.331 80.1198 149.88 75.0233 149.88 67.3803V31.6482H141.851V20.5792H149.88V4.64036H165.491V20.5792Z" fill="#211D1D"/>
<path d="M220.691 44.1506C219.797 34.6307 213.668 31.7612 208.649 31.7612C201.29 31.7612 197.387 36.4113 196.49 44.1506H220.691ZM236.08 62.18C231.948 76.3527 220.134 81 209.99 81C193.263 81 180.438 73.0271 180.438 48.7993C180.438 41.7144 182.892 19.0349 208.872 19.0349C220.579 19.0349 236.746 24.5667 236.746 51.4539V54.2263H196.047C196.49 58.6415 197.387 68.605 209.99 68.605C214.337 68.605 218.788 66.3871 220.022 62.18H236.08Z" fill="#211D1D"/>
<path d="M295.414 57.9816C294.85 64.0672 290.061 81 268.313 81C246.006 81 240.883 64.0672 240.883 51.6757C240.883 32.6429 249.239 19.0349 269.31 19.0349C278.683 19.0349 294.074 23.2318 295.521 41.6014H279.689C279.014 37.8439 276.789 32.0911 270.088 32.0911H269.31C259.501 32.0911 256.936 41.8329 256.936 49.1341C256.936 55.5419 257.162 68.2744 268.975 68.2744C276.899 68.2744 279.573 60.7438 279.573 57.9816H295.414Z" fill="#211D1D"/>
<path d="M356.073 79.4543H340.46V43.7084C340.46 39.3924 340.236 32.0911 330.306 32.0911C323.404 32.0911 318.047 36.7405 318.047 45.6998V79.4543H302.438V-0.00479889H318.047V28.2153H318.271C320.281 23.3537 326.964 19.0349 335.438 19.0349C347.039 19.0349 356.073 25.7844 356.073 38.7277V79.4543Z" fill="#211D1D"/>
<path d="M365.774 79.4543H397V68.3832H365.774V79.4543Z" fill="#211D1D"/>
</g>
<defs>
<clipPath id="clip0_453_132">
<rect width="397" height="81" fill="white"/>
</clipPath>
</defs>
</svg>
