<?xml version="1.0" encoding="UTF-8"?>
<svg width="340px" height="160px" viewBox="0 0 340 160" version="1.1" xmlns="http://www.w3.org/2000/svg" xmlns:xlink="http://www.w3.org/1999/xlink">
    <!-- Generator: Sketch 64 (93537) - https://sketch.com -->
    <title>IntellectEU_MainLogo_onWhite</title>
    <desc>Created with Sketch.</desc>
    <g id="IntellectEU_MainLogo_onWhite" stroke="none" stroke-width="1" fill="none" fill-rule="evenodd">
        <g id="Logo_Intellect_MAIN" transform="translate(32.000000, 54.000000)">
            <g id="Group">
                <path d="M1.30400609,46.2536972 L5.58189655,47.3516432 C6.3918188,47.5569249 7.02974983,46.592723 7.02974983,45.2024061 L7.02974983,37.308392 C7.02974983,35.9180751 6.39494591,34.7112676 5.58502366,34.6303991 L1.28524341,34.2011737 C0.572261663,34.1296362 0.0156355646,35.1156103 0.0156355646,36.3877347 L0.0156355646,43.6099178 C0.0156355646,44.8820423 0.591024341,46.0701878 1.30400609,46.2536972 Z" id="Path" fill="#67B0EC"></path>
                <path d="M9.94421907,48.4433685 L15.3635057,49.8088028 C16.3766903,50.0669601 17.280426,49.0094484 17.280426,47.4511737 L17.280426,38.6085094 C17.280426,37.0502347 16.367309,35.6910211 15.3509973,35.5914906 L9.9754902,35.0596244 C9.09364435,34.9725352 8.37440838,36.0549296 8.37440838,37.4670188 L8.37440838,45.476115 C8.3775355,46.8882042 9.06237323,48.2194249 9.94421907,48.4433685 Z" id="Path" fill="#67B0EC"></path>
                <path d="M20.660835,51.1835681 L27.5311021,52.9222418 C28.8382353,53.2550469 29.9608688,52.0855634 29.9608688,50.3126761 L29.9608688,40.2600939 C29.9608688,38.4903169 28.8507437,36.9320423 27.5436105,36.8014085 L20.6670892,36.1233568 C19.5538371,36.0144953 18.6282116,37.2213028 18.6282116,38.8044601 L18.6282116,47.7933099 C18.6313387,49.3795775 19.5475828,50.9005282 20.660835,51.1835681 Z" id="Path" fill="#67B0EC"></path>
                <path d="M1.30400609,32.5278169 L5.58189655,32.8637324 C6.3918188,32.925939 7.02974983,31.8404343 7.02974983,30.4501174 L7.02974983,22.5561033 C7.02974983,21.1657864 6.39494591,20.0802817 5.58502366,20.1424883 L1.28524341,20.4784038 C0.572261663,20.5343897 0.0156355646,21.6198944 0.0156355646,22.8920188 L0.0156355646,30.1142019 C0.0156355646,31.3894366 0.591024341,32.4749413 1.30400609,32.5278169 Z" id="Path" fill="#67B0EC"></path>
                <path d="M9.94421907,33.1996479 L15.3635057,33.6164319 C16.3766903,33.6941901 17.280426,32.4873826 17.280426,30.929108 L17.280426,22.0833333 C17.280426,20.5250587 16.367309,19.3151408 15.3509973,19.3928991 L9.9754902,19.8096831 C9.09364435,19.8781103 8.37440838,21.0880282 8.37440838,22.497007 L8.37440838,30.5061033 C8.3775355,31.9213028 9.06237323,33.1312207 9.94421907,33.1996479 Z" id="Path" fill="#113765"></path>
                <path d="M20.660835,34.033216 L27.5311021,34.5650822 C28.8382353,34.6646127 29.9608688,33.3022887 29.9608688,31.5325117 L29.9608688,21.4799296 C29.9608688,19.7101526 28.8507437,18.3447183 27.5436105,18.4473592 L20.6670892,18.9792254 C19.5538371,19.0663146 18.6282116,20.4317488 18.6282116,22.0117958 L18.6282116,31.0006455 C18.6313387,32.5838028 19.5475828,33.9492371 20.660835,34.033216 Z" id="Path" fill="#67B0EC"></path>
                <path d="M1.30400609,18.8081573 L5.58189655,18.3789319 C6.3918188,18.2980634 7.02974983,17.0943662 7.02974983,15.7040493 L7.02974983,7.81003521 C7.02974983,6.41971831 6.39494591,5.4524061 5.58502366,5.65768779 L1.28524341,6.7556338 C0.572261663,6.93914319 0.0156355646,8.1241784 0.0156355646,9.39630282 L0.0156355646,16.6184859 C0.0156355646,17.8937207 0.591024341,18.8765845 1.30400609,18.8081573 Z" id="Path" fill="#67B0EC"></path>
                <path d="M9.94421907,17.9528169 L15.3635057,17.4209507 C16.3766903,17.3214202 17.280426,15.9622066 17.280426,14.4039319 L17.280426,5.56126761 C17.280426,4.00299296 16.367309,2.94548122 15.3509973,3.20052817 L9.9754902,4.56596244 C9.09364435,4.7899061 8.37440838,6.12423709 8.37440838,7.53632629 L8.37440838,15.5454225 C8.3775355,16.9544014 9.06237323,18.0399061 9.94421907,17.9528169 Z" id="Path" fill="#67B0EC"></path>
                <path d="M20.660835,16.8828638 L27.5311021,16.2048122 C28.8382353,16.0741784 29.9608688,14.5190141 29.9608688,12.7461268 L29.9608688,2.6935446 C29.9608688,0.923767606 28.8507437,-0.248826291 27.5436105,0.0839788732 L20.6670892,1.82265258 C19.5538371,2.10569249 18.6282116,3.62975352 18.6282116,5.2129108 L18.6282116,14.1986502 C18.6313387,15.7880282 19.5475828,16.9948357 20.660835,16.8828638 Z" id="Path" fill="#67B0EC"></path>
                <path d="M59.5339757,35.8527582 C60.5502874,35.7034624 61.4978026,36.3970657 61.6635396,37.4017019 L61.6635396,36.3908451 C61.6635396,35.1187207 61.1100406,34.1327465 60.3939317,34.204284 L56.0941515,34.6335094 C55.2842292,34.7143779 54.6494253,35.9180751 54.6494253,37.3115023 L54.6494253,37.4514671 L58.0829953,36.9507042 C58.3362914,36.3784038 58.8679006,35.9460681 59.5339757,35.8527582 Z" id="Path" fill="#273759"></path>
                <path d="M60.0780933,39.56027 C59.4151454,39.6566901 58.7803414,39.3954225 58.3738168,38.9226526 L54.6494253,39.4669601 L54.6494253,45.2024061 C54.6494253,46.592723 55.2842292,47.5569249 56.0972786,47.3516432 L60.375169,46.2536972 C61.0881508,46.0732981 61.6666667,44.8851526 61.6666667,43.6130282 L61.6666667,38.0175469 C61.5322008,38.7982394 60.9099053,39.4389671 60.0780933,39.56027 Z" id="Path" fill="#273759"></path>
                <path d="M53.2985125,37.6474178 L53.2985125,37.4670188 C53.2985125,36.0549296 52.5792765,34.9725352 51.6974307,35.0596244 L46.3219236,35.5914906 C45.3056119,35.6910211 44.3924949,37.0502347 44.3924949,38.6085094 L44.3924949,44.2039906 L52.9295132,37.7002934 L53.2985125,37.6474178 Z" id="Path" fill="#273759"></path>
                <path d="M44.395622,46.4185446 L44.395622,47.454284 C44.395622,49.0125587 45.2993577,50.0700704 46.3125423,49.8119131 L51.7318289,48.4464789 C52.6136748,48.2225352 53.2985125,46.8882042 53.2985125,45.476115 L53.2985125,39.9335094 L44.9334855,46.3065728 L44.395622,46.4185446 Z" id="Path" fill="#273759"></path>
                <path d="M33.9698276,49.4324531 C32.9503888,49.6408451 31.9559669,48.9845657 31.7464503,47.9705986 C31.7339419,47.9021714 31.7214334,47.8306338 31.7151792,47.7622066 L31.7151792,50.3157864 C31.7151792,52.0855634 32.8378127,53.2581573 34.1449459,52.9253521 L41.015213,51.1835681 C42.1284652,50.9005282 43.0478364,49.3795775 43.0478364,47.7964202 L43.0478364,46.6922535 L35.3551386,48.2567488 C35.1331136,48.83527 34.6265213,49.2987089 33.9698276,49.4324531 Z" id="Path" fill="#273759"></path>
                <path d="M33.2161934,45.7591549 C33.8728871,45.6254108 34.5201995,45.8524648 34.9548682,46.3003521 L43.0509635,44.6549883 L43.0509635,38.8044601 C43.0509635,37.2213028 42.1253381,36.0144953 41.0089588,36.1233568 L34.1355646,36.8014085 C32.8284314,36.9320423 31.7183063,38.4872066 31.7183063,40.2600939 L31.7183063,47.4200704 C31.7902299,46.620716 32.3812542,45.930223 33.2161934,45.7591549 Z" id="Path" fill="#273759"></path>
                <path d="M59.7747634,24.6431338 C60.8192191,24.6431338 61.6572853,25.4860329 61.6447769,26.5217723 C61.6353955,27.5575117 60.7816937,28.3941901 59.7434922,28.3941901 C59.0711629,28.3941901 58.4863928,28.042723 58.1549189,27.5170775 L54.6462982,27.5139671 L54.6462982,30.456338 C54.6462982,31.8466549 55.2811021,32.9321596 56.0941515,32.8699531 L60.3720419,32.5340376 C61.0850237,32.4780516 61.6635396,31.3925469 61.6635396,30.1204225 L61.6635396,22.8982394 C61.6635396,21.626115 61.1100406,20.5406103 60.3939317,20.4846244 L56.0941515,20.1487089 C55.2842292,20.0865023 54.6494253,21.1688967 54.6494253,22.5623239 L54.6494253,25.5202465 L58.1736815,25.5233568 C58.5114097,24.9946009 59.1024341,24.6431338 59.7747634,24.6431338 Z" id="Path" fill="#273759"></path>
                <path d="M53.2985125,22.5001174 C53.2985125,21.0911385 52.5792765,19.8781103 51.6974307,19.8127934 L46.3219236,19.3960094 C45.3056119,19.3182512 44.3924949,20.5250587 44.3924949,22.0864437 L44.3924949,25.5109155 L53.2953854,25.5171362 L53.2953854,22.5001174 L53.2985125,22.5001174 Z" id="Path" fill="#273759"></path>
                <path d="M44.395622,30.9259977 C44.395622,32.4842723 45.2993577,33.6941901 46.3125423,33.6133216 L51.7318289,33.1965376 C52.6136748,33.1281103 53.2985125,31.9181925 53.2985125,30.5061033 L53.2985125,27.5046362 L44.395622,27.4984155 L44.395622,30.9259977 L44.395622,30.9259977 Z" id="Path" fill="#273759"></path>
                <path d="M33.56643,24.6213615 C34.2387593,24.6213615 34.8297836,24.9728286 35.1675118,25.5015845 L43.0478364,25.5078052 L43.0478364,22.0117958 C43.0478364,20.4286385 42.122211,19.0632042 41.0058316,18.9792254 L34.1324375,18.4473592 C32.8253043,18.3447183 31.7151792,19.7101526 31.7151792,21.4799296 L31.7151792,26.1920775 C31.8558993,25.2994131 32.6282961,24.6182512 33.56643,24.6213615 Z" id="Path" fill="#273759"></path>
                <path d="M33.5883198,28.3693075 C32.6439317,28.3693075 31.8558993,27.6725939 31.7151792,26.7705986 L31.7151792,31.5325117 C31.7151792,33.3022887 32.8378127,34.667723 34.1449459,34.5650822 L41.015213,34.033216 C42.1284652,33.9461268 43.0478364,32.5806925 43.0478364,30.9975352 L43.0478364,27.4984155 L35.1768932,27.4921948 C34.8485463,28.0178404 34.2606491,28.3693075 33.5883198,28.3693075 Z" id="Path" fill="#273759"></path>
                <path d="M60.0624577,13.231338 C60.900524,13.3464202 61.5322008,13.9964789 61.6635396,14.7865023 L61.6635396,9.39941315 C61.6635396,8.12728873 61.1100406,6.93914319 60.3939317,6.75874413 L56.0941515,5.66079812 C55.2842292,5.45551643 54.6494253,6.41971831 54.6494253,7.81314554 L54.6494253,13.3775235 L58.3644354,13.8907277 C58.7647059,13.4086268 59.3963827,13.1411385 60.0624577,13.231338 Z" id="Path" fill="#273759"></path>
                <path d="M59.5464841,16.9450704 C58.8804091,16.8548709 58.3456728,16.4256455 58.0892495,15.8595657 L54.6494253,15.3867958 L54.6494253,15.7040493 C54.6494253,17.0943662 55.2842292,18.2980634 56.0972786,18.3789319 L60.375169,18.8081573 C61.0881508,18.8796948 61.6666667,17.8937207 61.6666667,16.6215962 L61.6666667,15.3805751 C61.5040568,16.3883216 60.5627958,17.0850352 59.5464841,16.9450704 Z" id="Path" fill="#273759"></path>
                <path d="M44.395622,8.73069249 L44.395622,14.4008216 C44.395622,15.9590962 45.2993577,17.3183099 46.3125423,17.4178404 L51.7318289,17.9497066 C52.6136748,18.0367958 53.2985125,16.9512911 53.2985125,15.5423122 L53.2985125,15.1970657 L52.9076234,15.1441901 L44.395622,8.73069249 Z" id="Path" fill="#273759"></path>
                <path d="M53.2985125,12.9389671 L53.2985125,7.53632629 C53.2985125,6.12423709 52.5792765,4.7899061 51.6974307,4.56596244 L46.3219236,3.20052817 C45.3056119,2.94237089 44.3924949,4.00299296 44.3924949,5.56126761 L44.3924949,6.50680751 L44.8865788,6.6032277 L53.2985125,12.9389671 Z" id="Path" fill="#273759"></path>
                <path d="M33.9573191,3.57687793 C34.61714,3.70440141 35.1268594,4.16161972 35.3520115,4.74325117 L43.0478364,6.24553991 L43.0478364,5.21913146 C43.0478364,3.63597418 42.122211,2.11191315 41.0058316,1.82887324 L34.1324375,0.0901995305 C32.8253043,-0.242605634 31.7151792,0.926877934 31.7151792,2.69976526 L31.7151792,5.30622066 C31.7214334,5.22535211 31.7276876,5.14137324 31.7464503,5.06050469 C31.9465855,4.0403169 32.9347532,3.3778169 33.9573191,3.57687793 Z" id="Path" fill="#273759"></path>
                <path d="M33.2318289,7.25328638 C32.3687458,7.08532864 31.765213,6.35751174 31.7151792,5.52705399 L31.7151792,12.7461268 C31.7151792,14.5159038 32.8378127,16.0741784 34.1449459,16.2048122 L41.015213,16.8828638 C42.1284652,16.9948357 43.0478364,15.7849178 43.0478364,14.2017606 L43.0478364,8.27347418 L34.9642495,6.69653756 C34.535835,7.15064554 33.8916498,7.38392019 33.2318289,7.25328638 Z" id="Path" fill="#273759"></path>
            </g>
            <g id="Group" transform="translate(77.000000, 10.000000)">
                <path d="M197.74149,14.0935252 L197.74149,0.567317575 L197.918613,0.675231244 C198.266646,0.887975334 198.5401,1.14696814 198.723438,1.45529291 C198.900562,1.75128469 198.996893,2.09352518 198.996893,2.48201439 L198.996893,14.0935252 C198.996893,14.7440904 198.726546,15.336074 198.291505,15.7615622 C197.856465,16.1901336 197.25673,16.4522097 196.594847,16.4522097 L193.906918,16.4522097 C193.245034,16.4522097 192.6453,16.1870504 192.213367,15.7615622 C191.778326,15.336074 191.507979,14.7440904 191.507979,14.0935252 L191.507979,0.178828366 L192.763382,0.178828366 L192.763382,14.0935252 C192.763382,14.4018499 192.890787,14.6855087 193.098985,14.8890031 C193.304076,15.0924974 193.593067,15.2189106 193.906918,15.2189106 L196.594847,15.2189106 C196.911805,15.2189106 197.197689,15.0924974 197.405887,14.8890031 C197.610978,14.6855087 197.74149,14.4049332 197.74149,14.0935252 Z" id="Path" fill="#67B0EC"></path>
                <path d="M183.699001,1.75745118 C183.49391,1.96094553 183.363398,2.24768756 183.363398,2.55909558 L183.363398,7.43371017 L189.593801,7.43371017 L189.593801,8.67934224 L183.363398,8.67934224 L183.363398,14.0719424 C183.363398,14.3864337 183.490803,14.6700925 183.699001,14.8735868 C183.907199,15.0801644 184.193082,15.2065776 184.510041,15.2065776 L189.596908,15.2065776 L189.596908,16.4522097 L184.510041,16.4522097 C183.848157,16.4522097 183.248423,16.1870504 182.813382,15.7553957 C182.378342,15.323741 182.111102,14.7286742 182.111102,14.0719424 L182.111102,2.55909558 C182.111102,1.90236382 182.378342,1.30729702 182.813382,0.875642343 C183.248423,0.443987667 183.848157,0.178828366 184.510041,0.178828366 L189.596908,0.178828366 L189.596908,1.42446043 L184.510041,1.42446043 C184.193082,1.42446043 183.907199,1.55087359 183.699001,1.75745118 Z" id="Path" fill="#67B0EC"></path>
                <path d="M116.556699,22.4491264 L132.777498,22.4491264 C135.937758,22.4491264 138.498282,19.9085303 138.498282,16.7728674 L138.498282,13.1593011 C138.498282,10.0236382 135.937758,7.48304214 132.777498,7.48304214 L115.133495,7.48304214 C111.973235,7.48304214 109.412711,10.0236382 109.412711,13.1593011 L109.412711,24.2929085 C109.412711,27.4285714 111.973235,29.9722508 115.133495,29.9722508 L132.777498,29.9722508 L132.777498,27.4316547 L115.133495,27.4316547 C113.390225,27.4316547 111.973235,26.0256937 111.973235,24.2959918 L111.973235,13.1623844 C111.973235,11.4326824 113.390225,10.0267215 115.133495,10.0267215 L132.777498,10.0267215 C134.520768,10.0267215 135.937758,11.4357657 135.937758,13.1623844 L135.937758,16.7728674 C135.937758,18.5025694 134.520768,19.9085303 132.777498,19.9085303 L116.556699,19.9085303 L116.556699,22.4491264 Z" id="Path" fill="#1A3762"></path>
                <path d="M59.7435041,22.4491264 L75.9643036,22.4491264 C79.1245628,22.4491264 81.6850874,19.9085303 81.6850874,16.7728674 L81.6850874,13.1593011 C81.6850874,10.0236382 79.1245628,7.48304214 75.9643036,7.48304214 L58.3202998,7.48304214 C55.1600406,7.48304214 52.5995159,10.0236382 52.5995159,13.1593011 L52.5995159,24.2929085 C52.5995159,27.4285714 55.1600406,29.9722508 58.3202998,29.9722508 L75.9643036,29.9722508 L75.9643036,27.4316547 L58.3202998,27.4316547 C56.57703,27.4316547 55.1600406,26.0256937 55.1600406,24.2959918 L55.1600406,13.1623844 C55.1600406,11.4326824 56.57703,10.0267215 58.3202998,10.0267215 L75.9643036,10.0267215 C77.7075734,10.0267215 79.1245628,11.4357657 79.1245628,13.1623844 L79.1245628,16.7728674 C79.1245628,18.5025694 77.704466,19.9085303 75.9643036,19.9085303 L59.7435041,19.9085303 L59.7435041,22.4491264 Z" id="Path" fill="#1A3762"></path>
                <path d="M164.426702,7.48304214 L146.782698,7.48304214 C143.622439,7.48304214 141.058807,10.0236382 141.058807,13.1593011 L141.058807,24.2929085 C141.058807,27.4285714 143.619332,29.9722508 146.782698,29.9722508 L164.358339,29.9722508 L164.358339,27.4316547 L146.782698,27.4316547 C145.039428,27.4316547 143.622439,26.0256937 143.622439,24.2959918 L143.622439,13.1623844 C143.622439,11.4326824 145.039428,10.0267215 146.782698,10.0267215 L164.426702,10.0267215 L164.426702,7.48304214 L164.426702,7.48304214 Z" id="Path" fill="#1A3762"></path>
                <rect id="Rectangle" fill="#1A3762" x="0.512726421" y="7.48304214" width="2.56052467" height="22.4892086"></rect>
                <path d="M37.4072767,29.9722508 L37.4072767,13.1593011 C37.4072767,10.0236382 34.846752,7.48304214 31.6864928,7.48304214 L14.0424891,7.48304214 C10.8822299,7.48304214 8.32170518,10.0236382 8.32170518,13.1593011 L8.32170518,29.9722508 L10.8822299,29.9722508 L10.8822299,13.1593011 C10.8822299,11.4295992 12.3023267,10.0236382 14.0424891,10.0236382 L31.6864928,10.0236382 C33.4297626,10.0236382 34.846752,11.4326824 34.846752,13.1593011 L34.846752,29.9722508 L37.4072767,29.9722508 L37.4072767,29.9722508 Z" id="Path" fill="#1A3762"></path>
                <path d="M50.0358838,10.0236382 L50.0358838,7.48304214 L42.5314335,7.48304214 L42.5314335,0.0215827338 L39.9709088,0.0215827338 L39.9709088,24.2959918 C39.9709088,27.4316547 42.5314335,29.975334 45.6916927,29.975334 L50.0358838,29.975334 L50.0358838,27.4347379 L45.6916927,27.4347379 C43.9484229,27.4347379 42.5314335,26.028777 42.5314335,24.299075 L42.5314335,10.0267215 L50.0358838,10.0267215 L50.0358838,10.0236382 Z" id="Path" fill="#1A3762"></path>
                <path d="M177.052202,10.0236382 L177.052202,7.48304214 L169.547751,7.48304214 L169.547751,0.0215827338 L166.987227,0.0215827338 L166.987227,24.2959918 C166.987227,27.4316547 169.550859,29.975334 172.708011,29.975334 L177.052202,29.975334 L177.052202,27.4347379 L172.708011,27.4347379 C170.964741,27.4347379 169.547751,26.028777 169.547751,24.299075 L169.547751,10.0267215 L177.052202,10.0267215 L177.052202,10.0236382 Z" id="Path" fill="#1A3762"></path>
                <path d="M94.3136946,27.4285714 L89.9695034,27.4285714 C88.2262336,27.4285714 86.8092442,26.0226105 86.8092442,24.2929085 L86.8092442,0.0184994861 L84.2487196,0.0184994861 L84.2487196,24.2929085 C84.2487196,27.4285714 86.8092442,29.9722508 89.9726109,29.9722508 L94.316802,29.9722508 L94.316802,27.4285714 L94.3136946,27.4285714 Z" id="Path" fill="#1A3762"></path>
                <path d="M106.942302,27.4285714 L102.598111,27.4285714 C100.854841,27.4285714 99.4378513,26.0226105 99.4378513,24.2929085 L99.4378513,0.0184994861 L96.8773267,0.0184994861 L96.8773267,24.2929085 C96.8773267,27.4285714 99.4378513,29.9722508 102.601218,29.9722508 L106.945409,29.9722508 L106.945409,27.4285714 L106.942302,27.4285714 Z" id="Path" fill="#1A3762"></path>
                <path d="M3.4337133,2.4696814 C3.52072142,2.2631038 3.56733292,2.03186023 3.56733292,1.78828366 C3.56733292,1.54162384 3.52382886,1.30729702 3.43060587,1.09146968 C3.34049032,0.875642343 3.216193,0.684480987 3.0546065,0.524152107 C2.89612742,0.366906475 2.70657402,0.243576567 2.48594628,0.151079137 C2.26531855,0.0616649538 2.03226109,0.0184994861 1.78366646,0.0184994861 C1.53507183,0.0184994861 1.31133666,0.0616649538 1.0969238,0.151079137 C0.882510931,0.243576567 0.699172392,0.363823227 0.537585884,0.527235355 C0.375999375,0.687564234 0.251702061,0.872559096 0.161586508,1.09146968 C0.0714709557,1.31038027 0.0248594628,1.54470709 0.0248594628,1.78828366 C0.0248594628,2.27852004 0.192660837,2.68550874 0.534478451,3.02466598 C0.879403498,3.36690647 1.2864772,3.53340185 1.78366646,3.53340185 C2.03536852,3.53340185 2.26531855,3.49023638 2.48905372,3.39773895 C2.70968145,3.30832477 2.89612742,3.18499486 3.05771393,3.02466598 C3.216193,2.86742035 3.34359775,2.68242549 3.4337133,2.4696814 Z" id="Path" fill="#1A3762"></path>
            </g>
        </g>
    </g>
</svg>