<svg width="198" height="39" viewBox="0 0 198 39" fill="none" xmlns="http://www.w3.org/2000/svg">
<path d="M23.1085 20.6942C22.6403 28.9796 17.8303 34.2718 13.4459 36.701C13.5736 35.2261 13.0628 33.7512 12.0412 32.7101C10.1257 30.6713 6.89067 30.5846 4.89004 32.58C4.63464 32.8403 4.20898 32.8403 3.95358 32.58C3.95358 32.58 3.95358 32.58 3.91101 32.5366C2.12322 30.4978 0.803656 28.0686 0.0374585 25.4225C-0.090241 25.0754 0.122592 24.685 0.463124 24.5549C2.59145 23.9476 4.08128 21.9955 4.12384 19.7832C7.742 23.3837 12.6371 25.2056 18.0857 25.2923C19.6181 25.3357 22.4274 24.2079 23.1085 20.6942Z" fill="url(#paint0_radial)"/>
<path d="M31.6219 20.3473C31.5793 22.603 32.984 24.6418 35.1123 25.3359C35.4528 25.466 35.6231 25.8564 35.538 26.2034C34.6441 28.8062 33.2394 31.1486 31.409 33.1441C31.1536 33.4044 30.728 33.4044 30.4726 33.1441C30.4726 33.1441 30.4726 33.1441 30.43 33.1007C28.5145 31.0619 25.2794 30.9751 23.2788 32.9706C22.0018 34.2286 21.4485 36.0939 21.8741 37.8724C21.9593 38.2194 21.7039 38.6098 21.3633 38.6532C21.3633 38.6532 21.3633 38.6532 21.3208 38.6532C18.8093 39.1304 16.2553 39.087 13.7439 38.4797C13.4034 38.3929 13.148 38.0459 13.2331 37.6989C13.2331 37.6989 13.2331 37.6989 13.2331 37.6555C13.3182 37.3085 13.4034 36.9181 13.4459 36.571C19.1073 33.1441 22.9808 27.2012 23.1085 20.0436C23.1511 17.571 21.1931 14.708 17.9154 14.6646C22.6403 12.9295 28.0463 16.5733 31.6219 20.0002" fill="url(#paint1_radial)"/>
<path d="M12.8926 18.4816C13.4885 11.0638 16.1702 6.81268 22.3423 3.38574C22.2146 4.86063 22.7254 6.29214 23.747 7.33323C25.6625 9.37204 28.8976 9.4588 30.8982 7.46337L30.9408 7.41999C31.1962 7.15971 31.6218 7.15971 31.8772 7.41999C31.8772 7.41999 31.8772 7.41999 31.9198 7.46337C33.7076 9.54556 34.9846 11.9748 35.7508 14.5775C35.8785 14.9246 35.6657 15.315 35.3251 15.4017C33.1968 16.009 31.707 17.9611 31.6218 20.2168C28.0463 16.7899 23.2788 14.7077 18.0006 14.6209C16.4682 14.6643 13.8716 15.4885 12.8926 18.4816Z" fill="url(#paint2_radial)"/>
<path d="M17.362 25.2921C12.6797 25.4656 6.59272 22.7761 4.12387 19.7829V19.7396C4.16643 17.4839 2.76174 15.445 0.633412 14.751C0.29288 14.6208 0.0800471 14.2304 0.207747 13.8834C1.05908 11.2807 2.46377 8.89481 4.3367 6.89938C4.5921 6.6391 5.01776 6.6391 5.27316 6.89938C5.27316 6.89938 5.27316 6.89938 5.31573 6.94275L5.35829 6.98613C7.27379 9.02495 10.5088 9.1117 12.5095 7.11627C13.829 5.8149 14.3398 3.9496 13.9142 2.12769C13.829 1.78065 14.0419 1.39024 14.425 1.30348H14.4675C16.979 0.826316 19.5755 0.869695 22.0444 1.477C22.3849 1.56376 22.6403 1.91079 22.5552 2.3012C22.5552 2.3012 22.5552 2.3012 22.5552 2.3012C22.47 2.64823 22.3849 2.99527 22.3423 3.38568C17.1067 6.42221 13.4034 11.9747 12.8926 18.4816C12.5946 19.4793 12.5946 20.5204 12.8926 21.4747C13.3182 23.1231 14.8506 25.0318 17.362 25.2921Z" fill="url(#paint3_radial)"/>
<path d="M53.192 29.984C51.7841 29.3361 50.6577 28.5443 49.9538 27.4645C49.2498 26.4567 48.8275 25.3049 48.7571 24.0812C48.7571 23.8652 48.8275 23.7212 48.9683 23.5772C49.1091 23.4333 49.3202 23.3613 49.5314 23.3613H51.2209C51.6433 23.3613 51.9249 23.5772 52.136 24.0812C52.3472 25.089 52.9808 26.0248 53.9663 26.7446C54.9519 27.4645 56.3598 27.8964 58.2604 27.8244C60.2315 27.8244 61.7098 27.4645 62.6953 26.7446C63.6809 26.0248 64.1736 25.017 64.1736 23.7212C64.1736 22.8574 63.9625 22.2095 63.4697 21.7056C62.9769 21.2017 62.273 20.6978 61.3578 20.2659C60.3723 19.834 58.9644 19.4021 57.0637 18.7542C55.163 18.1783 53.7551 17.6024 52.7696 17.0265C51.7137 16.3787 50.8689 15.6588 50.3762 14.795C49.813 13.9311 49.6018 12.7794 49.5314 11.4116C49.5314 10.1879 49.8834 8.89212 50.517 7.88432C51.2209 6.87651 52.2064 6.01268 53.4736 5.43679C54.7407 4.86091 56.2894 4.50098 58.0493 4.50098C59.8795 4.50098 61.4282 4.86091 62.7657 5.50878C64.1032 6.15665 65.0888 7.02048 65.7223 8.02829C66.4263 9.03609 66.7783 10.0439 66.7783 11.1237C66.7783 11.3396 66.7079 11.5556 66.5671 11.6996C66.4263 11.8435 66.2151 11.9155 66.0039 11.9155H64.244C64.0328 11.9155 63.8921 11.8435 63.6809 11.6996C63.5401 11.5556 63.3993 11.3396 63.3289 11.1237C63.1881 10.0439 62.6249 9.18006 61.6394 8.53219C60.6539 7.88432 59.4572 7.52439 57.9789 7.52439C56.3598 7.52439 55.0926 7.81233 54.1775 8.4602C53.2624 9.10808 52.7696 10.0439 52.7696 11.3396C52.7696 12.2035 52.9808 12.9233 53.4032 13.4272C53.8255 14.0031 54.5295 14.435 55.3742 14.867C56.2894 15.2989 57.5565 15.7308 59.3164 16.3067C61.2874 16.8826 62.8361 17.4584 64.0329 18.0343C65.1592 18.6102 66.0039 19.3301 66.5671 20.1939C67.1302 21.0577 67.4118 22.2095 67.4118 23.5772C67.4118 25.8808 66.5671 27.6804 64.8776 28.9762C63.1881 30.2719 60.9355 30.9198 58.0493 30.9198C56.2894 30.9198 54.5999 30.6319 53.192 29.984Z" fill="#363636"/>
<path d="M74.3809 37.3268C74.2401 37.1829 74.1697 37.0389 74.1697 36.8229C74.2401 36.607 74.2401 36.391 74.3809 36.1751L77.1263 29.4804L70.4388 12.9236C70.298 12.6357 70.2276 12.4197 70.2276 12.2757C70.2276 12.0598 70.298 11.8438 70.4388 11.6998C70.5796 11.5559 70.7204 11.4839 70.9316 11.4839H72.5506C72.9026 11.4839 73.1842 11.6998 73.3954 12.0598L78.8158 25.5211L84.3771 12.0598C84.5882 11.6998 84.8698 11.4839 85.2218 11.4839H86.8409C87.0521 11.4839 87.1929 11.5559 87.3337 11.6998C87.4744 11.8438 87.5448 11.9878 87.5448 12.2037C87.5448 12.4197 87.4744 12.6357 87.3337 12.8516L77.4079 36.8949C77.3375 37.0389 77.1967 37.1829 77.0559 37.3268C76.9152 37.3988 76.704 37.4708 76.5632 37.4708H75.0145C74.6625 37.5428 74.4513 37.4708 74.3809 37.3268Z" fill="#363636"/>
<path d="M92.5429 30.1284C91.4166 29.5525 90.5718 28.9766 90.0791 28.2567C89.5159 27.5369 89.3047 26.961 89.2343 26.5291C89.2343 26.3131 89.3047 26.0972 89.4455 25.9532C89.5863 25.8092 89.7975 25.7372 90.0087 25.7372H91.487C91.6278 25.7372 91.6982 25.7372 91.8389 25.8092C91.9797 25.8812 92.0501 26.0252 92.1909 26.1692C92.6837 26.817 93.3172 27.3929 94.0212 27.7528C94.6548 28.1128 95.5699 28.3287 96.6962 28.3287C97.9633 28.3287 98.9489 28.1128 99.7232 27.6089C100.498 27.105 100.85 26.3851 100.85 25.4493C100.85 24.8014 100.709 24.3695 100.357 24.0096C100.005 23.6496 99.512 23.2897 98.7377 23.0018C97.9633 22.7138 96.837 22.4259 95.3587 22.066C93.3173 21.634 91.9093 20.9142 91.0646 20.0503C90.2199 19.1865 89.7975 18.0347 89.7975 16.667C89.7975 15.7312 90.0791 14.7954 90.5718 14.0755C91.0646 13.2117 91.8389 12.5638 92.8949 12.0599C93.8804 11.556 95.1475 11.2681 96.5554 11.2681C98.0337 11.2681 99.3008 11.556 100.357 12.0599C101.413 12.5638 102.187 13.1397 102.68 13.8596C103.243 14.5794 103.454 15.1553 103.454 15.5872C103.454 15.8032 103.384 16.0191 103.243 16.1631C103.102 16.3071 102.891 16.3791 102.68 16.3791H101.272C100.92 16.3791 100.709 16.2351 100.568 15.9472C100.146 15.5152 99.864 15.1553 99.5824 14.8674C99.3009 14.5794 98.9489 14.3635 98.3857 14.2195C97.8929 14.0755 97.2594 13.9315 96.4146 13.9315C95.2883 13.9315 94.3732 14.1475 93.7396 14.6514C93.1061 15.1553 92.8245 15.8032 92.8245 16.667C92.8245 17.0989 92.9653 17.6028 93.2469 17.9628C93.5284 18.3227 94.0212 18.6106 94.7252 18.9706C95.4291 19.3305 96.5554 19.6184 97.9633 19.9064C100.216 20.4103 101.765 21.0582 102.68 21.994C103.595 22.9298 104.088 24.0816 104.088 25.4493C104.088 26.4571 103.806 27.4649 103.243 28.3287C102.68 29.1926 101.835 29.8404 100.709 30.3443C99.5824 30.8482 98.2449 31.0642 96.6258 31.0642C95.0771 30.9202 93.6692 30.7043 92.5429 30.1284Z" fill="#363636"/>
<path d="M110.494 28.3289C108.804 26.6012 107.889 24.1537 107.819 21.2023C107.819 20.4824 107.748 19.3306 107.748 17.7469C107.748 16.1633 107.748 15.0115 107.819 14.2916C107.889 11.3402 108.804 8.96466 110.494 7.237C112.183 5.50934 114.577 4.64551 117.604 4.64551C119.645 4.64551 121.405 5.00544 122.813 5.79728C124.221 6.58913 125.347 7.52494 126.051 8.60473C126.755 9.68452 127.177 10.6923 127.248 11.6281V11.7001C127.248 11.9161 127.177 12.0601 127.037 12.204C126.896 12.348 126.685 12.42 126.544 12.42H124.573C124.432 12.42 124.221 12.348 124.08 12.276C124.01 12.204 123.869 11.9881 123.798 11.7001C123.446 10.5484 122.742 9.61254 121.757 8.82069C120.771 8.02885 119.363 7.66892 117.674 7.66892C115.703 7.66892 114.154 8.2448 113.028 9.32459C111.902 10.4764 111.338 12.204 111.268 14.5076C111.268 15.2274 111.198 16.3072 111.198 17.7469C111.198 19.1867 111.198 20.2664 111.268 20.9863C111.338 23.3618 111.902 25.0895 113.028 26.2413C114.154 27.3931 115.703 27.897 117.674 27.897C119.645 27.897 121.264 27.3211 122.461 26.1693C123.658 25.0175 124.221 23.3618 124.221 21.0583V19.4746H118.871C118.66 19.4746 118.448 19.4026 118.308 19.1867C118.167 19.0427 118.096 18.8267 118.096 18.5388V17.459C118.096 17.243 118.167 17.0271 118.308 16.8111C118.448 16.6672 118.66 16.5232 118.871 16.5232H126.755C126.966 16.5232 127.177 16.5952 127.389 16.7391C127.529 16.8831 127.6 17.1711 127.6 17.387V20.8423C127.6 22.8579 127.177 24.5856 126.403 26.0973C125.629 27.609 124.432 28.8328 122.954 29.5526C121.475 30.3445 119.715 30.7764 117.674 30.7764C114.577 30.9204 112.183 30.0565 110.494 28.3289Z" fill="#363636"/>
<path d="M133.654 28.6161C132.246 27.0324 131.471 24.9448 131.331 22.2814L131.26 21.0576L131.331 19.8338C131.471 17.1704 132.246 15.0828 133.654 13.4991C135.062 11.9154 136.962 11.1235 139.356 11.1235C141.96 11.1235 143.931 11.9874 145.339 13.715C146.747 15.4427 147.451 17.7462 147.451 20.6977V21.3455C147.451 21.5615 147.381 21.7775 147.24 21.9214C147.099 22.0654 146.888 22.1374 146.677 22.1374H134.498V22.4973C134.569 24.081 135.062 25.4487 135.906 26.6005C136.751 27.7523 137.948 28.2562 139.356 28.2562C140.482 28.2562 141.327 28.0402 142.031 27.6083C142.735 27.1764 143.227 26.6725 143.579 26.1686C143.791 25.8806 143.931 25.6647 144.072 25.6647C144.213 25.5927 144.354 25.5927 144.635 25.5927H146.184C146.395 25.5927 146.606 25.6647 146.747 25.8087C146.888 25.9526 146.958 26.0966 146.958 26.3126C146.958 26.8884 146.677 27.4643 146.043 28.2562C145.41 28.976 144.495 29.6959 143.368 30.1998C142.242 30.7757 140.904 30.9916 139.356 30.9916C136.962 30.9197 135.062 30.1998 133.654 28.6161ZM144.283 19.6899V19.5459C144.283 17.8182 143.861 16.4505 142.946 15.3707C142.031 14.2909 140.834 13.787 139.356 13.787C137.807 13.787 136.61 14.2909 135.766 15.3707C134.921 16.4505 134.498 17.8182 134.498 19.5459V19.6899H144.283Z" fill="#363636"/>
<path d="M153.646 30.1998C152.731 29.7679 151.886 29.048 151.323 28.1842C150.76 27.3923 150.478 26.3845 150.478 25.3767C150.478 23.7931 151.112 22.4253 152.379 21.4175C153.646 20.4097 155.336 19.6899 157.518 19.4019L162.797 18.6101V17.5303C162.797 15.0108 161.39 13.787 158.644 13.715C157.588 13.715 156.673 13.931 156.039 14.3629C155.406 14.7948 154.913 15.3707 154.632 15.9466C154.561 16.1625 154.491 16.3065 154.35 16.4505C154.209 16.5225 154.068 16.5945 153.928 16.5945H152.59C152.379 16.5945 152.168 16.5225 152.027 16.3785C151.886 16.2345 151.816 16.0186 151.816 15.8026C151.816 15.2267 152.097 14.5789 152.59 13.859C153.083 13.1391 153.857 12.4913 154.913 11.9154C155.969 11.3395 157.236 11.1235 158.785 11.1235C161.39 11.1235 163.29 11.7714 164.417 13.0672C165.543 14.3629 166.106 15.9466 166.106 17.8182V29.6959C166.106 29.9119 166.036 30.1278 165.895 30.2718C165.754 30.4158 165.543 30.4877 165.332 30.4877H163.783C163.572 30.4877 163.361 30.4158 163.22 30.2718C163.079 30.1278 163.009 29.9119 163.009 29.6959V28.1122C162.516 28.9041 161.742 29.6239 160.756 30.1278C159.77 30.6317 158.503 30.9197 156.955 30.9197C155.758 30.9197 154.632 30.7037 153.646 30.1998ZM161.319 26.6725C162.305 25.5927 162.797 24.081 162.797 22.0654V21.0576L158.715 21.7055C157.025 21.9214 155.758 22.3533 154.913 22.9292C154.068 23.5051 153.646 24.225 153.646 25.1608C153.646 26.1686 154.068 26.9604 154.843 27.4643C155.617 28.0402 156.532 28.2562 157.659 28.2562C159.066 28.2562 160.334 27.7523 161.319 26.6725Z" fill="#363636"/>
<path d="M171.315 30.3439C171.174 30.1999 171.104 29.984 171.104 29.768V12.4194C171.104 12.2035 171.174 11.9875 171.315 11.7716C171.456 11.6276 171.667 11.4836 171.878 11.4836H173.357C173.568 11.4836 173.779 11.5556 173.99 11.6996C174.131 11.8435 174.201 12.1315 174.201 12.3474V13.9311C175.187 12.2755 176.806 11.4116 179.059 11.4116H180.396C180.607 11.4116 180.819 11.4836 180.959 11.6276C181.1 11.7716 181.171 11.9875 181.171 12.2755V13.7152C181.171 13.9311 181.1 14.1471 180.959 14.2911C180.819 14.435 180.607 14.579 180.396 14.507H178.425C177.158 14.507 176.102 14.8669 175.398 15.6588C174.694 16.4506 174.272 17.5304 174.272 18.8262V29.6241C174.272 29.84 174.201 30.056 174.061 30.1999C173.92 30.3439 173.709 30.4159 173.497 30.4159H171.878C171.667 30.5599 171.456 30.4879 171.315 30.3439Z" fill="#363636"/>
<path d="M186.45 30.1284C185.324 29.5525 184.479 28.9766 183.986 28.2567C183.423 27.5369 183.212 26.961 183.142 26.5291C183.142 26.3131 183.212 26.0972 183.353 25.9532C183.494 25.8092 183.705 25.7372 183.845 25.7372H185.324C185.465 25.7372 185.535 25.7372 185.676 25.8092C185.817 25.8812 185.887 26.0252 186.028 26.1692C186.521 26.817 187.154 27.3929 187.858 27.7528C188.492 28.1128 189.407 28.3287 190.533 28.3287C191.8 28.3287 192.786 28.1128 193.56 27.6089C194.334 27.105 194.686 26.3851 194.686 25.4493C194.686 24.8014 194.546 24.3695 194.194 24.0096C193.842 23.6496 193.349 23.2897 192.575 23.0018C191.8 22.7138 190.674 22.4259 189.196 22.066C187.154 21.634 185.746 20.9142 184.901 20.0503C184.057 19.1865 183.634 18.0347 183.634 16.667C183.634 15.7312 183.916 14.7954 184.409 14.0755C184.901 13.2117 185.676 12.5638 186.732 12.0599C187.717 11.556 188.984 11.2681 190.392 11.2681C191.871 11.2681 193.138 11.556 194.194 12.0599C195.25 12.5638 196.024 13.1397 196.517 13.8596C197.08 14.5794 197.291 15.1553 197.291 15.5872C197.291 15.8032 197.221 16.0191 197.08 16.1631C196.939 16.3071 196.728 16.3791 196.517 16.3791H195.179C194.827 16.3791 194.616 16.2351 194.475 15.9472C194.053 15.5152 193.771 15.1553 193.49 14.8674C193.208 14.5794 192.856 14.3635 192.293 14.2195C191.8 14.0755 191.167 13.9315 190.322 13.9315C189.196 13.9315 188.28 14.1475 187.647 14.6514C187.013 15.1553 186.732 15.8032 186.732 16.667C186.732 17.0989 186.872 17.6028 187.154 17.9628C187.436 18.3227 187.928 18.6106 188.632 18.9706C189.336 19.2585 190.463 19.6184 191.871 19.9064C194.123 20.4103 195.672 21.0582 196.587 21.994C197.502 22.9298 197.995 24.0816 197.995 25.4493C197.995 26.4571 197.713 27.4649 197.15 28.3287C196.587 29.1926 195.742 29.8404 194.616 30.3443C193.49 30.8482 192.152 31.0642 190.533 31.0642C188.984 30.9202 187.576 30.7043 186.45 30.1284Z" fill="#363636"/>
<defs>
<radialGradient id="paint0_radial" cx="0" cy="0" r="1" gradientUnits="userSpaceOnUse" gradientTransform="translate(27.1739 30.0596) scale(14.3865 14.6611)">
<stop offset="0.00493132" stop-color="#01243D"/>
<stop offset="1" stop-color="#0499FF"/>
</radialGradient>
<radialGradient id="paint1_radial" cx="0" cy="0" r="1" gradientUnits="userSpaceOnUse" gradientTransform="translate(28.8766 9.34857) scale(14.7243 15.0053)">
<stop offset="0.01" stop-color="#01243D"/>
<stop offset="1" stop-color="#0499FF"/>
</radialGradient>
<radialGradient id="paint2_radial" cx="0" cy="0" r="1" gradientUnits="userSpaceOnUse" gradientTransform="translate(8.12465 10.248) rotate(91.1243) scale(14.4964 14.2251)">
<stop offset="0.01" stop-color="#01243D"/>
<stop offset="1" stop-color="#0499FF"/>
</radialGradient>
<radialGradient id="paint3_radial" cx="0" cy="0" r="1" gradientUnits="userSpaceOnUse" gradientTransform="translate(9.18915 35.0735) rotate(119.421) scale(22.1993 16.4967)">
<stop offset="0.01" stop-color="#01243D"/>
<stop offset="1" stop-color="#0499FF"/>
</radialGradient>
</defs>
</svg>
