<svg width="426" height="63" viewBox="0 0 426 63" fill="none" xmlns="http://www.w3.org/2000/svg">
<path d="M18.5936 14.7952H0V1.2085H54.2243V14.7952H35.7176V61.7859H18.5936V14.7952Z" fill="black"/>
<path d="M117.875 48.5454V61.7859H69.2714V1.2085H116.751V14.4489H86.2228V24.6611H113.119V37.4683H86.2228V48.5454H117.875Z" fill="black"/>
<path d="M149.055 58.975C144.01 56.2917 140.047 52.5571 137.164 47.7689C134.281 42.9805 132.84 37.5568 132.84 31.5C132.84 25.4421 134.281 20.0195 137.164 15.2312C140.047 10.4429 144.01 6.7071 149.055 4.02375C154.1 1.34042 159.793 0 166.136 0C171.671 0 176.657 0.981738 181.097 2.94274C185.536 4.90497 189.226 7.73227 192.168 11.4234L181.27 21.2892C177.348 16.5592 172.592 14.1924 167 14.1924C163.713 14.1924 160.788 14.9147 158.222 16.3557C155.656 17.7978 153.667 19.8321 152.255 22.4572C150.841 25.0833 150.137 28.0968 150.137 31.5C150.137 34.9044 150.842 37.9191 152.255 40.543C153.667 43.1692 155.656 45.2021 158.222 46.6443C160.788 48.0865 163.715 48.8077 167 48.8077C172.592 48.8077 177.348 46.4419 181.27 41.7108L192.168 51.5766C189.226 55.2689 185.536 58.0964 181.097 60.0573C176.657 62.0183 171.671 63 166.136 63C159.793 63 154.1 61.6584 149.055 58.975Z" fill="black"/>
<path d="M266.02 1.2085V61.7859H248.895V38.1608H225.545V61.7859H208.422V1.2085H225.545V23.9685H248.895V1.2085H266.02Z" fill="black"/>
<path d="M286.779 1.2085H303.902V61.7859H286.779V1.2085Z" fill="black"/>
<path d="M324.741 1.2085H341.866V61.7859H324.741V1.2085Z" fill="black"/>
<path d="M403.268 50.0172H377.671L372.914 61.787H355.444L382.167 1.2085H399.032L425.841 61.7858H408.025L403.268 50.0172ZM398.253 37.3825L390.47 17.9972L382.688 37.3825H398.253Z" fill="black"/>
</svg>
