<svg width="1920" height="2140" viewBox="0 0 1920 2140" fill="none" xmlns="http://www.w3.org/2000/svg">
<rect x="191" y="320.726" width="813.94" height="813.94" transform="rotate(-21.5315 191 320.726)" fill="#040120"/>
<rect x="191" y="320.726" width="813.94" height="813.94" transform="rotate(-21.5315 191 320.726)" fill="url(#paint0_linear)"/>
<g filter="url(#filter0_ddddd)">
<path d="M116.683 332.492L1470.4 -1190.32L2508.47 1237H930.391L116.683 332.492Z" stroke="white" stroke-width="4"/>
</g>
<g filter="url(#filter1_dddd)">
<path d="M116.683 332.492L1470.4 -1190.32L2508.47 1237H930.391L116.683 332.492Z" stroke="white" stroke-width="4"/>
</g>
<g filter="url(#filter2_dddd)">
<path d="M116.683 332.492L1470.4 -1190.32L2508.47 1237H930.391L116.683 332.492Z" stroke="white" stroke-width="4"/>
</g>
<g filter="url(#filter3_dddd)">
<path d="M827.5 -150L187.5 564.5L728 1161L-142 2124.5" stroke="white" stroke-width="4"/>
</g>
<g filter="url(#filter4_dddd)">
<path d="M827.5 -150L187.5 564.5L728 1161L-142 2124.5" stroke="white" stroke-width="4"/>
</g>
<g filter="url(#filter5_d)">
<rect x="20.2405" y="-605.411" width="1047.4" height="1568.58" transform="rotate(21.2554 20.2405 -605.411)" stroke="white" stroke-width="4"/>
</g>
<path d="M467 621.5C467 601.5 450 572.5 412 563L445.088 613.921L443.276 676.687L463.5 680C465.083 668.072 467 641.5 467 621.5Z" fill="#A242AC"/>
<path d="M467 621.5C467 601.5 450 572.5 412 563L445.088 613.921L443.276 676.687L463.5 680C465.083 668.072 467 641.5 467 621.5Z" fill="url(#paint1_linear)"/>
<path d="M395.5 745.5L380.5 735.5L482 706L488.5 721L395.5 745.5Z" fill="#842983"/>
<path d="M395.5 745.5L380.5 735.5L482 706L488.5 721L395.5 745.5Z" fill="url(#paint2_radial)"/>
<path d="M396 678.5L378.5 671L390.5 631.5C383.166 624.5 371.7 608.2 384.5 599C397.3 589.8 407.833 605.167 411.5 614L396 678.5Z" fill="#631D62"/>
<path d="M396 678.5L378.5 671L390.5 631.5C383.166 624.5 371.7 608.2 384.5 599C397.3 589.8 407.833 605.167 411.5 614L396 678.5Z" fill="url(#paint3_angular)"/>
<path d="M468.776 661.669L481.342 706.22L381.863 734.278L405.114 627.634L405.916 623.998C406.569 621.135 406.557 618.501 405.878 616.095C404.16 610.004 399.73 607.966 392.586 609.981C389.804 610.766 387.657 612.508 386.146 615.207C384.688 617.81 384.352 620.502 385.137 623.284C386.027 626.442 388.187 628.918 391.615 630.711L381.802 671.467C372.089 668.687 363.901 663.975 357.238 657.332C350.575 650.688 345.897 642.591 343.203 633.042C339.025 618.229 340.677 604.086 348.16 590.611C355.621 577.061 366.758 568.197 381.571 564.019C396.458 559.82 410.565 561.483 423.889 569.007C437.288 576.511 446.098 587.744 450.319 602.707C452.737 611.279 453.067 619.79 451.311 628.241L443.06 668.922L468.776 661.669Z" fill="#F1A2F2"/>
<path d="M468.776 661.669L469.738 661.398L469.467 660.435L468.504 660.707L468.776 661.669ZM481.342 706.22L481.613 707.182L482.575 706.911L482.304 705.948L481.342 706.22ZM381.863 734.278L380.886 734.065L380.532 735.693L382.135 735.241L381.863 734.278ZM405.114 627.634L404.138 627.418L404.137 627.421L405.114 627.634ZM405.916 623.998L404.941 623.776L404.939 623.783L405.916 623.998ZM386.146 615.207L387.018 615.696L386.146 615.207ZM391.615 630.711L392.587 630.945L392.77 630.186L392.078 629.825L391.615 630.711ZM381.802 671.467L381.527 672.429L382.53 672.716L382.775 671.701L381.802 671.467ZM348.16 590.611L349.034 591.096L349.036 591.093L348.16 590.611ZM423.889 569.007L423.397 569.878L423.4 569.88L423.889 569.007ZM451.311 628.241L450.332 628.037L450.331 628.042L451.311 628.241ZM443.06 668.922L442.08 668.723L441.755 670.33L443.332 669.885L443.06 668.922ZM467.813 661.94L480.379 706.491L482.304 705.948L469.738 661.398L467.813 661.94ZM481.07 705.257L381.592 733.316L382.135 735.241L481.613 707.182L481.07 705.257ZM382.841 734.491L406.092 627.847L404.137 627.421L380.886 734.065L382.841 734.491ZM406.091 627.849L406.892 624.214L404.939 623.783L404.138 627.418L406.091 627.849ZM406.89 624.221C407.575 621.223 407.572 618.416 406.84 615.823L404.915 616.366C405.541 618.585 405.563 621.047 404.941 623.776L406.89 624.221ZM406.84 615.823C405.927 612.586 404.24 610.265 401.684 609.09C399.165 607.931 396.001 607.979 392.315 609.019L392.858 610.944C396.315 609.968 398.938 610.028 400.849 610.907C402.723 611.769 404.111 613.513 404.915 616.366L406.84 615.823ZM392.315 609.019C389.258 609.881 386.904 611.806 385.273 614.718L387.018 615.696C388.41 613.21 390.35 611.651 392.858 610.944L392.315 609.019ZM385.273 614.718C383.691 617.544 383.315 620.509 384.174 623.556L386.099 623.013C385.389 620.495 385.686 618.075 387.018 615.696L385.273 614.718ZM384.174 623.556C385.153 627.026 387.527 629.701 391.151 631.597L392.078 629.825C388.847 628.134 386.902 625.859 386.099 623.013L384.174 623.556ZM390.643 630.477L380.83 671.233L382.775 671.701L392.587 630.945L390.643 630.477ZM382.078 670.506C372.515 667.769 364.478 663.139 357.944 656.623L356.532 658.04C363.324 664.812 371.664 669.606 381.527 672.429L382.078 670.506ZM357.944 656.623C351.409 650.107 346.815 642.164 344.166 632.77L342.241 633.313C344.978 643.018 349.741 651.268 356.532 658.04L357.944 656.623ZM344.166 632.77C340.059 618.212 341.679 604.341 349.034 591.096L347.285 590.125C339.675 603.83 337.991 618.246 342.241 633.313L344.166 632.77ZM349.036 591.093C356.369 577.776 367.288 569.086 381.842 564.981L381.299 563.056C366.227 567.308 354.873 576.345 347.284 590.128L349.036 591.093ZM381.842 564.981C396.477 560.854 410.308 562.486 423.397 569.878L424.381 568.137C410.821 560.479 396.44 558.786 381.299 563.056L381.842 564.981ZM423.4 569.88C436.565 577.252 445.207 588.268 449.356 602.979L451.281 602.436C446.99 587.221 438.012 575.77 424.378 568.135L423.4 569.88ZM449.356 602.979C451.732 611.401 452.054 619.749 450.332 628.037L452.29 628.444C454.08 619.831 453.741 611.157 451.281 602.436L449.356 602.979ZM450.331 628.042L442.08 668.723L444.04 669.121L452.291 628.44L450.331 628.042ZM443.332 669.885L469.047 662.631L468.504 660.707L442.789 667.96L443.332 669.885Z" fill="#E080E2"/>
<path d="M503.479 660.065C487.49 684.889 495.312 721.398 502.479 735.065C484.479 721.565 472.479 681.565 492.479 649.565C512.479 617.565 540.479 615.565 565.979 620.065L564.979 625.065C551.479 625.065 522.479 630.565 503.479 660.065Z" fill="#A43CA7"/>
<path d="M547.979 687.565L957.479 575.565L999.479 587.565L587.479 699.565L547.979 687.565Z" fill="#461D7A"/>
<path d="M656 673L641.479 662.065C641.479 676.898 638.479 716.965 624.479 740.565C610.479 764.165 590.479 769.565 583.479 774.065C560.479 783.565 524.333 777.333 506.5 770C540 789.5 570.5 787.526 587.5 783.5C604.5 779.474 616.839 772.496 627 762.5C661.551 728.51 658.002 693.021 656.002 673.017L656 673Z" fill="#822682"/>
<path d="M656 673L641.479 662.065C641.479 676.898 638.479 716.965 624.479 740.565C610.479 764.165 590.479 769.565 583.479 774.065C560.479 783.565 524.333 777.333 506.5 770C540 789.5 570.5 787.526 587.5 783.5C604.5 779.474 616.839 772.496 627 762.5C661.551 728.51 658.002 693.021 656.002 673.017L656 673Z" fill="url(#paint4_linear)"/>
<path d="M656 673L641.479 662.065C641.479 676.898 638.479 716.965 624.479 740.565C610.479 764.165 590.479 769.565 583.479 774.065C560.479 783.565 524.333 777.333 506.5 770C540 789.5 570.5 787.526 587.5 783.5C604.5 779.474 616.839 772.496 627 762.5C661.551 728.51 658.002 693.021 656.002 673.017L656 673Z" fill="url(#paint5_linear)"/>
<path d="M569.479 607.565C563.384 606.1 556.022 605.065 549.479 605.065C504.743 605.065 468.479 641.33 468.479 686.065C468.479 730.8 504.743 767.065 549.479 767.065C594.214 767.065 630.479 730.8 630.479 686.065C630.479 680.056 629.979 671.065 628.479 665.565" stroke="#F1A2F2" stroke-width="27"/>
<path d="M655.738 277.058L957.632 575.497L547.979 687.565L655.738 277.058Z" fill="#C882ED"/>
<path d="M655.979 277.065L693.978 285.565L998.479 587.565L956.478 575.565L655.979 277.065Z" fill="#7E43BE"/>
<g filter="url(#filter6_f)">
<path d="M669.906 340.671L682.564 385.551L702.302 379.984L715.391 426.391L695.654 431.958C698.282 441.279 701.543 447.292 705.435 450C709.406 452.685 715.307 452.923 723.139 450.714L736.163 496.886C733.913 497.605 732.24 498.119 731.144 498.428C721.197 501.234 711.146 501.574 700.992 499.449C690.916 497.303 682.1 493.025 674.542 486.616C664.957 478.413 657.811 465.969 653.105 449.286L625.966 353.065L669.906 340.671Z" fill="#B268E0"/>
</g>
<g filter="url(#filter7_f)">
<path d="M611.5 523.5L596 506L626 397L656 511.5L611.5 523.5Z" fill="#B56BE2"/>
</g>
<g filter="url(#filter8_f)">
<path d="M635.5 498.5L597 506.5L618.5 419L635.5 498.5Z" fill="#9B52D0"/>
</g>
<g filter="url(#filter9_f)">
<path d="M649.5 325L643.5 326.5L639.5 340L637.5 356.5L657 349L649.5 325Z" fill="#B268E0"/>
</g>
<g filter="url(#filter10_f)">
<path d="M657.5 346L639.183 350.5V341.5L633.183 349L625.183 364C624.016 384.5 627.883 431.2 652.683 454C677.483 476.8 701.683 471.833 710.683 466.5L699.683 425.5C680.483 432.7 674.35 415.833 673.683 406.5L691.683 401L680.683 360L662.683 364L657.5 346Z" fill="#9B52D0"/>
</g>
<path d="M515.5 520L504 513L465.5 523.859L465.604 524.209L472.724 527.433L478.5 530L515.5 520Z" fill="#8C308D"/>
<path d="M695 474.5L679 464.5L623 453.5L633.5 464C657.5 482.5 676.5 479 695 474.5Z" fill="#AA43AD"/>
<path d="M695 474.5L685.164 435.774L668.5 424.5L667 425.498L674 461.5L695 474.5Z" fill="#BA57C3"/>
<path d="M695 474.5L685.164 435.774L668.5 424.5L667 425.498L674 461.5L695 474.5Z" fill="url(#paint6_linear)"/>
<path d="M661.542 417.5L646.042 410L645 421.5L659.5 427.5C661.5 426.833 668.713 425.738 666.5 425C662 423.5 661.375 418.667 661.542 417.5Z" fill="#A141AA"/>
<path d="M661.542 417.5L646.042 410L645 421.5L659.5 427.5C661.5 426.833 668.713 425.738 666.5 425C662 423.5 661.375 418.667 661.542 417.5Z" fill="url(#paint7_linear)"/>
<path d="M603 425C598 414.546 587.614 407 575 399C581.5 403.123 593.667 425.333 596 433.5L610.5 483.5L623.5 491.5L611.5 449C610.667 444.833 608 435.455 603 425Z" fill="#AD4CB8"/>
<path d="M478.001 415.5C473.957 418.645 463.833 420.833 459 421L446.5 414.5L439 410.104L433.827 403.768C438.975 397.528 453.574 380.167 459 377.279L463.02 378.5C464.219 379.404 465.966 380.69 468.501 382.5C475.501 387.5 480.693 391 483.001 398.5C485.001 405 482.501 412 478.001 415.5Z" fill="#BC55C1"/>
<path d="M478.001 415.5C473.957 418.645 463.833 420.833 459 421L446.5 414.5L439 410.104L433.827 403.768C438.975 397.528 453.574 380.167 459 377.279L463.02 378.5C464.219 379.404 465.966 380.69 468.501 382.5C475.501 387.5 480.693 391 483.001 398.5C485.001 405 482.501 412 478.001 415.5Z" fill="url(#paint8_linear)"/>
<path d="M487.5 418L476 413L504 513L515.5 520L487.5 418Z" fill="#AD4CB8"/>
<path d="M561.208 452.549L574.5 504.5L559.708 497.549L542.208 436.549C540.208 427.549 553.208 424.049 556.208 434.049L561.208 452.549Z" fill="#AD4CB8"/>
<path d="M561.208 452.549L574.5 504.5L559.708 497.549L542.208 436.549C540.208 427.549 553.208 424.049 556.208 434.049L561.208 452.549Z" fill="url(#paint9_linear)"/>
<path d="M574.5 504.5L558 496.5L520 504.295L521.181 508.457L535.5 514L574.5 504.5Z" fill="#8C308D"/>
<path d="M623.5 491.5L610.5 483L571.381 491.955L572 494.136L585.5 501.5L623.5 491.5Z" fill="#8C308D"/>
<path d="M677 413L666.838 376.15L650.956 365.132L649.652 365.5L661.663 405.85L677 413Z" fill="#E87DF0"/>
<path d="M677 413L666.838 376.15L650.956 365.132L649.652 365.5L661.663 405.85L677 413Z" fill="url(#paint10_linear)"/>
<path d="M647.373 369.669L639.373 339.669L623.752 332.095L623.034 332.305L632.873 371.169L647.373 369.669Z" fill="#C459CB"/>
<path d="M647.373 369.669L639.373 339.669L623.752 332.095L623.034 332.305L632.873 371.169L647.373 369.669Z" fill="url(#paint11_linear)"/>
<path d="M661.5 418L645 410.5L661.5 405.5L677 413L661.5 418Z" fill="#842985"/>
<path d="M661.5 418L645 410.5L661.5 405.5L677 413L661.5 418Z" fill="url(#paint12_linear)"/>
<path d="M475.451 414.17L503.203 512.563L466.294 522.973L438.541 424.581L475.451 414.17ZM444.708 375.431C449.708 374.021 454.519 374.582 459.139 377.114C463.807 379.562 466.819 383.187 468.173 387.99C469.621 393.122 469.065 397.824 466.506 402.097C464.012 406.352 460.068 409.24 454.673 410.762C449.278 412.283 444.373 411.891 439.958 409.585C435.609 407.26 432.711 403.532 431.264 398.4C429.909 393.597 430.549 388.942 433.184 384.435C435.867 379.843 439.708 376.841 444.708 375.431ZM609.617 482.548L572.708 492.958L557.036 437.397C555.44 431.739 552.307 429.568 547.635 430.886C543.03 432.185 541.525 435.663 543.121 441.322L558.792 496.883L521.883 507.294L506.406 452.423C502.788 439.593 503.988 427.607 510.007 416.462C516.008 405.252 525.159 397.912 537.463 394.442C551.542 390.471 564.264 392.387 575.627 400.191C584.518 406.278 590.967 416.426 594.975 430.638L609.617 482.548ZM623.066 333.328L633.699 371.027L650.279 366.35L661.274 405.332L644.694 410.009C646.902 417.838 649.641 422.89 652.911 425.164C656.246 427.419 661.203 427.619 667.782 425.763L678.722 464.548C676.832 465.152 675.427 465.584 674.506 465.844C666.15 468.2 657.708 468.486 649.178 466.702C640.715 464.898 633.309 461.305 626.961 455.922C618.909 449.031 612.906 438.578 608.954 424.564L586.156 343.738L623.066 333.328Z" fill="#F5B0F7"/>
<path d="M475.451 414.17L476.413 413.899L476.142 412.936L475.179 413.208L475.451 414.17ZM503.203 512.563L503.475 513.525L504.437 513.254L504.166 512.291L503.203 512.563ZM466.294 522.973L465.331 523.245L465.603 524.207L466.565 523.936L466.294 522.973ZM438.541 424.581L438.27 423.618L437.308 423.89L437.579 424.852L438.541 424.581ZM459.139 377.114L458.659 377.991L458.667 377.995L458.675 377.999L459.139 377.114ZM466.506 402.097L465.648 401.583L465.643 401.592L466.506 402.097ZM439.958 409.585L439.487 410.467L439.495 410.471L439.958 409.585ZM433.184 384.435L434.048 384.939L434.048 384.939L433.184 384.435ZM474.489 414.441L502.241 512.834L504.166 512.291L476.413 413.899L474.489 414.441ZM502.932 511.6L466.022 522.011L466.565 523.936L503.475 513.525L502.932 511.6ZM467.256 522.702L439.504 424.309L437.579 424.852L465.331 523.245L467.256 522.702ZM438.813 425.543L475.722 415.132L475.179 413.208L438.27 423.618L438.813 425.543ZM444.979 376.394C449.723 375.055 454.264 375.583 458.659 377.991L459.62 376.237C454.773 373.581 449.693 372.986 444.437 374.469L444.979 376.394ZM458.675 377.999C463.115 380.328 465.935 383.739 467.211 388.261L469.136 387.718C467.702 382.635 464.5 378.796 459.604 376.228L458.675 377.999ZM467.211 388.261C468.589 393.149 468.055 397.564 465.648 401.583L467.364 402.611C470.075 398.084 470.652 393.094 469.136 387.718L467.211 388.261ZM465.643 401.592C463.298 405.592 459.585 408.337 454.402 409.799L454.945 411.724C460.552 410.143 464.726 407.111 467.368 402.603L465.643 401.592ZM454.402 409.799C449.219 411.261 444.581 410.871 440.421 408.699L439.495 410.471C444.165 412.911 449.337 413.306 454.945 411.724L454.402 409.799ZM440.43 408.703C436.341 406.518 433.606 403.022 432.226 398.129L430.301 398.672C431.816 404.042 434.877 408.003 439.487 410.467L440.43 408.703ZM432.226 398.129C430.949 393.601 431.542 389.225 434.048 384.939L432.321 383.93C429.556 388.66 428.869 393.594 430.301 398.672L432.226 398.129ZM434.048 384.939C436.603 380.565 440.235 377.732 444.979 376.394L444.437 374.469C439.181 375.951 435.13 379.12 432.321 383.93L434.048 384.939ZM609.617 482.548L609.889 483.51L610.851 483.239L610.58 482.276L609.617 482.548ZM572.708 492.958L571.745 493.23L572.017 494.192L572.979 493.921L572.708 492.958ZM558.792 496.883L559.064 497.846L560.026 497.574L559.755 496.612L558.792 496.883ZM521.883 507.294L520.92 507.565L521.192 508.528L522.154 508.256L521.883 507.294ZM510.007 416.462L510.887 416.938L510.889 416.934L510.007 416.462ZM575.627 400.191L575.061 401.015L575.062 401.016L575.627 400.191ZM609.346 481.585L572.436 491.996L572.979 493.921L609.889 483.51L609.346 481.585ZM573.67 492.687L557.998 437.125L556.074 437.668L571.745 493.23L573.67 492.687ZM557.998 437.125C557.17 434.188 555.896 431.976 554.058 430.703C552.182 429.404 549.902 429.208 547.364 429.923L547.907 431.848C550.04 431.247 551.662 431.477 552.92 432.347C554.216 433.245 555.306 434.947 556.074 437.668L557.998 437.125ZM547.364 429.923C544.854 430.631 543.037 431.986 542.135 434.072C541.253 436.111 541.331 438.658 542.159 441.593L544.083 441.05C543.315 438.327 543.348 436.306 543.97 434.866C544.573 433.473 545.811 432.439 547.907 431.848L547.364 429.923ZM542.159 441.593L557.83 497.155L559.755 496.612L544.083 441.05L542.159 441.593ZM558.521 495.921L521.611 506.331L522.154 508.256L559.064 497.846L558.521 495.921ZM522.845 507.022L507.369 452.151L505.444 452.694L520.92 507.565L522.845 507.022ZM507.369 452.151C503.817 439.558 504.998 427.84 510.887 416.938L509.127 415.987C502.977 427.373 501.759 439.629 505.444 452.694L507.369 452.151ZM510.889 416.934C516.76 405.965 525.691 398.801 537.734 395.404L537.191 393.479C524.628 397.023 515.255 404.539 509.125 415.99L510.889 416.934ZM537.734 395.404C551.548 391.508 563.959 393.391 575.061 401.015L576.193 399.367C564.568 391.383 551.537 389.433 537.191 393.479L537.734 395.404ZM575.062 401.016C583.699 406.929 590.045 416.84 594.013 430.909L595.938 430.366C591.889 416.013 585.337 405.627 576.192 399.366L575.062 401.016ZM594.013 430.909L608.655 482.819L610.58 482.276L595.938 430.366L594.013 430.909ZM623.066 333.328L624.028 333.056L623.757 332.094L622.794 332.365L623.066 333.328ZM633.699 371.027L632.736 371.298L633.008 372.261L633.97 371.989L633.699 371.027ZM650.279 366.35L651.241 366.079L650.97 365.116L650.007 365.388L650.279 366.35ZM661.274 405.332L661.545 406.295L662.508 406.023L662.236 405.061L661.274 405.332ZM644.694 410.009L644.423 409.046L643.46 409.318L643.732 410.28L644.694 410.009ZM652.911 425.164L652.34 425.985L652.35 425.992L652.911 425.164ZM667.782 425.763L668.745 425.492L668.473 424.53L667.511 424.801L667.782 425.763ZM678.722 464.548L679.026 465.501L679.946 465.206L679.684 464.277L678.722 464.548ZM649.178 466.702L648.97 467.68L648.974 467.68L649.178 466.702ZM626.961 455.922L626.31 456.682L626.314 456.685L626.961 455.922ZM586.156 343.738L585.885 342.776L584.922 343.047L585.194 344.01L586.156 343.738ZM622.103 333.599L632.736 371.298L634.661 370.755L624.028 333.056L622.103 333.599ZM633.97 371.989L650.55 367.313L650.007 365.388L633.427 370.064L633.97 371.989ZM649.316 366.622L660.311 405.604L662.236 405.061L651.241 366.079L649.316 366.622ZM661.002 404.37L644.423 409.046L644.966 410.971L661.545 406.295L661.002 404.37ZM643.732 410.28C645.948 418.138 648.762 423.497 652.34 425.985L653.482 424.343C650.52 422.283 647.857 417.538 645.657 409.737L643.732 410.28ZM652.35 425.992C656.056 428.498 661.381 428.608 668.054 426.726L667.511 424.801C661.024 426.63 656.435 426.34 653.471 424.335L652.35 425.992ZM666.82 426.035L677.759 464.819L679.684 464.277L668.745 425.492L666.82 426.035ZM678.417 463.596C676.53 464.199 675.138 464.626 674.234 464.881L674.777 466.806C675.716 466.541 677.135 466.105 679.026 465.501L678.417 463.596ZM674.234 464.881C666.035 467.194 657.755 467.475 649.383 465.723L648.974 467.68C657.66 469.498 666.266 469.207 674.777 466.806L674.234 464.881ZM649.387 465.724C641.078 463.953 633.824 460.431 627.607 455.159L626.314 456.685C632.793 462.179 640.351 465.843 648.97 467.68L649.387 465.724ZM627.611 455.162C619.755 448.439 613.835 438.185 609.916 424.293L607.991 424.836C611.978 438.971 618.062 449.622 626.31 456.682L627.611 455.162ZM609.916 424.293L587.119 343.467L585.194 344.01L607.991 424.836L609.916 424.293ZM586.428 344.701L623.337 334.29L622.794 332.365L585.885 342.776L586.428 344.701Z" fill="#E897EA"/>
<path d="M955.5 745.5L940 736.5L913 657.5C907.8 650.7 895.833 644.5 891.5 642.5L902 645C920.5 650 930 660 934 672L955.5 745.5Z" fill="#5E195B"/>
<path d="M955.5 745.5L940 736.5L913 657.5C907.8 650.7 895.833 644.5 891.5 642.5L902 645C920.5 650 930 660 934 672L955.5 745.5Z" fill="url(#paint13_linear)"/>
<path d="M886.001 689L906.001 759.5L888.5 749.5L872.001 693C870 685 882.5 679.5 886.001 689Z" fill="#6D2278"/>
<path d="M886.001 689L906.001 759.5L888.5 749.5L872.001 693C870 685 882.5 679.5 886.001 689Z" fill="url(#paint14_radial)"/>
<path d="M906 759.5L869.5 770L851.607 761.47L850.5 757.091L889.5 750L906 759.5Z" fill="#470F3C"/>
<path d="M955.5 745.5L919 756L901.227 747.5L900 743.091L936.5 734.5L955.5 745.5Z" fill="#4D1143"/>
<path d="M874 657.5L865.571 623.604L851.896 613.908L849.207 614.678L859.285 660L874 657.5Z" fill="#BA52C3"/>
<path d="M874 657.5L865.571 623.604L851.896 613.908L849.207 614.678L859.285 660L874 657.5Z" fill="url(#paint15_linear)"/>
<path d="M851.207 615.147L862.815 656.3C867.785 649.998 873.395 645.965 879.645 644.202C889.119 641.53 897.584 642.835 905.041 648.119C912.563 653.384 917.967 661.839 921.251 673.484L938.844 735.856L901.934 746.266L887.265 694.257C886.077 690.047 884.818 687.347 883.489 686.16C882.226 684.954 880.311 684.712 877.745 685.436C873.6 686.605 872.39 690.249 874.116 696.368L889.203 749.857L852.294 760.268L814.298 625.558L851.207 615.147Z" fill="#ED98EE"/>
<path d="M851.207 615.147L852.17 614.876L851.898 613.913L850.936 614.185L851.207 615.147ZM862.815 656.3L861.852 656.572L862.385 658.46L863.6 656.919L862.815 656.3ZM905.041 648.119L904.463 648.935L904.468 648.938L905.041 648.119ZM938.844 735.856L939.115 736.818L940.077 736.547L939.806 735.584L938.844 735.856ZM901.934 746.266L900.972 746.538L901.243 747.5L902.205 747.229L901.934 746.266ZM883.489 686.16L882.799 686.883L882.811 686.895L882.823 686.906L883.489 686.16ZM889.203 749.857L889.475 750.819L890.437 750.548L890.166 749.586L889.203 749.857ZM852.294 760.268L851.331 760.539L851.603 761.501L852.565 761.23L852.294 760.268ZM814.298 625.558L814.026 624.595L813.064 624.867L813.335 625.829L814.298 625.558ZM850.245 615.419L861.852 656.572L863.777 656.029L852.17 614.876L850.245 615.419ZM863.6 656.919C868.471 650.743 873.913 646.858 879.917 645.164L879.374 643.239C872.876 645.072 867.099 649.252 862.03 655.681L863.6 656.919ZM879.917 645.164C889.126 642.567 897.274 643.841 904.463 648.935L905.619 647.303C897.895 641.83 889.113 640.492 879.374 643.239L879.917 645.164ZM904.468 648.938C911.748 654.034 917.047 662.262 920.289 673.756L922.214 673.213C918.887 661.417 913.378 652.734 905.614 647.3L904.468 648.938ZM920.289 673.756L937.881 736.127L939.806 735.584L922.214 673.213L920.289 673.756ZM938.572 734.893L901.663 745.304L902.205 747.229L939.115 736.818L938.572 734.893ZM902.896 745.995L888.227 693.986L886.302 694.529L900.972 746.538L902.896 745.995ZM888.227 693.986C887.625 691.85 886.996 690.068 886.336 688.652C885.683 687.251 884.967 686.139 884.155 685.414L882.823 686.906C883.341 687.368 883.918 688.199 884.524 689.497C885.122 690.781 885.717 692.454 886.302 694.529L888.227 693.986ZM884.18 685.436C882.543 683.874 880.187 683.708 877.473 684.474L878.016 686.399C880.434 685.717 881.908 686.033 882.799 686.883L884.18 685.436ZM877.473 684.474C875.127 685.135 873.503 686.552 872.78 688.731C872.083 690.83 872.269 693.501 873.154 696.639L875.079 696.096C874.238 693.115 874.165 690.905 874.678 689.361C875.164 687.896 876.218 686.906 878.016 686.399L877.473 684.474ZM873.154 696.639L888.241 750.128L890.166 749.586L875.079 696.096L873.154 696.639ZM888.932 748.895L852.022 759.305L852.565 761.23L889.475 750.819L888.932 748.895ZM853.256 759.996L815.26 625.286L813.335 625.829L851.331 760.539L853.256 759.996ZM814.569 626.52L851.479 616.11L850.936 614.185L814.026 624.595L814.569 626.52Z" fill="#E080E2"/>
<defs>
<filter id="filter0_ddddd" x="98" y="-1210" width="2429.5" height="2465" filterUnits="userSpaceOnUse" color-interpolation-filters="sRGB">
<feFlood flood-opacity="0" result="BackgroundImageFix"/>
<feColorMatrix in="SourceAlpha" type="matrix" values="0 0 0 0 0 0 0 0 0 0 0 0 0 0 0 0 0 0 127 0"/>
<feOffset/>
<feGaussianBlur stdDeviation="8"/>
<feColorMatrix type="matrix" values="0 0 0 0 0.394311 0 0 0 0 0.0923611 0 0 0 0 0.791667 0 0 0 1 0"/>
<feBlend mode="normal" in2="BackgroundImageFix" result="effect1_dropShadow"/>
<feColorMatrix in="SourceAlpha" type="matrix" values="0 0 0 0 0 0 0 0 0 0 0 0 0 0 0 0 0 0 127 0"/>
<feOffset/>
<feGaussianBlur stdDeviation="8"/>
<feColorMatrix type="matrix" values="0 0 0 0 0.394311 0 0 0 0 0.0923611 0 0 0 0 0.791667 0 0 0 1 0"/>
<feBlend mode="normal" in2="effect1_dropShadow" result="effect2_dropShadow"/>
<feColorMatrix in="SourceAlpha" type="matrix" values="0 0 0 0 0 0 0 0 0 0 0 0 0 0 0 0 0 0 127 0"/>
<feOffset/>
<feGaussianBlur stdDeviation="8"/>
<feColorMatrix type="matrix" values="0 0 0 0 0.394311 0 0 0 0 0.0923611 0 0 0 0 0.791667 0 0 0 1 0"/>
<feBlend mode="normal" in2="effect2_dropShadow" result="effect3_dropShadow"/>
<feColorMatrix in="SourceAlpha" type="matrix" values="0 0 0 0 0 0 0 0 0 0 0 0 0 0 0 0 0 0 127 0"/>
<feOffset/>
<feGaussianBlur stdDeviation="8"/>
<feColorMatrix type="matrix" values="0 0 0 0 0.394311 0 0 0 0 0.0923611 0 0 0 0 0.791667 0 0 0 1 0"/>
<feBlend mode="normal" in2="effect3_dropShadow" result="effect4_dropShadow"/>
<feColorMatrix in="SourceAlpha" type="matrix" values="0 0 0 0 0 0 0 0 0 0 0 0 0 0 0 0 0 0 127 0"/>
<feOffset/>
<feGaussianBlur stdDeviation="8"/>
<feColorMatrix type="matrix" values="0 0 0 0 0.394311 0 0 0 0 0.0923611 0 0 0 0 0.791667 0 0 0 1 0"/>
<feBlend mode="normal" in2="effect4_dropShadow" result="effect5_dropShadow"/>
<feBlend mode="normal" in="SourceGraphic" in2="effect5_dropShadow" result="shape"/>
</filter>
<filter id="filter1_dddd" x="98" y="-1210" width="2429.5" height="2465" filterUnits="userSpaceOnUse" color-interpolation-filters="sRGB">
<feFlood flood-opacity="0" result="BackgroundImageFix"/>
<feColorMatrix in="SourceAlpha" type="matrix" values="0 0 0 0 0 0 0 0 0 0 0 0 0 0 0 0 0 0 127 0"/>
<feOffset/>
<feGaussianBlur stdDeviation="8"/>
<feColorMatrix type="matrix" values="0 0 0 0 0.394311 0 0 0 0 0.0923611 0 0 0 0 0.791667 0 0 0 1 0"/>
<feBlend mode="normal" in2="BackgroundImageFix" result="effect1_dropShadow"/>
<feColorMatrix in="SourceAlpha" type="matrix" values="0 0 0 0 0 0 0 0 0 0 0 0 0 0 0 0 0 0 127 0"/>
<feOffset/>
<feGaussianBlur stdDeviation="8"/>
<feColorMatrix type="matrix" values="0 0 0 0 0.537255 0 0 0 0 0.235294 0 0 0 0 0.929412 0 0 0 1 0"/>
<feBlend mode="normal" in2="effect1_dropShadow" result="effect2_dropShadow"/>
<feColorMatrix in="SourceAlpha" type="matrix" values="0 0 0 0 0 0 0 0 0 0 0 0 0 0 0 0 0 0 127 0"/>
<feOffset/>
<feGaussianBlur stdDeviation="8"/>
<feColorMatrix type="matrix" values="0 0 0 0 0.537255 0 0 0 0 0.235294 0 0 0 0 0.929412 0 0 0 1 0"/>
<feBlend mode="normal" in2="effect2_dropShadow" result="effect3_dropShadow"/>
<feColorMatrix in="SourceAlpha" type="matrix" values="0 0 0 0 0 0 0 0 0 0 0 0 0 0 0 0 0 0 127 0"/>
<feOffset/>
<feGaussianBlur stdDeviation="8"/>
<feColorMatrix type="matrix" values="0 0 0 0 0.535392 0 0 0 0 0.236163 0 0 0 0 0.929167 0 0 0 1 0"/>
<feBlend mode="normal" in2="effect3_dropShadow" result="effect4_dropShadow"/>
<feBlend mode="normal" in="SourceGraphic" in2="effect4_dropShadow" result="shape"/>
</filter>
<filter id="filter2_dddd" x="98" y="-1210" width="2429.5" height="2465" filterUnits="userSpaceOnUse" color-interpolation-filters="sRGB">
<feFlood flood-opacity="0" result="BackgroundImageFix"/>
<feColorMatrix in="SourceAlpha" type="matrix" values="0 0 0 0 0 0 0 0 0 0 0 0 0 0 0 0 0 0 127 0"/>
<feOffset/>
<feGaussianBlur stdDeviation="8"/>
<feColorMatrix type="matrix" values="0 0 0 0 0.394311 0 0 0 0 0.0923611 0 0 0 0 0.791667 0 0 0 1 0"/>
<feBlend mode="normal" in2="BackgroundImageFix" result="effect1_dropShadow"/>
<feColorMatrix in="SourceAlpha" type="matrix" values="0 0 0 0 0 0 0 0 0 0 0 0 0 0 0 0 0 0 127 0"/>
<feOffset/>
<feGaussianBlur stdDeviation="8"/>
<feColorMatrix type="matrix" values="0 0 0 0 0.537255 0 0 0 0 0.235294 0 0 0 0 0.929412 0 0 0 1 0"/>
<feBlend mode="normal" in2="effect1_dropShadow" result="effect2_dropShadow"/>
<feColorMatrix in="SourceAlpha" type="matrix" values="0 0 0 0 0 0 0 0 0 0 0 0 0 0 0 0 0 0 127 0"/>
<feOffset/>
<feGaussianBlur stdDeviation="8"/>
<feColorMatrix type="matrix" values="0 0 0 0 0.537255 0 0 0 0 0.235294 0 0 0 0 0.929412 0 0 0 1 0"/>
<feBlend mode="normal" in2="effect2_dropShadow" result="effect3_dropShadow"/>
<feColorMatrix in="SourceAlpha" type="matrix" values="0 0 0 0 0 0 0 0 0 0 0 0 0 0 0 0 0 0 127 0"/>
<feOffset/>
<feGaussianBlur stdDeviation="8"/>
<feColorMatrix type="matrix" values="0 0 0 0 0.535392 0 0 0 0 0.236163 0 0 0 0 0.929167 0 0 0 1 0"/>
<feBlend mode="normal" in2="effect3_dropShadow" result="effect4_dropShadow"/>
<feBlend mode="normal" in="SourceGraphic" in2="effect4_dropShadow" result="shape"/>
</filter>
<filter id="filter3_dddd" x="-157.484" y="-165.334" width="1000.47" height="2305.17" filterUnits="userSpaceOnUse" color-interpolation-filters="sRGB">
<feFlood flood-opacity="0" result="BackgroundImageFix"/>
<feColorMatrix in="SourceAlpha" type="matrix" values="0 0 0 0 0 0 0 0 0 0 0 0 0 0 0 0 0 0 127 0"/>
<feOffset/>
<feGaussianBlur stdDeviation="7"/>
<feColorMatrix type="matrix" values="0 0 0 0 0.911167 0 0 0 0 0.658333 0 0 0 0 1 0 0 0 1 0"/>
<feBlend mode="normal" in2="BackgroundImageFix" result="effect1_dropShadow"/>
<feColorMatrix in="SourceAlpha" type="matrix" values="0 0 0 0 0 0 0 0 0 0 0 0 0 0 0 0 0 0 127 0"/>
<feOffset/>
<feGaussianBlur stdDeviation="7"/>
<feColorMatrix type="matrix" values="0 0 0 0 0.911167 0 0 0 0 0.658333 0 0 0 0 1 0 0 0 1 0"/>
<feBlend mode="normal" in2="effect1_dropShadow" result="effect2_dropShadow"/>
<feColorMatrix in="SourceAlpha" type="matrix" values="0 0 0 0 0 0 0 0 0 0 0 0 0 0 0 0 0 0 127 0"/>
<feOffset/>
<feGaussianBlur stdDeviation="7"/>
<feColorMatrix type="matrix" values="0 0 0 0 0.911167 0 0 0 0 0.658333 0 0 0 0 1 0 0 0 1 0"/>
<feBlend mode="normal" in2="effect2_dropShadow" result="effect3_dropShadow"/>
<feColorMatrix in="SourceAlpha" type="matrix" values="0 0 0 0 0 0 0 0 0 0 0 0 0 0 0 0 0 0 127 0"/>
<feOffset/>
<feGaussianBlur stdDeviation="7"/>
<feColorMatrix type="matrix" values="0 0 0 0 0.911167 0 0 0 0 0.658333 0 0 0 0 1 0 0 0 1 0"/>
<feBlend mode="normal" in2="effect3_dropShadow" result="effect4_dropShadow"/>
<feBlend mode="normal" in="SourceGraphic" in2="effect4_dropShadow" result="shape"/>
</filter>
<filter id="filter4_dddd" x="-157.484" y="-165.334" width="1000.47" height="2305.17" filterUnits="userSpaceOnUse" color-interpolation-filters="sRGB">
<feFlood flood-opacity="0" result="BackgroundImageFix"/>
<feColorMatrix in="SourceAlpha" type="matrix" values="0 0 0 0 0 0 0 0 0 0 0 0 0 0 0 0 0 0 127 0"/>
<feOffset/>
<feGaussianBlur stdDeviation="7"/>
<feColorMatrix type="matrix" values="0 0 0 0 0.911167 0 0 0 0 0.658333 0 0 0 0 1 0 0 0 1 0"/>
<feBlend mode="normal" in2="BackgroundImageFix" result="effect1_dropShadow"/>
<feColorMatrix in="SourceAlpha" type="matrix" values="0 0 0 0 0 0 0 0 0 0 0 0 0 0 0 0 0 0 127 0"/>
<feOffset/>
<feGaussianBlur stdDeviation="7"/>
<feColorMatrix type="matrix" values="0 0 0 0 0.911167 0 0 0 0 0.658333 0 0 0 0 1 0 0 0 1 0"/>
<feBlend mode="normal" in2="effect1_dropShadow" result="effect2_dropShadow"/>
<feColorMatrix in="SourceAlpha" type="matrix" values="0 0 0 0 0 0 0 0 0 0 0 0 0 0 0 0 0 0 127 0"/>
<feOffset/>
<feGaussianBlur stdDeviation="7"/>
<feColorMatrix type="matrix" values="0 0 0 0 0.911167 0 0 0 0 0.658333 0 0 0 0 1 0 0 0 1 0"/>
<feBlend mode="normal" in2="effect2_dropShadow" result="effect3_dropShadow"/>
<feColorMatrix in="SourceAlpha" type="matrix" values="0 0 0 0 0 0 0 0 0 0 0 0 0 0 0 0 0 0 127 0"/>
<feOffset/>
<feGaussianBlur stdDeviation="7"/>
<feColorMatrix type="matrix" values="0 0 0 0 0.911167 0 0 0 0 0.658333 0 0 0 0 1 0 0 0 1 0"/>
<feBlend mode="normal" in2="effect3_dropShadow" result="effect4_dropShadow"/>
<feBlend mode="normal" in="SourceGraphic" in2="effect4_dropShadow" result="shape"/>
</filter>
<filter id="filter5_d" x="-567" y="-624" width="1581.97" height="1878.76" filterUnits="userSpaceOnUse" color-interpolation-filters="sRGB">
<feFlood flood-opacity="0" result="BackgroundImageFix"/>
<feColorMatrix in="SourceAlpha" type="matrix" values="0 0 0 0 0 0 0 0 0 0 0 0 0 0 0 0 0 0 127 0"/>
<feMorphology radius="8" operator="dilate" in="SourceAlpha" result="effect1_dropShadow"/>
<feOffset/>
<feGaussianBlur stdDeviation="4"/>
<feColorMatrix type="matrix" values="0 0 0 0 0.138802 0 0 0 0 0.553714 0 0 0 0 0.854167 0 0 0 1 0"/>
<feBlend mode="normal" in2="BackgroundImageFix" result="effect1_dropShadow"/>
<feBlend mode="normal" in="SourceGraphic" in2="effect1_dropShadow" result="shape"/>
</filter>
<filter id="filter6_f" x="621.966" y="336.671" width="118.197" height="168.152" filterUnits="userSpaceOnUse" color-interpolation-filters="sRGB">
<feFlood flood-opacity="0" result="BackgroundImageFix"/>
<feBlend mode="normal" in="SourceGraphic" in2="BackgroundImageFix" result="shape"/>
<feGaussianBlur stdDeviation="2" result="effect1_foregroundBlur"/>
</filter>
<filter id="filter7_f" x="592" y="393" width="68" height="134.5" filterUnits="userSpaceOnUse" color-interpolation-filters="sRGB">
<feFlood flood-opacity="0" result="BackgroundImageFix"/>
<feBlend mode="normal" in="SourceGraphic" in2="BackgroundImageFix" result="shape"/>
<feGaussianBlur stdDeviation="2" result="effect1_foregroundBlur"/>
</filter>
<filter id="filter8_f" x="593" y="415" width="46.5" height="95.5" filterUnits="userSpaceOnUse" color-interpolation-filters="sRGB">
<feFlood flood-opacity="0" result="BackgroundImageFix"/>
<feBlend mode="normal" in="SourceGraphic" in2="BackgroundImageFix" result="shape"/>
<feGaussianBlur stdDeviation="2" result="effect1_foregroundBlur"/>
</filter>
<filter id="filter9_f" x="633.5" y="321" width="27.5" height="39.5" filterUnits="userSpaceOnUse" color-interpolation-filters="sRGB">
<feFlood flood-opacity="0" result="BackgroundImageFix"/>
<feBlend mode="normal" in="SourceGraphic" in2="BackgroundImageFix" result="shape"/>
<feGaussianBlur stdDeviation="2" result="effect1_foregroundBlur"/>
</filter>
<filter id="filter10_f" x="621" y="337.5" width="93.6831" height="137.498" filterUnits="userSpaceOnUse" color-interpolation-filters="sRGB">
<feFlood flood-opacity="0" result="BackgroundImageFix"/>
<feBlend mode="normal" in="SourceGraphic" in2="BackgroundImageFix" result="shape"/>
<feGaussianBlur stdDeviation="2" result="effect1_foregroundBlur"/>
</filter>
<linearGradient id="paint0_linear" x1="597.97" y1="320.726" x2="597.97" y2="1134.67" gradientUnits="userSpaceOnUse">
<stop stop-color="#021229"/>
<stop offset="1" stop-color="#040120"/>
</linearGradient>
<linearGradient id="paint1_linear" x1="444.907" y1="568.606" x2="456.918" y2="678.999" gradientUnits="userSpaceOnUse">
<stop stop-color="#DA88DA"/>
<stop offset="1" stop-color="#A242AC"/>
</linearGradient>
<radialGradient id="paint2_radial" cx="0" cy="0" r="1" gradientUnits="userSpaceOnUse" gradientTransform="translate(434.5 725.75) rotate(90) scale(19.75 54)">
<stop stop-color="#4A184A"/>
<stop offset="1" stop-color="#842983"/>
</radialGradient>
<radialGradient id="paint3_angular" cx="0" cy="0" r="1" gradientUnits="userSpaceOnUse" gradientTransform="translate(395 630.5) rotate(102.369) scale(58.3545 32.3939)">
<stop stop-color="#8C308D"/>
<stop offset="0.0804448" stop-color="#892F8A"/>
<stop offset="0.529657" stop-color="#782778"/>
<stop offset="1" stop-color="#631D62"/>
</radialGradient>
<linearGradient id="paint4_linear" x1="556.5" y1="779.5" x2="639" y2="792" gradientUnits="userSpaceOnUse">
<stop stop-color="#5B115B"/>
<stop stop-color="#510651" stop-opacity="0.806395"/>
<stop offset="1" stop-color="#A847A8"/>
</linearGradient>
<linearGradient id="paint5_linear" x1="582.486" y1="662.065" x2="582.486" y2="786.144" gradientUnits="userSpaceOnUse">
<stop offset="0.0961371" stop-color="#730F73"/>
<stop offset="1" stop-color="#F397F3" stop-opacity="0"/>
</linearGradient>
<linearGradient id="paint6_linear" x1="680.832" y1="425" x2="680.832" y2="474.274" gradientUnits="userSpaceOnUse">
<stop stop-color="#BA57C3"/>
<stop offset="1" stop-color="#822682"/>
</linearGradient>
<linearGradient id="paint7_linear" x1="655" y1="414" x2="655.485" y2="427.5" gradientUnits="userSpaceOnUse">
<stop stop-color="#7C207D"/>
<stop offset="1" stop-color="#CC70D2"/>
</linearGradient>
<linearGradient id="paint8_linear" x1="459.5" y1="413" x2="478" y2="378.5" gradientUnits="userSpaceOnUse">
<stop stop-color="#5B115B"/>
<stop offset="1" stop-color="#F987FF"/>
</linearGradient>
<linearGradient id="paint9_linear" x1="550.708" y1="443.549" x2="565.708" y2="499.049" gradientUnits="userSpaceOnUse">
<stop stop-color="#5B115B"/>
<stop offset="1" stop-color="#B020B0" stop-opacity="0"/>
</linearGradient>
<linearGradient id="paint10_linear" x1="663.837" y1="364.15" x2="663.419" y2="412.65" gradientUnits="userSpaceOnUse">
<stop stop-color="#E084E7"/>
<stop offset="1" stop-color="#842985"/>
</linearGradient>
<linearGradient id="paint11_linear" x1="634.874" y1="281.669" x2="635.187" y2="371.169" gradientUnits="userSpaceOnUse">
<stop stop-color="#EEA5F0"/>
<stop offset="1" stop-color="white" stop-opacity="0"/>
</linearGradient>
<linearGradient id="paint12_linear" x1="659" y1="417" x2="662.5" y2="412.5" gradientUnits="userSpaceOnUse">
<stop stop-color="#610462"/>
<stop offset="1" stop-color="#842985"/>
</linearGradient>
<linearGradient id="paint13_linear" x1="923.5" y1="642.5" x2="923.5" y2="745.5" gradientUnits="userSpaceOnUse">
<stop stop-color="#AD4CB8"/>
<stop offset="1" stop-color="#6C296A"/>
</linearGradient>
<radialGradient id="paint14_radial" cx="0" cy="0" r="1" gradientUnits="userSpaceOnUse" gradientTransform="translate(875.5 680.5) rotate(80.3781) scale(80.1272 36.3034)">
<stop stop-color="#7B2C7C"/>
<stop offset="1" stop-color="#6D2278"/>
</radialGradient>
<linearGradient id="paint15_linear" x1="852" y1="614" x2="862" y2="633" gradientUnits="userSpaceOnUse">
<stop stop-color="#5E195B"/>
<stop offset="1" stop-color="#BA57C3"/>
</linearGradient>
</defs>
</svg>
