<svg width="1485" height="370" viewBox="0 0 1485 370" fill="none" xmlns="http://www.w3.org/2000/svg">
<g filter="url(#filter0_d)">
<path d="M462.768 102.768C463.744 101.791 463.744 100.209 462.768 99.2322L446.858 83.3223C445.882 82.346 444.299 82.346 443.322 83.3223C442.346 84.2986 442.346 85.8816 443.322 86.8579L457.464 101L443.322 115.142C442.346 116.118 442.346 117.701 443.322 118.678C444.299 119.654 445.882 119.654 446.858 118.678L462.768 102.768ZM233 103.5L461 103.5V98.5L233 98.5V103.5Z" fill="white"/>
</g>
<g filter="url(#filter1_d)">
<path d="M866.768 102.768C867.744 101.791 867.744 100.209 866.768 99.2322L850.858 83.3223C849.882 82.346 848.299 82.346 847.322 83.3223C846.346 84.2986 846.346 85.8816 847.322 86.8579L861.464 101L847.322 115.142C846.346 116.118 846.346 117.701 847.322 118.678C848.299 119.654 849.882 119.654 850.858 118.678L866.768 102.768ZM637 103.5L865 103.5V98.5L637 98.5V103.5Z" fill="white"/>
</g>
<g filter="url(#filter2_d)">
<path d="M1270.77 102.768C1271.74 101.791 1271.74 100.209 1270.77 99.2322L1254.86 83.3223C1253.88 82.346 1252.3 82.346 1251.32 83.3223C1250.35 84.2986 1250.35 85.8816 1251.32 86.8579L1265.46 101L1251.32 115.142C1250.35 116.118 1250.35 117.701 1251.32 118.678C1252.3 119.654 1253.88 119.654 1254.86 118.678L1270.77 102.768ZM1041 103.5L1269 103.5V98.5L1041 98.5V103.5Z" fill="white"/>
</g>
<g filter="url(#filter3_d)">
<path d="M27.1051 251.86C28.6891 252.292 29.9251 253.048 30.8131 254.128C31.7011 255.184 32.1451 256.456 32.1451 257.944C32.1451 259.432 31.6651 260.74 30.7051 261.868C29.7691 262.972 28.5091 263.824 26.9251 264.424C25.3651 265 23.6611 265.288 21.8131 265.288C20.1331 265.288 18.4651 265.036 16.8091 264.532C15.1531 264.028 13.6411 263.272 12.2731 262.264L13.5331 259.6C14.6371 260.464 15.8731 261.112 17.2411 261.544C18.6091 261.976 19.9891 262.192 21.3811 262.192C23.3971 262.192 25.0891 261.772 26.4571 260.932C27.8251 260.068 28.5091 258.892 28.5091 257.404C28.5091 256.132 27.9931 255.16 26.9611 254.488C25.9291 253.792 24.4771 253.444 22.6051 253.444H16.9891V250.528H22.3531C23.9611 250.528 25.2091 250.204 26.0971 249.556C27.0091 248.884 27.4651 247.96 27.4651 246.784C27.4651 245.464 26.8771 244.42 25.7011 243.652C24.5251 242.884 23.0371 242.5 21.2371 242.5C20.0611 242.5 18.8611 242.668 17.6371 243.004C16.4371 243.34 15.2971 243.844 14.2171 244.516L13.0651 241.564C14.3371 240.844 15.6811 240.304 17.0971 239.944C18.5131 239.584 19.9291 239.404 21.3451 239.404C23.1211 239.404 24.7531 239.68 26.2411 240.232C27.7291 240.784 28.9051 241.588 29.7691 242.644C30.6571 243.7 31.1011 244.936 31.1011 246.352C31.1011 247.624 30.7411 248.74 30.0211 249.7C29.3251 250.66 28.3531 251.38 27.1051 251.86ZM44.3708 245.74C47.0108 245.74 49.0268 246.388 50.4188 247.684C51.8348 248.98 52.5428 250.912 52.5428 253.48V265H49.2668V262.48C48.6908 263.368 47.8628 264.052 46.7828 264.532C45.7268 264.988 44.4668 265.216 43.0028 265.216C40.8668 265.216 39.1508 264.7 37.8548 263.668C36.5828 262.636 35.9468 261.28 35.9468 259.6C35.9468 257.92 36.5588 256.576 37.7828 255.568C39.0068 254.536 40.9508 254.02 43.6148 254.02H49.0868V253.336C49.0868 251.848 48.6548 250.708 47.7908 249.916C46.9268 249.124 45.6548 248.728 43.9748 248.728C42.8468 248.728 41.7428 248.92 40.6628 249.304C39.5828 249.664 38.6708 250.156 37.9268 250.78L36.4868 248.188C37.4708 247.396 38.6468 246.796 40.0148 246.388C41.3828 245.956 42.8348 245.74 44.3708 245.74ZM43.5788 262.552C44.8988 262.552 46.0388 262.264 46.9988 261.688C47.9588 261.088 48.6548 260.248 49.0868 259.168V256.504H43.7588C40.8308 256.504 39.3668 257.488 39.3668 259.456C39.3668 260.416 39.7388 261.172 40.4828 261.724C41.2268 262.276 42.2588 262.552 43.5788 262.552ZM68.882 245.74C70.73 245.74 72.386 246.148 73.85 246.964C75.314 247.78 76.454 248.92 77.27 250.384C78.11 251.848 78.53 253.54 78.53 255.46C78.53 257.38 78.11 259.084 77.27 260.572C76.454 262.036 75.314 263.176 73.85 263.992C72.386 264.808 70.73 265.216 68.882 265.216C67.514 265.216 66.254 264.952 65.102 264.424C63.974 263.896 63.014 263.128 62.222 262.12V271.984H58.766V245.92H62.078V248.944C62.846 247.888 63.818 247.096 64.994 246.568C66.17 246.016 67.466 245.74 68.882 245.74ZM68.594 262.192C69.818 262.192 70.91 261.916 71.87 261.364C72.854 260.788 73.622 259.996 74.174 258.988C74.75 257.956 75.038 256.78 75.038 255.46C75.038 254.14 74.75 252.976 74.174 251.968C73.622 250.936 72.854 250.144 71.87 249.592C70.91 249.04 69.818 248.764 68.594 248.764C67.394 248.764 66.302 249.052 65.318 249.628C64.358 250.18 63.59 250.96 63.014 251.968C62.462 252.976 62.186 254.14 62.186 255.46C62.186 256.78 62.462 257.956 63.014 258.988C63.566 259.996 64.334 260.788 65.318 261.364C66.302 261.916 67.394 262.192 68.594 262.192ZM100.795 255.568C100.795 255.832 100.771 256.18 100.723 256.612H85.2431C85.4591 258.292 86.1911 259.648 87.4391 260.68C88.7111 261.688 90.2831 262.192 92.1551 262.192C94.4351 262.192 96.2711 261.424 97.6631 259.888L99.5711 262.12C98.7071 263.128 97.6271 263.896 96.3311 264.424C95.0591 264.952 93.6311 265.216 92.0471 265.216C90.0311 265.216 88.2431 264.808 86.6831 263.992C85.1231 263.152 83.9111 261.988 83.0471 260.5C82.2071 259.012 81.7871 257.332 81.7871 255.46C81.7871 253.612 82.1951 251.944 83.0111 250.456C83.8511 248.968 84.9911 247.816 86.4311 247C87.8951 246.16 89.5391 245.74 91.3631 245.74C93.1871 245.74 94.8071 246.16 96.2231 247C97.6631 247.816 98.7791 248.968 99.5711 250.456C100.387 251.944 100.795 253.648 100.795 255.568ZM91.3631 248.656C89.7071 248.656 88.3151 249.16 87.1871 250.168C86.0831 251.176 85.4351 252.496 85.2431 254.128H97.4831C97.2911 252.52 96.6311 251.212 95.5031 250.204C94.3991 249.172 93.0191 248.656 91.3631 248.656ZM114.689 265.216C112.745 265.216 110.981 264.796 109.397 263.956C107.837 263.116 106.613 261.952 105.725 260.464C104.837 258.976 104.393 257.308 104.393 255.46C104.393 253.588 104.837 251.908 105.725 250.42C106.613 248.932 107.837 247.768 109.397 246.928C110.981 246.088 112.745 245.668 114.689 245.668C116.369 245.668 117.881 245.932 119.225 246.46C120.593 246.988 121.745 247.756 122.681 248.764L120.665 250.78C119.129 249.268 117.185 248.512 114.833 248.512C112.961 248.512 111.365 249.052 110.045 250.132C108.725 251.188 107.933 252.58 107.669 254.308H117.245V256.864H107.741C108.053 258.52 108.857 259.864 110.153 260.896C111.449 261.904 113.009 262.408 114.833 262.408C117.161 262.408 119.105 261.64 120.665 260.104L122.681 262.084C121.745 263.116 120.593 263.896 119.225 264.424C117.857 264.952 116.345 265.216 114.689 265.216ZM134.969 265.216C133.025 265.216 131.285 264.796 129.749 263.956C128.237 263.116 127.049 261.964 126.185 260.5C125.321 259.012 124.889 257.332 124.889 255.46C124.889 253.588 125.321 251.92 126.185 250.456C127.049 248.968 128.237 247.816 129.749 247C131.285 246.16 133.025 245.74 134.969 245.74C136.697 245.74 138.233 246.088 139.577 246.784C140.945 247.48 142.001 248.488 142.745 249.808L140.117 251.5C139.517 250.588 138.773 249.904 137.885 249.448C136.997 248.992 136.013 248.764 134.933 248.764C133.685 248.764 132.557 249.04 131.549 249.592C130.565 250.144 129.785 250.936 129.209 251.968C128.657 252.976 128.381 254.14 128.381 255.46C128.381 256.804 128.657 257.992 129.209 259.024C129.785 260.032 130.565 260.812 131.549 261.364C132.557 261.916 133.685 262.192 134.933 262.192C136.013 262.192 136.997 261.964 137.885 261.508C138.773 261.052 139.517 260.368 140.117 259.456L142.745 261.112C142.001 262.432 140.945 263.452 139.577 264.172C138.233 264.868 136.697 265.216 134.969 265.216ZM161.193 248.944H154.209V265H150.753V248.944H143.769V245.92H161.193V248.944ZM174.843 245.74C176.691 245.74 178.347 246.148 179.811 246.964C181.275 247.78 182.415 248.92 183.231 250.384C184.071 251.848 184.491 253.54 184.491 255.46C184.491 257.38 184.071 259.084 183.231 260.572C182.415 262.036 181.275 263.176 179.811 263.992C178.347 264.808 176.691 265.216 174.843 265.216C173.475 265.216 172.215 264.952 171.063 264.424C169.935 263.896 168.975 263.128 168.183 262.12V271.984H164.727V245.92H168.039V248.944C168.807 247.888 169.779 247.096 170.955 246.568C172.131 246.016 173.427 245.74 174.843 245.74ZM174.555 262.192C175.779 262.192 176.871 261.916 177.831 261.364C178.815 260.788 179.583 259.996 180.135 258.988C180.711 257.956 180.999 256.78 180.999 255.46C180.999 254.14 180.711 252.976 180.135 251.968C179.583 250.936 178.815 250.144 177.831 249.592C176.871 249.04 175.779 248.764 174.555 248.764C173.355 248.764 172.263 249.052 171.279 249.628C170.319 250.18 169.551 250.96 168.975 251.968C168.423 252.976 168.147 254.14 168.147 255.46C168.147 256.78 168.423 257.956 168.975 258.988C169.527 259.996 170.295 260.788 171.279 261.364C172.263 261.916 173.355 262.192 174.555 262.192ZM206.013 245.92L196.761 266.908C195.945 268.852 194.985 270.22 193.881 271.012C192.801 271.804 191.493 272.2 189.957 272.2C189.021 272.2 188.109 272.044 187.221 271.732C186.357 271.444 185.637 271.012 185.061 270.436L186.537 267.844C187.521 268.78 188.661 269.248 189.957 269.248C190.797 269.248 191.493 269.02 192.045 268.564C192.621 268.132 193.137 267.376 193.593 266.296L194.205 264.964L185.781 245.92H189.381L196.041 261.184L202.629 245.92H206.013ZM209.551 245.92H213.007V259.816L224.707 245.92H227.839V265H224.383V251.104L212.719 265H209.551V245.92ZM218.479 243.436C216.703 243.436 215.323 243.016 214.339 242.176C213.355 241.312 212.851 240.076 212.827 238.468H215.167C215.191 239.356 215.491 240.076 216.067 240.628C216.667 241.156 217.459 241.42 218.443 241.42C219.427 241.42 220.219 241.156 220.819 240.628C221.419 240.076 221.731 239.356 221.755 238.468H224.167C224.143 240.076 223.627 241.312 222.619 242.176C221.611 243.016 220.231 243.436 218.479 243.436ZM242.863 265.216C240.919 265.216 239.179 264.796 237.643 263.956C236.131 263.116 234.943 261.964 234.079 260.5C233.215 259.012 232.783 257.332 232.783 255.46C232.783 253.588 233.215 251.92 234.079 250.456C234.943 248.968 236.131 247.816 237.643 247C239.179 246.16 240.919 245.74 242.863 245.74C244.591 245.74 246.127 246.088 247.471 246.784C248.839 247.48 249.895 248.488 250.639 249.808L248.011 251.5C247.411 250.588 246.667 249.904 245.779 249.448C244.891 248.992 243.907 248.764 242.827 248.764C241.579 248.764 240.451 249.04 239.443 249.592C238.459 250.144 237.679 250.936 237.103 251.968C236.551 252.976 236.275 254.14 236.275 255.46C236.275 256.804 236.551 257.992 237.103 259.024C237.679 260.032 238.459 260.812 239.443 261.364C240.451 261.916 241.579 262.192 242.827 262.192C243.907 262.192 244.891 261.964 245.779 261.508C246.667 261.052 247.411 260.368 248.011 259.456L250.639 261.112C249.895 262.432 248.839 263.452 247.471 264.172C246.127 264.868 244.591 265.216 242.863 265.216ZM269.816 245.92V265H266.72V258.952H261.176H260.78L256.604 265H252.896L257.54 258.484C256.1 258.052 254.996 257.344 254.228 256.36C253.46 255.352 253.076 254.104 253.076 252.616C253.076 250.432 253.82 248.776 255.308 247.648C256.796 246.496 258.848 245.92 261.464 245.92H269.816ZM256.604 252.724C256.604 253.996 257 254.944 257.792 255.568C258.608 256.168 259.82 256.468 261.428 256.468H266.72V248.944H261.572C258.26 248.944 256.604 250.204 256.604 252.724ZM100.529 305.976V313.428H97.2893V309H81.3413V313.428H78.0653V305.976H79.0733C80.2973 305.904 81.1373 305.04 81.5933 303.384C82.0493 301.728 82.3613 299.388 82.5293 296.364L82.8173 289.92H97.6133V305.976H100.529ZM85.6973 296.616C85.6013 299.016 85.3973 301.008 85.0853 302.592C84.7973 304.152 84.2573 305.28 83.4653 305.976H94.1573V292.944H85.8773L85.6973 296.616ZM113.204 309.216C111.308 309.216 109.604 308.796 108.092 307.956C106.58 307.116 105.392 305.964 104.528 304.5C103.688 303.012 103.268 301.332 103.268 299.46C103.268 297.588 103.688 295.92 104.528 294.456C105.392 292.968 106.58 291.816 108.092 291C109.604 290.16 111.308 289.74 113.204 289.74C115.1 289.74 116.792 290.16 118.28 291C119.792 291.816 120.968 292.968 121.808 294.456C122.672 295.92 123.104 297.588 123.104 299.46C123.104 301.332 122.672 303.012 121.808 304.5C120.968 305.964 119.792 307.116 118.28 307.956C116.792 308.796 115.1 309.216 113.204 309.216ZM113.204 306.192C114.428 306.192 115.52 305.916 116.48 305.364C117.464 304.788 118.232 303.996 118.784 302.988C119.336 301.956 119.612 300.78 119.612 299.46C119.612 298.14 119.336 296.976 118.784 295.968C118.232 294.936 117.464 294.144 116.48 293.592C115.52 293.04 114.428 292.764 113.204 292.764C111.98 292.764 110.876 293.04 109.892 293.592C108.932 294.144 108.164 294.936 107.588 295.968C107.036 296.976 106.76 298.14 106.76 299.46C106.76 300.78 107.036 301.956 107.588 302.988C108.164 303.996 108.932 304.788 109.892 305.364C110.876 305.916 111.98 306.192 113.204 306.192ZM143.954 283.8V309H140.39V286.932H134.702V283.8H143.954ZM164.874 295.788C166.314 296.34 167.418 297.132 168.186 298.164C168.954 299.196 169.338 300.432 169.338 301.872C169.338 303.384 168.93 304.704 168.114 305.832C167.298 306.936 166.134 307.788 164.622 308.388C163.11 308.988 161.334 309.288 159.294 309.288C157.278 309.288 155.514 308.988 154.002 308.388C152.514 307.788 151.362 306.936 150.546 305.832C149.73 304.704 149.322 303.384 149.322 301.872C149.322 300.432 149.694 299.196 150.438 298.164C151.206 297.132 152.31 296.34 153.75 295.788C152.598 295.236 151.722 294.504 151.122 293.592C150.522 292.68 150.222 291.6 150.222 290.352C150.222 288.96 150.594 287.748 151.338 286.716C152.106 285.684 153.174 284.892 154.542 284.34C155.91 283.788 157.494 283.512 159.294 283.512C161.118 283.512 162.714 283.788 164.082 284.34C165.474 284.892 166.542 285.684 167.286 286.716C168.054 287.748 168.438 288.96 168.438 290.352C168.438 291.576 168.126 292.656 167.502 293.592C166.902 294.504 166.026 295.236 164.874 295.788ZM159.294 286.428C157.59 286.428 156.246 286.8 155.262 287.544C154.278 288.264 153.786 289.248 153.786 290.496C153.786 291.744 154.266 292.728 155.226 293.448C156.21 294.168 157.566 294.528 159.294 294.528C161.046 294.528 162.414 294.168 163.398 293.448C164.406 292.728 164.91 291.744 164.91 290.496C164.91 289.248 164.394 288.264 163.362 287.544C162.354 286.8 160.998 286.428 159.294 286.428ZM159.294 306.372C161.286 306.372 162.858 305.964 164.01 305.148C165.162 304.308 165.738 303.18 165.738 301.764C165.738 300.372 165.162 299.28 164.01 298.488C162.858 297.672 161.286 297.264 159.294 297.264C157.302 297.264 155.742 297.672 154.614 298.488C153.486 299.28 152.922 300.372 152.922 301.764C152.922 303.18 153.486 304.308 154.614 305.148C155.742 305.964 157.302 306.372 159.294 306.372ZM175.362 309.216C174.69 309.216 174.114 308.988 173.634 308.532C173.154 308.052 172.914 307.452 172.914 306.732C172.914 306.036 173.154 305.46 173.634 305.004C174.114 304.524 174.69 304.284 175.362 304.284C176.034 304.284 176.598 304.512 177.054 304.968C177.51 305.424 177.738 306.012 177.738 306.732C177.738 307.452 177.498 308.052 177.018 308.532C176.562 308.988 176.01 309.216 175.362 309.216ZM191.016 309.288C189.024 309.288 187.248 308.784 185.688 307.776C184.152 306.744 182.94 305.256 182.052 303.312C181.164 301.368 180.72 299.064 180.72 296.4C180.72 293.736 181.164 291.432 182.052 289.488C182.94 287.544 184.152 286.068 185.688 285.06C187.248 284.028 189.024 283.512 191.016 283.512C192.984 283.512 194.736 284.028 196.272 285.06C197.832 286.068 199.056 287.544 199.944 289.488C200.832 291.432 201.276 293.736 201.276 296.4C201.276 299.064 200.832 301.368 199.944 303.312C199.056 305.256 197.832 306.744 196.272 307.776C194.736 308.784 192.984 309.288 191.016 309.288ZM191.016 306.084C193.032 306.084 194.64 305.256 195.84 303.6C197.064 301.944 197.676 299.544 197.676 296.4C197.676 293.256 197.064 290.856 195.84 289.2C194.64 287.544 193.032 286.716 191.016 286.716C188.976 286.716 187.344 287.544 186.12 289.2C184.92 290.856 184.32 293.256 184.32 296.4C184.32 299.544 184.92 301.944 186.12 303.6C187.344 305.256 188.976 306.084 191.016 306.084ZM212.438 283.8V309H208.874V286.932H203.186V283.8H212.438Z" fill="white"/>
</g>
<g filter="url(#filter4_d)">
<path d="M410.755 251.932C412.459 252.34 413.743 253.072 414.607 254.128C415.495 255.16 415.939 256.492 415.939 258.124C415.939 260.308 415.135 262 413.527 263.2C411.943 264.4 409.627 265 406.579 265H395.059V239.8H405.895C408.655 239.8 410.803 240.364 412.339 241.492C413.899 242.596 414.679 244.192 414.679 246.28C414.679 247.648 414.331 248.812 413.635 249.772C412.963 250.732 412.003 251.452 410.755 251.932ZM398.623 250.888H405.643C407.395 250.888 408.727 250.54 409.639 249.844C410.575 249.148 411.043 248.128 411.043 246.784C411.043 245.44 410.575 244.42 409.639 243.724C408.703 243.004 407.371 242.644 405.643 242.644H398.623V250.888ZM406.507 262.156C410.371 262.156 412.303 260.716 412.303 257.836C412.303 256.396 411.811 255.34 410.827 254.668C409.867 253.972 408.427 253.624 406.507 253.624H398.623V262.156H406.507ZM421.377 245.92H424.833V259.816L436.533 245.92H439.665V265H436.209V251.104L424.545 265H421.377V245.92ZM453.789 256.936H449.829V265H446.373V245.92H449.829V253.984H453.861L460.053 245.92H463.761L456.525 255.1L464.265 265H460.197L453.789 256.936ZM475.428 265.216C473.532 265.216 471.828 264.796 470.316 263.956C468.804 263.116 467.616 261.964 466.752 260.5C465.912 259.012 465.492 257.332 465.492 255.46C465.492 253.588 465.912 251.92 466.752 250.456C467.616 248.968 468.804 247.816 470.316 247C471.828 246.16 473.532 245.74 475.428 245.74C477.324 245.74 479.016 246.16 480.504 247C482.016 247.816 483.192 248.968 484.032 250.456C484.896 251.92 485.328 253.588 485.328 255.46C485.328 257.332 484.896 259.012 484.032 260.5C483.192 261.964 482.016 263.116 480.504 263.956C479.016 264.796 477.324 265.216 475.428 265.216ZM475.428 262.192C476.652 262.192 477.744 261.916 478.704 261.364C479.688 260.788 480.456 259.996 481.008 258.988C481.56 257.956 481.836 256.78 481.836 255.46C481.836 254.14 481.56 252.976 481.008 251.968C480.456 250.936 479.688 250.144 478.704 249.592C477.744 249.04 476.652 248.764 475.428 248.764C474.204 248.764 473.1 249.04 472.116 249.592C471.156 250.144 470.388 250.936 469.812 251.968C469.26 252.976 468.984 254.14 468.984 255.46C468.984 256.78 469.26 257.956 469.812 258.988C470.388 259.996 471.156 260.788 472.116 261.364C473.1 261.916 474.204 262.192 475.428 262.192ZM490.319 245.92H493.775V254.02H504.647V245.92H508.103V265H504.647V257.008H493.775V265H490.319V245.92ZM521.627 245.74C524.267 245.74 526.283 246.388 527.675 247.684C529.091 248.98 529.799 250.912 529.799 253.48V265H526.523V262.48C525.947 263.368 525.119 264.052 524.039 264.532C522.983 264.988 521.723 265.216 520.259 265.216C518.123 265.216 516.407 264.7 515.111 263.668C513.839 262.636 513.203 261.28 513.203 259.6C513.203 257.92 513.815 256.576 515.039 255.568C516.263 254.536 518.207 254.02 520.871 254.02H526.343V253.336C526.343 251.848 525.911 250.708 525.047 249.916C524.183 249.124 522.911 248.728 521.231 248.728C520.103 248.728 518.999 248.92 517.919 249.304C516.839 249.664 515.927 250.156 515.183 250.78L513.743 248.188C514.727 247.396 515.903 246.796 517.271 246.388C518.639 245.956 520.091 245.74 521.627 245.74ZM520.835 262.552C522.155 262.552 523.295 262.264 524.255 261.688C525.215 261.088 525.911 260.248 526.343 259.168V256.504H521.015C518.087 256.504 516.623 257.488 516.623 259.456C516.623 260.416 516.995 261.172 517.739 261.724C518.483 262.276 519.515 262.552 520.835 262.552ZM536.022 245.92H539.478V259.816L551.178 245.92H554.31V265H550.854V251.104L539.19 265H536.022V245.92ZM544.95 243.436C543.174 243.436 541.794 243.016 540.81 242.176C539.826 241.312 539.322 240.076 539.298 238.468H541.638C541.662 239.356 541.962 240.076 542.538 240.628C543.138 241.156 543.93 241.42 544.914 241.42C545.898 241.42 546.69 241.156 547.29 240.628C547.89 240.076 548.202 239.356 548.226 238.468H550.638C550.614 240.076 550.098 241.312 549.09 242.176C548.082 243.016 546.702 243.436 544.95 243.436ZM584.906 248.944H577.922V265H574.466V248.944H567.482V245.92H584.906V248.944ZM604.84 255.568C604.84 255.832 604.816 256.18 604.768 256.612H589.288C589.504 258.292 590.236 259.648 591.484 260.68C592.756 261.688 594.328 262.192 596.2 262.192C598.48 262.192 600.316 261.424 601.708 259.888L603.616 262.12C602.752 263.128 601.672 263.896 600.376 264.424C599.104 264.952 597.676 265.216 596.092 265.216C594.076 265.216 592.288 264.808 590.728 263.992C589.168 263.152 587.956 261.988 587.092 260.5C586.252 259.012 585.832 257.332 585.832 255.46C585.832 253.612 586.24 251.944 587.056 250.456C587.896 248.968 589.036 247.816 590.476 247C591.94 246.16 593.584 245.74 595.408 245.74C597.232 245.74 598.852 246.16 600.268 247C601.708 247.816 602.824 248.968 603.616 250.456C604.432 251.944 604.84 253.648 604.84 255.568ZM595.408 248.656C593.752 248.656 592.36 249.16 591.232 250.168C590.128 251.176 589.48 252.496 589.288 254.128H601.528C601.336 252.52 600.676 251.212 599.548 250.204C598.444 249.172 597.064 248.656 595.408 248.656ZM618.518 265.216C616.574 265.216 614.834 264.796 613.298 263.956C611.786 263.116 610.598 261.964 609.734 260.5C608.87 259.012 608.438 257.332 608.438 255.46C608.438 253.588 608.87 251.92 609.734 250.456C610.598 248.968 611.786 247.816 613.298 247C614.834 246.16 616.574 245.74 618.518 245.74C620.246 245.74 621.782 246.088 623.126 246.784C624.494 247.48 625.55 248.488 626.294 249.808L623.666 251.5C623.066 250.588 622.322 249.904 621.434 249.448C620.546 248.992 619.562 248.764 618.482 248.764C617.234 248.764 616.106 249.04 615.098 249.592C614.114 250.144 613.334 250.936 612.758 251.968C612.206 252.976 611.93 254.14 611.93 255.46C611.93 256.804 612.206 257.992 612.758 259.024C613.334 260.032 614.114 260.812 615.098 261.364C616.106 261.916 617.234 262.192 618.482 262.192C619.562 262.192 620.546 261.964 621.434 261.508C622.322 261.052 623.066 260.368 623.666 259.456L626.294 261.112C625.55 262.432 624.494 263.452 623.126 264.172C621.782 264.868 620.246 265.216 618.518 265.216ZM644.742 248.944H637.758V265H634.302V248.944H627.318V245.92H644.742V248.944ZM655.604 265.216C653.708 265.216 652.004 264.796 650.492 263.956C648.98 263.116 647.792 261.964 646.928 260.5C646.088 259.012 645.668 257.332 645.668 255.46C645.668 253.588 646.088 251.92 646.928 250.456C647.792 248.968 648.98 247.816 650.492 247C652.004 246.16 653.708 245.74 655.604 245.74C657.5 245.74 659.192 246.16 660.68 247C662.192 247.816 663.368 248.968 664.208 250.456C665.072 251.92 665.504 253.588 665.504 255.46C665.504 257.332 665.072 259.012 664.208 260.5C663.368 261.964 662.192 263.116 660.68 263.956C659.192 264.796 657.5 265.216 655.604 265.216ZM655.604 262.192C656.828 262.192 657.92 261.916 658.88 261.364C659.864 260.788 660.632 259.996 661.184 258.988C661.736 257.956 662.012 256.78 662.012 255.46C662.012 254.14 661.736 252.976 661.184 251.968C660.632 250.936 659.864 250.144 658.88 249.592C657.92 249.04 656.828 248.764 655.604 248.764C654.38 248.764 653.276 249.04 652.292 249.592C651.332 250.144 650.564 250.936 649.988 251.968C649.436 252.976 649.16 254.14 649.16 255.46C649.16 256.78 649.436 257.956 649.988 258.988C650.564 259.996 651.332 260.788 652.292 261.364C653.276 261.916 654.38 262.192 655.604 262.192ZM683.49 255.1C685.962 255.724 687.198 257.272 687.198 259.744C687.198 261.424 686.562 262.72 685.29 263.632C684.042 264.544 682.17 265 679.674 265H670.494V245.92H679.35C681.606 245.92 683.37 246.352 684.642 247.216C685.914 248.056 686.55 249.256 686.55 250.816C686.55 251.824 686.274 252.7 685.722 253.444C685.194 254.164 684.45 254.716 683.49 255.1ZM673.878 254.128H679.062C680.382 254.128 681.378 253.888 682.05 253.408C682.746 252.928 683.094 252.232 683.094 251.32C683.094 249.496 681.75 248.584 679.062 248.584H673.878V254.128ZM679.422 262.336C680.862 262.336 681.942 262.108 682.662 261.652C683.382 261.196 683.742 260.488 683.742 259.528C683.742 258.544 683.406 257.812 682.734 257.332C682.086 256.852 681.054 256.612 679.638 256.612H673.878V262.336H679.422ZM709.852 255.568C709.852 255.832 709.828 256.18 709.78 256.612H694.3C694.516 258.292 695.248 259.648 696.496 260.68C697.768 261.688 699.34 262.192 701.212 262.192C703.492 262.192 705.328 261.424 706.72 259.888L708.628 262.12C707.764 263.128 706.684 263.896 705.388 264.424C704.116 264.952 702.688 265.216 701.104 265.216C699.088 265.216 697.3 264.808 695.74 263.992C694.18 263.152 692.968 261.988 692.104 260.5C691.264 259.012 690.844 257.332 690.844 255.46C690.844 253.612 691.252 251.944 692.068 250.456C692.908 248.968 694.048 247.816 695.488 247C696.952 246.16 698.596 245.74 700.42 245.74C702.244 245.74 703.864 246.16 705.28 247C706.72 247.816 707.836 248.968 708.628 250.456C709.444 251.944 709.852 253.648 709.852 255.568ZM700.42 248.656C698.764 248.656 697.372 249.16 696.244 250.168C695.14 251.176 694.492 252.496 694.3 254.128H706.54C706.348 252.52 705.688 251.212 704.56 250.204C703.456 249.172 702.076 248.656 700.42 248.656ZM475.655 299.064C476.927 299.4 477.911 299.94 478.607 300.684C479.303 301.428 479.651 302.352 479.651 303.456C479.651 304.584 479.267 305.592 478.499 306.48C477.731 307.344 476.663 308.028 475.295 308.532C473.951 309.012 472.439 309.252 470.759 309.252C469.343 309.252 467.951 309.072 466.583 308.712C465.239 308.328 464.039 307.788 462.983 307.092L464.027 304.464C464.939 305.04 465.983 305.496 467.159 305.832C468.335 306.144 469.523 306.3 470.723 306.3C472.355 306.3 473.651 306.024 474.611 305.472C475.595 304.896 476.087 304.128 476.087 303.168C476.087 302.28 475.691 301.596 474.899 301.116C474.131 300.636 473.039 300.396 471.623 300.396H468.131V297.912H471.371C472.667 297.912 473.687 297.684 474.431 297.228C475.175 296.772 475.547 296.148 475.547 295.356C475.547 294.492 475.103 293.82 474.215 293.34C473.351 292.86 472.175 292.62 470.687 292.62C468.791 292.62 466.787 293.112 464.675 294.096L463.739 291.432C466.067 290.256 468.503 289.668 471.047 289.668C472.583 289.668 473.963 289.884 475.187 290.316C476.411 290.748 477.371 291.36 478.067 292.152C478.763 292.944 479.111 293.844 479.111 294.852C479.111 295.788 478.799 296.628 478.175 297.372C477.551 298.116 476.711 298.68 475.655 299.064ZM491.709 289.74C494.349 289.74 496.365 290.388 497.757 291.684C499.173 292.98 499.881 294.912 499.881 297.48V309H496.605V306.48C496.029 307.368 495.201 308.052 494.121 308.532C493.065 308.988 491.805 309.216 490.341 309.216C488.205 309.216 486.489 308.7 485.193 307.668C483.921 306.636 483.285 305.28 483.285 303.6C483.285 301.92 483.897 300.576 485.121 299.568C486.345 298.536 488.289 298.02 490.953 298.02H496.425V297.336C496.425 295.848 495.993 294.708 495.129 293.916C494.265 293.124 492.993 292.728 491.313 292.728C490.185 292.728 489.081 292.92 488.001 293.304C486.921 293.664 486.009 294.156 485.265 294.78L483.825 292.188C484.809 291.396 485.985 290.796 487.353 290.388C488.721 289.956 490.173 289.74 491.709 289.74ZM490.917 306.552C492.237 306.552 493.377 306.264 494.337 305.688C495.297 305.088 495.993 304.248 496.425 303.168V300.504H491.097C488.169 300.504 486.705 301.488 486.705 303.456C486.705 304.416 487.077 305.172 487.821 305.724C488.565 306.276 489.597 306.552 490.917 306.552ZM519.1 299.1C521.572 299.724 522.808 301.272 522.808 303.744C522.808 305.424 522.172 306.72 520.9 307.632C519.652 308.544 517.78 309 515.284 309H506.104V289.92H514.96C517.216 289.92 518.98 290.352 520.252 291.216C521.524 292.056 522.16 293.256 522.16 294.816C522.16 295.824 521.884 296.7 521.332 297.444C520.804 298.164 520.06 298.716 519.1 299.1ZM509.488 298.128H514.672C515.992 298.128 516.988 297.888 517.66 297.408C518.356 296.928 518.704 296.232 518.704 295.32C518.704 293.496 517.36 292.584 514.672 292.584H509.488V298.128ZM515.032 306.336C516.472 306.336 517.552 306.108 518.272 305.652C518.992 305.196 519.352 304.488 519.352 303.528C519.352 302.544 519.016 301.812 518.344 301.332C517.696 300.852 516.664 300.612 515.248 300.612H509.488V306.336H515.032ZM547.621 305.976V313.428H544.381V309H528.433V313.428H525.157V305.976H526.165C527.389 305.904 528.229 305.04 528.685 303.384C529.141 301.728 529.453 299.388 529.621 296.364L529.909 289.92H544.705V305.976H547.621ZM532.789 296.616C532.693 299.016 532.489 301.008 532.177 302.592C531.889 304.152 531.349 305.28 530.557 305.976H541.249V292.944H532.969L532.789 296.616ZM558.927 289.74C561.567 289.74 563.583 290.388 564.975 291.684C566.391 292.98 567.099 294.912 567.099 297.48V309H563.823V306.48C563.247 307.368 562.419 308.052 561.339 308.532C560.283 308.988 559.023 309.216 557.559 309.216C555.423 309.216 553.707 308.7 552.411 307.668C551.139 306.636 550.503 305.28 550.503 303.6C550.503 301.92 551.115 300.576 552.339 299.568C553.563 298.536 555.507 298.02 558.171 298.02H563.643V297.336C563.643 295.848 563.211 294.708 562.347 293.916C561.483 293.124 560.211 292.728 558.531 292.728C557.403 292.728 556.299 292.92 555.219 293.304C554.139 293.664 553.227 294.156 552.483 294.78L551.043 292.188C552.027 291.396 553.203 290.796 554.571 290.388C555.939 289.956 557.391 289.74 558.927 289.74ZM558.135 306.552C559.455 306.552 560.595 306.264 561.555 305.688C562.515 305.088 563.211 304.248 563.643 303.168V300.504H558.315C555.387 300.504 553.923 301.488 553.923 303.456C553.923 304.416 554.295 305.172 555.039 305.724C555.783 306.276 556.815 306.552 558.135 306.552ZM573.323 289.92H576.779V298.02H587.651V289.92H591.107V309H587.651V301.008H576.779V309H573.323V289.92ZM597.827 289.92H601.283V298.02H612.155V289.92H615.611V309H612.155V301.008H601.283V309H597.827V289.92ZM637.63 289.92V309H634.534V302.952H628.99H628.594L624.418 309H620.71L625.354 302.484C623.914 302.052 622.81 301.344 622.042 300.36C621.274 299.352 620.89 298.104 620.89 296.616C620.89 294.432 621.634 292.776 623.122 291.648C624.61 290.496 626.662 289.92 629.278 289.92H637.63ZM624.418 296.724C624.418 297.996 624.814 298.944 625.606 299.568C626.422 300.168 627.634 300.468 629.242 300.468H634.534V292.944H629.386C626.074 292.944 624.418 294.204 624.418 296.724ZM501.883 349.976V357.428H498.643V353H482.695V357.428H479.419V349.976H480.427C481.651 349.904 482.491 349.04 482.947 347.384C483.403 345.728 483.715 343.388 483.883 340.364L484.171 333.92H498.967V349.976H501.883ZM487.051 340.616C486.955 343.016 486.751 345.008 486.439 346.592C486.151 348.152 485.611 349.28 484.819 349.976H495.511V336.944H487.231L487.051 340.616ZM514.557 353.216C512.661 353.216 510.957 352.796 509.445 351.956C507.933 351.116 506.745 349.964 505.881 348.5C505.041 347.012 504.621 345.332 504.621 343.46C504.621 341.588 505.041 339.92 505.881 338.456C506.745 336.968 507.933 335.816 509.445 335C510.957 334.16 512.661 333.74 514.557 333.74C516.453 333.74 518.145 334.16 519.633 335C521.145 335.816 522.321 336.968 523.161 338.456C524.025 339.92 524.457 341.588 524.457 343.46C524.457 345.332 524.025 347.012 523.161 348.5C522.321 349.964 521.145 351.116 519.633 351.956C518.145 352.796 516.453 353.216 514.557 353.216ZM514.557 350.192C515.781 350.192 516.873 349.916 517.833 349.364C518.817 348.788 519.585 347.996 520.137 346.988C520.689 345.956 520.965 344.78 520.965 343.46C520.965 342.14 520.689 340.976 520.137 339.968C519.585 338.936 518.817 338.144 517.833 337.592C516.873 337.04 515.781 336.764 514.557 336.764C513.333 336.764 512.229 337.04 511.245 337.592C510.285 338.144 509.517 338.936 508.941 339.968C508.389 340.976 508.113 342.14 508.113 343.46C508.113 344.78 508.389 345.956 508.941 346.988C509.517 347.996 510.285 348.788 511.245 349.364C512.229 349.916 513.333 350.192 514.557 350.192ZM555.208 349.868V353H537.1V350.552L547.36 340.652C548.608 339.452 549.448 338.42 549.88 337.556C550.312 336.668 550.528 335.78 550.528 334.892C550.528 333.572 550.06 332.552 549.124 331.832C548.212 331.088 546.892 330.716 545.164 330.716C542.38 330.716 540.232 331.628 538.72 333.452L536.272 331.328C537.256 330.128 538.54 329.192 540.124 328.52C541.732 327.848 543.52 327.512 545.488 327.512C548.128 327.512 550.228 328.148 551.788 329.42C553.348 330.668 554.128 332.372 554.128 334.532C554.128 335.876 553.84 337.148 553.264 338.348C552.688 339.548 551.596 340.916 549.988 342.452L542.284 349.868H555.208ZM568.934 337.7C570.59 337.7 572.066 338.012 573.362 338.636C574.682 339.26 575.714 340.16 576.458 341.336C577.202 342.488 577.574 343.82 577.574 345.332C577.574 346.916 577.178 348.308 576.386 349.508C575.618 350.708 574.55 351.644 573.182 352.316C571.838 352.964 570.326 353.288 568.646 353.288C565.262 353.288 562.646 352.196 560.798 350.012C558.974 347.828 558.062 344.732 558.062 340.724C558.062 337.916 558.554 335.528 559.538 333.56C560.546 331.568 561.938 330.068 563.714 329.06C565.514 328.028 567.602 327.512 569.978 327.512C571.202 327.512 572.354 327.644 573.434 327.908C574.514 328.148 575.45 328.508 576.242 328.988L574.874 331.796C573.674 331.004 572.066 330.608 570.05 330.608C567.434 330.608 565.382 331.424 563.894 333.056C562.406 334.664 561.662 337.016 561.662 340.112C561.662 340.496 561.674 340.796 561.698 341.012C562.418 339.932 563.402 339.116 564.65 338.564C565.922 337.988 567.35 337.7 568.934 337.7ZM568.502 350.372C570.158 350.372 571.502 349.928 572.534 349.04C573.566 348.152 574.082 346.964 574.082 345.476C574.082 343.988 573.554 342.812 572.498 341.948C571.466 341.06 570.074 340.616 568.322 340.616C567.194 340.616 566.186 340.832 565.298 341.264C564.434 341.696 563.75 342.284 563.246 343.028C562.766 343.772 562.526 344.6 562.526 345.512C562.526 346.4 562.754 347.216 563.21 347.96C563.69 348.68 564.374 349.268 565.262 349.724C566.174 350.156 567.254 350.372 568.502 350.372ZM583.008 353.216C582.336 353.216 581.76 352.988 581.28 352.532C580.8 352.052 580.56 351.452 580.56 350.732C580.56 350.036 580.8 349.46 581.28 349.004C581.76 348.524 582.336 348.284 583.008 348.284C583.68 348.284 584.244 348.512 584.7 348.968C585.156 349.424 585.384 350.012 585.384 350.732C585.384 351.452 585.144 352.052 584.664 352.532C584.208 352.988 583.656 353.216 583.008 353.216ZM598.663 353.288C596.671 353.288 594.895 352.784 593.335 351.776C591.799 350.744 590.587 349.256 589.699 347.312C588.811 345.368 588.367 343.064 588.367 340.4C588.367 337.736 588.811 335.432 589.699 333.488C590.587 331.544 591.799 330.068 593.335 329.06C594.895 328.028 596.671 327.512 598.663 327.512C600.631 327.512 602.383 328.028 603.919 329.06C605.479 330.068 606.703 331.544 607.591 333.488C608.479 335.432 608.923 337.736 608.923 340.4C608.923 343.064 608.479 345.368 607.591 347.312C606.703 349.256 605.479 350.744 603.919 351.776C602.383 352.784 600.631 353.288 598.663 353.288ZM598.663 350.084C600.679 350.084 602.287 349.256 603.487 347.6C604.711 345.944 605.323 343.544 605.323 340.4C605.323 337.256 604.711 334.856 603.487 333.2C602.287 331.544 600.679 330.716 598.663 330.716C596.623 330.716 594.991 331.544 593.767 333.2C592.567 334.856 591.967 337.256 591.967 340.4C591.967 343.544 592.567 345.944 593.767 347.6C594.991 349.256 596.623 350.084 598.663 350.084ZM620.085 327.8V353H616.521V330.932H610.833V327.8H620.085Z" fill="white"/>
</g>
<g filter="url(#filter5_d)">
<path d="M884.491 265.288C881.947 265.288 879.655 264.736 877.615 263.632C875.575 262.504 873.967 260.956 872.791 258.988C871.639 257.02 871.063 254.824 871.063 252.4C871.063 249.976 871.639 247.78 872.791 245.812C873.967 243.844 875.575 242.308 877.615 241.204C879.655 240.076 881.947 239.512 884.491 239.512C887.011 239.512 889.291 240.076 891.331 241.204C893.371 242.308 894.967 243.844 896.119 245.812C897.271 247.756 897.847 249.952 897.847 252.4C897.847 254.848 897.271 257.056 896.119 259.024C894.967 260.968 893.371 262.504 891.331 263.632C889.291 264.736 887.011 265.288 884.491 265.288ZM884.491 262.084C886.339 262.084 887.995 261.664 889.459 260.824C890.947 259.984 892.111 258.832 892.951 257.368C893.815 255.88 894.247 254.224 894.247 252.4C894.247 250.576 893.815 248.932 892.951 247.468C892.111 245.98 890.947 244.816 889.459 243.976C887.995 243.136 886.339 242.716 884.491 242.716C882.643 242.716 880.963 243.136 879.451 243.976C877.963 244.816 876.787 245.98 875.923 247.468C875.083 248.932 874.663 250.576 874.663 252.4C874.663 254.224 875.083 255.88 875.923 257.368C876.787 258.832 877.963 259.984 879.451 260.824C880.963 261.664 882.643 262.084 884.491 262.084ZM916.888 248.944H909.904V265H906.448V248.944H899.464V245.92H916.888V248.944ZM930.538 245.74C932.386 245.74 934.042 246.148 935.506 246.964C936.97 247.78 938.11 248.92 938.926 250.384C939.766 251.848 940.186 253.54 940.186 255.46C940.186 257.38 939.766 259.084 938.926 260.572C938.11 262.036 936.97 263.176 935.506 263.992C934.042 264.808 932.386 265.216 930.538 265.216C929.17 265.216 927.91 264.952 926.758 264.424C925.63 263.896 924.67 263.128 923.878 262.12V271.984H920.422V245.92H923.734V248.944C924.502 247.888 925.474 247.096 926.65 246.568C927.826 246.016 929.122 245.74 930.538 245.74ZM930.25 262.192C931.474 262.192 932.566 261.916 933.526 261.364C934.51 260.788 935.278 259.996 935.83 258.988C936.406 257.956 936.694 256.78 936.694 255.46C936.694 254.14 936.406 252.976 935.83 251.968C935.278 250.936 934.51 250.144 933.526 249.592C932.566 249.04 931.474 248.764 930.25 248.764C929.05 248.764 927.958 249.052 926.974 249.628C926.014 250.18 925.246 250.96 924.67 251.968C924.118 252.976 923.842 254.14 923.842 255.46C923.842 256.78 924.118 257.956 924.67 258.988C925.222 259.996 925.99 260.788 926.974 261.364C927.958 261.916 929.05 262.192 930.25 262.192ZM945.207 245.92H948.663V259.816L960.363 245.92H963.495V265H960.039V251.104L948.375 265H945.207V245.92ZM992.199 245.92V265H989.067V251.068L981.939 262.84H980.427L973.371 251.032V265H970.203V245.92H973.767L981.255 258.808L988.959 245.92H992.199ZM1005.73 245.74C1008.37 245.74 1010.39 246.388 1011.78 247.684C1013.19 248.98 1013.9 250.912 1013.9 253.48V265H1010.63V262.48C1010.05 263.368 1009.22 264.052 1008.14 264.532C1007.09 264.988 1005.83 265.216 1004.36 265.216C1002.23 265.216 1000.51 264.7 999.214 263.668C997.942 262.636 997.306 261.28 997.306 259.6C997.306 257.92 997.918 256.576 999.142 255.568C1000.37 254.536 1002.31 254.02 1004.97 254.02H1010.45V253.336C1010.45 251.848 1010.01 250.708 1009.15 249.916C1008.29 249.124 1007.01 248.728 1005.33 248.728C1004.21 248.728 1003.1 248.92 1002.02 249.304C1000.94 249.664 1000.03 250.156 999.286 250.78L997.846 248.188C998.83 247.396 1000.01 246.796 1001.37 246.388C1002.74 245.956 1004.19 245.74 1005.73 245.74ZM1004.94 262.552C1006.26 262.552 1007.4 262.264 1008.36 261.688C1009.32 261.088 1010.01 260.248 1010.45 259.168V256.504H1005.12C1002.19 256.504 1000.73 257.488 1000.73 259.456C1000.73 260.416 1001.1 261.172 1001.84 261.724C1002.59 262.276 1003.62 262.552 1004.94 262.552ZM1020.13 245.92H1023.58V259.816L1035.28 245.92H1038.41V265H1034.96V251.104L1023.29 265H1020.13V245.92ZM1029.05 243.436C1027.28 243.436 1025.9 243.016 1024.91 242.176C1023.93 241.312 1023.43 240.076 1023.4 238.468H1025.74C1025.77 239.356 1026.07 240.076 1026.64 240.628C1027.24 241.156 1028.03 241.42 1029.02 241.42C1030 241.42 1030.79 241.156 1031.39 240.628C1031.99 240.076 1032.31 239.356 1032.33 238.468H1034.74C1034.72 240.076 1034.2 241.312 1033.19 242.176C1032.19 243.016 1030.81 243.436 1029.05 243.436ZM848.91 299.064C850.182 299.4 851.166 299.94 851.862 300.684C852.558 301.428 852.906 302.352 852.906 303.456C852.906 304.584 852.522 305.592 851.754 306.48C850.986 307.344 849.918 308.028 848.55 308.532C847.206 309.012 845.694 309.252 844.014 309.252C842.598 309.252 841.206 309.072 839.838 308.712C838.494 308.328 837.294 307.788 836.238 307.092L837.282 304.464C838.194 305.04 839.238 305.496 840.414 305.832C841.59 306.144 842.778 306.3 843.978 306.3C845.61 306.3 846.906 306.024 847.866 305.472C848.85 304.896 849.342 304.128 849.342 303.168C849.342 302.28 848.946 301.596 848.154 301.116C847.386 300.636 846.294 300.396 844.878 300.396H841.386V297.912H844.626C845.922 297.912 846.942 297.684 847.686 297.228C848.43 296.772 848.802 296.148 848.802 295.356C848.802 294.492 848.358 293.82 847.47 293.34C846.606 292.86 845.43 292.62 843.942 292.62C842.046 292.62 840.042 293.112 837.93 294.096L836.994 291.432C839.322 290.256 841.758 289.668 844.302 289.668C845.838 289.668 847.218 289.884 848.442 290.316C849.666 290.748 850.626 291.36 851.322 292.152C852.018 292.944 852.366 293.844 852.366 294.852C852.366 295.788 852.054 296.628 851.43 297.372C850.806 298.116 849.966 298.68 848.91 299.064ZM864.965 289.74C867.605 289.74 869.621 290.388 871.013 291.684C872.429 292.98 873.137 294.912 873.137 297.48V309H869.861V306.48C869.285 307.368 868.457 308.052 867.377 308.532C866.321 308.988 865.061 309.216 863.597 309.216C861.461 309.216 859.745 308.7 858.449 307.668C857.177 306.636 856.541 305.28 856.541 303.6C856.541 301.92 857.153 300.576 858.377 299.568C859.601 298.536 861.545 298.02 864.209 298.02H869.681V297.336C869.681 295.848 869.249 294.708 868.385 293.916C867.521 293.124 866.249 292.728 864.569 292.728C863.441 292.728 862.337 292.92 861.257 293.304C860.177 293.664 859.265 294.156 858.521 294.78L857.081 292.188C858.065 291.396 859.241 290.796 860.609 290.388C861.977 289.956 863.429 289.74 864.965 289.74ZM864.173 306.552C865.493 306.552 866.633 306.264 867.593 305.688C868.553 305.088 869.249 304.248 869.681 303.168V300.504H864.353C861.425 300.504 859.961 301.488 859.961 303.456C859.961 304.416 860.333 305.172 861.077 305.724C861.821 306.276 862.853 306.552 864.173 306.552ZM897.036 289.92V309H893.58V292.944H882.816V309H879.36V289.92H897.036ZM913.839 289.74C915.687 289.74 917.343 290.148 918.807 290.964C920.271 291.78 921.411 292.92 922.227 294.384C923.067 295.848 923.487 297.54 923.487 299.46C923.487 301.38 923.067 303.084 922.227 304.572C921.411 306.036 920.271 307.176 918.807 307.992C917.343 308.808 915.687 309.216 913.839 309.216C912.471 309.216 911.211 308.952 910.059 308.424C908.931 307.896 907.971 307.128 907.179 306.12V315.984H903.723V289.92H907.035V292.944C907.803 291.888 908.775 291.096 909.951 290.568C911.127 290.016 912.423 289.74 913.839 289.74ZM913.551 306.192C914.775 306.192 915.867 305.916 916.827 305.364C917.811 304.788 918.579 303.996 919.131 302.988C919.707 301.956 919.995 300.78 919.995 299.46C919.995 298.14 919.707 296.976 919.131 295.968C918.579 294.936 917.811 294.144 916.827 293.592C915.867 293.04 914.775 292.764 913.551 292.764C912.351 292.764 911.259 293.052 910.275 293.628C909.315 294.18 908.547 294.96 907.971 295.968C907.419 296.976 907.143 298.14 907.143 299.46C907.143 300.78 907.419 301.956 907.971 302.988C908.523 303.996 909.291 304.788 910.275 305.364C911.259 305.916 912.351 306.192 913.551 306.192ZM936.68 309.216C934.784 309.216 933.08 308.796 931.568 307.956C930.056 307.116 928.868 305.964 928.004 304.5C927.164 303.012 926.744 301.332 926.744 299.46C926.744 297.588 927.164 295.92 928.004 294.456C928.868 292.968 930.056 291.816 931.568 291C933.08 290.16 934.784 289.74 936.68 289.74C938.576 289.74 940.268 290.16 941.756 291C943.268 291.816 944.444 292.968 945.284 294.456C946.148 295.92 946.58 297.588 946.58 299.46C946.58 301.332 946.148 303.012 945.284 304.5C944.444 305.964 943.268 307.116 941.756 307.956C940.268 308.796 938.576 309.216 936.68 309.216ZM936.68 306.192C937.904 306.192 938.996 305.916 939.956 305.364C940.94 304.788 941.708 303.996 942.26 302.988C942.812 301.956 943.088 300.78 943.088 299.46C943.088 298.14 942.812 296.976 942.26 295.968C941.708 294.936 940.94 294.144 939.956 293.592C938.996 293.04 937.904 292.764 936.68 292.764C935.456 292.764 934.352 293.04 933.368 293.592C932.408 294.144 931.64 294.936 931.064 295.968C930.512 296.976 930.236 298.14 930.236 299.46C930.236 300.78 930.512 301.956 931.064 302.988C931.64 303.996 932.408 304.788 933.368 305.364C934.352 305.916 935.456 306.192 936.68 306.192ZM978.751 289.92V309H951.571V289.92H955.027V305.976H963.451V289.92H966.907V305.976H975.295V289.92H978.751ZM1002.71 299.568C1002.71 299.832 1002.68 300.18 1002.63 300.612H987.153C987.369 302.292 988.101 303.648 989.349 304.68C990.621 305.688 992.193 306.192 994.065 306.192C996.345 306.192 998.181 305.424 999.573 303.888L1001.48 306.12C1000.62 307.128 999.537 307.896 998.241 308.424C996.969 308.952 995.541 309.216 993.957 309.216C991.941 309.216 990.153 308.808 988.593 307.992C987.033 307.152 985.821 305.988 984.957 304.5C984.117 303.012 983.697 301.332 983.697 299.46C983.697 297.612 984.105 295.944 984.921 294.456C985.761 292.968 986.901 291.816 988.341 291C989.805 290.16 991.449 289.74 993.273 289.74C995.097 289.74 996.717 290.16 998.133 291C999.573 291.816 1000.69 292.968 1001.48 294.456C1002.3 295.944 1002.71 297.648 1002.71 299.568ZM993.273 292.656C991.617 292.656 990.225 293.16 989.097 294.168C987.993 295.176 987.345 296.496 987.153 298.128H999.393C999.201 296.52 998.541 295.212 997.413 294.204C996.309 293.172 994.929 292.656 993.273 292.656ZM1008.07 289.92H1011.52V298.02H1022.39V289.92H1025.85V309H1022.39V301.008H1011.52V309H1008.07V289.92ZM1032.57 289.92H1036.03V298.02H1046.9V289.92H1050.35V309H1046.9V301.008H1036.03V309H1032.57V289.92ZM1072.37 289.92V309H1069.28V302.952H1063.73H1063.34L1059.16 309H1055.45L1060.1 302.484C1058.66 302.052 1057.55 301.344 1056.79 300.36C1056.02 299.352 1055.63 298.104 1055.63 296.616C1055.63 294.432 1056.38 292.776 1057.87 291.648C1059.35 290.496 1061.41 289.92 1064.02 289.92H1072.37ZM1059.16 296.724C1059.16 297.996 1059.56 298.944 1060.35 299.568C1061.17 300.168 1062.38 300.468 1063.99 300.468H1069.28V292.944H1064.13C1060.82 292.944 1059.16 294.204 1059.16 296.724ZM902.068 349.976V357.428H898.828V353H882.88V357.428H879.604V349.976H880.612C881.836 349.904 882.676 349.04 883.132 347.384C883.588 345.728 883.9 343.388 884.068 340.364L884.356 333.92H899.152V349.976H902.068ZM887.236 340.616C887.14 343.016 886.936 345.008 886.624 346.592C886.336 348.152 885.796 349.28 885.004 349.976H895.696V336.944H887.416L887.236 340.616ZM914.743 353.216C912.847 353.216 911.143 352.796 909.631 351.956C908.119 351.116 906.931 349.964 906.067 348.5C905.227 347.012 904.807 345.332 904.807 343.46C904.807 341.588 905.227 339.92 906.067 338.456C906.931 336.968 908.119 335.816 909.631 335C911.143 334.16 912.847 333.74 914.743 333.74C916.639 333.74 918.331 334.16 919.819 335C921.331 335.816 922.507 336.968 923.347 338.456C924.211 339.92 924.643 341.588 924.643 343.46C924.643 345.332 924.211 347.012 923.347 348.5C922.507 349.964 921.331 351.116 919.819 351.956C918.331 352.796 916.639 353.216 914.743 353.216ZM914.743 350.192C915.967 350.192 917.059 349.916 918.019 349.364C919.003 348.788 919.771 347.996 920.323 346.988C920.875 345.956 921.151 344.78 921.151 343.46C921.151 342.14 920.875 340.976 920.323 339.968C919.771 338.936 919.003 338.144 918.019 337.592C917.059 337.04 915.967 336.764 914.743 336.764C913.519 336.764 912.415 337.04 911.431 337.592C910.471 338.144 909.703 338.936 909.127 339.968C908.575 340.976 908.299 342.14 908.299 343.46C908.299 344.78 908.575 345.956 909.127 346.988C909.703 347.996 910.471 348.788 911.431 349.364C912.415 349.916 913.519 350.192 914.743 350.192ZM947.977 353.288C945.985 353.288 944.209 352.784 942.649 351.776C941.113 350.744 939.901 349.256 939.013 347.312C938.125 345.368 937.681 343.064 937.681 340.4C937.681 337.736 938.125 335.432 939.013 333.488C939.901 331.544 941.113 330.068 942.649 329.06C944.209 328.028 945.985 327.512 947.977 327.512C949.945 327.512 951.697 328.028 953.233 329.06C954.793 330.068 956.017 331.544 956.905 333.488C957.793 335.432 958.237 337.736 958.237 340.4C958.237 343.064 957.793 345.368 956.905 347.312C956.017 349.256 954.793 350.744 953.233 351.776C951.697 352.784 949.945 353.288 947.977 353.288ZM947.977 350.084C949.993 350.084 951.601 349.256 952.801 347.6C954.025 345.944 954.637 343.544 954.637 340.4C954.637 337.256 954.025 334.856 952.801 333.2C951.601 331.544 949.993 330.716 947.977 330.716C945.937 330.716 944.305 331.544 943.081 333.2C941.881 334.856 941.281 337.256 941.281 340.4C941.281 343.544 941.881 345.944 943.081 347.6C944.305 349.256 945.937 350.084 947.977 350.084ZM979.807 327.8V330.248L969.619 353H965.803L975.775 330.932H964.255V335.432H960.799V327.8H979.807ZM983.475 353.216C982.803 353.216 982.227 352.988 981.747 352.532C981.267 352.052 981.027 351.452 981.027 350.732C981.027 350.036 981.267 349.46 981.747 349.004C982.227 348.524 982.803 348.284 983.475 348.284C984.147 348.284 984.711 348.512 985.167 348.968C985.623 349.424 985.851 350.012 985.851 350.732C985.851 351.452 985.611 352.052 985.131 352.532C984.675 352.988 984.123 353.216 983.475 353.216ZM999.129 353.288C997.137 353.288 995.361 352.784 993.801 351.776C992.265 350.744 991.053 349.256 990.165 347.312C989.277 345.368 988.833 343.064 988.833 340.4C988.833 337.736 989.277 335.432 990.165 333.488C991.053 331.544 992.265 330.068 993.801 329.06C995.361 328.028 997.137 327.512 999.129 327.512C1001.1 327.512 1002.85 328.028 1004.39 329.06C1005.95 330.068 1007.17 331.544 1008.06 333.488C1008.95 335.432 1009.39 337.736 1009.39 340.4C1009.39 343.064 1008.95 345.368 1008.06 347.312C1007.17 349.256 1005.95 350.744 1004.39 351.776C1002.85 352.784 1001.1 353.288 999.129 353.288ZM999.129 350.084C1001.15 350.084 1002.75 349.256 1003.95 347.6C1005.18 345.944 1005.79 343.544 1005.79 340.4C1005.79 337.256 1005.18 334.856 1003.95 333.2C1002.75 331.544 1001.15 330.716 999.129 330.716C997.089 330.716 995.457 331.544 994.233 333.2C993.033 334.856 992.433 337.256 992.433 340.4C992.433 343.544 993.033 345.944 994.233 347.6C995.457 349.256 997.089 350.084 999.129 350.084ZM1030.45 349.868V353H1012.34V350.552L1022.6 340.652C1023.85 339.452 1024.69 338.42 1025.12 337.556C1025.56 336.668 1025.77 335.78 1025.77 334.892C1025.77 333.572 1025.3 332.552 1024.37 331.832C1023.46 331.088 1022.14 330.716 1020.41 330.716C1017.62 330.716 1015.48 331.628 1013.96 333.452L1011.52 331.328C1012.5 330.128 1013.78 329.192 1015.37 328.52C1016.98 327.848 1018.76 327.512 1020.73 327.512C1023.37 327.512 1025.47 328.148 1027.03 329.42C1028.59 330.668 1029.37 332.372 1029.37 334.532C1029.37 335.876 1029.08 337.148 1028.51 338.348C1027.93 339.548 1026.84 340.916 1025.23 342.452L1017.53 349.868H1030.45Z" fill="white"/>
</g>
<g filter="url(#filter6_d)">
<path d="M1285.83 261.868V270.508H1282.48V265H1261.75L1261.71 270.508H1258.36L1258.4 261.868H1259.62C1261.21 261.772 1262.32 260.524 1262.97 258.124C1263.62 255.7 1264.02 252.292 1264.16 247.9L1264.41 239.8H1282.12V261.868H1285.83ZM1267.33 248.224C1267.21 251.776 1266.92 254.716 1266.46 257.044C1266.03 259.372 1265.32 260.98 1264.34 261.868H1278.56V242.932H1267.51L1267.33 248.224ZM1297.93 265.216C1296.03 265.216 1294.33 264.796 1292.82 263.956C1291.3 263.116 1290.12 261.964 1289.25 260.5C1288.41 259.012 1287.99 257.332 1287.99 255.46C1287.99 253.588 1288.41 251.92 1289.25 250.456C1290.12 248.968 1291.3 247.816 1292.82 247C1294.33 246.16 1296.03 245.74 1297.93 245.74C1299.82 245.74 1301.52 246.16 1303 247C1304.52 247.816 1305.69 248.968 1306.53 250.456C1307.4 251.92 1307.83 253.588 1307.83 255.46C1307.83 257.332 1307.4 259.012 1306.53 260.5C1305.69 261.964 1304.52 263.116 1303 263.956C1301.52 264.796 1299.82 265.216 1297.93 265.216ZM1297.93 262.192C1299.15 262.192 1300.24 261.916 1301.2 261.364C1302.19 260.788 1302.96 259.996 1303.51 258.988C1304.06 257.956 1304.34 256.78 1304.34 255.46C1304.34 254.14 1304.06 252.976 1303.51 251.968C1302.96 250.936 1302.19 250.144 1301.2 249.592C1300.24 249.04 1299.15 248.764 1297.93 248.764C1296.7 248.764 1295.6 249.04 1294.62 249.592C1293.66 250.144 1292.89 250.936 1292.31 251.968C1291.76 252.976 1291.48 254.14 1291.48 255.46C1291.48 256.78 1291.76 257.956 1292.31 258.988C1292.89 259.996 1293.66 260.788 1294.62 261.364C1295.6 261.916 1296.7 262.192 1297.93 262.192ZM1329.06 245.92V265H1325.6V248.944H1317.39L1317.18 253.192C1317.06 255.76 1316.83 257.908 1316.49 259.636C1316.16 261.34 1315.61 262.708 1314.84 263.74C1314.07 264.772 1313 265.288 1311.63 265.288C1311.01 265.288 1310.3 265.18 1309.51 264.964L1309.73 262.048C1310.04 262.12 1310.33 262.156 1310.59 262.156C1311.55 262.156 1312.27 261.736 1312.75 260.896C1313.23 260.056 1313.54 259.06 1313.69 257.908C1313.83 256.756 1313.96 255.112 1314.08 252.976L1314.41 245.92H1329.06ZM1352.77 245.92L1343.52 266.908C1342.7 268.852 1341.74 270.22 1340.64 271.012C1339.56 271.804 1338.25 272.2 1336.71 272.2C1335.78 272.2 1334.86 272.044 1333.98 271.732C1333.11 271.444 1332.39 271.012 1331.82 270.436L1333.29 267.844C1334.28 268.78 1335.42 269.248 1336.71 269.248C1337.55 269.248 1338.25 269.02 1338.8 268.564C1339.38 268.132 1339.89 267.376 1340.35 266.296L1340.96 264.964L1332.54 245.92H1336.14L1342.8 261.184L1349.38 245.92H1352.77ZM1371.53 245.92V265H1368.08V257.296C1366.01 258.256 1363.96 258.736 1361.92 258.736C1359.55 258.736 1357.71 258.184 1356.41 257.08C1355.12 255.976 1354.47 254.32 1354.47 252.112V245.92H1357.93V251.896C1357.93 253.216 1358.33 254.212 1359.15 254.884C1359.99 255.556 1361.15 255.892 1362.64 255.892C1364.32 255.892 1366.13 255.472 1368.08 254.632V245.92H1371.53ZM1385.05 245.74C1387.69 245.74 1389.7 246.388 1391.1 247.684C1392.51 248.98 1393.22 250.912 1393.22 253.48V265H1389.94V262.48C1389.37 263.368 1388.54 264.052 1387.46 264.532C1386.4 264.988 1385.14 265.216 1383.68 265.216C1381.54 265.216 1379.83 264.7 1378.53 263.668C1377.26 262.636 1376.62 261.28 1376.62 259.6C1376.62 257.92 1377.24 256.576 1378.46 255.568C1379.68 254.536 1381.63 254.02 1384.29 254.02H1389.76V253.336C1389.76 251.848 1389.33 250.708 1388.47 249.916C1387.6 249.124 1386.33 248.728 1384.65 248.728C1383.52 248.728 1382.42 248.92 1381.34 249.304C1380.26 249.664 1379.35 250.156 1378.6 250.78L1377.16 248.188C1378.15 247.396 1379.32 246.796 1380.69 246.388C1382.06 245.956 1383.51 245.74 1385.05 245.74ZM1384.26 262.552C1385.58 262.552 1386.72 262.264 1387.68 261.688C1388.64 261.088 1389.33 260.248 1389.76 259.168V256.504H1384.44C1381.51 256.504 1380.04 257.488 1380.04 259.456C1380.04 260.416 1380.42 261.172 1381.16 261.724C1381.9 262.276 1382.94 262.552 1384.26 262.552ZM1399.44 245.92H1402.9V259.816L1414.6 245.92H1417.73V265H1414.28V251.104L1402.61 265H1399.44V245.92ZM1408.37 243.436C1406.6 243.436 1405.22 243.016 1404.23 242.176C1403.25 241.312 1402.74 240.076 1402.72 238.468H1405.06C1405.08 239.356 1405.38 240.076 1405.96 240.628C1406.56 241.156 1407.35 241.42 1408.34 241.42C1409.32 241.42 1410.11 241.156 1410.71 240.628C1411.31 240.076 1411.62 239.356 1411.65 238.468H1414.06C1414.04 240.076 1413.52 241.312 1412.51 242.176C1411.5 243.016 1410.12 243.436 1408.37 243.436ZM1432.76 265.216C1430.81 265.216 1429.07 264.796 1427.54 263.956C1426.02 263.116 1424.84 261.964 1423.97 260.5C1423.11 259.012 1422.68 257.332 1422.68 255.46C1422.68 253.588 1423.11 251.92 1423.97 250.456C1424.84 248.968 1426.02 247.816 1427.54 247C1429.07 246.16 1430.81 245.74 1432.76 245.74C1434.48 245.74 1436.02 246.088 1437.36 246.784C1438.73 247.48 1439.79 248.488 1440.53 249.808L1437.9 251.5C1437.3 250.588 1436.56 249.904 1435.67 249.448C1434.78 248.992 1433.8 248.764 1432.72 248.764C1431.47 248.764 1430.34 249.04 1429.34 249.592C1428.35 250.144 1427.57 250.936 1427 251.968C1426.44 252.976 1426.17 254.14 1426.17 255.46C1426.17 256.804 1426.44 257.992 1427 259.024C1427.57 260.032 1428.35 260.812 1429.34 261.364C1430.34 261.916 1431.47 262.192 1432.72 262.192C1433.8 262.192 1434.78 261.964 1435.67 261.508C1436.56 261.052 1437.3 260.368 1437.9 259.456L1440.53 261.112C1439.79 262.432 1438.73 263.452 1437.36 264.172C1436.02 264.868 1434.48 265.216 1432.76 265.216ZM1459.71 245.92V265H1456.61V258.952H1451.07H1450.67L1446.5 265H1442.79L1447.43 258.484C1445.99 258.052 1444.89 257.344 1444.12 256.36C1443.35 255.352 1442.97 254.104 1442.97 252.616C1442.97 250.432 1443.71 248.776 1445.2 247.648C1446.69 246.496 1448.74 245.92 1451.36 245.92H1459.71ZM1446.5 252.724C1446.5 253.996 1446.89 254.944 1447.68 255.568C1448.5 256.168 1449.71 256.468 1451.32 256.468H1456.61V248.944H1451.46C1448.15 248.944 1446.5 250.204 1446.5 252.724ZM1271.07 305.976V313.428H1267.83V309H1251.88V313.428H1248.6V305.976H1249.61C1250.84 305.904 1251.68 305.04 1252.13 303.384C1252.59 301.728 1252.9 299.388 1253.07 296.364L1253.36 289.92H1268.15V305.976H1271.07ZM1256.24 296.616C1256.14 299.016 1255.94 301.008 1255.62 302.592C1255.34 304.152 1254.8 305.28 1254 305.976H1264.7V292.944H1256.42L1256.24 296.616ZM1283.74 309.216C1281.85 309.216 1280.14 308.796 1278.63 307.956C1277.12 307.116 1275.93 305.964 1275.07 304.5C1274.23 303.012 1273.81 301.332 1273.81 299.46C1273.81 297.588 1274.23 295.92 1275.07 294.456C1275.93 292.968 1277.12 291.816 1278.63 291C1280.14 290.16 1281.85 289.74 1283.74 289.74C1285.64 289.74 1287.33 290.16 1288.82 291C1290.33 291.816 1291.51 292.968 1292.35 294.456C1293.21 295.92 1293.64 297.588 1293.64 299.46C1293.64 301.332 1293.21 303.012 1292.35 304.5C1291.51 305.964 1290.33 307.116 1288.82 307.956C1287.33 308.796 1285.64 309.216 1283.74 309.216ZM1283.74 306.192C1284.97 306.192 1286.06 305.916 1287.02 305.364C1288 304.788 1288.77 303.996 1289.32 302.988C1289.87 301.956 1290.15 300.78 1290.15 299.46C1290.15 298.14 1289.87 296.976 1289.32 295.968C1288.77 294.936 1288 294.144 1287.02 293.592C1286.06 293.04 1284.97 292.764 1283.74 292.764C1282.52 292.764 1281.41 293.04 1280.43 293.592C1279.47 294.144 1278.7 294.936 1278.13 295.968C1277.57 296.976 1277.3 298.14 1277.3 299.46C1277.3 300.78 1277.57 301.956 1278.13 302.988C1278.7 303.996 1279.47 304.788 1280.43 305.364C1281.41 305.916 1282.52 306.192 1283.74 306.192ZM1320.22 309L1314.71 301.692L1309.13 309H1305.28L1312.8 299.244L1305.64 289.92H1309.49L1314.75 296.796L1319.97 289.92H1323.75L1316.55 299.244L1324.14 309H1320.22ZM1334.23 289.74C1336.87 289.74 1338.89 290.388 1340.28 291.684C1341.69 292.98 1342.4 294.912 1342.4 297.48V309H1339.13V306.48C1338.55 307.368 1337.72 308.052 1336.64 308.532C1335.59 308.988 1334.33 309.216 1332.86 309.216C1330.73 309.216 1329.01 308.7 1327.71 307.668C1326.44 306.636 1325.81 305.28 1325.81 303.6C1325.81 301.92 1326.42 300.576 1327.64 299.568C1328.87 298.536 1330.81 298.02 1333.47 298.02H1338.95V297.336C1338.95 295.848 1338.51 294.708 1337.65 293.916C1336.79 293.124 1335.51 292.728 1333.83 292.728C1332.71 292.728 1331.6 292.92 1330.52 293.304C1329.44 293.664 1328.53 294.156 1327.79 294.78L1326.35 292.188C1327.33 291.396 1328.51 290.796 1329.87 290.388C1331.24 289.956 1332.69 289.74 1334.23 289.74ZM1333.44 306.552C1334.76 306.552 1335.9 306.264 1336.86 305.688C1337.82 305.088 1338.51 304.248 1338.95 303.168V300.504H1333.62C1330.69 300.504 1329.23 301.488 1329.23 303.456C1329.23 304.416 1329.6 305.172 1330.34 305.724C1331.09 306.276 1332.12 306.552 1333.44 306.552ZM1356.04 300.936H1352.08V309H1348.63V289.92H1352.08V297.984H1356.11L1362.31 289.92H1366.01L1358.78 299.1L1366.52 309H1362.45L1356.04 300.936ZM1376.59 289.74C1379.23 289.74 1381.25 290.388 1382.64 291.684C1384.06 292.98 1384.77 294.912 1384.77 297.48V309H1381.49V306.48C1380.91 307.368 1380.09 308.052 1379.01 308.532C1377.95 308.988 1376.69 309.216 1375.23 309.216C1373.09 309.216 1371.37 308.7 1370.08 307.668C1368.81 306.636 1368.17 305.28 1368.17 303.6C1368.17 301.92 1368.78 300.576 1370.01 299.568C1371.23 298.536 1373.17 298.02 1375.84 298.02H1381.31V297.336C1381.31 295.848 1380.88 294.708 1380.01 293.916C1379.15 293.124 1377.88 292.728 1376.2 292.728C1375.07 292.728 1373.97 292.92 1372.89 293.304C1371.81 293.664 1370.89 294.156 1370.15 294.78L1368.71 292.188C1369.69 291.396 1370.87 290.796 1372.24 290.388C1373.61 289.956 1375.06 289.74 1376.59 289.74ZM1375.8 306.552C1377.12 306.552 1378.26 306.264 1379.22 305.688C1380.18 305.088 1380.88 304.248 1381.31 303.168V300.504H1375.98C1373.05 300.504 1371.59 301.488 1371.59 303.456C1371.59 304.416 1371.96 305.172 1372.71 305.724C1373.45 306.276 1374.48 306.552 1375.8 306.552ZM1405.21 292.944H1398.22V309H1394.77V292.944H1387.78V289.92H1405.21V292.944ZM1416.07 309.216C1414.17 309.216 1412.47 308.796 1410.96 307.956C1409.45 307.116 1408.26 305.964 1407.39 304.5C1406.55 303.012 1406.13 301.332 1406.13 299.46C1406.13 297.588 1406.55 295.92 1407.39 294.456C1408.26 292.968 1409.45 291.816 1410.96 291C1412.47 290.16 1414.17 289.74 1416.07 289.74C1417.97 289.74 1419.66 290.16 1421.15 291C1422.66 291.816 1423.83 292.968 1424.67 294.456C1425.54 295.92 1425.97 297.588 1425.97 299.46C1425.97 301.332 1425.54 303.012 1424.67 304.5C1423.83 305.964 1422.66 307.116 1421.15 307.956C1419.66 308.796 1417.97 309.216 1416.07 309.216ZM1416.07 306.192C1417.29 306.192 1418.39 305.916 1419.35 305.364C1420.33 304.788 1421.1 303.996 1421.65 302.988C1422.2 301.956 1422.48 300.78 1422.48 299.46C1422.48 298.14 1422.2 296.976 1421.65 295.968C1421.1 294.936 1420.33 294.144 1419.35 293.592C1418.39 293.04 1417.29 292.764 1416.07 292.764C1414.85 292.764 1413.74 293.04 1412.76 293.592C1411.8 294.144 1411.03 294.936 1410.45 295.968C1409.9 296.976 1409.63 298.14 1409.63 299.46C1409.63 300.78 1409.9 301.956 1410.45 302.988C1411.03 303.996 1411.8 304.788 1412.76 305.364C1413.74 305.916 1414.85 306.192 1416.07 306.192ZM1430.96 289.92H1434.42V298.02H1445.29V289.92H1448.75V309H1445.29V301.008H1434.42V309H1430.96V289.92ZM1472.49 289.92L1463.24 310.908C1462.43 312.852 1461.47 314.22 1460.36 315.012C1459.28 315.804 1457.97 316.2 1456.44 316.2C1455.5 316.2 1454.59 316.044 1453.7 315.732C1452.84 315.444 1452.12 315.012 1451.54 314.436L1453.02 311.844C1454 312.78 1455.14 313.248 1456.44 313.248C1457.28 313.248 1457.97 313.02 1458.53 312.564C1459.1 312.132 1459.62 311.376 1460.07 310.296L1460.69 308.964L1452.26 289.92H1455.86L1462.52 305.184L1469.11 289.92H1472.49ZM1307.71 349.868V353H1289.6V350.552L1299.86 340.652C1301.11 339.452 1301.95 338.42 1302.38 337.556C1302.82 336.668 1303.03 335.78 1303.03 334.892C1303.03 333.572 1302.56 332.552 1301.63 331.832C1300.72 331.088 1299.4 330.716 1297.67 330.716C1294.88 330.716 1292.74 331.628 1291.22 333.452L1288.78 331.328C1289.76 330.128 1291.04 329.192 1292.63 328.52C1294.24 327.848 1296.02 327.512 1297.99 327.512C1300.63 327.512 1302.73 328.148 1304.29 329.42C1305.85 330.668 1306.63 332.372 1306.63 334.532C1306.63 335.876 1306.34 337.148 1305.77 338.348C1305.19 339.548 1304.1 340.916 1302.49 342.452L1294.79 349.868H1307.71ZM1320.86 353.288C1318.87 353.288 1317.09 352.784 1315.53 351.776C1314 350.744 1312.79 349.256 1311.9 347.312C1311.01 345.368 1310.57 343.064 1310.57 340.4C1310.57 337.736 1311.01 335.432 1311.9 333.488C1312.79 331.544 1314 330.068 1315.53 329.06C1317.09 328.028 1318.87 327.512 1320.86 327.512C1322.83 327.512 1324.58 328.028 1326.12 329.06C1327.68 330.068 1328.9 331.544 1329.79 333.488C1330.68 335.432 1331.12 337.736 1331.12 340.4C1331.12 343.064 1330.68 345.368 1329.79 347.312C1328.9 349.256 1327.68 350.744 1326.12 351.776C1324.58 352.784 1322.83 353.288 1320.86 353.288ZM1320.86 350.084C1322.88 350.084 1324.49 349.256 1325.69 347.6C1326.91 345.944 1327.52 343.544 1327.52 340.4C1327.52 337.256 1326.91 334.856 1325.69 333.2C1324.49 331.544 1322.88 330.716 1320.86 330.716C1318.82 330.716 1317.19 331.544 1315.97 333.2C1314.77 334.856 1314.17 337.256 1314.17 340.4C1314.17 343.544 1314.77 345.944 1315.97 347.6C1317.19 349.256 1318.82 350.084 1320.86 350.084ZM1335.15 341.624H1344.83V344.612H1335.15V341.624ZM1365.86 349.868V353H1347.75V350.552L1358.01 340.652C1359.26 339.452 1360.1 338.42 1360.53 337.556C1360.96 336.668 1361.18 335.78 1361.18 334.892C1361.18 333.572 1360.71 332.552 1359.78 331.832C1358.86 331.088 1357.54 330.716 1355.82 330.716C1353.03 330.716 1350.88 331.628 1349.37 333.452L1346.92 331.328C1347.91 330.128 1349.19 329.192 1350.78 328.52C1352.38 327.848 1354.17 327.512 1356.14 327.512C1358.78 327.512 1360.88 328.148 1362.44 329.42C1364 330.668 1364.78 332.372 1364.78 334.532C1364.78 335.876 1364.49 337.148 1363.92 338.348C1363.34 339.548 1362.25 340.916 1360.64 342.452L1352.94 349.868H1365.86ZM1376.63 327.8V353H1373.07V330.932H1367.38V327.8H1376.63ZM1384.52 353.216C1383.85 353.216 1383.27 352.988 1382.79 352.532C1382.31 352.052 1382.07 351.452 1382.07 350.732C1382.07 350.036 1382.31 349.46 1382.79 349.004C1383.27 348.524 1383.85 348.284 1384.52 348.284C1385.19 348.284 1385.76 348.512 1386.21 348.968C1386.67 349.424 1386.9 350.012 1386.9 350.732C1386.9 351.452 1386.66 352.052 1386.18 352.532C1385.72 352.988 1385.17 353.216 1384.52 353.216ZM1400.17 353.288C1398.18 353.288 1396.41 352.784 1394.85 351.776C1393.31 350.744 1392.1 349.256 1391.21 347.312C1390.32 345.368 1389.88 343.064 1389.88 340.4C1389.88 337.736 1390.32 335.432 1391.21 333.488C1392.1 331.544 1393.31 330.068 1394.85 329.06C1396.41 328.028 1398.18 327.512 1400.17 327.512C1402.14 327.512 1403.89 328.028 1405.43 329.06C1406.99 330.068 1408.21 331.544 1409.1 333.488C1409.99 335.432 1410.43 337.736 1410.43 340.4C1410.43 343.064 1409.99 345.368 1409.1 347.312C1408.21 349.256 1406.99 350.744 1405.43 351.776C1403.89 352.784 1402.14 353.288 1400.17 353.288ZM1400.17 350.084C1402.19 350.084 1403.8 349.256 1405 347.6C1406.22 345.944 1406.83 343.544 1406.83 340.4C1406.83 337.256 1406.22 334.856 1405 333.2C1403.8 331.544 1402.19 330.716 1400.17 330.716C1398.13 330.716 1396.5 331.544 1395.28 333.2C1394.08 334.856 1393.48 337.256 1393.48 340.4C1393.48 343.544 1394.08 345.944 1395.28 347.6C1396.5 349.256 1398.13 350.084 1400.17 350.084ZM1431.5 349.868V353H1413.39V350.552L1423.65 340.652C1424.9 339.452 1425.74 338.42 1426.17 337.556C1426.6 336.668 1426.82 335.78 1426.82 334.892C1426.82 333.572 1426.35 332.552 1425.41 331.832C1424.5 331.088 1423.18 330.716 1421.45 330.716C1418.67 330.716 1416.52 331.628 1415.01 333.452L1412.56 331.328C1413.54 330.128 1414.83 329.192 1416.41 328.52C1418.02 327.848 1419.81 327.512 1421.78 327.512C1424.42 327.512 1426.52 328.148 1428.08 329.42C1429.64 330.668 1430.42 332.372 1430.42 334.532C1430.42 335.876 1430.13 337.148 1429.55 338.348C1428.98 339.548 1427.88 340.916 1426.28 342.452L1418.57 349.868H1431.5Z" fill="white"/>
</g>
<g filter="url(#filter7_d)">
<path d="M154.44 67.8V135H144.936V76.152H129.768V67.8H154.44Z" fill="white"/>
</g>
<g filter="url(#filter8_d)">
<path d="M574.84 126.648V135H526.552V128.472L553.912 102.072C557.24 98.872 559.48 96.12 560.632 93.816C561.784 91.448 562.36 89.08 562.36 86.712C562.36 83.192 561.112 80.472 558.616 78.552C556.184 76.568 552.664 75.576 548.056 75.576C540.632 75.576 534.904 78.008 530.872 82.872L524.344 77.208C526.968 74.008 530.392 71.512 534.616 69.72C538.904 67.928 543.672 67.032 548.92 67.032C555.96 67.032 561.56 68.728 565.72 72.12C569.88 75.448 571.96 79.992 571.96 85.752C571.96 89.336 571.192 92.728 569.656 95.928C568.12 99.128 565.208 102.776 560.92 106.872L540.376 126.648H574.84Z" fill="white"/>
</g>
<g filter="url(#filter9_d)">
<path d="M958.336 96.024C964.928 96.664 969.952 98.712 973.408 102.168C976.864 105.56 978.592 109.912 978.592 115.224C978.592 119.064 977.632 122.552 975.712 125.688C973.792 128.76 970.912 131.224 967.072 133.08C963.296 134.872 958.656 135.768 953.152 135.768C948.352 135.768 943.744 135.064 939.328 133.656C934.912 132.184 931.296 130.168 928.48 127.608L932.896 120.024C935.2 122.2 938.144 123.96 941.728 125.304C945.312 126.584 949.12 127.224 953.152 127.224C958.144 127.224 962.016 126.168 964.768 124.056C967.584 121.944 968.992 119.032 968.992 115.32C968.992 111.608 967.616 108.728 964.864 106.68C962.112 104.632 957.952 103.608 952.384 103.608H947.008V96.888L963.904 76.152H931.552V67.8H975.904V74.328L958.336 96.024Z" fill="white"/>
</g>
<g filter="url(#filter10_d)">
<path d="M1391.07 118.488H1378.3V135H1368.99V118.488H1331.65V111.768L1366.02 67.8H1376.38L1343.46 110.232H1369.28V95.64H1378.3V110.232H1391.07V118.488Z" fill="white"/>
</g>
<g filter="url(#filter11_d)">
<circle cx="147.5" cy="100.5" r="84" stroke="white" stroke-width="5"/>
</g>
<g filter="url(#filter12_d)">
<circle cx="551.5" cy="100.5" r="84" stroke="white" stroke-width="5"/>
</g>
<g filter="url(#filter13_d)">
<circle cx="955.5" cy="100.5" r="84" stroke="white" stroke-width="5"/>
</g>
<g filter="url(#filter14_d)">
<circle cx="1360.5" cy="100.5" r="84" stroke="white" stroke-width="5"/>
</g>
<defs>
<filter id="filter0_d" x="219" y="68.5901" width="258.5" height="64.8198" filterUnits="userSpaceOnUse" color-interpolation-filters="sRGB">
<feFlood flood-opacity="0" result="BackgroundImageFix"/>
<feColorMatrix in="SourceAlpha" type="matrix" values="0 0 0 0 0 0 0 0 0 0 0 0 0 0 0 0 0 0 127 0"/>
<feMorphology radius="2" operator="dilate" in="SourceAlpha" result="effect1_dropShadow"/>
<feOffset/>
<feGaussianBlur stdDeviation="6"/>
<feColorMatrix type="matrix" values="0 0 0 0 0.0708333 0 0 0 0 0.777 0 0 0 0 1 0 0 0 1 0"/>
<feBlend mode="normal" in2="BackgroundImageFix" result="effect1_dropShadow"/>
<feBlend mode="normal" in="SourceGraphic" in2="effect1_dropShadow" result="shape"/>
</filter>
<filter id="filter1_d" x="623" y="68.5901" width="258.5" height="64.8198" filterUnits="userSpaceOnUse" color-interpolation-filters="sRGB">
<feFlood flood-opacity="0" result="BackgroundImageFix"/>
<feColorMatrix in="SourceAlpha" type="matrix" values="0 0 0 0 0 0 0 0 0 0 0 0 0 0 0 0 0 0 127 0"/>
<feMorphology radius="2" operator="dilate" in="SourceAlpha" result="effect1_dropShadow"/>
<feOffset/>
<feGaussianBlur stdDeviation="6"/>
<feColorMatrix type="matrix" values="0 0 0 0 0.0708333 0 0 0 0 0.777 0 0 0 0 1 0 0 0 1 0"/>
<feBlend mode="normal" in2="BackgroundImageFix" result="effect1_dropShadow"/>
<feBlend mode="normal" in="SourceGraphic" in2="effect1_dropShadow" result="shape"/>
</filter>
<filter id="filter2_d" x="1027" y="68.5901" width="258.5" height="64.8198" filterUnits="userSpaceOnUse" color-interpolation-filters="sRGB">
<feFlood flood-opacity="0" result="BackgroundImageFix"/>
<feColorMatrix in="SourceAlpha" type="matrix" values="0 0 0 0 0 0 0 0 0 0 0 0 0 0 0 0 0 0 127 0"/>
<feMorphology radius="2" operator="dilate" in="SourceAlpha" result="effect1_dropShadow"/>
<feOffset/>
<feGaussianBlur stdDeviation="6"/>
<feColorMatrix type="matrix" values="0 0 0 0 0.0708333 0 0 0 0 0.777 0 0 0 0 1 0 0 0 1 0"/>
<feBlend mode="normal" in2="BackgroundImageFix" result="effect1_dropShadow"/>
<feBlend mode="normal" in="SourceGraphic" in2="effect1_dropShadow" result="shape"/>
</filter>
<filter id="filter3_d" x="0.273438" y="226.468" width="281.543" height="98.96" filterUnits="userSpaceOnUse" color-interpolation-filters="sRGB">
<feFlood flood-opacity="0" result="BackgroundImageFix"/>
<feColorMatrix in="SourceAlpha" type="matrix" values="0 0 0 0 0 0 0 0 0 0 0 0 0 0 0 0 0 0 127 0"/>
<feOffset/>
<feGaussianBlur stdDeviation="6"/>
<feColorMatrix type="matrix" values="0 0 0 0 0.546103 0 0 0 0 0.0666319 0 0 0 0 0.841667 0 0 0 0.78 0"/>
<feBlend mode="normal" in2="BackgroundImageFix" result="effect1_dropShadow"/>
<feBlend mode="normal" in="SourceGraphic" in2="effect1_dropShadow" result="shape"/>
</filter>
<filter id="filter4_d" x="383.059" y="226.468" width="338.793" height="142.96" filterUnits="userSpaceOnUse" color-interpolation-filters="sRGB">
<feFlood flood-opacity="0" result="BackgroundImageFix"/>
<feColorMatrix in="SourceAlpha" type="matrix" values="0 0 0 0 0 0 0 0 0 0 0 0 0 0 0 0 0 0 127 0"/>
<feOffset/>
<feGaussianBlur stdDeviation="6"/>
<feColorMatrix type="matrix" values="0 0 0 0 0.546103 0 0 0 0 0.0666319 0 0 0 0 0.841667 0 0 0 0.78 0"/>
<feBlend mode="normal" in2="BackgroundImageFix" result="effect1_dropShadow"/>
<feBlend mode="normal" in="SourceGraphic" in2="effect1_dropShadow" result="shape"/>
</filter>
<filter id="filter5_d" x="824.238" y="226.468" width="260.136" height="142.96" filterUnits="userSpaceOnUse" color-interpolation-filters="sRGB">
<feFlood flood-opacity="0" result="BackgroundImageFix"/>
<feColorMatrix in="SourceAlpha" type="matrix" values="0 0 0 0 0 0 0 0 0 0 0 0 0 0 0 0 0 0 127 0"/>
<feOffset/>
<feGaussianBlur stdDeviation="6"/>
<feColorMatrix type="matrix" values="0 0 0 0 0.546103 0 0 0 0 0.0666319 0 0 0 0 0.841667 0 0 0 0.78 0"/>
<feBlend mode="normal" in2="BackgroundImageFix" result="effect1_dropShadow"/>
<feBlend mode="normal" in="SourceGraphic" in2="effect1_dropShadow" result="shape"/>
</filter>
<filter id="filter6_d" x="1236.6" y="226.468" width="247.889" height="138.82" filterUnits="userSpaceOnUse" color-interpolation-filters="sRGB">
<feFlood flood-opacity="0" result="BackgroundImageFix"/>
<feColorMatrix in="SourceAlpha" type="matrix" values="0 0 0 0 0 0 0 0 0 0 0 0 0 0 0 0 0 0 127 0"/>
<feOffset/>
<feGaussianBlur stdDeviation="6"/>
<feColorMatrix type="matrix" values="0 0 0 0 0.546103 0 0 0 0 0.0666319 0 0 0 0 0.841667 0 0 0 0.78 0"/>
<feBlend mode="normal" in2="BackgroundImageFix" result="effect1_dropShadow"/>
<feBlend mode="normal" in="SourceGraphic" in2="effect1_dropShadow" result="shape"/>
</filter>
<filter id="filter7_d" x="117.768" y="55.8" width="48.672" height="91.2" filterUnits="userSpaceOnUse" color-interpolation-filters="sRGB">
<feFlood flood-opacity="0" result="BackgroundImageFix"/>
<feColorMatrix in="SourceAlpha" type="matrix" values="0 0 0 0 0 0 0 0 0 0 0 0 0 0 0 0 0 0 127 0"/>
<feOffset/>
<feGaussianBlur stdDeviation="6"/>
<feColorMatrix type="matrix" values="0 0 0 0 0.546103 0 0 0 0 0.0666319 0 0 0 0 0.841667 0 0 0 0.78 0"/>
<feBlend mode="normal" in2="BackgroundImageFix" result="effect1_dropShadow"/>
<feBlend mode="normal" in="SourceGraphic" in2="effect1_dropShadow" result="shape"/>
</filter>
<filter id="filter8_d" x="512.344" y="55.032" width="74.496" height="91.968" filterUnits="userSpaceOnUse" color-interpolation-filters="sRGB">
<feFlood flood-opacity="0" result="BackgroundImageFix"/>
<feColorMatrix in="SourceAlpha" type="matrix" values="0 0 0 0 0 0 0 0 0 0 0 0 0 0 0 0 0 0 127 0"/>
<feOffset/>
<feGaussianBlur stdDeviation="6"/>
<feColorMatrix type="matrix" values="0 0 0 0 0.546103 0 0 0 0 0.0666319 0 0 0 0 0.841667 0 0 0 0.78 0"/>
<feBlend mode="normal" in2="BackgroundImageFix" result="effect1_dropShadow"/>
<feBlend mode="normal" in="SourceGraphic" in2="effect1_dropShadow" result="shape"/>
</filter>
<filter id="filter9_d" x="916.48" y="55.8" width="74.112" height="91.968" filterUnits="userSpaceOnUse" color-interpolation-filters="sRGB">
<feFlood flood-opacity="0" result="BackgroundImageFix"/>
<feColorMatrix in="SourceAlpha" type="matrix" values="0 0 0 0 0 0 0 0 0 0 0 0 0 0 0 0 0 0 127 0"/>
<feOffset/>
<feGaussianBlur stdDeviation="6"/>
<feColorMatrix type="matrix" values="0 0 0 0 0.546103 0 0 0 0 0.0666319 0 0 0 0 0.841667 0 0 0 0.78 0"/>
<feBlend mode="normal" in2="BackgroundImageFix" result="effect1_dropShadow"/>
<feBlend mode="normal" in="SourceGraphic" in2="effect1_dropShadow" result="shape"/>
</filter>
<filter id="filter10_d" x="1319.65" y="55.8" width="83.424" height="91.2" filterUnits="userSpaceOnUse" color-interpolation-filters="sRGB">
<feFlood flood-opacity="0" result="BackgroundImageFix"/>
<feColorMatrix in="SourceAlpha" type="matrix" values="0 0 0 0 0 0 0 0 0 0 0 0 0 0 0 0 0 0 127 0"/>
<feOffset/>
<feGaussianBlur stdDeviation="6"/>
<feColorMatrix type="matrix" values="0 0 0 0 0.546103 0 0 0 0 0.0666319 0 0 0 0 0.841667 0 0 0 0.78 0"/>
<feBlend mode="normal" in2="BackgroundImageFix" result="effect1_dropShadow"/>
<feBlend mode="normal" in="SourceGraphic" in2="effect1_dropShadow" result="shape"/>
</filter>
<filter id="filter11_d" x="47" y="0" width="201" height="201" filterUnits="userSpaceOnUse" color-interpolation-filters="sRGB">
<feFlood flood-opacity="0" result="BackgroundImageFix"/>
<feColorMatrix in="SourceAlpha" type="matrix" values="0 0 0 0 0 0 0 0 0 0 0 0 0 0 0 0 0 0 127 0"/>
<feMorphology radius="2" operator="dilate" in="SourceAlpha" result="effect1_dropShadow"/>
<feOffset/>
<feGaussianBlur stdDeviation="6"/>
<feColorMatrix type="matrix" values="0 0 0 0 0.0708333 0 0 0 0 0.777 0 0 0 0 1 0 0 0 1 0"/>
<feBlend mode="normal" in2="BackgroundImageFix" result="effect1_dropShadow"/>
<feBlend mode="normal" in="SourceGraphic" in2="effect1_dropShadow" result="shape"/>
</filter>
<filter id="filter12_d" x="451" y="0" width="201" height="201" filterUnits="userSpaceOnUse" color-interpolation-filters="sRGB">
<feFlood flood-opacity="0" result="BackgroundImageFix"/>
<feColorMatrix in="SourceAlpha" type="matrix" values="0 0 0 0 0 0 0 0 0 0 0 0 0 0 0 0 0 0 127 0"/>
<feMorphology radius="2" operator="dilate" in="SourceAlpha" result="effect1_dropShadow"/>
<feOffset/>
<feGaussianBlur stdDeviation="6"/>
<feColorMatrix type="matrix" values="0 0 0 0 0.0708333 0 0 0 0 0.777 0 0 0 0 1 0 0 0 1 0"/>
<feBlend mode="normal" in2="BackgroundImageFix" result="effect1_dropShadow"/>
<feBlend mode="normal" in="SourceGraphic" in2="effect1_dropShadow" result="shape"/>
</filter>
<filter id="filter13_d" x="855" y="0" width="201" height="201" filterUnits="userSpaceOnUse" color-interpolation-filters="sRGB">
<feFlood flood-opacity="0" result="BackgroundImageFix"/>
<feColorMatrix in="SourceAlpha" type="matrix" values="0 0 0 0 0 0 0 0 0 0 0 0 0 0 0 0 0 0 127 0"/>
<feMorphology radius="2" operator="dilate" in="SourceAlpha" result="effect1_dropShadow"/>
<feOffset/>
<feGaussianBlur stdDeviation="6"/>
<feColorMatrix type="matrix" values="0 0 0 0 0.0708333 0 0 0 0 0.777 0 0 0 0 1 0 0 0 1 0"/>
<feBlend mode="normal" in2="BackgroundImageFix" result="effect1_dropShadow"/>
<feBlend mode="normal" in="SourceGraphic" in2="effect1_dropShadow" result="shape"/>
</filter>
<filter id="filter14_d" x="1260" y="0" width="201" height="201" filterUnits="userSpaceOnUse" color-interpolation-filters="sRGB">
<feFlood flood-opacity="0" result="BackgroundImageFix"/>
<feColorMatrix in="SourceAlpha" type="matrix" values="0 0 0 0 0 0 0 0 0 0 0 0 0 0 0 0 0 0 127 0"/>
<feMorphology radius="2" operator="dilate" in="SourceAlpha" result="effect1_dropShadow"/>
<feOffset/>
<feGaussianBlur stdDeviation="6"/>
<feColorMatrix type="matrix" values="0 0 0 0 0.0708333 0 0 0 0 0.777 0 0 0 0 1 0 0 0 1 0"/>
<feBlend mode="normal" in2="BackgroundImageFix" result="effect1_dropShadow"/>
<feBlend mode="normal" in="SourceGraphic" in2="effect1_dropShadow" result="shape"/>
</filter>
</defs>
</svg>
