<svg width="583" height="1413" viewBox="0 0 583 1413" fill="none" xmlns="http://www.w3.org/2000/svg">
<g filter="url(#filter0_d)">
<path d="M98.2322 416.768C99.2085 417.744 100.791 417.744 101.768 416.768L117.678 400.858C118.654 399.882 118.654 398.299 117.678 397.322C116.701 396.346 115.118 396.346 114.142 397.322L100 411.464L85.8579 397.322C84.8816 396.346 83.2986 396.346 82.3223 397.322C81.346 398.299 81.346 399.882 82.3223 400.858L98.2322 416.768ZM97.5 187L97.5 415H102.5L102.5 187H97.5Z" fill="white"/>
</g>
<g filter="url(#filter1_d)">
<path d="M98.2322 820.768C99.2085 821.744 100.791 821.744 101.768 820.768L117.678 804.858C118.654 803.882 118.654 802.299 117.678 801.322C116.701 800.346 115.118 800.346 114.142 801.322L100 815.464L85.8579 801.322C84.8816 800.346 83.2986 800.346 82.3223 801.322C81.346 802.299 81.346 803.882 82.3223 804.858L98.2322 820.768ZM97.5 591L97.5 819H102.5L102.5 591H97.5Z" fill="white"/>
</g>
<g filter="url(#filter2_d)">
<path d="M107.44 67.8V135H97.936V76.152H82.768V67.8H107.44Z" fill="white"/>
</g>
<g filter="url(#filter3_d)">
<circle cx="100.5" cy="100.5" r="84" stroke="white" stroke-width="5"/>
</g>
<g filter="url(#filter4_d)">
<path d="M123.84 530.648V539H75.552V532.472L102.912 506.072C106.24 502.872 108.48 500.12 109.632 497.816C110.784 495.448 111.36 493.08 111.36 490.712C111.36 487.192 110.112 484.472 107.616 482.552C105.184 480.568 101.664 479.576 97.056 479.576C89.632 479.576 83.904 482.008 79.872 486.872L73.344 481.208C75.968 478.008 79.392 475.512 83.616 473.72C87.904 471.928 92.672 471.032 97.92 471.032C104.96 471.032 110.56 472.728 114.72 476.12C118.88 479.448 120.96 483.992 120.96 489.752C120.96 493.336 120.192 496.728 118.656 499.928C117.12 503.128 114.208 506.776 109.92 510.872L89.376 530.648H123.84Z" fill="white"/>
</g>
<g filter="url(#filter5_d)">
<circle cx="100.5" cy="504.5" r="84" stroke="white" stroke-width="5"/>
</g>
<g filter="url(#filter6_d)">
<path d="M103.336 904.024C109.928 904.664 114.952 906.712 118.408 910.168C121.864 913.56 123.592 917.912 123.592 923.224C123.592 927.064 122.632 930.552 120.712 933.688C118.792 936.76 115.912 939.224 112.072 941.08C108.296 942.872 103.656 943.768 98.152 943.768C93.352 943.768 88.744 943.064 84.328 941.656C79.912 940.184 76.296 938.168 73.48 935.608L77.896 928.024C80.2 930.2 83.144 931.96 86.728 933.304C90.312 934.584 94.12 935.224 98.152 935.224C103.144 935.224 107.016 934.168 109.768 932.056C112.584 929.944 113.992 927.032 113.992 923.32C113.992 919.608 112.616 916.728 109.864 914.68C107.112 912.632 102.952 911.608 97.384 911.608H92.008V904.888L108.904 884.152H76.552V875.8H120.904V882.328L103.336 904.024Z" fill="white"/>
</g>
<g filter="url(#filter7_d)">
<circle cx="100.5" cy="908.5" r="84" stroke="white" stroke-width="5"/>
</g>
<g filter="url(#filter8_d)">
<path d="M98.2322 1224.77C99.2085 1225.74 100.791 1225.74 101.768 1224.77L117.678 1208.86C118.654 1207.88 118.654 1206.3 117.678 1205.32C116.701 1204.35 115.118 1204.35 114.142 1205.32L100 1219.46L85.8579 1205.32C84.8816 1204.35 83.2986 1204.35 82.3223 1205.32C81.346 1206.3 81.346 1207.88 82.3223 1208.86L98.2322 1224.77ZM97.5 995L97.5 1223H102.5L102.5 995H97.5Z" fill="white"/>
</g>
<g filter="url(#filter9_d)">
<path d="M131.072 1330.49H118.304V1347H108.992V1330.49H71.648V1323.77L106.016 1279.8H116.384L83.456 1322.23H109.28V1307.64H118.304V1322.23H131.072V1330.49Z" fill="white"/>
</g>
<g filter="url(#filter10_d)">
<circle cx="100.5" cy="1312.5" r="84" stroke="white" stroke-width="5"/>
</g>
<g filter="url(#filter11_d)">
<path d="M256.984 87.86C258.568 88.292 259.804 89.048 260.692 90.128C261.58 91.184 262.024 92.456 262.024 93.944C262.024 95.432 261.544 96.74 260.584 97.868C259.648 98.972 258.388 99.824 256.804 100.424C255.244 101 253.54 101.288 251.692 101.288C250.012 101.288 248.344 101.036 246.688 100.532C245.032 100.028 243.52 99.272 242.152 98.264L243.412 95.6C244.516 96.464 245.752 97.112 247.12 97.544C248.488 97.976 249.868 98.192 251.26 98.192C253.276 98.192 254.968 97.772 256.336 96.932C257.704 96.068 258.388 94.892 258.388 93.404C258.388 92.132 257.872 91.16 256.84 90.488C255.808 89.792 254.356 89.444 252.484 89.444H246.868V86.528H252.232C253.84 86.528 255.088 86.204 255.976 85.556C256.888 84.884 257.344 83.96 257.344 82.784C257.344 81.464 256.756 80.42 255.58 79.652C254.404 78.884 252.916 78.5 251.116 78.5C249.94 78.5 248.74 78.668 247.516 79.004C246.316 79.34 245.176 79.844 244.096 80.516L242.944 77.564C244.216 76.844 245.56 76.304 246.976 75.944C248.392 75.584 249.808 75.404 251.224 75.404C253 75.404 254.632 75.68 256.12 76.232C257.608 76.784 258.784 77.588 259.648 78.644C260.536 79.7 260.98 80.936 260.98 82.352C260.98 83.624 260.62 84.74 259.9 85.7C259.204 86.66 258.232 87.38 256.984 87.86ZM274.25 81.74C276.89 81.74 278.906 82.388 280.298 83.684C281.714 84.98 282.422 86.912 282.422 89.48V101H279.146V98.48C278.57 99.368 277.742 100.052 276.662 100.532C275.606 100.988 274.346 101.216 272.882 101.216C270.746 101.216 269.03 100.7 267.734 99.668C266.462 98.636 265.826 97.28 265.826 95.6C265.826 93.92 266.438 92.576 267.662 91.568C268.886 90.536 270.83 90.02 273.494 90.02H278.966V89.336C278.966 87.848 278.534 86.708 277.67 85.916C276.806 85.124 275.534 84.728 273.854 84.728C272.726 84.728 271.622 84.92 270.542 85.304C269.462 85.664 268.55 86.156 267.806 86.78L266.366 84.188C267.35 83.396 268.526 82.796 269.894 82.388C271.262 81.956 272.714 81.74 274.25 81.74ZM273.458 98.552C274.778 98.552 275.918 98.264 276.878 97.688C277.838 97.088 278.534 96.248 278.966 95.168V92.504H273.638C270.71 92.504 269.246 93.488 269.246 95.456C269.246 96.416 269.618 97.172 270.362 97.724C271.106 98.276 272.138 98.552 273.458 98.552ZM298.761 81.74C300.609 81.74 302.265 82.148 303.729 82.964C305.193 83.78 306.333 84.92 307.149 86.384C307.989 87.848 308.409 89.54 308.409 91.46C308.409 93.38 307.989 95.084 307.149 96.572C306.333 98.036 305.193 99.176 303.729 99.992C302.265 100.808 300.609 101.216 298.761 101.216C297.393 101.216 296.133 100.952 294.981 100.424C293.853 99.896 292.893 99.128 292.101 98.12V107.984H288.645V81.92H291.957V84.944C292.725 83.888 293.697 83.096 294.873 82.568C296.049 82.016 297.345 81.74 298.761 81.74ZM298.473 98.192C299.697 98.192 300.789 97.916 301.749 97.364C302.733 96.788 303.501 95.996 304.053 94.988C304.629 93.956 304.917 92.78 304.917 91.46C304.917 90.14 304.629 88.976 304.053 87.968C303.501 86.936 302.733 86.144 301.749 85.592C300.789 85.04 299.697 84.764 298.473 84.764C297.273 84.764 296.181 85.052 295.197 85.628C294.237 86.18 293.469 86.96 292.893 87.968C292.341 88.976 292.065 90.14 292.065 91.46C292.065 92.78 292.341 93.956 292.893 94.988C293.445 95.996 294.213 96.788 295.197 97.364C296.181 97.916 297.273 98.192 298.473 98.192ZM330.674 91.568C330.674 91.832 330.65 92.18 330.602 92.612H315.122C315.338 94.292 316.07 95.648 317.318 96.68C318.59 97.688 320.162 98.192 322.034 98.192C324.314 98.192 326.15 97.424 327.542 95.888L329.45 98.12C328.586 99.128 327.506 99.896 326.21 100.424C324.938 100.952 323.51 101.216 321.926 101.216C319.91 101.216 318.122 100.808 316.562 99.992C315.002 99.152 313.79 97.988 312.926 96.5C312.086 95.012 311.666 93.332 311.666 91.46C311.666 89.612 312.074 87.944 312.89 86.456C313.73 84.968 314.87 83.816 316.31 83C317.774 82.16 319.418 81.74 321.242 81.74C323.066 81.74 324.686 82.16 326.102 83C327.542 83.816 328.658 84.968 329.45 86.456C330.266 87.944 330.674 89.648 330.674 91.568ZM321.242 84.656C319.586 84.656 318.194 85.16 317.066 86.168C315.962 87.176 315.314 88.496 315.122 90.128H327.362C327.17 88.52 326.51 87.212 325.382 86.204C324.278 85.172 322.898 84.656 321.242 84.656ZM344.568 101.216C342.624 101.216 340.86 100.796 339.276 99.956C337.716 99.116 336.492 97.952 335.604 96.464C334.716 94.976 334.272 93.308 334.272 91.46C334.272 89.588 334.716 87.908 335.604 86.42C336.492 84.932 337.716 83.768 339.276 82.928C340.86 82.088 342.624 81.668 344.568 81.668C346.248 81.668 347.76 81.932 349.104 82.46C350.472 82.988 351.624 83.756 352.56 84.764L350.544 86.78C349.008 85.268 347.064 84.512 344.712 84.512C342.84 84.512 341.244 85.052 339.924 86.132C338.604 87.188 337.812 88.58 337.548 90.308H347.124V92.864H337.62C337.932 94.52 338.736 95.864 340.032 96.896C341.328 97.904 342.888 98.408 344.712 98.408C347.04 98.408 348.984 97.64 350.544 96.104L352.56 98.084C351.624 99.116 350.472 99.896 349.104 100.424C347.736 100.952 346.224 101.216 344.568 101.216ZM364.848 101.216C362.904 101.216 361.164 100.796 359.628 99.956C358.116 99.116 356.928 97.964 356.064 96.5C355.2 95.012 354.768 93.332 354.768 91.46C354.768 89.588 355.2 87.92 356.064 86.456C356.928 84.968 358.116 83.816 359.628 83C361.164 82.16 362.904 81.74 364.848 81.74C366.576 81.74 368.112 82.088 369.456 82.784C370.824 83.48 371.88 84.488 372.624 85.808L369.996 87.5C369.396 86.588 368.652 85.904 367.764 85.448C366.876 84.992 365.892 84.764 364.812 84.764C363.564 84.764 362.436 85.04 361.428 85.592C360.444 86.144 359.664 86.936 359.088 87.968C358.536 88.976 358.26 90.14 358.26 91.46C358.26 92.804 358.536 93.992 359.088 95.024C359.664 96.032 360.444 96.812 361.428 97.364C362.436 97.916 363.564 98.192 364.812 98.192C365.892 98.192 366.876 97.964 367.764 97.508C368.652 97.052 369.396 96.368 369.996 95.456L372.624 97.112C371.88 98.432 370.824 99.452 369.456 100.172C368.112 100.868 366.576 101.216 364.848 101.216ZM391.072 84.944H384.088V101H380.632V84.944H373.648V81.92H391.072V84.944ZM404.722 81.74C406.57 81.74 408.226 82.148 409.69 82.964C411.154 83.78 412.294 84.92 413.11 86.384C413.95 87.848 414.37 89.54 414.37 91.46C414.37 93.38 413.95 95.084 413.11 96.572C412.294 98.036 411.154 99.176 409.69 99.992C408.226 100.808 406.57 101.216 404.722 101.216C403.354 101.216 402.094 100.952 400.942 100.424C399.814 99.896 398.854 99.128 398.062 98.12V107.984H394.606V81.92H397.918V84.944C398.686 83.888 399.658 83.096 400.834 82.568C402.01 82.016 403.306 81.74 404.722 81.74ZM404.434 98.192C405.658 98.192 406.75 97.916 407.71 97.364C408.694 96.788 409.462 95.996 410.014 94.988C410.59 93.956 410.878 92.78 410.878 91.46C410.878 90.14 410.59 88.976 410.014 87.968C409.462 86.936 408.694 86.144 407.71 85.592C406.75 85.04 405.658 84.764 404.434 84.764C403.234 84.764 402.142 85.052 401.158 85.628C400.198 86.18 399.43 86.96 398.854 87.968C398.302 88.976 398.026 90.14 398.026 91.46C398.026 92.78 398.302 93.956 398.854 94.988C399.406 95.996 400.174 96.788 401.158 97.364C402.142 97.916 403.234 98.192 404.434 98.192ZM435.892 81.92L426.64 102.908C425.824 104.852 424.864 106.22 423.76 107.012C422.68 107.804 421.372 108.2 419.836 108.2C418.9 108.2 417.988 108.044 417.1 107.732C416.236 107.444 415.516 107.012 414.94 106.436L416.416 103.844C417.4 104.78 418.54 105.248 419.836 105.248C420.676 105.248 421.372 105.02 421.924 104.564C422.5 104.132 423.016 103.376 423.472 102.296L424.084 100.964L415.66 81.92H419.26L425.92 97.184L432.508 81.92H435.892ZM439.43 81.92H442.886V95.816L454.586 81.92H457.718V101H454.262V87.104L442.598 101H439.43V81.92ZM448.358 79.436C446.582 79.436 445.202 79.016 444.218 78.176C443.234 77.312 442.73 76.076 442.706 74.468H445.046C445.07 75.356 445.37 76.076 445.946 76.628C446.546 77.156 447.338 77.42 448.322 77.42C449.306 77.42 450.098 77.156 450.698 76.628C451.298 76.076 451.61 75.356 451.634 74.468H454.046C454.022 76.076 453.506 77.312 452.498 78.176C451.49 79.016 450.11 79.436 448.358 79.436ZM472.742 101.216C470.798 101.216 469.058 100.796 467.522 99.956C466.01 99.116 464.822 97.964 463.958 96.5C463.094 95.012 462.662 93.332 462.662 91.46C462.662 89.588 463.094 87.92 463.958 86.456C464.822 84.968 466.01 83.816 467.522 83C469.058 82.16 470.798 81.74 472.742 81.74C474.47 81.74 476.006 82.088 477.35 82.784C478.718 83.48 479.774 84.488 480.518 85.808L477.89 87.5C477.29 86.588 476.546 85.904 475.658 85.448C474.77 84.992 473.786 84.764 472.706 84.764C471.458 84.764 470.33 85.04 469.322 85.592C468.338 86.144 467.558 86.936 466.982 87.968C466.43 88.976 466.154 90.14 466.154 91.46C466.154 92.804 466.43 93.992 466.982 95.024C467.558 96.032 468.338 96.812 469.322 97.364C470.33 97.916 471.458 98.192 472.706 98.192C473.786 98.192 474.77 97.964 475.658 97.508C476.546 97.052 477.29 96.368 477.89 95.456L480.518 97.112C479.774 98.432 478.718 99.452 477.35 100.172C476.006 100.868 474.47 101.216 472.742 101.216ZM499.695 81.92V101H496.599V94.952H491.055H490.659L486.483 101H482.775L487.419 94.484C485.979 94.052 484.875 93.344 484.107 92.36C483.339 91.352 482.955 90.104 482.955 88.616C482.955 86.432 483.699 84.776 485.187 83.648C486.675 82.496 488.727 81.92 491.343 81.92H499.695ZM486.483 88.724C486.483 89.996 486.879 90.944 487.671 91.568C488.487 92.168 489.699 92.468 491.307 92.468H496.599V84.944H491.451C488.139 84.944 486.483 86.204 486.483 88.724ZM263.752 141.976V149.428H260.512V145H244.564V149.428H241.288V141.976H242.296C243.52 141.904 244.36 141.04 244.816 139.384C245.272 137.728 245.584 135.388 245.752 132.364L246.04 125.92H260.836V141.976H263.752ZM248.92 132.616C248.824 135.016 248.62 137.008 248.308 138.592C248.02 140.152 247.48 141.28 246.688 141.976H257.38V128.944H249.1L248.92 132.616ZM276.426 145.216C274.53 145.216 272.826 144.796 271.314 143.956C269.802 143.116 268.614 141.964 267.75 140.5C266.91 139.012 266.49 137.332 266.49 135.46C266.49 133.588 266.91 131.92 267.75 130.456C268.614 128.968 269.802 127.816 271.314 127C272.826 126.16 274.53 125.74 276.426 125.74C278.322 125.74 280.014 126.16 281.502 127C283.014 127.816 284.19 128.968 285.03 130.456C285.894 131.92 286.326 133.588 286.326 135.46C286.326 137.332 285.894 139.012 285.03 140.5C284.19 141.964 283.014 143.116 281.502 143.956C280.014 144.796 278.322 145.216 276.426 145.216ZM276.426 142.192C277.65 142.192 278.742 141.916 279.702 141.364C280.686 140.788 281.454 139.996 282.006 138.988C282.558 137.956 282.834 136.78 282.834 135.46C282.834 134.14 282.558 132.976 282.006 131.968C281.454 130.936 280.686 130.144 279.702 129.592C278.742 129.04 277.65 128.764 276.426 128.764C275.202 128.764 274.098 129.04 273.114 129.592C272.154 130.144 271.386 130.936 270.81 131.968C270.258 132.976 269.982 134.14 269.982 135.46C269.982 136.78 270.258 137.956 270.81 138.988C271.386 139.996 272.154 140.788 273.114 141.364C274.098 141.916 275.202 142.192 276.426 142.192ZM307.177 119.8V145H303.613V122.932H297.925V119.8H307.177ZM328.097 131.788C329.537 132.34 330.641 133.132 331.409 134.164C332.177 135.196 332.561 136.432 332.561 137.872C332.561 139.384 332.153 140.704 331.337 141.832C330.521 142.936 329.357 143.788 327.845 144.388C326.333 144.988 324.557 145.288 322.517 145.288C320.501 145.288 318.737 144.988 317.225 144.388C315.737 143.788 314.585 142.936 313.769 141.832C312.953 140.704 312.545 139.384 312.545 137.872C312.545 136.432 312.917 135.196 313.661 134.164C314.429 133.132 315.533 132.34 316.973 131.788C315.821 131.236 314.945 130.504 314.345 129.592C313.745 128.68 313.445 127.6 313.445 126.352C313.445 124.96 313.817 123.748 314.561 122.716C315.329 121.684 316.397 120.892 317.765 120.34C319.133 119.788 320.717 119.512 322.517 119.512C324.341 119.512 325.937 119.788 327.305 120.34C328.697 120.892 329.765 121.684 330.509 122.716C331.277 123.748 331.661 124.96 331.661 126.352C331.661 127.576 331.349 128.656 330.725 129.592C330.125 130.504 329.249 131.236 328.097 131.788ZM322.517 122.428C320.813 122.428 319.469 122.8 318.485 123.544C317.501 124.264 317.009 125.248 317.009 126.496C317.009 127.744 317.489 128.728 318.449 129.448C319.433 130.168 320.789 130.528 322.517 130.528C324.269 130.528 325.637 130.168 326.621 129.448C327.629 128.728 328.133 127.744 328.133 126.496C328.133 125.248 327.617 124.264 326.585 123.544C325.577 122.8 324.221 122.428 322.517 122.428ZM322.517 142.372C324.509 142.372 326.081 141.964 327.233 141.148C328.385 140.308 328.961 139.18 328.961 137.764C328.961 136.372 328.385 135.28 327.233 134.488C326.081 133.672 324.509 133.264 322.517 133.264C320.525 133.264 318.965 133.672 317.837 134.488C316.709 135.28 316.145 136.372 316.145 137.764C316.145 139.18 316.709 140.308 317.837 141.148C318.965 141.964 320.525 142.372 322.517 142.372ZM338.584 145.216C337.912 145.216 337.336 144.988 336.856 144.532C336.376 144.052 336.136 143.452 336.136 142.732C336.136 142.036 336.376 141.46 336.856 141.004C337.336 140.524 337.912 140.284 338.584 140.284C339.256 140.284 339.82 140.512 340.276 140.968C340.732 141.424 340.96 142.012 340.96 142.732C340.96 143.452 340.72 144.052 340.24 144.532C339.784 144.988 339.232 145.216 338.584 145.216ZM354.239 145.288C352.247 145.288 350.471 144.784 348.911 143.776C347.375 142.744 346.163 141.256 345.275 139.312C344.387 137.368 343.943 135.064 343.943 132.4C343.943 129.736 344.387 127.432 345.275 125.488C346.163 123.544 347.375 122.068 348.911 121.06C350.471 120.028 352.247 119.512 354.239 119.512C356.207 119.512 357.959 120.028 359.495 121.06C361.055 122.068 362.279 123.544 363.167 125.488C364.055 127.432 364.499 129.736 364.499 132.4C364.499 135.064 364.055 137.368 363.167 139.312C362.279 141.256 361.055 142.744 359.495 143.776C357.959 144.784 356.207 145.288 354.239 145.288ZM354.239 142.084C356.255 142.084 357.863 141.256 359.063 139.6C360.287 137.944 360.899 135.544 360.899 132.4C360.899 129.256 360.287 126.856 359.063 125.2C357.863 123.544 356.255 122.716 354.239 122.716C352.199 122.716 350.567 123.544 349.343 125.2C348.143 126.856 347.543 129.256 347.543 132.4C347.543 135.544 348.143 137.944 349.343 139.6C350.567 141.256 352.199 142.084 354.239 142.084ZM375.661 119.8V145H372.097V122.932H366.409V119.8H375.661Z" fill="white"/>
</g>
<g filter="url(#filter12_d)">
<path d="M260.62 482.932C262.324 483.34 263.608 484.072 264.472 485.128C265.36 486.16 265.804 487.492 265.804 489.124C265.804 491.308 265 493 263.392 494.2C261.808 495.4 259.492 496 256.444 496H244.924V470.8H255.76C258.52 470.8 260.668 471.364 262.204 472.492C263.764 473.596 264.544 475.192 264.544 477.28C264.544 478.648 264.196 479.812 263.5 480.772C262.828 481.732 261.868 482.452 260.62 482.932ZM248.488 481.888H255.508C257.26 481.888 258.592 481.54 259.504 480.844C260.44 480.148 260.908 479.128 260.908 477.784C260.908 476.44 260.44 475.42 259.504 474.724C258.568 474.004 257.236 473.644 255.508 473.644H248.488V481.888ZM256.372 493.156C260.236 493.156 262.168 491.716 262.168 488.836C262.168 487.396 261.676 486.34 260.692 485.668C259.732 484.972 258.292 484.624 256.372 484.624H248.488V493.156H256.372ZM271.243 476.92H274.699V490.816L286.399 476.92H289.531V496H286.075V482.104L274.411 496H271.243V476.92ZM303.655 487.936H299.695V496H296.239V476.92H299.695V484.984H303.727L309.919 476.92H313.627L306.391 486.1L314.131 496H310.063L303.655 487.936ZM325.293 496.216C323.397 496.216 321.693 495.796 320.181 494.956C318.669 494.116 317.481 492.964 316.617 491.5C315.777 490.012 315.357 488.332 315.357 486.46C315.357 484.588 315.777 482.92 316.617 481.456C317.481 479.968 318.669 478.816 320.181 478C321.693 477.16 323.397 476.74 325.293 476.74C327.189 476.74 328.881 477.16 330.369 478C331.881 478.816 333.057 479.968 333.897 481.456C334.761 482.92 335.193 484.588 335.193 486.46C335.193 488.332 334.761 490.012 333.897 491.5C333.057 492.964 331.881 494.116 330.369 494.956C328.881 495.796 327.189 496.216 325.293 496.216ZM325.293 493.192C326.517 493.192 327.609 492.916 328.569 492.364C329.553 491.788 330.321 490.996 330.873 489.988C331.425 488.956 331.701 487.78 331.701 486.46C331.701 485.14 331.425 483.976 330.873 482.968C330.321 481.936 329.553 481.144 328.569 480.592C327.609 480.04 326.517 479.764 325.293 479.764C324.069 479.764 322.965 480.04 321.981 480.592C321.021 481.144 320.253 481.936 319.677 482.968C319.125 483.976 318.849 485.14 318.849 486.46C318.849 487.78 319.125 488.956 319.677 489.988C320.253 490.996 321.021 491.788 321.981 492.364C322.965 492.916 324.069 493.192 325.293 493.192ZM340.184 476.92H343.64V485.02H354.512V476.92H357.968V496H354.512V488.008H343.64V496H340.184V476.92ZM371.492 476.74C374.132 476.74 376.148 477.388 377.54 478.684C378.956 479.98 379.664 481.912 379.664 484.48V496H376.388V493.48C375.812 494.368 374.984 495.052 373.904 495.532C372.848 495.988 371.588 496.216 370.124 496.216C367.988 496.216 366.272 495.7 364.976 494.668C363.704 493.636 363.068 492.28 363.068 490.6C363.068 488.92 363.68 487.576 364.904 486.568C366.128 485.536 368.072 485.02 370.736 485.02H376.208V484.336C376.208 482.848 375.776 481.708 374.912 480.916C374.048 480.124 372.776 479.728 371.096 479.728C369.968 479.728 368.864 479.92 367.784 480.304C366.704 480.664 365.792 481.156 365.048 481.78L363.608 479.188C364.592 478.396 365.768 477.796 367.136 477.388C368.504 476.956 369.956 476.74 371.492 476.74ZM370.7 493.552C372.02 493.552 373.16 493.264 374.12 492.688C375.08 492.088 375.776 491.248 376.208 490.168V487.504H370.88C367.952 487.504 366.488 488.488 366.488 490.456C366.488 491.416 366.86 492.172 367.604 492.724C368.348 493.276 369.38 493.552 370.7 493.552ZM385.887 476.92H389.343V490.816L401.043 476.92H404.175V496H400.719V482.104L389.055 496H385.887V476.92ZM394.815 474.436C393.039 474.436 391.659 474.016 390.675 473.176C389.691 472.312 389.187 471.076 389.163 469.468H391.503C391.527 470.356 391.827 471.076 392.403 471.628C393.003 472.156 393.795 472.42 394.779 472.42C395.763 472.42 396.555 472.156 397.155 471.628C397.755 471.076 398.067 470.356 398.091 469.468H400.503C400.479 471.076 399.963 472.312 398.955 473.176C397.947 474.016 396.567 474.436 394.815 474.436ZM434.771 479.944H427.787V496H424.331V479.944H417.347V476.92H434.771V479.944ZM454.705 486.568C454.705 486.832 454.681 487.18 454.633 487.612H439.153C439.369 489.292 440.101 490.648 441.349 491.68C442.621 492.688 444.193 493.192 446.065 493.192C448.345 493.192 450.181 492.424 451.573 490.888L453.481 493.12C452.617 494.128 451.537 494.896 450.241 495.424C448.969 495.952 447.541 496.216 445.957 496.216C443.941 496.216 442.153 495.808 440.593 494.992C439.033 494.152 437.821 492.988 436.957 491.5C436.117 490.012 435.697 488.332 435.697 486.46C435.697 484.612 436.105 482.944 436.921 481.456C437.761 479.968 438.901 478.816 440.341 478C441.805 477.16 443.449 476.74 445.273 476.74C447.097 476.74 448.717 477.16 450.133 478C451.573 478.816 452.689 479.968 453.481 481.456C454.297 482.944 454.705 484.648 454.705 486.568ZM445.273 479.656C443.617 479.656 442.225 480.16 441.097 481.168C439.993 482.176 439.345 483.496 439.153 485.128H451.393C451.201 483.52 450.541 482.212 449.413 481.204C448.309 480.172 446.929 479.656 445.273 479.656ZM468.383 496.216C466.439 496.216 464.699 495.796 463.163 494.956C461.651 494.116 460.463 492.964 459.599 491.5C458.735 490.012 458.303 488.332 458.303 486.46C458.303 484.588 458.735 482.92 459.599 481.456C460.463 479.968 461.651 478.816 463.163 478C464.699 477.16 466.439 476.74 468.383 476.74C470.111 476.74 471.647 477.088 472.991 477.784C474.359 478.48 475.415 479.488 476.159 480.808L473.531 482.5C472.931 481.588 472.187 480.904 471.299 480.448C470.411 479.992 469.427 479.764 468.347 479.764C467.099 479.764 465.971 480.04 464.963 480.592C463.979 481.144 463.199 481.936 462.623 482.968C462.071 483.976 461.795 485.14 461.795 486.46C461.795 487.804 462.071 488.992 462.623 490.024C463.199 491.032 463.979 491.812 464.963 492.364C465.971 492.916 467.099 493.192 468.347 493.192C469.427 493.192 470.411 492.964 471.299 492.508C472.187 492.052 472.931 491.368 473.531 490.456L476.159 492.112C475.415 493.432 474.359 494.452 472.991 495.172C471.647 495.868 470.111 496.216 468.383 496.216ZM494.607 479.944H487.623V496H484.167V479.944H477.183V476.92H494.607V479.944ZM505.469 496.216C503.573 496.216 501.869 495.796 500.357 494.956C498.845 494.116 497.657 492.964 496.793 491.5C495.953 490.012 495.533 488.332 495.533 486.46C495.533 484.588 495.953 482.92 496.793 481.456C497.657 479.968 498.845 478.816 500.357 478C501.869 477.16 503.573 476.74 505.469 476.74C507.365 476.74 509.057 477.16 510.545 478C512.057 478.816 513.233 479.968 514.073 481.456C514.937 482.92 515.369 484.588 515.369 486.46C515.369 488.332 514.937 490.012 514.073 491.5C513.233 492.964 512.057 494.116 510.545 494.956C509.057 495.796 507.365 496.216 505.469 496.216ZM505.469 493.192C506.693 493.192 507.785 492.916 508.745 492.364C509.729 491.788 510.497 490.996 511.049 489.988C511.601 488.956 511.877 487.78 511.877 486.46C511.877 485.14 511.601 483.976 511.049 482.968C510.497 481.936 509.729 481.144 508.745 480.592C507.785 480.04 506.693 479.764 505.469 479.764C504.245 479.764 503.141 480.04 502.157 480.592C501.197 481.144 500.429 481.936 499.853 482.968C499.301 483.976 499.025 485.14 499.025 486.46C499.025 487.78 499.301 488.956 499.853 489.988C500.429 490.996 501.197 491.788 502.157 492.364C503.141 492.916 504.245 493.192 505.469 493.192ZM533.356 486.1C535.828 486.724 537.064 488.272 537.064 490.744C537.064 492.424 536.428 493.72 535.156 494.632C533.908 495.544 532.036 496 529.54 496H520.36V476.92H529.216C531.472 476.92 533.236 477.352 534.508 478.216C535.78 479.056 536.416 480.256 536.416 481.816C536.416 482.824 536.14 483.7 535.588 484.444C535.06 485.164 534.316 485.716 533.356 486.1ZM523.744 485.128H528.928C530.248 485.128 531.244 484.888 531.916 484.408C532.612 483.928 532.96 483.232 532.96 482.32C532.96 480.496 531.616 479.584 528.928 479.584H523.744V485.128ZM529.288 493.336C530.728 493.336 531.808 493.108 532.528 492.652C533.248 492.196 533.608 491.488 533.608 490.528C533.608 489.544 533.272 488.812 532.6 488.332C531.952 487.852 530.92 487.612 529.504 487.612H523.744V493.336H529.288ZM559.717 486.568C559.717 486.832 559.693 487.18 559.645 487.612H544.165C544.381 489.292 545.113 490.648 546.361 491.68C547.633 492.688 549.205 493.192 551.077 493.192C553.357 493.192 555.193 492.424 556.585 490.888L558.493 493.12C557.629 494.128 556.549 494.896 555.253 495.424C553.981 495.952 552.553 496.216 550.969 496.216C548.953 496.216 547.165 495.808 545.605 494.992C544.045 494.152 542.833 492.988 541.969 491.5C541.129 490.012 540.709 488.332 540.709 486.46C540.709 484.612 541.117 482.944 541.933 481.456C542.773 479.968 543.913 478.816 545.353 478C546.817 477.16 548.461 476.74 550.285 476.74C552.109 476.74 553.729 477.16 555.145 478C556.585 478.816 557.701 479.968 558.493 481.456C559.309 482.944 559.717 484.648 559.717 486.568ZM550.285 479.656C548.629 479.656 547.237 480.16 546.109 481.168C545.005 482.176 544.357 483.496 544.165 485.128H556.405C556.213 483.52 555.553 482.212 554.425 481.204C553.321 480.172 551.941 479.656 550.285 479.656ZM254.68 530.064C255.952 530.4 256.936 530.94 257.632 531.684C258.328 532.428 258.676 533.352 258.676 534.456C258.676 535.584 258.292 536.592 257.524 537.48C256.756 538.344 255.688 539.028 254.32 539.532C252.976 540.012 251.464 540.252 249.784 540.252C248.368 540.252 246.976 540.072 245.608 539.712C244.264 539.328 243.064 538.788 242.008 538.092L243.052 535.464C243.964 536.04 245.008 536.496 246.184 536.832C247.36 537.144 248.548 537.3 249.748 537.3C251.38 537.3 252.676 537.024 253.636 536.472C254.62 535.896 255.112 535.128 255.112 534.168C255.112 533.28 254.716 532.596 253.924 532.116C253.156 531.636 252.064 531.396 250.648 531.396H247.156V528.912H250.396C251.692 528.912 252.712 528.684 253.456 528.228C254.2 527.772 254.572 527.148 254.572 526.356C254.572 525.492 254.128 524.82 253.24 524.34C252.376 523.86 251.2 523.62 249.712 523.62C247.816 523.62 245.812 524.112 243.7 525.096L242.764 522.432C245.092 521.256 247.528 520.668 250.072 520.668C251.608 520.668 252.988 520.884 254.212 521.316C255.436 521.748 256.396 522.36 257.092 523.152C257.788 523.944 258.136 524.844 258.136 525.852C258.136 526.788 257.824 527.628 257.2 528.372C256.576 529.116 255.736 529.68 254.68 530.064ZM270.734 520.74C273.374 520.74 275.39 521.388 276.782 522.684C278.198 523.98 278.906 525.912 278.906 528.48V540H275.63V537.48C275.054 538.368 274.226 539.052 273.146 539.532C272.09 539.988 270.83 540.216 269.366 540.216C267.23 540.216 265.514 539.7 264.218 538.668C262.946 537.636 262.31 536.28 262.31 534.6C262.31 532.92 262.922 531.576 264.146 530.568C265.37 529.536 267.314 529.02 269.978 529.02H275.45V528.336C275.45 526.848 275.018 525.708 274.154 524.916C273.29 524.124 272.018 523.728 270.338 523.728C269.21 523.728 268.106 523.92 267.026 524.304C265.946 524.664 265.034 525.156 264.29 525.78L262.85 523.188C263.834 522.396 265.01 521.796 266.378 521.388C267.746 520.956 269.198 520.74 270.734 520.74ZM269.942 537.552C271.262 537.552 272.402 537.264 273.362 536.688C274.322 536.088 275.018 535.248 275.45 534.168V531.504H270.122C267.194 531.504 265.73 532.488 265.73 534.456C265.73 535.416 266.102 536.172 266.846 536.724C267.59 537.276 268.622 537.552 269.942 537.552ZM298.125 530.1C300.597 530.724 301.833 532.272 301.833 534.744C301.833 536.424 301.197 537.72 299.925 538.632C298.677 539.544 296.805 540 294.309 540H285.129V520.92H293.985C296.241 520.92 298.005 521.352 299.277 522.216C300.549 523.056 301.185 524.256 301.185 525.816C301.185 526.824 300.909 527.7 300.357 528.444C299.829 529.164 299.085 529.716 298.125 530.1ZM288.513 529.128H293.697C295.017 529.128 296.013 528.888 296.685 528.408C297.381 527.928 297.729 527.232 297.729 526.32C297.729 524.496 296.385 523.584 293.697 523.584H288.513V529.128ZM294.057 537.336C295.497 537.336 296.577 537.108 297.297 536.652C298.017 536.196 298.377 535.488 298.377 534.528C298.377 533.544 298.041 532.812 297.369 532.332C296.721 531.852 295.689 531.612 294.273 531.612H288.513V537.336H294.057ZM326.647 536.976V544.428H323.407V540H307.459V544.428H304.183V536.976H305.191C306.415 536.904 307.255 536.04 307.711 534.384C308.167 532.728 308.479 530.388 308.647 527.364L308.935 520.92H323.731V536.976H326.647ZM311.815 527.616C311.719 530.016 311.515 532.008 311.203 533.592C310.915 535.152 310.375 536.28 309.583 536.976H320.275V523.944H311.995L311.815 527.616ZM337.953 520.74C340.593 520.74 342.609 521.388 344.001 522.684C345.417 523.98 346.125 525.912 346.125 528.48V540H342.849V537.48C342.273 538.368 341.445 539.052 340.365 539.532C339.309 539.988 338.049 540.216 336.585 540.216C334.449 540.216 332.733 539.7 331.437 538.668C330.165 537.636 329.529 536.28 329.529 534.6C329.529 532.92 330.141 531.576 331.365 530.568C332.589 529.536 334.533 529.02 337.197 529.02H342.669V528.336C342.669 526.848 342.237 525.708 341.373 524.916C340.509 524.124 339.237 523.728 337.557 523.728C336.429 523.728 335.325 523.92 334.245 524.304C333.165 524.664 332.253 525.156 331.509 525.78L330.069 523.188C331.053 522.396 332.229 521.796 333.597 521.388C334.965 520.956 336.417 520.74 337.953 520.74ZM337.161 537.552C338.481 537.552 339.621 537.264 340.581 536.688C341.541 536.088 342.237 535.248 342.669 534.168V531.504H337.341C334.413 531.504 332.949 532.488 332.949 534.456C332.949 535.416 333.321 536.172 334.065 536.724C334.809 537.276 335.841 537.552 337.161 537.552ZM352.348 520.92H355.804V529.02H366.676V520.92H370.132V540H366.676V532.008H355.804V540H352.348V520.92ZM376.852 520.92H380.308V529.02H391.18V520.92H394.636V540H391.18V532.008H380.308V540H376.852V520.92ZM416.656 520.92V540H413.56V533.952H408.016H407.62L403.444 540H399.736L404.38 533.484C402.94 533.052 401.836 532.344 401.068 531.36C400.3 530.352 399.916 529.104 399.916 527.616C399.916 525.432 400.66 523.776 402.148 522.648C403.636 521.496 405.688 520.92 408.304 520.92H416.656ZM403.444 527.724C403.444 528.996 403.84 529.944 404.632 530.568C405.448 531.168 406.66 531.468 408.268 531.468H413.56V523.944H408.412C405.1 523.944 403.444 525.204 403.444 527.724ZM452.471 536.976V544.428H449.231V540H433.283V544.428H430.007V536.976H431.015C432.239 536.904 433.079 536.04 433.535 534.384C433.991 532.728 434.303 530.388 434.471 527.364L434.759 520.92H449.555V536.976H452.471ZM437.639 527.616C437.543 530.016 437.339 532.008 437.027 533.592C436.739 535.152 436.199 536.28 435.407 536.976H446.099V523.944H437.819L437.639 527.616ZM465.145 540.216C463.249 540.216 461.545 539.796 460.033 538.956C458.521 538.116 457.333 536.964 456.469 535.5C455.629 534.012 455.209 532.332 455.209 530.46C455.209 528.588 455.629 526.92 456.469 525.456C457.333 523.968 458.521 522.816 460.033 522C461.545 521.16 463.249 520.74 465.145 520.74C467.041 520.74 468.733 521.16 470.221 522C471.733 522.816 472.909 523.968 473.749 525.456C474.613 526.92 475.045 528.588 475.045 530.46C475.045 532.332 474.613 534.012 473.749 535.5C472.909 536.964 471.733 538.116 470.221 538.956C468.733 539.796 467.041 540.216 465.145 540.216ZM465.145 537.192C466.369 537.192 467.461 536.916 468.421 536.364C469.405 535.788 470.173 534.996 470.725 533.988C471.277 532.956 471.553 531.78 471.553 530.46C471.553 529.14 471.277 527.976 470.725 526.968C470.173 525.936 469.405 525.144 468.421 524.592C467.461 524.04 466.369 523.764 465.145 523.764C463.921 523.764 462.817 524.04 461.833 524.592C460.873 525.144 460.105 525.936 459.529 526.968C458.977 527.976 458.701 529.14 458.701 530.46C458.701 531.78 458.977 532.956 459.529 533.988C460.105 534.996 460.873 535.788 461.833 536.364C462.817 536.916 463.921 537.192 465.145 537.192ZM505.795 536.868V540H487.687V537.552L497.947 527.652C499.195 526.452 500.035 525.42 500.467 524.556C500.899 523.668 501.115 522.78 501.115 521.892C501.115 520.572 500.647 519.552 499.711 518.832C498.799 518.088 497.479 517.716 495.751 517.716C492.967 517.716 490.819 518.628 489.307 520.452L486.859 518.328C487.843 517.128 489.127 516.192 490.711 515.52C492.319 514.848 494.107 514.512 496.075 514.512C498.715 514.512 500.815 515.148 502.375 516.42C503.935 517.668 504.715 519.372 504.715 521.532C504.715 522.876 504.427 524.148 503.851 525.348C503.275 526.548 502.183 527.916 500.575 529.452L492.871 536.868H505.795ZM519.522 524.7C521.178 524.7 522.654 525.012 523.95 525.636C525.27 526.26 526.302 527.16 527.046 528.336C527.79 529.488 528.162 530.82 528.162 532.332C528.162 533.916 527.766 535.308 526.974 536.508C526.206 537.708 525.138 538.644 523.77 539.316C522.426 539.964 520.914 540.288 519.234 540.288C515.85 540.288 513.234 539.196 511.386 537.012C509.562 534.828 508.65 531.732 508.65 527.724C508.65 524.916 509.142 522.528 510.126 520.56C511.134 518.568 512.526 517.068 514.302 516.06C516.102 515.028 518.19 514.512 520.566 514.512C521.79 514.512 522.942 514.644 524.022 514.908C525.102 515.148 526.038 515.508 526.83 515.988L525.462 518.796C524.262 518.004 522.654 517.608 520.638 517.608C518.022 517.608 515.97 518.424 514.482 520.056C512.994 521.664 512.25 524.016 512.25 527.112C512.25 527.496 512.262 527.796 512.286 528.012C513.006 526.932 513.99 526.116 515.238 525.564C516.51 524.988 517.938 524.7 519.522 524.7ZM519.09 537.372C520.746 537.372 522.09 536.928 523.122 536.04C524.154 535.152 524.67 533.964 524.67 532.476C524.67 530.988 524.142 529.812 523.086 528.948C522.054 528.06 520.662 527.616 518.91 527.616C517.782 527.616 516.774 527.832 515.886 528.264C515.022 528.696 514.338 529.284 513.834 530.028C513.354 530.772 513.114 531.6 513.114 532.512C513.114 533.4 513.342 534.216 513.798 534.96C514.278 535.68 514.962 536.268 515.85 536.724C516.762 537.156 517.842 537.372 519.09 537.372ZM533.596 540.216C532.924 540.216 532.348 539.988 531.868 539.532C531.388 539.052 531.148 538.452 531.148 537.732C531.148 537.036 531.388 536.46 531.868 536.004C532.348 535.524 532.924 535.284 533.596 535.284C534.268 535.284 534.832 535.512 535.288 535.968C535.744 536.424 535.972 537.012 535.972 537.732C535.972 538.452 535.732 539.052 535.252 539.532C534.796 539.988 534.244 540.216 533.596 540.216ZM549.251 540.288C547.259 540.288 545.483 539.784 543.923 538.776C542.387 537.744 541.175 536.256 540.287 534.312C539.399 532.368 538.955 530.064 538.955 527.4C538.955 524.736 539.399 522.432 540.287 520.488C541.175 518.544 542.387 517.068 543.923 516.06C545.483 515.028 547.259 514.512 549.251 514.512C551.219 514.512 552.971 515.028 554.507 516.06C556.067 517.068 557.291 518.544 558.179 520.488C559.067 522.432 559.511 524.736 559.511 527.4C559.511 530.064 559.067 532.368 558.179 534.312C557.291 536.256 556.067 537.744 554.507 538.776C552.971 539.784 551.219 540.288 549.251 540.288ZM549.251 537.084C551.267 537.084 552.875 536.256 554.075 534.6C555.299 532.944 555.911 530.544 555.911 527.4C555.911 524.256 555.299 521.856 554.075 520.2C552.875 518.544 551.267 517.716 549.251 517.716C547.211 517.716 545.579 518.544 544.355 520.2C543.155 521.856 542.555 524.256 542.555 527.4C542.555 530.544 543.155 532.944 544.355 534.6C545.579 536.256 547.211 537.084 549.251 537.084ZM570.673 514.8V540H567.109V517.932H561.421V514.8H570.673Z" fill="white"/>
</g>
<g filter="url(#filter13_d)">
<path d="M256.264 878.288C253.72 878.288 251.428 877.736 249.388 876.632C247.348 875.504 245.74 873.956 244.564 871.988C243.412 870.02 242.836 867.824 242.836 865.4C242.836 862.976 243.412 860.78 244.564 858.812C245.74 856.844 247.348 855.308 249.388 854.204C251.428 853.076 253.72 852.512 256.264 852.512C258.784 852.512 261.064 853.076 263.104 854.204C265.144 855.308 266.74 856.844 267.892 858.812C269.044 860.756 269.62 862.952 269.62 865.4C269.62 867.848 269.044 870.056 267.892 872.024C266.74 873.968 265.144 875.504 263.104 876.632C261.064 877.736 258.784 878.288 256.264 878.288ZM256.264 875.084C258.112 875.084 259.768 874.664 261.232 873.824C262.72 872.984 263.884 871.832 264.724 870.368C265.588 868.88 266.02 867.224 266.02 865.4C266.02 863.576 265.588 861.932 264.724 860.468C263.884 858.98 262.72 857.816 261.232 856.976C259.768 856.136 258.112 855.716 256.264 855.716C254.416 855.716 252.736 856.136 251.224 856.976C249.736 857.816 248.56 858.98 247.696 860.468C246.856 861.932 246.436 863.576 246.436 865.4C246.436 867.224 246.856 868.88 247.696 870.368C248.56 871.832 249.736 872.984 251.224 873.824C252.736 874.664 254.416 875.084 256.264 875.084ZM288.662 861.944H281.678V878H278.222V861.944H271.238V858.92H288.662V861.944ZM302.312 858.74C304.16 858.74 305.816 859.148 307.28 859.964C308.744 860.78 309.884 861.92 310.7 863.384C311.54 864.848 311.96 866.54 311.96 868.46C311.96 870.38 311.54 872.084 310.7 873.572C309.884 875.036 308.744 876.176 307.28 876.992C305.816 877.808 304.16 878.216 302.312 878.216C300.944 878.216 299.684 877.952 298.532 877.424C297.404 876.896 296.444 876.128 295.652 875.12V884.984H292.196V858.92H295.508V861.944C296.276 860.888 297.248 860.096 298.424 859.568C299.6 859.016 300.896 858.74 302.312 858.74ZM302.024 875.192C303.248 875.192 304.34 874.916 305.3 874.364C306.284 873.788 307.052 872.996 307.604 871.988C308.18 870.956 308.468 869.78 308.468 868.46C308.468 867.14 308.18 865.976 307.604 864.968C307.052 863.936 306.284 863.144 305.3 862.592C304.34 862.04 303.248 861.764 302.024 861.764C300.824 861.764 299.732 862.052 298.748 862.628C297.788 863.18 297.02 863.96 296.444 864.968C295.892 865.976 295.616 867.14 295.616 868.46C295.616 869.78 295.892 870.956 296.444 871.988C296.996 872.996 297.764 873.788 298.748 874.364C299.732 874.916 300.824 875.192 302.024 875.192ZM316.981 858.92H320.437V872.816L332.137 858.92H335.269V878H331.813V864.104L320.149 878H316.981V858.92ZM363.973 858.92V878H360.841V864.068L353.713 875.84H352.201L345.145 864.032V878H341.977V858.92H345.541L353.029 871.808L360.733 858.92H363.973ZM377.504 858.74C380.144 858.74 382.16 859.388 383.552 860.684C384.968 861.98 385.676 863.912 385.676 866.48V878H382.4V875.48C381.824 876.368 380.996 877.052 379.916 877.532C378.86 877.988 377.6 878.216 376.136 878.216C374 878.216 372.284 877.7 370.988 876.668C369.716 875.636 369.08 874.28 369.08 872.6C369.08 870.92 369.692 869.576 370.916 868.568C372.14 867.536 374.084 867.02 376.748 867.02H382.22V866.336C382.22 864.848 381.788 863.708 380.924 862.916C380.06 862.124 378.788 861.728 377.108 861.728C375.98 861.728 374.876 861.92 373.796 862.304C372.716 862.664 371.804 863.156 371.06 863.78L369.62 861.188C370.604 860.396 371.78 859.796 373.148 859.388C374.516 858.956 375.968 858.74 377.504 858.74ZM376.712 875.552C378.032 875.552 379.172 875.264 380.132 874.688C381.092 874.088 381.788 873.248 382.22 872.168V869.504H376.892C373.964 869.504 372.5 870.488 372.5 872.456C372.5 873.416 372.872 874.172 373.616 874.724C374.36 875.276 375.392 875.552 376.712 875.552ZM391.899 858.92H395.355V872.816L407.055 858.92H410.187V878H406.731V864.104L395.067 878H391.899V858.92ZM400.827 856.436C399.051 856.436 397.671 856.016 396.687 855.176C395.703 854.312 395.199 853.076 395.175 851.468H397.515C397.539 852.356 397.839 853.076 398.415 853.628C399.015 854.156 399.807 854.42 400.791 854.42C401.775 854.42 402.567 854.156 403.167 853.628C403.767 853.076 404.079 852.356 404.103 851.468H406.515C406.491 853.076 405.975 854.312 404.967 855.176C403.959 856.016 402.579 856.436 400.827 856.436ZM254.68 912.064C255.952 912.4 256.936 912.94 257.632 913.684C258.328 914.428 258.676 915.352 258.676 916.456C258.676 917.584 258.292 918.592 257.524 919.48C256.756 920.344 255.688 921.028 254.32 921.532C252.976 922.012 251.464 922.252 249.784 922.252C248.368 922.252 246.976 922.072 245.608 921.712C244.264 921.328 243.064 920.788 242.008 920.092L243.052 917.464C243.964 918.04 245.008 918.496 246.184 918.832C247.36 919.144 248.548 919.3 249.748 919.3C251.38 919.3 252.676 919.024 253.636 918.472C254.62 917.896 255.112 917.128 255.112 916.168C255.112 915.28 254.716 914.596 253.924 914.116C253.156 913.636 252.064 913.396 250.648 913.396H247.156V910.912H250.396C251.692 910.912 252.712 910.684 253.456 910.228C254.2 909.772 254.572 909.148 254.572 908.356C254.572 907.492 254.128 906.82 253.24 906.34C252.376 905.86 251.2 905.62 249.712 905.62C247.816 905.62 245.812 906.112 243.7 907.096L242.764 904.432C245.092 903.256 247.528 902.668 250.072 902.668C251.608 902.668 252.988 902.884 254.212 903.316C255.436 903.748 256.396 904.36 257.092 905.152C257.788 905.944 258.136 906.844 258.136 907.852C258.136 908.788 257.824 909.628 257.2 910.372C256.576 911.116 255.736 911.68 254.68 912.064ZM270.734 902.74C273.374 902.74 275.39 903.388 276.782 904.684C278.198 905.98 278.906 907.912 278.906 910.48V922H275.63V919.48C275.054 920.368 274.226 921.052 273.146 921.532C272.09 921.988 270.83 922.216 269.366 922.216C267.23 922.216 265.514 921.7 264.218 920.668C262.946 919.636 262.31 918.28 262.31 916.6C262.31 914.92 262.922 913.576 264.146 912.568C265.37 911.536 267.314 911.02 269.978 911.02H275.45V910.336C275.45 908.848 275.018 907.708 274.154 906.916C273.29 906.124 272.018 905.728 270.338 905.728C269.21 905.728 268.106 905.92 267.026 906.304C265.946 906.664 265.034 907.156 264.29 907.78L262.85 905.188C263.834 904.396 265.01 903.796 266.378 903.388C267.746 902.956 269.198 902.74 270.734 902.74ZM269.942 919.552C271.262 919.552 272.402 919.264 273.362 918.688C274.322 918.088 275.018 917.248 275.45 916.168V913.504H270.122C267.194 913.504 265.73 914.488 265.73 916.456C265.73 917.416 266.102 918.172 266.846 918.724C267.59 919.276 268.622 919.552 269.942 919.552ZM302.805 902.92V922H299.349V905.944H288.585V922H285.129V902.92H302.805ZM319.609 902.74C321.457 902.74 323.113 903.148 324.577 903.964C326.041 904.78 327.181 905.92 327.997 907.384C328.837 908.848 329.257 910.54 329.257 912.46C329.257 914.38 328.837 916.084 327.997 917.572C327.181 919.036 326.041 920.176 324.577 920.992C323.113 921.808 321.457 922.216 319.609 922.216C318.241 922.216 316.981 921.952 315.829 921.424C314.701 920.896 313.741 920.128 312.949 919.12V928.984H309.493V902.92H312.805V905.944C313.573 904.888 314.545 904.096 315.721 903.568C316.897 903.016 318.193 902.74 319.609 902.74ZM319.321 919.192C320.545 919.192 321.637 918.916 322.597 918.364C323.581 917.788 324.349 916.996 324.901 915.988C325.477 914.956 325.765 913.78 325.765 912.46C325.765 911.14 325.477 909.976 324.901 908.968C324.349 907.936 323.581 907.144 322.597 906.592C321.637 906.04 320.545 905.764 319.321 905.764C318.121 905.764 317.029 906.052 316.045 906.628C315.085 907.18 314.317 907.96 313.741 908.968C313.189 909.976 312.913 911.14 312.913 912.46C312.913 913.78 313.189 914.956 313.741 915.988C314.293 916.996 315.061 917.788 316.045 918.364C317.029 918.916 318.121 919.192 319.321 919.192ZM342.45 922.216C340.554 922.216 338.85 921.796 337.338 920.956C335.826 920.116 334.638 918.964 333.774 917.5C332.934 916.012 332.514 914.332 332.514 912.46C332.514 910.588 332.934 908.92 333.774 907.456C334.638 905.968 335.826 904.816 337.338 904C338.85 903.16 340.554 902.74 342.45 902.74C344.346 902.74 346.038 903.16 347.526 904C349.038 904.816 350.214 905.968 351.054 907.456C351.918 908.92 352.35 910.588 352.35 912.46C352.35 914.332 351.918 916.012 351.054 917.5C350.214 918.964 349.038 920.116 347.526 920.956C346.038 921.796 344.346 922.216 342.45 922.216ZM342.45 919.192C343.674 919.192 344.766 918.916 345.726 918.364C346.71 917.788 347.478 916.996 348.03 915.988C348.582 914.956 348.858 913.78 348.858 912.46C348.858 911.14 348.582 909.976 348.03 908.968C347.478 907.936 346.71 907.144 345.726 906.592C344.766 906.04 343.674 905.764 342.45 905.764C341.226 905.764 340.122 906.04 339.138 906.592C338.178 907.144 337.41 907.936 336.834 908.968C336.282 909.976 336.006 911.14 336.006 912.46C336.006 913.78 336.282 914.956 336.834 915.988C337.41 916.996 338.178 917.788 339.138 918.364C340.122 918.916 341.226 919.192 342.45 919.192ZM384.52 902.92V922H357.34V902.92H360.796V918.976H369.22V902.92H372.676V918.976H381.064V902.92H384.52ZM408.475 912.568C408.475 912.832 408.451 913.18 408.403 913.612H392.923C393.139 915.292 393.871 916.648 395.119 917.68C396.391 918.688 397.963 919.192 399.835 919.192C402.115 919.192 403.951 918.424 405.343 916.888L407.251 919.12C406.387 920.128 405.307 920.896 404.011 921.424C402.739 921.952 401.311 922.216 399.727 922.216C397.711 922.216 395.923 921.808 394.363 920.992C392.803 920.152 391.591 918.988 390.727 917.5C389.887 916.012 389.467 914.332 389.467 912.46C389.467 910.612 389.875 908.944 390.691 907.456C391.531 905.968 392.671 904.816 394.111 904C395.575 903.16 397.219 902.74 399.043 902.74C400.867 902.74 402.487 903.16 403.903 904C405.343 904.816 406.459 905.968 407.251 907.456C408.067 908.944 408.475 910.648 408.475 912.568ZM399.043 905.656C397.387 905.656 395.995 906.16 394.867 907.168C393.763 908.176 393.115 909.496 392.923 911.128H405.163C404.971 909.52 404.311 908.212 403.183 907.204C402.079 906.172 400.699 905.656 399.043 905.656ZM413.836 902.92H417.292V911.02H428.164V902.92H431.62V922H428.164V914.008H417.292V922H413.836V902.92ZM438.34 902.92H441.796V911.02H452.668V902.92H456.124V922H452.668V914.008H441.796V922H438.34V902.92ZM478.144 902.92V922H475.048V915.952H469.504H469.108L464.932 922H461.224L465.868 915.484C464.428 915.052 463.324 914.344 462.556 913.36C461.788 912.352 461.404 911.104 461.404 909.616C461.404 907.432 462.148 905.776 463.636 904.648C465.124 903.496 467.176 902.92 469.792 902.92H478.144ZM464.932 909.724C464.932 910.996 465.328 911.944 466.12 912.568C466.936 913.168 468.148 913.468 469.756 913.468H475.048V905.944H469.9C466.588 905.944 464.932 907.204 464.932 909.724ZM263.752 962.976V970.428H260.512V966H244.564V970.428H241.288V962.976H242.296C243.52 962.904 244.36 962.04 244.816 960.384C245.272 958.728 245.584 956.388 245.752 953.364L246.04 946.92H260.836V962.976H263.752ZM248.92 953.616C248.824 956.016 248.62 958.008 248.308 959.592C248.02 961.152 247.48 962.28 246.688 962.976H257.38V949.944H249.1L248.92 953.616ZM276.426 966.216C274.53 966.216 272.826 965.796 271.314 964.956C269.802 964.116 268.614 962.964 267.75 961.5C266.91 960.012 266.49 958.332 266.49 956.46C266.49 954.588 266.91 952.92 267.75 951.456C268.614 949.968 269.802 948.816 271.314 948C272.826 947.16 274.53 946.74 276.426 946.74C278.322 946.74 280.014 947.16 281.502 948C283.014 948.816 284.19 949.968 285.03 951.456C285.894 952.92 286.326 954.588 286.326 956.46C286.326 958.332 285.894 960.012 285.03 961.5C284.19 962.964 283.014 964.116 281.502 964.956C280.014 965.796 278.322 966.216 276.426 966.216ZM276.426 963.192C277.65 963.192 278.742 962.916 279.702 962.364C280.686 961.788 281.454 960.996 282.006 959.988C282.558 958.956 282.834 957.78 282.834 956.46C282.834 955.14 282.558 953.976 282.006 952.968C281.454 951.936 280.686 951.144 279.702 950.592C278.742 950.04 277.65 949.764 276.426 949.764C275.202 949.764 274.098 950.04 273.114 950.592C272.154 951.144 271.386 951.936 270.81 952.968C270.258 953.976 269.982 955.14 269.982 956.46C269.982 957.78 270.258 958.956 270.81 959.988C271.386 960.996 272.154 961.788 273.114 962.364C274.098 962.916 275.202 963.192 276.426 963.192ZM309.661 966.288C307.669 966.288 305.893 965.784 304.333 964.776C302.797 963.744 301.585 962.256 300.697 960.312C299.809 958.368 299.365 956.064 299.365 953.4C299.365 950.736 299.809 948.432 300.697 946.488C301.585 944.544 302.797 943.068 304.333 942.06C305.893 941.028 307.669 940.512 309.661 940.512C311.629 940.512 313.381 941.028 314.917 942.06C316.477 943.068 317.701 944.544 318.589 946.488C319.477 948.432 319.921 950.736 319.921 953.4C319.921 956.064 319.477 958.368 318.589 960.312C317.701 962.256 316.477 963.744 314.917 964.776C313.381 965.784 311.629 966.288 309.661 966.288ZM309.661 963.084C311.677 963.084 313.285 962.256 314.485 960.6C315.709 958.944 316.321 956.544 316.321 953.4C316.321 950.256 315.709 947.856 314.485 946.2C313.285 944.544 311.677 943.716 309.661 943.716C307.621 943.716 305.989 944.544 304.765 946.2C303.565 947.856 302.965 950.256 302.965 953.4C302.965 956.544 303.565 958.944 304.765 960.6C305.989 962.256 307.621 963.084 309.661 963.084ZM341.49 940.8V943.248L331.302 966H327.486L337.458 943.932H325.938V948.432H322.482V940.8H341.49ZM345.159 966.216C344.487 966.216 343.911 965.988 343.431 965.532C342.951 965.052 342.711 964.452 342.711 963.732C342.711 963.036 342.951 962.46 343.431 962.004C343.911 961.524 344.487 961.284 345.159 961.284C345.831 961.284 346.395 961.512 346.851 961.968C347.307 962.424 347.535 963.012 347.535 963.732C347.535 964.452 347.295 965.052 346.815 965.532C346.359 965.988 345.807 966.216 345.159 966.216ZM360.813 966.288C358.821 966.288 357.045 965.784 355.485 964.776C353.949 963.744 352.737 962.256 351.849 960.312C350.961 958.368 350.517 956.064 350.517 953.4C350.517 950.736 350.961 948.432 351.849 946.488C352.737 944.544 353.949 943.068 355.485 942.06C357.045 941.028 358.821 940.512 360.813 940.512C362.781 940.512 364.533 941.028 366.069 942.06C367.629 943.068 368.853 944.544 369.741 946.488C370.629 948.432 371.073 950.736 371.073 953.4C371.073 956.064 370.629 958.368 369.741 960.312C368.853 962.256 367.629 963.744 366.069 964.776C364.533 965.784 362.781 966.288 360.813 966.288ZM360.813 963.084C362.829 963.084 364.437 962.256 365.637 960.6C366.861 958.944 367.473 956.544 367.473 953.4C367.473 950.256 366.861 947.856 365.637 946.2C364.437 944.544 362.829 943.716 360.813 943.716C358.773 943.716 357.141 944.544 355.917 946.2C354.717 947.856 354.117 950.256 354.117 953.4C354.117 956.544 354.717 958.944 355.917 960.6C357.141 962.256 358.773 963.084 360.813 963.084ZM392.135 962.868V966H374.027V963.552L384.287 953.652C385.535 952.452 386.375 951.42 386.807 950.556C387.239 949.668 387.455 948.78 387.455 947.892C387.455 946.572 386.987 945.552 386.051 944.832C385.139 944.088 383.819 943.716 382.091 943.716C379.307 943.716 377.159 944.628 375.647 946.452L373.199 944.328C374.183 943.128 375.467 942.192 377.051 941.52C378.659 940.848 380.447 940.512 382.415 940.512C385.055 940.512 387.155 941.148 388.715 942.42C390.275 943.668 391.055 945.372 391.055 947.532C391.055 948.876 390.767 950.148 390.191 951.348C389.615 952.548 388.523 953.916 386.915 955.452L379.211 962.868H392.135Z" fill="white"/>
</g>
<g filter="url(#filter14_d)">
<path d="M268.936 1300.87V1309.51H265.588V1304H244.852L244.816 1309.51H241.468L241.504 1300.87H242.728C244.312 1300.77 245.428 1299.52 246.076 1297.12C246.724 1294.7 247.12 1291.29 247.264 1286.9L247.516 1278.8H265.228V1300.87H268.936ZM250.432 1287.22C250.312 1290.78 250.024 1293.72 249.568 1296.04C249.136 1298.37 248.428 1299.98 247.444 1300.87H261.664V1281.93H250.612L250.432 1287.22ZM281.032 1304.22C279.136 1304.22 277.432 1303.8 275.92 1302.96C274.408 1302.12 273.22 1300.96 272.356 1299.5C271.516 1298.01 271.096 1296.33 271.096 1294.46C271.096 1292.59 271.516 1290.92 272.356 1289.46C273.22 1287.97 274.408 1286.82 275.92 1286C277.432 1285.16 279.136 1284.74 281.032 1284.74C282.928 1284.74 284.62 1285.16 286.108 1286C287.62 1286.82 288.796 1287.97 289.636 1289.46C290.5 1290.92 290.932 1292.59 290.932 1294.46C290.932 1296.33 290.5 1298.01 289.636 1299.5C288.796 1300.96 287.62 1302.12 286.108 1302.96C284.62 1303.8 282.928 1304.22 281.032 1304.22ZM281.032 1301.19C282.256 1301.19 283.348 1300.92 284.308 1300.36C285.292 1299.79 286.06 1299 286.612 1297.99C287.164 1296.96 287.44 1295.78 287.44 1294.46C287.44 1293.14 287.164 1291.98 286.612 1290.97C286.06 1289.94 285.292 1289.14 284.308 1288.59C283.348 1288.04 282.256 1287.76 281.032 1287.76C279.808 1287.76 278.704 1288.04 277.72 1288.59C276.76 1289.14 275.992 1289.94 275.416 1290.97C274.864 1291.98 274.588 1293.14 274.588 1294.46C274.588 1295.78 274.864 1296.96 275.416 1297.99C275.992 1299 276.76 1299.79 277.72 1300.36C278.704 1300.92 279.808 1301.19 281.032 1301.19ZM312.162 1284.92V1304H308.706V1287.94H300.498L300.282 1292.19C300.162 1294.76 299.934 1296.91 299.598 1298.64C299.262 1300.34 298.71 1301.71 297.942 1302.74C297.174 1303.77 296.106 1304.29 294.738 1304.29C294.114 1304.29 293.406 1304.18 292.614 1303.96L292.83 1301.05C293.142 1301.12 293.43 1301.16 293.694 1301.16C294.654 1301.16 295.374 1300.74 295.854 1299.9C296.334 1299.06 296.646 1298.06 296.79 1296.91C296.934 1295.76 297.066 1294.11 297.186 1291.98L297.51 1284.92H312.162ZM335.872 1284.92L326.62 1305.91C325.804 1307.85 324.844 1309.22 323.74 1310.01C322.66 1310.8 321.352 1311.2 319.816 1311.2C318.88 1311.2 317.968 1311.04 317.08 1310.73C316.216 1310.44 315.496 1310.01 314.92 1309.44L316.396 1306.84C317.38 1307.78 318.52 1308.25 319.816 1308.25C320.656 1308.25 321.352 1308.02 321.904 1307.56C322.48 1307.13 322.996 1306.38 323.452 1305.3L324.064 1303.96L315.64 1284.92H319.24L325.9 1300.18L332.488 1284.92H335.872ZM354.639 1284.92V1304H351.183V1296.3C349.119 1297.26 347.067 1297.74 345.027 1297.74C342.651 1297.74 340.815 1297.18 339.519 1296.08C338.223 1294.98 337.575 1293.32 337.575 1291.11V1284.92H341.031V1290.9C341.031 1292.22 341.439 1293.21 342.255 1293.88C343.095 1294.56 344.259 1294.89 345.747 1294.89C347.427 1294.89 349.239 1294.47 351.183 1293.63V1284.92H354.639ZM368.152 1284.74C370.792 1284.74 372.808 1285.39 374.2 1286.68C375.616 1287.98 376.324 1289.91 376.324 1292.48V1304H373.048V1301.48C372.472 1302.37 371.644 1303.05 370.564 1303.53C369.508 1303.99 368.248 1304.22 366.784 1304.22C364.648 1304.22 362.932 1303.7 361.636 1302.67C360.364 1301.64 359.728 1300.28 359.728 1298.6C359.728 1296.92 360.34 1295.58 361.564 1294.57C362.788 1293.54 364.732 1293.02 367.396 1293.02H372.868V1292.34C372.868 1290.85 372.436 1289.71 371.572 1288.92C370.708 1288.12 369.436 1287.73 367.756 1287.73C366.628 1287.73 365.524 1287.92 364.444 1288.3C363.364 1288.66 362.452 1289.16 361.708 1289.78L360.268 1287.19C361.252 1286.4 362.428 1285.8 363.796 1285.39C365.164 1284.96 366.616 1284.74 368.152 1284.74ZM367.36 1301.55C368.68 1301.55 369.82 1301.26 370.78 1300.69C371.74 1300.09 372.436 1299.25 372.868 1298.17V1295.5H367.54C364.612 1295.5 363.148 1296.49 363.148 1298.46C363.148 1299.42 363.52 1300.17 364.264 1300.72C365.008 1301.28 366.04 1301.55 367.36 1301.55ZM382.547 1284.92H386.003V1298.82L397.703 1284.92H400.835V1304H397.379V1290.1L385.715 1304H382.547V1284.92ZM391.475 1282.44C389.699 1282.44 388.319 1282.02 387.335 1281.18C386.351 1280.31 385.847 1279.08 385.823 1277.47H388.163C388.187 1278.36 388.487 1279.08 389.063 1279.63C389.663 1280.16 390.455 1280.42 391.439 1280.42C392.423 1280.42 393.215 1280.16 393.815 1279.63C394.415 1279.08 394.727 1278.36 394.751 1277.47H397.163C397.139 1279.08 396.623 1280.31 395.615 1281.18C394.607 1282.02 393.227 1282.44 391.475 1282.44ZM415.859 1304.22C413.915 1304.22 412.175 1303.8 410.639 1302.96C409.127 1302.12 407.939 1300.96 407.075 1299.5C406.211 1298.01 405.779 1296.33 405.779 1294.46C405.779 1292.59 406.211 1290.92 407.075 1289.46C407.939 1287.97 409.127 1286.82 410.639 1286C412.175 1285.16 413.915 1284.74 415.859 1284.74C417.587 1284.74 419.123 1285.09 420.467 1285.78C421.835 1286.48 422.891 1287.49 423.635 1288.81L421.007 1290.5C420.407 1289.59 419.663 1288.9 418.775 1288.45C417.887 1287.99 416.903 1287.76 415.823 1287.76C414.575 1287.76 413.447 1288.04 412.439 1288.59C411.455 1289.14 410.675 1289.94 410.099 1290.97C409.547 1291.98 409.271 1293.14 409.271 1294.46C409.271 1295.8 409.547 1296.99 410.099 1298.02C410.675 1299.03 411.455 1299.81 412.439 1300.36C413.447 1300.92 414.575 1301.19 415.823 1301.19C416.903 1301.19 417.887 1300.96 418.775 1300.51C419.663 1300.05 420.407 1299.37 421.007 1298.46L423.635 1300.11C422.891 1301.43 421.835 1302.45 420.467 1303.17C419.123 1303.87 417.587 1304.22 415.859 1304.22ZM442.812 1284.92V1304H439.716V1297.95H434.172H433.776L429.6 1304H425.892L430.536 1297.48C429.096 1297.05 427.992 1296.34 427.224 1295.36C426.456 1294.35 426.072 1293.1 426.072 1291.62C426.072 1289.43 426.816 1287.78 428.304 1286.65C429.792 1285.5 431.844 1284.92 434.46 1284.92H442.812ZM429.6 1291.72C429.6 1293 429.996 1293.94 430.788 1294.57C431.604 1295.17 432.816 1295.47 434.424 1295.47H439.716V1287.94H434.568C431.256 1287.94 429.6 1289.2 429.6 1291.72ZM478.627 1300.98V1308.43H475.387V1304H459.439V1308.43H456.163V1300.98H457.171C458.395 1300.9 459.235 1300.04 459.691 1298.38C460.147 1296.73 460.459 1294.39 460.627 1291.36L460.915 1284.92H475.711V1300.98H478.627ZM463.795 1291.62C463.699 1294.02 463.495 1296.01 463.183 1297.59C462.895 1299.15 462.355 1300.28 461.563 1300.98H472.255V1287.94H463.975L463.795 1291.62ZM491.301 1304.22C489.405 1304.22 487.701 1303.8 486.189 1302.96C484.677 1302.12 483.489 1300.96 482.625 1299.5C481.785 1298.01 481.365 1296.33 481.365 1294.46C481.365 1292.59 481.785 1290.92 482.625 1289.46C483.489 1287.97 484.677 1286.82 486.189 1286C487.701 1285.16 489.405 1284.74 491.301 1284.74C493.197 1284.74 494.889 1285.16 496.377 1286C497.889 1286.82 499.065 1287.97 499.905 1289.46C500.769 1290.92 501.201 1292.59 501.201 1294.46C501.201 1296.33 500.769 1298.01 499.905 1299.5C499.065 1300.96 497.889 1302.12 496.377 1302.96C494.889 1303.8 493.197 1304.22 491.301 1304.22ZM491.301 1301.19C492.525 1301.19 493.617 1300.92 494.577 1300.36C495.561 1299.79 496.329 1299 496.881 1297.99C497.433 1296.96 497.709 1295.78 497.709 1294.46C497.709 1293.14 497.433 1291.98 496.881 1290.97C496.329 1289.94 495.561 1289.14 494.577 1288.59C493.617 1288.04 492.525 1287.76 491.301 1287.76C490.077 1287.76 488.973 1288.04 487.989 1288.59C487.029 1289.14 486.261 1289.94 485.685 1290.97C485.133 1291.98 484.857 1293.14 484.857 1294.46C484.857 1295.78 485.133 1296.96 485.685 1297.99C486.261 1299 487.029 1299.79 487.989 1300.36C488.973 1300.92 490.077 1301.19 491.301 1301.19ZM256.264 1348L250.756 1340.69L245.176 1348H241.324L248.848 1338.24L241.684 1328.92H245.536L250.792 1335.8L256.012 1328.92H259.792L252.592 1338.24L260.188 1348H256.264ZM270.277 1328.74C272.917 1328.74 274.933 1329.39 276.325 1330.68C277.741 1331.98 278.449 1333.91 278.449 1336.48V1348H275.173V1345.48C274.597 1346.37 273.769 1347.05 272.689 1347.53C271.633 1347.99 270.373 1348.22 268.909 1348.22C266.773 1348.22 265.057 1347.7 263.761 1346.67C262.489 1345.64 261.853 1344.28 261.853 1342.6C261.853 1340.92 262.465 1339.58 263.689 1338.57C264.913 1337.54 266.857 1337.02 269.521 1337.02H274.993V1336.34C274.993 1334.85 274.561 1333.71 273.697 1332.92C272.833 1332.12 271.561 1331.73 269.881 1331.73C268.753 1331.73 267.649 1331.92 266.569 1332.3C265.489 1332.66 264.577 1333.16 263.833 1333.78L262.393 1331.19C263.377 1330.4 264.553 1329.8 265.921 1329.39C267.289 1328.96 268.741 1328.74 270.277 1328.74ZM269.485 1345.55C270.805 1345.55 271.945 1345.26 272.905 1344.69C273.865 1344.09 274.561 1343.25 274.993 1342.17V1339.5H269.665C266.737 1339.5 265.273 1340.49 265.273 1342.46C265.273 1343.42 265.645 1344.17 266.389 1344.72C267.133 1345.28 268.165 1345.55 269.485 1345.55ZM292.088 1339.94H288.128V1348H284.672V1328.92H288.128V1336.98H292.16L298.352 1328.92H302.06L294.824 1338.1L302.564 1348H298.496L292.088 1339.94ZM312.64 1328.74C315.28 1328.74 317.296 1329.39 318.688 1330.68C320.104 1331.98 320.812 1333.91 320.812 1336.48V1348H317.536V1345.48C316.96 1346.37 316.132 1347.05 315.052 1347.53C313.996 1347.99 312.736 1348.22 311.272 1348.22C309.136 1348.22 307.42 1347.7 306.124 1346.67C304.852 1345.64 304.216 1344.28 304.216 1342.6C304.216 1340.92 304.828 1339.58 306.052 1338.57C307.276 1337.54 309.22 1337.02 311.884 1337.02H317.356V1336.34C317.356 1334.85 316.924 1333.71 316.06 1332.92C315.196 1332.12 313.924 1331.73 312.244 1331.73C311.116 1331.73 310.012 1331.92 308.932 1332.3C307.852 1332.66 306.94 1333.16 306.196 1333.78L304.756 1331.19C305.74 1330.4 306.916 1329.8 308.284 1329.39C309.652 1328.96 311.104 1328.74 312.64 1328.74ZM311.848 1345.55C313.168 1345.55 314.308 1345.26 315.268 1344.69C316.228 1344.09 316.924 1343.25 317.356 1342.17V1339.5H312.028C309.1 1339.5 307.636 1340.49 307.636 1342.46C307.636 1343.42 308.008 1344.17 308.752 1344.72C309.496 1345.28 310.528 1345.55 311.848 1345.55ZM341.256 1331.94H334.271V1348H330.816V1331.94H323.832V1328.92H341.256V1331.94ZM352.118 1348.22C350.222 1348.22 348.518 1347.8 347.006 1346.96C345.494 1346.12 344.306 1344.96 343.442 1343.5C342.602 1342.01 342.182 1340.33 342.182 1338.46C342.182 1336.59 342.602 1334.92 343.442 1333.46C344.306 1331.97 345.494 1330.82 347.006 1330C348.518 1329.16 350.222 1328.74 352.118 1328.74C354.014 1328.74 355.706 1329.16 357.194 1330C358.706 1330.82 359.882 1331.97 360.722 1333.46C361.586 1334.92 362.018 1336.59 362.018 1338.46C362.018 1340.33 361.586 1342.01 360.722 1343.5C359.882 1344.96 358.706 1346.12 357.194 1346.96C355.706 1347.8 354.014 1348.22 352.118 1348.22ZM352.118 1345.19C353.342 1345.19 354.434 1344.92 355.394 1344.36C356.378 1343.79 357.146 1343 357.698 1341.99C358.25 1340.96 358.526 1339.78 358.526 1338.46C358.526 1337.14 358.25 1335.98 357.698 1334.97C357.146 1333.94 356.378 1333.14 355.394 1332.59C354.434 1332.04 353.342 1331.76 352.118 1331.76C350.894 1331.76 349.79 1332.04 348.806 1332.59C347.846 1333.14 347.078 1333.94 346.502 1334.97C345.95 1335.98 345.674 1337.14 345.674 1338.46C345.674 1339.78 345.95 1340.96 346.502 1341.99C347.078 1343 347.846 1343.79 348.806 1344.36C349.79 1344.92 350.894 1345.19 352.118 1345.19ZM367.008 1328.92H370.464V1337.02H381.336V1328.92H384.792V1348H381.336V1340.01H370.464V1348H367.008V1328.92ZM408.54 1328.92L399.288 1349.91C398.472 1351.85 397.512 1353.22 396.408 1354.01C395.328 1354.8 394.02 1355.2 392.484 1355.2C391.548 1355.2 390.636 1355.04 389.748 1354.73C388.884 1354.44 388.164 1354.01 387.588 1353.44L389.064 1350.84C390.048 1351.78 391.188 1352.25 392.484 1352.25C393.324 1352.25 394.02 1352.02 394.572 1351.56C395.148 1351.13 395.664 1350.38 396.12 1349.3L396.732 1347.96L388.308 1328.92H391.908L398.568 1344.18L405.156 1328.92H408.54ZM437.838 1344.87V1348H419.73V1345.55L429.99 1335.65C431.238 1334.45 432.078 1333.42 432.51 1332.56C432.942 1331.67 433.158 1330.78 433.158 1329.89C433.158 1328.57 432.69 1327.55 431.754 1326.83C430.842 1326.09 429.522 1325.72 427.794 1325.72C425.01 1325.72 422.862 1326.63 421.35 1328.45L418.902 1326.33C419.886 1325.13 421.17 1324.19 422.754 1323.52C424.362 1322.85 426.15 1322.51 428.118 1322.51C430.758 1322.51 432.858 1323.15 434.418 1324.42C435.978 1325.67 436.758 1327.37 436.758 1329.53C436.758 1330.88 436.47 1332.15 435.894 1333.35C435.318 1334.55 434.226 1335.92 432.618 1337.45L424.914 1344.87H437.838ZM450.989 1348.29C448.997 1348.29 447.221 1347.78 445.661 1346.78C444.125 1345.74 442.913 1344.26 442.025 1342.31C441.137 1340.37 440.693 1338.06 440.693 1335.4C440.693 1332.74 441.137 1330.43 442.025 1328.49C442.913 1326.54 444.125 1325.07 445.661 1324.06C447.221 1323.03 448.997 1322.51 450.989 1322.51C452.957 1322.51 454.709 1323.03 456.245 1324.06C457.805 1325.07 459.029 1326.54 459.917 1328.49C460.805 1330.43 461.249 1332.74 461.249 1335.4C461.249 1338.06 460.805 1340.37 459.917 1342.31C459.029 1344.26 457.805 1345.74 456.245 1346.78C454.709 1347.78 452.957 1348.29 450.989 1348.29ZM450.989 1345.08C453.005 1345.08 454.613 1344.26 455.813 1342.6C457.037 1340.94 457.649 1338.54 457.649 1335.4C457.649 1332.26 457.037 1329.86 455.813 1328.2C454.613 1326.54 453.005 1325.72 450.989 1325.72C448.949 1325.72 447.317 1326.54 446.093 1328.2C444.893 1329.86 444.293 1332.26 444.293 1335.4C444.293 1338.54 444.893 1340.94 446.093 1342.6C447.317 1344.26 448.949 1345.08 450.989 1345.08ZM465.275 1336.62H474.959V1339.61H465.275V1336.62ZM495.987 1344.87V1348H477.879V1345.55L488.139 1335.65C489.387 1334.45 490.227 1333.42 490.659 1332.56C491.091 1331.67 491.307 1330.78 491.307 1329.89C491.307 1328.57 490.839 1327.55 489.903 1326.83C488.991 1326.09 487.671 1325.72 485.943 1325.72C483.159 1325.72 481.011 1326.63 479.499 1328.45L477.051 1326.33C478.035 1325.13 479.319 1324.19 480.903 1323.52C482.511 1322.85 484.299 1322.51 486.267 1322.51C488.907 1322.51 491.007 1323.15 492.567 1324.42C494.127 1325.67 494.907 1327.37 494.907 1329.53C494.907 1330.88 494.619 1332.15 494.043 1333.35C493.467 1334.55 492.375 1335.92 490.767 1337.45L483.063 1344.87H495.987ZM506.759 1322.8V1348H503.195V1325.93H497.507V1322.8H506.759ZM514.647 1348.22C513.975 1348.22 513.399 1347.99 512.919 1347.53C512.439 1347.05 512.199 1346.45 512.199 1345.73C512.199 1345.04 512.439 1344.46 512.919 1344C513.399 1343.52 513.975 1343.28 514.647 1343.28C515.319 1343.28 515.883 1343.51 516.339 1343.97C516.795 1344.42 517.023 1345.01 517.023 1345.73C517.023 1346.45 516.783 1347.05 516.303 1347.53C515.847 1347.99 515.295 1348.22 514.647 1348.22ZM530.301 1348.29C528.309 1348.29 526.533 1347.78 524.973 1346.78C523.437 1345.74 522.225 1344.26 521.337 1342.31C520.449 1340.37 520.005 1338.06 520.005 1335.4C520.005 1332.74 520.449 1330.43 521.337 1328.49C522.225 1326.54 523.437 1325.07 524.973 1324.06C526.533 1323.03 528.309 1322.51 530.301 1322.51C532.269 1322.51 534.021 1323.03 535.557 1324.06C537.117 1325.07 538.341 1326.54 539.229 1328.49C540.117 1330.43 540.561 1332.74 540.561 1335.4C540.561 1338.06 540.117 1340.37 539.229 1342.31C538.341 1344.26 537.117 1345.74 535.557 1346.78C534.021 1347.78 532.269 1348.29 530.301 1348.29ZM530.301 1345.08C532.317 1345.08 533.925 1344.26 535.125 1342.6C536.349 1340.94 536.961 1338.54 536.961 1335.4C536.961 1332.26 536.349 1329.86 535.125 1328.2C533.925 1326.54 532.317 1325.72 530.301 1325.72C528.261 1325.72 526.629 1326.54 525.405 1328.2C524.205 1329.86 523.605 1332.26 523.605 1335.4C523.605 1338.54 524.205 1340.94 525.405 1342.6C526.629 1344.26 528.261 1345.08 530.301 1345.08ZM561.624 1344.87V1348H543.516V1345.55L553.776 1335.65C555.024 1334.45 555.864 1333.42 556.296 1332.56C556.728 1331.67 556.944 1330.78 556.944 1329.89C556.944 1328.57 556.476 1327.55 555.54 1326.83C554.628 1326.09 553.308 1325.72 551.58 1325.72C548.796 1325.72 546.648 1326.63 545.136 1328.45L542.688 1326.33C543.672 1325.13 544.956 1324.19 546.54 1323.52C548.148 1322.85 549.936 1322.51 551.904 1322.51C554.544 1322.51 556.644 1323.15 558.204 1324.42C559.764 1325.67 560.544 1327.37 560.544 1329.53C560.544 1330.88 560.256 1332.15 559.68 1333.35C559.104 1334.55 558.012 1335.92 556.404 1337.45L548.7 1344.87H561.624Z" fill="white"/>
</g>
<defs>
<filter id="filter0_d" x="67.5903" y="173" width="64.8198" height="258.5" filterUnits="userSpaceOnUse" color-interpolation-filters="sRGB">
<feFlood flood-opacity="0" result="BackgroundImageFix"/>
<feColorMatrix in="SourceAlpha" type="matrix" values="0 0 0 0 0 0 0 0 0 0 0 0 0 0 0 0 0 0 127 0"/>
<feMorphology radius="2" operator="dilate" in="SourceAlpha" result="effect1_dropShadow"/>
<feOffset/>
<feGaussianBlur stdDeviation="6"/>
<feColorMatrix type="matrix" values="0 0 0 0 0.0708333 0 0 0 0 0.777 0 0 0 0 1 0 0 0 1 0"/>
<feBlend mode="normal" in2="BackgroundImageFix" result="effect1_dropShadow"/>
<feBlend mode="normal" in="SourceGraphic" in2="effect1_dropShadow" result="shape"/>
</filter>
<filter id="filter1_d" x="67.5903" y="577" width="64.8198" height="258.5" filterUnits="userSpaceOnUse" color-interpolation-filters="sRGB">
<feFlood flood-opacity="0" result="BackgroundImageFix"/>
<feColorMatrix in="SourceAlpha" type="matrix" values="0 0 0 0 0 0 0 0 0 0 0 0 0 0 0 0 0 0 127 0"/>
<feMorphology radius="2" operator="dilate" in="SourceAlpha" result="effect1_dropShadow"/>
<feOffset/>
<feGaussianBlur stdDeviation="6"/>
<feColorMatrix type="matrix" values="0 0 0 0 0.0708333 0 0 0 0 0.777 0 0 0 0 1 0 0 0 1 0"/>
<feBlend mode="normal" in2="BackgroundImageFix" result="effect1_dropShadow"/>
<feBlend mode="normal" in="SourceGraphic" in2="effect1_dropShadow" result="shape"/>
</filter>
<filter id="filter2_d" x="70.7681" y="55.8" width="48.672" height="91.2" filterUnits="userSpaceOnUse" color-interpolation-filters="sRGB">
<feFlood flood-opacity="0" result="BackgroundImageFix"/>
<feColorMatrix in="SourceAlpha" type="matrix" values="0 0 0 0 0 0 0 0 0 0 0 0 0 0 0 0 0 0 127 0"/>
<feOffset/>
<feGaussianBlur stdDeviation="6"/>
<feColorMatrix type="matrix" values="0 0 0 0 0.546103 0 0 0 0 0.0666319 0 0 0 0 0.841667 0 0 0 0.78 0"/>
<feBlend mode="normal" in2="BackgroundImageFix" result="effect1_dropShadow"/>
<feBlend mode="normal" in="SourceGraphic" in2="effect1_dropShadow" result="shape"/>
</filter>
<filter id="filter3_d" x="0" y="0" width="201" height="201" filterUnits="userSpaceOnUse" color-interpolation-filters="sRGB">
<feFlood flood-opacity="0" result="BackgroundImageFix"/>
<feColorMatrix in="SourceAlpha" type="matrix" values="0 0 0 0 0 0 0 0 0 0 0 0 0 0 0 0 0 0 127 0"/>
<feMorphology radius="2" operator="dilate" in="SourceAlpha" result="effect1_dropShadow"/>
<feOffset/>
<feGaussianBlur stdDeviation="6"/>
<feColorMatrix type="matrix" values="0 0 0 0 0.0708333 0 0 0 0 0.777 0 0 0 0 1 0 0 0 1 0"/>
<feBlend mode="normal" in2="BackgroundImageFix" result="effect1_dropShadow"/>
<feBlend mode="normal" in="SourceGraphic" in2="effect1_dropShadow" result="shape"/>
</filter>
<filter id="filter4_d" x="61.3442" y="459.032" width="74.496" height="91.968" filterUnits="userSpaceOnUse" color-interpolation-filters="sRGB">
<feFlood flood-opacity="0" result="BackgroundImageFix"/>
<feColorMatrix in="SourceAlpha" type="matrix" values="0 0 0 0 0 0 0 0 0 0 0 0 0 0 0 0 0 0 127 0"/>
<feOffset/>
<feGaussianBlur stdDeviation="6"/>
<feColorMatrix type="matrix" values="0 0 0 0 0.546103 0 0 0 0 0.0666319 0 0 0 0 0.841667 0 0 0 0.78 0"/>
<feBlend mode="normal" in2="BackgroundImageFix" result="effect1_dropShadow"/>
<feBlend mode="normal" in="SourceGraphic" in2="effect1_dropShadow" result="shape"/>
</filter>
<filter id="filter5_d" x="0" y="404" width="201" height="201" filterUnits="userSpaceOnUse" color-interpolation-filters="sRGB">
<feFlood flood-opacity="0" result="BackgroundImageFix"/>
<feColorMatrix in="SourceAlpha" type="matrix" values="0 0 0 0 0 0 0 0 0 0 0 0 0 0 0 0 0 0 127 0"/>
<feMorphology radius="2" operator="dilate" in="SourceAlpha" result="effect1_dropShadow"/>
<feOffset/>
<feGaussianBlur stdDeviation="6"/>
<feColorMatrix type="matrix" values="0 0 0 0 0.0708333 0 0 0 0 0.777 0 0 0 0 1 0 0 0 1 0"/>
<feBlend mode="normal" in2="BackgroundImageFix" result="effect1_dropShadow"/>
<feBlend mode="normal" in="SourceGraphic" in2="effect1_dropShadow" result="shape"/>
</filter>
<filter id="filter6_d" x="61.48" y="863.8" width="74.112" height="91.968" filterUnits="userSpaceOnUse" color-interpolation-filters="sRGB">
<feFlood flood-opacity="0" result="BackgroundImageFix"/>
<feColorMatrix in="SourceAlpha" type="matrix" values="0 0 0 0 0 0 0 0 0 0 0 0 0 0 0 0 0 0 127 0"/>
<feOffset/>
<feGaussianBlur stdDeviation="6"/>
<feColorMatrix type="matrix" values="0 0 0 0 0.546103 0 0 0 0 0.0666319 0 0 0 0 0.841667 0 0 0 0.78 0"/>
<feBlend mode="normal" in2="BackgroundImageFix" result="effect1_dropShadow"/>
<feBlend mode="normal" in="SourceGraphic" in2="effect1_dropShadow" result="shape"/>
</filter>
<filter id="filter7_d" x="0" y="808" width="201" height="201" filterUnits="userSpaceOnUse" color-interpolation-filters="sRGB">
<feFlood flood-opacity="0" result="BackgroundImageFix"/>
<feColorMatrix in="SourceAlpha" type="matrix" values="0 0 0 0 0 0 0 0 0 0 0 0 0 0 0 0 0 0 127 0"/>
<feMorphology radius="2" operator="dilate" in="SourceAlpha" result="effect1_dropShadow"/>
<feOffset/>
<feGaussianBlur stdDeviation="6"/>
<feColorMatrix type="matrix" values="0 0 0 0 0.0708333 0 0 0 0 0.777 0 0 0 0 1 0 0 0 1 0"/>
<feBlend mode="normal" in2="BackgroundImageFix" result="effect1_dropShadow"/>
<feBlend mode="normal" in="SourceGraphic" in2="effect1_dropShadow" result="shape"/>
</filter>
<filter id="filter8_d" x="67.5903" y="981" width="64.8198" height="258.5" filterUnits="userSpaceOnUse" color-interpolation-filters="sRGB">
<feFlood flood-opacity="0" result="BackgroundImageFix"/>
<feColorMatrix in="SourceAlpha" type="matrix" values="0 0 0 0 0 0 0 0 0 0 0 0 0 0 0 0 0 0 127 0"/>
<feMorphology radius="2" operator="dilate" in="SourceAlpha" result="effect1_dropShadow"/>
<feOffset/>
<feGaussianBlur stdDeviation="6"/>
<feColorMatrix type="matrix" values="0 0 0 0 0.0708333 0 0 0 0 0.777 0 0 0 0 1 0 0 0 1 0"/>
<feBlend mode="normal" in2="BackgroundImageFix" result="effect1_dropShadow"/>
<feBlend mode="normal" in="SourceGraphic" in2="effect1_dropShadow" result="shape"/>
</filter>
<filter id="filter9_d" x="59.6479" y="1267.8" width="83.424" height="91.2" filterUnits="userSpaceOnUse" color-interpolation-filters="sRGB">
<feFlood flood-opacity="0" result="BackgroundImageFix"/>
<feColorMatrix in="SourceAlpha" type="matrix" values="0 0 0 0 0 0 0 0 0 0 0 0 0 0 0 0 0 0 127 0"/>
<feOffset/>
<feGaussianBlur stdDeviation="6"/>
<feColorMatrix type="matrix" values="0 0 0 0 0.546103 0 0 0 0 0.0666319 0 0 0 0 0.841667 0 0 0 0.78 0"/>
<feBlend mode="normal" in2="BackgroundImageFix" result="effect1_dropShadow"/>
<feBlend mode="normal" in="SourceGraphic" in2="effect1_dropShadow" result="shape"/>
</filter>
<filter id="filter10_d" x="0" y="1212" width="201" height="201" filterUnits="userSpaceOnUse" color-interpolation-filters="sRGB">
<feFlood flood-opacity="0" result="BackgroundImageFix"/>
<feColorMatrix in="SourceAlpha" type="matrix" values="0 0 0 0 0 0 0 0 0 0 0 0 0 0 0 0 0 0 127 0"/>
<feMorphology radius="2" operator="dilate" in="SourceAlpha" result="effect1_dropShadow"/>
<feOffset/>
<feGaussianBlur stdDeviation="6"/>
<feColorMatrix type="matrix" values="0 0 0 0 0.0708333 0 0 0 0 0.777 0 0 0 0 1 0 0 0 1 0"/>
<feBlend mode="normal" in2="BackgroundImageFix" result="effect1_dropShadow"/>
<feBlend mode="normal" in="SourceGraphic" in2="effect1_dropShadow" result="shape"/>
</filter>
<filter id="filter11_d" x="229.288" y="62.468" width="282.407" height="98.96" filterUnits="userSpaceOnUse" color-interpolation-filters="sRGB">
<feFlood flood-opacity="0" result="BackgroundImageFix"/>
<feColorMatrix in="SourceAlpha" type="matrix" values="0 0 0 0 0 0 0 0 0 0 0 0 0 0 0 0 0 0 127 0"/>
<feOffset/>
<feGaussianBlur stdDeviation="6"/>
<feColorMatrix type="matrix" values="0 0 0 0 0.546103 0 0 0 0 0.0666319 0 0 0 0 0.841667 0 0 0 0.78 0"/>
<feBlend mode="normal" in2="BackgroundImageFix" result="effect1_dropShadow"/>
<feBlend mode="normal" in="SourceGraphic" in2="effect1_dropShadow" result="shape"/>
</filter>
<filter id="filter12_d" x="230.008" y="457.468" width="352.665" height="98.96" filterUnits="userSpaceOnUse" color-interpolation-filters="sRGB">
<feFlood flood-opacity="0" result="BackgroundImageFix"/>
<feColorMatrix in="SourceAlpha" type="matrix" values="0 0 0 0 0 0 0 0 0 0 0 0 0 0 0 0 0 0 127 0"/>
<feOffset/>
<feGaussianBlur stdDeviation="6"/>
<feColorMatrix type="matrix" values="0 0 0 0 0.546103 0 0 0 0 0.0666319 0 0 0 0 0.841667 0 0 0 0.78 0"/>
<feBlend mode="normal" in2="BackgroundImageFix" result="effect1_dropShadow"/>
<feBlend mode="normal" in="SourceGraphic" in2="effect1_dropShadow" result="shape"/>
</filter>
<filter id="filter13_d" x="229.288" y="839.468" width="260.856" height="142.96" filterUnits="userSpaceOnUse" color-interpolation-filters="sRGB">
<feFlood flood-opacity="0" result="BackgroundImageFix"/>
<feColorMatrix in="SourceAlpha" type="matrix" values="0 0 0 0 0 0 0 0 0 0 0 0 0 0 0 0 0 0 127 0"/>
<feOffset/>
<feGaussianBlur stdDeviation="6"/>
<feColorMatrix type="matrix" values="0 0 0 0 0.546103 0 0 0 0 0.0666319 0 0 0 0 0.841667 0 0 0 0.78 0"/>
<feBlend mode="normal" in2="BackgroundImageFix" result="effect1_dropShadow"/>
<feBlend mode="normal" in="SourceGraphic" in2="effect1_dropShadow" result="shape"/>
</filter>
<filter id="filter14_d" x="229.324" y="1265.47" width="344.3" height="101.732" filterUnits="userSpaceOnUse" color-interpolation-filters="sRGB">
<feFlood flood-opacity="0" result="BackgroundImageFix"/>
<feColorMatrix in="SourceAlpha" type="matrix" values="0 0 0 0 0 0 0 0 0 0 0 0 0 0 0 0 0 0 127 0"/>
<feOffset/>
<feGaussianBlur stdDeviation="6"/>
<feColorMatrix type="matrix" values="0 0 0 0 0.546103 0 0 0 0 0.0666319 0 0 0 0 0.841667 0 0 0 0.78 0"/>
<feBlend mode="normal" in2="BackgroundImageFix" result="effect1_dropShadow"/>
<feBlend mode="normal" in="SourceGraphic" in2="effect1_dropShadow" result="shape"/>
</filter>
</defs>
</svg>
