<svg width="560" height="1405" viewBox="0 0 560 1405" fill="none" xmlns="http://www.w3.org/2000/svg">
<g filter="url(#filter0_d_433_78)">
<path d="M98.2322 415.768C99.2085 416.744 100.791 416.744 101.768 415.768L117.678 399.858C118.654 398.882 118.654 397.299 117.678 396.322C116.701 395.346 115.118 395.346 114.142 396.322L100 410.464L85.8579 396.322C84.8816 395.346 83.2986 395.346 82.3223 396.322C81.346 397.299 81.346 398.882 82.3223 399.858L98.2322 415.768ZM97.5 186L97.5 414H102.5L102.5 186H97.5Z" fill="url(#paint0_linear_433_78)"/>
</g>
<g filter="url(#filter1_d_433_78)">
<path d="M98.2322 817.768C99.2085 818.744 100.791 818.744 101.768 817.768L117.678 801.858C118.654 800.882 118.654 799.299 117.678 798.322C116.701 797.346 115.118 797.346 114.142 798.322L100 812.464L85.8579 798.322C84.8816 797.346 83.2986 797.346 82.3223 798.322C81.346 799.299 81.346 800.882 82.3223 801.858L98.2322 817.768ZM97.5 588L97.5 816H102.5L102.5 588H97.5Z" fill="url(#paint1_linear_433_78)"/>
</g>
<g filter="url(#filter2_d_433_78)">
<path d="M247.105 85.86C248.689 86.292 249.925 87.048 250.813 88.128C251.701 89.184 252.145 90.456 252.145 91.944C252.145 93.432 251.665 94.74 250.705 95.868C249.769 96.972 248.509 97.824 246.925 98.424C245.365 99 243.661 99.288 241.813 99.288C240.133 99.288 238.465 99.036 236.809 98.532C235.153 98.028 233.641 97.272 232.273 96.264L233.533 93.6C234.637 94.464 235.873 95.112 237.241 95.544C238.609 95.976 239.989 96.192 241.381 96.192C243.397 96.192 245.089 95.772 246.457 94.932C247.825 94.068 248.509 92.892 248.509 91.404C248.509 90.132 247.993 89.16 246.961 88.488C245.929 87.792 244.477 87.444 242.605 87.444H236.989V84.528H242.353C243.961 84.528 245.209 84.204 246.097 83.556C247.009 82.884 247.465 81.96 247.465 80.784C247.465 79.464 246.877 78.42 245.701 77.652C244.525 76.884 243.037 76.5 241.237 76.5C240.061 76.5 238.861 76.668 237.637 77.004C236.437 77.34 235.297 77.844 234.217 78.516L233.065 75.564C234.337 74.844 235.681 74.304 237.097 73.944C238.513 73.584 239.929 73.404 241.345 73.404C243.121 73.404 244.753 73.68 246.241 74.232C247.729 74.784 248.905 75.588 249.769 76.644C250.657 77.7 251.101 78.936 251.101 80.352C251.101 81.624 250.741 82.74 250.021 83.7C249.325 84.66 248.353 85.38 247.105 85.86ZM264.371 79.74C267.011 79.74 269.027 80.388 270.419 81.684C271.835 82.98 272.543 84.912 272.543 87.48V99H269.267V96.48C268.691 97.368 267.863 98.052 266.783 98.532C265.727 98.988 264.467 99.216 263.003 99.216C260.867 99.216 259.151 98.7 257.855 97.668C256.583 96.636 255.947 95.28 255.947 93.6C255.947 91.92 256.559 90.576 257.783 89.568C259.007 88.536 260.951 88.02 263.615 88.02H269.087V87.336C269.087 85.848 268.655 84.708 267.791 83.916C266.927 83.124 265.655 82.728 263.975 82.728C262.847 82.728 261.743 82.92 260.663 83.304C259.583 83.664 258.671 84.156 257.927 84.78L256.487 82.188C257.471 81.396 258.647 80.796 260.015 80.388C261.383 79.956 262.835 79.74 264.371 79.74ZM263.579 96.552C264.899 96.552 266.039 96.264 266.999 95.688C267.959 95.088 268.655 94.248 269.087 93.168V90.504H263.759C260.831 90.504 259.367 91.488 259.367 93.456C259.367 94.416 259.739 95.172 260.483 95.724C261.227 96.276 262.259 96.552 263.579 96.552ZM288.882 79.74C290.73 79.74 292.386 80.148 293.85 80.964C295.314 81.78 296.454 82.92 297.27 84.384C298.11 85.848 298.53 87.54 298.53 89.46C298.53 91.38 298.11 93.084 297.27 94.572C296.454 96.036 295.314 97.176 293.85 97.992C292.386 98.808 290.73 99.216 288.882 99.216C287.514 99.216 286.254 98.952 285.102 98.424C283.974 97.896 283.014 97.128 282.222 96.12V105.984H278.766V79.92H282.078V82.944C282.846 81.888 283.818 81.096 284.994 80.568C286.17 80.016 287.466 79.74 288.882 79.74ZM288.594 96.192C289.818 96.192 290.91 95.916 291.87 95.364C292.854 94.788 293.622 93.996 294.174 92.988C294.75 91.956 295.038 90.78 295.038 89.46C295.038 88.14 294.75 86.976 294.174 85.968C293.622 84.936 292.854 84.144 291.87 83.592C290.91 83.04 289.818 82.764 288.594 82.764C287.394 82.764 286.302 83.052 285.318 83.628C284.358 84.18 283.59 84.96 283.014 85.968C282.462 86.976 282.186 88.14 282.186 89.46C282.186 90.78 282.462 91.956 283.014 92.988C283.566 93.996 284.334 94.788 285.318 95.364C286.302 95.916 287.394 96.192 288.594 96.192ZM320.795 89.568C320.795 89.832 320.771 90.18 320.723 90.612H305.243C305.459 92.292 306.191 93.648 307.439 94.68C308.711 95.688 310.283 96.192 312.155 96.192C314.435 96.192 316.271 95.424 317.663 93.888L319.571 96.12C318.707 97.128 317.627 97.896 316.331 98.424C315.059 98.952 313.631 99.216 312.047 99.216C310.031 99.216 308.243 98.808 306.683 97.992C305.123 97.152 303.911 95.988 303.047 94.5C302.207 93.012 301.787 91.332 301.787 89.46C301.787 87.612 302.195 85.944 303.011 84.456C303.851 82.968 304.991 81.816 306.431 81C307.895 80.16 309.539 79.74 311.363 79.74C313.187 79.74 314.807 80.16 316.223 81C317.663 81.816 318.779 82.968 319.571 84.456C320.387 85.944 320.795 87.648 320.795 89.568ZM311.363 82.656C309.707 82.656 308.315 83.16 307.187 84.168C306.083 85.176 305.435 86.496 305.243 88.128H317.483C317.291 86.52 316.631 85.212 315.503 84.204C314.399 83.172 313.019 82.656 311.363 82.656ZM334.689 99.216C332.745 99.216 330.981 98.796 329.397 97.956C327.837 97.116 326.613 95.952 325.725 94.464C324.837 92.976 324.393 91.308 324.393 89.46C324.393 87.588 324.837 85.908 325.725 84.42C326.613 82.932 327.837 81.768 329.397 80.928C330.981 80.088 332.745 79.668 334.689 79.668C336.369 79.668 337.881 79.932 339.225 80.46C340.593 80.988 341.745 81.756 342.681 82.764L340.665 84.78C339.129 83.268 337.185 82.512 334.833 82.512C332.961 82.512 331.365 83.052 330.045 84.132C328.725 85.188 327.933 86.58 327.669 88.308H337.245V90.864H327.741C328.053 92.52 328.857 93.864 330.153 94.896C331.449 95.904 333.009 96.408 334.833 96.408C337.161 96.408 339.105 95.64 340.665 94.104L342.681 96.084C341.745 97.116 340.593 97.896 339.225 98.424C337.857 98.952 336.345 99.216 334.689 99.216ZM354.969 99.216C353.025 99.216 351.285 98.796 349.749 97.956C348.237 97.116 347.049 95.964 346.185 94.5C345.321 93.012 344.889 91.332 344.889 89.46C344.889 87.588 345.321 85.92 346.185 84.456C347.049 82.968 348.237 81.816 349.749 81C351.285 80.16 353.025 79.74 354.969 79.74C356.697 79.74 358.233 80.088 359.577 80.784C360.945 81.48 362.001 82.488 362.745 83.808L360.117 85.5C359.517 84.588 358.773 83.904 357.885 83.448C356.997 82.992 356.013 82.764 354.933 82.764C353.685 82.764 352.557 83.04 351.549 83.592C350.565 84.144 349.785 84.936 349.209 85.968C348.657 86.976 348.381 88.14 348.381 89.46C348.381 90.804 348.657 91.992 349.209 93.024C349.785 94.032 350.565 94.812 351.549 95.364C352.557 95.916 353.685 96.192 354.933 96.192C356.013 96.192 356.997 95.964 357.885 95.508C358.773 95.052 359.517 94.368 360.117 93.456L362.745 95.112C362.001 96.432 360.945 97.452 359.577 98.172C358.233 98.868 356.697 99.216 354.969 99.216ZM381.193 82.944H374.209V99H370.753V82.944H363.769V79.92H381.193V82.944ZM394.843 79.74C396.691 79.74 398.347 80.148 399.811 80.964C401.275 81.78 402.415 82.92 403.231 84.384C404.071 85.848 404.491 87.54 404.491 89.46C404.491 91.38 404.071 93.084 403.231 94.572C402.415 96.036 401.275 97.176 399.811 97.992C398.347 98.808 396.691 99.216 394.843 99.216C393.475 99.216 392.215 98.952 391.063 98.424C389.935 97.896 388.975 97.128 388.183 96.12V105.984H384.727V79.92H388.039V82.944C388.807 81.888 389.779 81.096 390.955 80.568C392.131 80.016 393.427 79.74 394.843 79.74ZM394.555 96.192C395.779 96.192 396.871 95.916 397.831 95.364C398.815 94.788 399.583 93.996 400.135 92.988C400.711 91.956 400.999 90.78 400.999 89.46C400.999 88.14 400.711 86.976 400.135 85.968C399.583 84.936 398.815 84.144 397.831 83.592C396.871 83.04 395.779 82.764 394.555 82.764C393.355 82.764 392.263 83.052 391.279 83.628C390.319 84.18 389.551 84.96 388.975 85.968C388.423 86.976 388.147 88.14 388.147 89.46C388.147 90.78 388.423 91.956 388.975 92.988C389.527 93.996 390.295 94.788 391.279 95.364C392.263 95.916 393.355 96.192 394.555 96.192ZM426.013 79.92L416.761 100.908C415.945 102.852 414.985 104.22 413.881 105.012C412.801 105.804 411.493 106.2 409.957 106.2C409.021 106.2 408.109 106.044 407.221 105.732C406.357 105.444 405.637 105.012 405.061 104.436L406.537 101.844C407.521 102.78 408.661 103.248 409.957 103.248C410.797 103.248 411.493 103.02 412.045 102.564C412.621 102.132 413.137 101.376 413.593 100.296L414.205 98.964L405.781 79.92H409.381L416.041 95.184L422.629 79.92H426.013ZM429.551 79.92H433.007V93.816L444.707 79.92H447.839V99H444.383V85.104L432.719 99H429.551V79.92ZM438.479 77.436C436.703 77.436 435.323 77.016 434.339 76.176C433.355 75.312 432.851 74.076 432.827 72.468H435.167C435.191 73.356 435.491 74.076 436.067 74.628C436.667 75.156 437.459 75.42 438.443 75.42C439.427 75.42 440.219 75.156 440.819 74.628C441.419 74.076 441.731 73.356 441.755 72.468H444.167C444.143 74.076 443.627 75.312 442.619 76.176C441.611 77.016 440.231 77.436 438.479 77.436ZM462.863 99.216C460.919 99.216 459.179 98.796 457.643 97.956C456.131 97.116 454.943 95.964 454.079 94.5C453.215 93.012 452.783 91.332 452.783 89.46C452.783 87.588 453.215 85.92 454.079 84.456C454.943 82.968 456.131 81.816 457.643 81C459.179 80.16 460.919 79.74 462.863 79.74C464.591 79.74 466.127 80.088 467.471 80.784C468.839 81.48 469.895 82.488 470.639 83.808L468.011 85.5C467.411 84.588 466.667 83.904 465.779 83.448C464.891 82.992 463.907 82.764 462.827 82.764C461.579 82.764 460.451 83.04 459.443 83.592C458.459 84.144 457.679 84.936 457.103 85.968C456.551 86.976 456.275 88.14 456.275 89.46C456.275 90.804 456.551 91.992 457.103 93.024C457.679 94.032 458.459 94.812 459.443 95.364C460.451 95.916 461.579 96.192 462.827 96.192C463.907 96.192 464.891 95.964 465.779 95.508C466.667 95.052 467.411 94.368 468.011 93.456L470.639 95.112C469.895 96.432 468.839 97.452 467.471 98.172C466.127 98.868 464.591 99.216 462.863 99.216ZM489.816 79.92V99H486.72V92.952H481.176H480.78L476.604 99H472.896L477.54 92.484C476.1 92.052 474.996 91.344 474.228 90.36C473.46 89.352 473.076 88.104 473.076 86.616C473.076 84.432 473.82 82.776 475.308 81.648C476.796 80.496 478.848 79.92 481.464 79.92H489.816ZM476.604 86.724C476.604 87.996 477 88.944 477.792 89.568C478.608 90.168 479.82 90.468 481.428 90.468H486.72V82.944H481.572C478.26 82.944 476.604 84.204 476.604 86.724ZM321.391 139.976V147.428H318.151V143H302.203V147.428H298.927V139.976H299.935C301.159 139.904 301.999 139.04 302.455 137.384C302.911 135.728 303.223 133.388 303.391 130.364L303.679 123.92H318.475V139.976H321.391ZM306.559 130.616C306.463 133.016 306.259 135.008 305.947 136.592C305.659 138.152 305.119 139.28 304.327 139.976H315.019V126.944H306.739L306.559 130.616ZM334.065 143.216C332.169 143.216 330.465 142.796 328.953 141.956C327.441 141.116 326.253 139.964 325.389 138.5C324.549 137.012 324.129 135.332 324.129 133.46C324.129 131.588 324.549 129.92 325.389 128.456C326.253 126.968 327.441 125.816 328.953 125C330.465 124.16 332.169 123.74 334.065 123.74C335.961 123.74 337.653 124.16 339.141 125C340.653 125.816 341.829 126.968 342.669 128.456C343.533 129.92 343.965 131.588 343.965 133.46C343.965 135.332 343.533 137.012 342.669 138.5C341.829 139.964 340.653 141.116 339.141 141.956C337.653 142.796 335.961 143.216 334.065 143.216ZM334.065 140.192C335.289 140.192 336.381 139.916 337.341 139.364C338.325 138.788 339.093 137.996 339.645 136.988C340.197 135.956 340.473 134.78 340.473 133.46C340.473 132.14 340.197 130.976 339.645 129.968C339.093 128.936 338.325 128.144 337.341 127.592C336.381 127.04 335.289 126.764 334.065 126.764C332.841 126.764 331.737 127.04 330.753 127.592C329.793 128.144 329.025 128.936 328.449 129.968C327.897 130.976 327.621 132.14 327.621 133.46C327.621 134.78 327.897 135.956 328.449 136.988C329.025 137.996 329.793 138.788 330.753 139.364C331.737 139.916 332.841 140.192 334.065 140.192ZM364.815 117.8V143H361.251V120.932H355.563V117.8H364.815ZM378.5 117.512C381.884 117.512 384.488 118.604 386.312 120.788C388.16 122.972 389.084 126.068 389.084 130.076C389.084 132.884 388.58 135.284 387.572 137.276C386.588 139.244 385.196 140.744 383.396 141.776C381.62 142.784 379.544 143.288 377.168 143.288C375.944 143.288 374.792 143.168 373.712 142.928C372.632 142.664 371.696 142.292 370.904 141.812L372.272 139.004C373.496 139.796 375.116 140.192 377.132 140.192C379.748 140.192 381.788 139.388 383.252 137.78C384.74 136.148 385.484 133.784 385.484 130.688V129.788C384.764 130.868 383.768 131.696 382.496 132.272C381.224 132.824 379.796 133.1 378.212 133.1C376.556 133.1 375.068 132.788 373.748 132.164C372.452 131.54 371.432 130.652 370.688 129.5C369.968 128.324 369.608 126.98 369.608 125.468C369.608 123.884 369.992 122.492 370.76 121.292C371.552 120.092 372.62 119.168 373.964 118.52C375.308 117.848 376.82 117.512 378.5 117.512ZM378.824 130.184C379.952 130.184 380.96 129.968 381.848 129.536C382.736 129.104 383.42 128.516 383.9 127.772C384.404 127.028 384.656 126.2 384.656 125.288C384.656 124.4 384.416 123.596 383.936 122.876C383.48 122.132 382.796 121.544 381.884 121.112C380.996 120.656 379.916 120.428 378.644 120.428C376.988 120.428 375.644 120.872 374.612 121.76C373.604 122.648 373.1 123.836 373.1 125.324C373.1 126.812 373.616 128 374.648 128.888C375.68 129.752 377.072 130.184 378.824 130.184ZM394.5 143.216C393.828 143.216 393.252 142.988 392.772 142.532C392.292 142.052 392.052 141.452 392.052 140.732C392.052 140.036 392.292 139.46 392.772 139.004C393.252 138.524 393.828 138.284 394.5 138.284C395.172 138.284 395.736 138.512 396.192 138.968C396.648 139.424 396.876 140.012 396.876 140.732C396.876 141.452 396.636 142.052 396.156 142.532C395.7 142.988 395.148 143.216 394.5 143.216ZM410.155 143.288C408.163 143.288 406.387 142.784 404.827 141.776C403.291 140.744 402.079 139.256 401.191 137.312C400.303 135.368 399.859 133.064 399.859 130.4C399.859 127.736 400.303 125.432 401.191 123.488C402.079 121.544 403.291 120.068 404.827 119.06C406.387 118.028 408.163 117.512 410.155 117.512C412.123 117.512 413.875 118.028 415.411 119.06C416.971 120.068 418.195 121.544 419.083 123.488C419.971 125.432 420.415 127.736 420.415 130.4C420.415 133.064 419.971 135.368 419.083 137.312C418.195 139.256 416.971 140.744 415.411 141.776C413.875 142.784 412.123 143.288 410.155 143.288ZM410.155 140.084C412.171 140.084 413.779 139.256 414.979 137.6C416.203 135.944 416.815 133.544 416.815 130.4C416.815 127.256 416.203 124.856 414.979 123.2C413.779 121.544 412.171 120.716 410.155 120.716C408.115 120.716 406.483 121.544 405.259 123.2C404.059 124.856 403.459 127.256 403.459 130.4C403.459 133.544 404.059 135.944 405.259 137.6C406.483 139.256 408.115 140.084 410.155 140.084ZM431.577 117.8V143H428.013V120.932H422.325V117.8H431.577Z" fill="white"/>
</g>
<g filter="url(#filter3_d_433_78)">
<path d="M248.755 486.932C250.459 487.34 251.743 488.072 252.607 489.128C253.495 490.16 253.939 491.492 253.939 493.124C253.939 495.308 253.135 497 251.527 498.2C249.943 499.4 247.627 500 244.579 500H233.059V474.8H243.895C246.655 474.8 248.803 475.364 250.339 476.492C251.899 477.596 252.679 479.192 252.679 481.28C252.679 482.648 252.331 483.812 251.635 484.772C250.963 485.732 250.003 486.452 248.755 486.932ZM236.623 485.888H243.643C245.395 485.888 246.727 485.54 247.639 484.844C248.575 484.148 249.043 483.128 249.043 481.784C249.043 480.44 248.575 479.42 247.639 478.724C246.703 478.004 245.371 477.644 243.643 477.644H236.623V485.888ZM244.507 497.156C248.371 497.156 250.303 495.716 250.303 492.836C250.303 491.396 249.811 490.34 248.827 489.668C247.867 488.972 246.427 488.624 244.507 488.624H236.623V497.156H244.507ZM259.377 480.92H262.833V494.816L274.533 480.92H277.665V500H274.209V486.104L262.545 500H259.377V480.92ZM291.789 491.936H287.829V500H284.373V480.92H287.829V488.984H291.861L298.053 480.92H301.761L294.525 490.1L302.265 500H298.197L291.789 491.936ZM313.428 500.216C311.532 500.216 309.828 499.796 308.316 498.956C306.804 498.116 305.616 496.964 304.752 495.5C303.912 494.012 303.492 492.332 303.492 490.46C303.492 488.588 303.912 486.92 304.752 485.456C305.616 483.968 306.804 482.816 308.316 482C309.828 481.16 311.532 480.74 313.428 480.74C315.324 480.74 317.016 481.16 318.504 482C320.016 482.816 321.192 483.968 322.032 485.456C322.896 486.92 323.328 488.588 323.328 490.46C323.328 492.332 322.896 494.012 322.032 495.5C321.192 496.964 320.016 498.116 318.504 498.956C317.016 499.796 315.324 500.216 313.428 500.216ZM313.428 497.192C314.652 497.192 315.744 496.916 316.704 496.364C317.688 495.788 318.456 494.996 319.008 493.988C319.56 492.956 319.836 491.78 319.836 490.46C319.836 489.14 319.56 487.976 319.008 486.968C318.456 485.936 317.688 485.144 316.704 484.592C315.744 484.04 314.652 483.764 313.428 483.764C312.204 483.764 311.1 484.04 310.116 484.592C309.156 485.144 308.388 485.936 307.812 486.968C307.26 487.976 306.984 489.14 306.984 490.46C306.984 491.78 307.26 492.956 307.812 493.988C308.388 494.996 309.156 495.788 310.116 496.364C311.1 496.916 312.204 497.192 313.428 497.192ZM328.319 480.92H331.775V489.02H342.647V480.92H346.103V500H342.647V492.008H331.775V500H328.319V480.92ZM359.627 480.74C362.267 480.74 364.283 481.388 365.675 482.684C367.091 483.98 367.799 485.912 367.799 488.48V500H364.523V497.48C363.947 498.368 363.119 499.052 362.039 499.532C360.983 499.988 359.723 500.216 358.259 500.216C356.123 500.216 354.407 499.7 353.111 498.668C351.839 497.636 351.203 496.28 351.203 494.6C351.203 492.92 351.815 491.576 353.039 490.568C354.263 489.536 356.207 489.02 358.871 489.02H364.343V488.336C364.343 486.848 363.911 485.708 363.047 484.916C362.183 484.124 360.911 483.728 359.231 483.728C358.103 483.728 356.999 483.92 355.919 484.304C354.839 484.664 353.927 485.156 353.183 485.78L351.743 483.188C352.727 482.396 353.903 481.796 355.271 481.388C356.639 480.956 358.091 480.74 359.627 480.74ZM358.835 497.552C360.155 497.552 361.295 497.264 362.255 496.688C363.215 496.088 363.911 495.248 364.343 494.168V491.504H359.015C356.087 491.504 354.623 492.488 354.623 494.456C354.623 495.416 354.995 496.172 355.739 496.724C356.483 497.276 357.515 497.552 358.835 497.552ZM374.022 480.92H377.478V494.816L389.178 480.92H392.31V500H388.854V486.104L377.19 500H374.022V480.92ZM382.95 478.436C381.174 478.436 379.794 478.016 378.81 477.176C377.826 476.312 377.322 475.076 377.298 473.468H379.638C379.662 474.356 379.962 475.076 380.538 475.628C381.138 476.156 381.93 476.42 382.914 476.42C383.898 476.42 384.69 476.156 385.29 475.628C385.89 475.076 386.202 474.356 386.226 473.468H388.638C388.614 475.076 388.098 476.312 387.09 477.176C386.082 478.016 384.702 478.436 382.95 478.436ZM422.906 483.944H415.922V500H412.466V483.944H405.482V480.92H422.906V483.944ZM442.84 490.568C442.84 490.832 442.816 491.18 442.768 491.612H427.288C427.504 493.292 428.236 494.648 429.484 495.68C430.756 496.688 432.328 497.192 434.2 497.192C436.48 497.192 438.316 496.424 439.708 494.888L441.616 497.12C440.752 498.128 439.672 498.896 438.376 499.424C437.104 499.952 435.676 500.216 434.092 500.216C432.076 500.216 430.288 499.808 428.728 498.992C427.168 498.152 425.956 496.988 425.092 495.5C424.252 494.012 423.832 492.332 423.832 490.46C423.832 488.612 424.24 486.944 425.056 485.456C425.896 483.968 427.036 482.816 428.476 482C429.94 481.16 431.584 480.74 433.408 480.74C435.232 480.74 436.852 481.16 438.268 482C439.708 482.816 440.824 483.968 441.616 485.456C442.432 486.944 442.84 488.648 442.84 490.568ZM433.408 483.656C431.752 483.656 430.36 484.16 429.232 485.168C428.128 486.176 427.48 487.496 427.288 489.128H439.528C439.336 487.52 438.676 486.212 437.548 485.204C436.444 484.172 435.064 483.656 433.408 483.656ZM456.518 500.216C454.574 500.216 452.834 499.796 451.298 498.956C449.786 498.116 448.598 496.964 447.734 495.5C446.87 494.012 446.438 492.332 446.438 490.46C446.438 488.588 446.87 486.92 447.734 485.456C448.598 483.968 449.786 482.816 451.298 482C452.834 481.16 454.574 480.74 456.518 480.74C458.246 480.74 459.782 481.088 461.126 481.784C462.494 482.48 463.55 483.488 464.294 484.808L461.666 486.5C461.066 485.588 460.322 484.904 459.434 484.448C458.546 483.992 457.562 483.764 456.482 483.764C455.234 483.764 454.106 484.04 453.098 484.592C452.114 485.144 451.334 485.936 450.758 486.968C450.206 487.976 449.93 489.14 449.93 490.46C449.93 491.804 450.206 492.992 450.758 494.024C451.334 495.032 452.114 495.812 453.098 496.364C454.106 496.916 455.234 497.192 456.482 497.192C457.562 497.192 458.546 496.964 459.434 496.508C460.322 496.052 461.066 495.368 461.666 494.456L464.294 496.112C463.55 497.432 462.494 498.452 461.126 499.172C459.782 499.868 458.246 500.216 456.518 500.216ZM482.742 483.944H475.758V500H472.302V483.944H465.318V480.92H482.742V483.944ZM493.604 500.216C491.708 500.216 490.004 499.796 488.492 498.956C486.98 498.116 485.792 496.964 484.928 495.5C484.088 494.012 483.668 492.332 483.668 490.46C483.668 488.588 484.088 486.92 484.928 485.456C485.792 483.968 486.98 482.816 488.492 482C490.004 481.16 491.708 480.74 493.604 480.74C495.5 480.74 497.192 481.16 498.68 482C500.192 482.816 501.368 483.968 502.208 485.456C503.072 486.92 503.504 488.588 503.504 490.46C503.504 492.332 503.072 494.012 502.208 495.5C501.368 496.964 500.192 498.116 498.68 498.956C497.192 499.796 495.5 500.216 493.604 500.216ZM493.604 497.192C494.828 497.192 495.92 496.916 496.88 496.364C497.864 495.788 498.632 494.996 499.184 493.988C499.736 492.956 500.012 491.78 500.012 490.46C500.012 489.14 499.736 487.976 499.184 486.968C498.632 485.936 497.864 485.144 496.88 484.592C495.92 484.04 494.828 483.764 493.604 483.764C492.38 483.764 491.276 484.04 490.292 484.592C489.332 485.144 488.564 485.936 487.988 486.968C487.436 487.976 487.16 489.14 487.16 490.46C487.16 491.78 487.436 492.956 487.988 493.988C488.564 494.996 489.332 495.788 490.292 496.364C491.276 496.916 492.38 497.192 493.604 497.192ZM521.49 490.1C523.962 490.724 525.198 492.272 525.198 494.744C525.198 496.424 524.562 497.72 523.29 498.632C522.042 499.544 520.17 500 517.674 500H508.494V480.92H517.35C519.606 480.92 521.37 481.352 522.642 482.216C523.914 483.056 524.55 484.256 524.55 485.816C524.55 486.824 524.274 487.7 523.722 488.444C523.194 489.164 522.45 489.716 521.49 490.1ZM511.878 489.128H517.062C518.382 489.128 519.378 488.888 520.05 488.408C520.746 487.928 521.094 487.232 521.094 486.32C521.094 484.496 519.75 483.584 517.062 483.584H511.878V489.128ZM517.422 497.336C518.862 497.336 519.942 497.108 520.662 496.652C521.382 496.196 521.742 495.488 521.742 494.528C521.742 493.544 521.406 492.812 520.734 492.332C520.086 491.852 519.054 491.612 517.638 491.612H511.878V497.336H517.422ZM547.852 490.568C547.852 490.832 547.828 491.18 547.78 491.612H532.3C532.516 493.292 533.248 494.648 534.496 495.68C535.768 496.688 537.34 497.192 539.212 497.192C541.492 497.192 543.328 496.424 544.72 494.888L546.628 497.12C545.764 498.128 544.684 498.896 543.388 499.424C542.116 499.952 540.688 500.216 539.104 500.216C537.088 500.216 535.3 499.808 533.74 498.992C532.18 498.152 530.968 496.988 530.104 495.5C529.264 494.012 528.844 492.332 528.844 490.46C528.844 488.612 529.252 486.944 530.068 485.456C530.908 483.968 532.048 482.816 533.488 482C534.952 481.16 536.596 480.74 538.42 480.74C540.244 480.74 541.864 481.16 543.28 482C544.72 482.816 545.836 483.968 546.628 485.456C547.444 486.944 547.852 488.648 547.852 490.568ZM538.42 483.656C536.764 483.656 535.372 484.16 534.244 485.168C533.14 486.176 532.492 487.496 532.3 489.128H544.54C544.348 487.52 543.688 486.212 542.56 485.204C541.456 484.172 540.076 483.656 538.42 483.656ZM313.655 534.064C314.927 534.4 315.911 534.94 316.607 535.684C317.303 536.428 317.651 537.352 317.651 538.456C317.651 539.584 317.267 540.592 316.499 541.48C315.731 542.344 314.663 543.028 313.295 543.532C311.951 544.012 310.439 544.252 308.759 544.252C307.343 544.252 305.951 544.072 304.583 543.712C303.239 543.328 302.039 542.788 300.983 542.092L302.027 539.464C302.939 540.04 303.983 540.496 305.159 540.832C306.335 541.144 307.523 541.3 308.723 541.3C310.355 541.3 311.651 541.024 312.611 540.472C313.595 539.896 314.087 539.128 314.087 538.168C314.087 537.28 313.691 536.596 312.899 536.116C312.131 535.636 311.039 535.396 309.623 535.396H306.131V532.912H309.371C310.667 532.912 311.687 532.684 312.431 532.228C313.175 531.772 313.547 531.148 313.547 530.356C313.547 529.492 313.103 528.82 312.215 528.34C311.351 527.86 310.175 527.62 308.687 527.62C306.791 527.62 304.787 528.112 302.675 529.096L301.739 526.432C304.067 525.256 306.503 524.668 309.047 524.668C310.583 524.668 311.963 524.884 313.187 525.316C314.411 525.748 315.371 526.36 316.067 527.152C316.763 527.944 317.111 528.844 317.111 529.852C317.111 530.788 316.799 531.628 316.175 532.372C315.551 533.116 314.711 533.68 313.655 534.064ZM329.709 524.74C332.349 524.74 334.365 525.388 335.757 526.684C337.173 527.98 337.881 529.912 337.881 532.48V544H334.605V541.48C334.029 542.368 333.201 543.052 332.121 543.532C331.065 543.988 329.805 544.216 328.341 544.216C326.205 544.216 324.489 543.7 323.193 542.668C321.921 541.636 321.285 540.28 321.285 538.6C321.285 536.92 321.897 535.576 323.121 534.568C324.345 533.536 326.289 533.02 328.953 533.02H334.425V532.336C334.425 530.848 333.993 529.708 333.129 528.916C332.265 528.124 330.993 527.728 329.313 527.728C328.185 527.728 327.081 527.92 326.001 528.304C324.921 528.664 324.009 529.156 323.265 529.78L321.825 527.188C322.809 526.396 323.985 525.796 325.353 525.388C326.721 524.956 328.173 524.74 329.709 524.74ZM328.917 541.552C330.237 541.552 331.377 541.264 332.337 540.688C333.297 540.088 333.993 539.248 334.425 538.168V535.504H329.097C326.169 535.504 324.705 536.488 324.705 538.456C324.705 539.416 325.077 540.172 325.821 540.724C326.565 541.276 327.597 541.552 328.917 541.552ZM357.1 534.1C359.572 534.724 360.808 536.272 360.808 538.744C360.808 540.424 360.172 541.72 358.9 542.632C357.652 543.544 355.78 544 353.284 544H344.104V524.92H352.96C355.216 524.92 356.98 525.352 358.252 526.216C359.524 527.056 360.16 528.256 360.16 529.816C360.16 530.824 359.884 531.7 359.332 532.444C358.804 533.164 358.06 533.716 357.1 534.1ZM347.488 533.128H352.672C353.992 533.128 354.988 532.888 355.66 532.408C356.356 531.928 356.704 531.232 356.704 530.32C356.704 528.496 355.36 527.584 352.672 527.584H347.488V533.128ZM353.032 541.336C354.472 541.336 355.552 541.108 356.272 540.652C356.992 540.196 357.352 539.488 357.352 538.528C357.352 537.544 357.016 536.812 356.344 536.332C355.696 535.852 354.664 535.612 353.248 535.612H347.488V541.336H353.032ZM385.621 540.976V548.428H382.381V544H366.433V548.428H363.157V540.976H364.165C365.389 540.904 366.229 540.04 366.685 538.384C367.141 536.728 367.453 534.388 367.621 531.364L367.909 524.92H382.705V540.976H385.621ZM370.789 531.616C370.693 534.016 370.489 536.008 370.177 537.592C369.889 539.152 369.349 540.28 368.557 540.976H379.249V527.944H370.969L370.789 531.616ZM396.927 524.74C399.567 524.74 401.583 525.388 402.975 526.684C404.391 527.98 405.099 529.912 405.099 532.48V544H401.823V541.48C401.247 542.368 400.419 543.052 399.339 543.532C398.283 543.988 397.023 544.216 395.559 544.216C393.423 544.216 391.707 543.7 390.411 542.668C389.139 541.636 388.503 540.28 388.503 538.6C388.503 536.92 389.115 535.576 390.339 534.568C391.563 533.536 393.507 533.02 396.171 533.02H401.643V532.336C401.643 530.848 401.211 529.708 400.347 528.916C399.483 528.124 398.211 527.728 396.531 527.728C395.403 527.728 394.299 527.92 393.219 528.304C392.139 528.664 391.227 529.156 390.483 529.78L389.043 527.188C390.027 526.396 391.203 525.796 392.571 525.388C393.939 524.956 395.391 524.74 396.927 524.74ZM396.135 541.552C397.455 541.552 398.595 541.264 399.555 540.688C400.515 540.088 401.211 539.248 401.643 538.168V535.504H396.315C393.387 535.504 391.923 536.488 391.923 538.456C391.923 539.416 392.295 540.172 393.039 540.724C393.783 541.276 394.815 541.552 396.135 541.552ZM411.323 524.92H414.779V533.02H425.651V524.92H429.107V544H425.651V536.008H414.779V544H411.323V524.92ZM435.827 524.92H439.283V533.02H450.155V524.92H453.611V544H450.155V536.008H439.283V544H435.827V524.92ZM475.63 524.92V544H472.534V537.952H466.99H466.594L462.418 544H458.71L463.354 537.484C461.914 537.052 460.81 536.344 460.042 535.36C459.274 534.352 458.89 533.104 458.89 531.616C458.89 529.432 459.634 527.776 461.122 526.648C462.61 525.496 464.662 524.92 467.278 524.92H475.63ZM462.418 531.724C462.418 532.996 462.814 533.944 463.606 534.568C464.422 535.168 465.634 535.468 467.242 535.468H472.534V527.944H467.386C464.074 527.944 462.418 529.204 462.418 531.724ZM340.815 584.976V592.428H337.575V588H321.627V592.428H318.351V584.976H319.359C320.583 584.904 321.423 584.04 321.879 582.384C322.335 580.728 322.646 578.388 322.814 575.364L323.103 568.92H337.898V584.976H340.815ZM325.983 575.616C325.887 578.016 325.683 580.008 325.371 581.592C325.083 583.152 324.543 584.28 323.751 584.976H334.443V571.944H326.163L325.983 575.616ZM353.489 588.216C351.593 588.216 349.889 587.796 348.377 586.956C346.865 586.116 345.677 584.964 344.813 583.5C343.973 582.012 343.553 580.332 343.553 578.46C343.553 576.588 343.973 574.92 344.813 573.456C345.677 571.968 346.865 570.816 348.377 570C349.889 569.16 351.593 568.74 353.489 568.74C355.385 568.74 357.077 569.16 358.565 570C360.077 570.816 361.253 571.968 362.093 573.456C362.957 574.92 363.389 576.588 363.389 578.46C363.389 580.332 362.957 582.012 362.093 583.5C361.253 584.964 360.077 586.116 358.565 586.956C357.077 587.796 355.385 588.216 353.489 588.216ZM353.489 585.192C354.713 585.192 355.805 584.916 356.765 584.364C357.749 583.788 358.517 582.996 359.069 581.988C359.621 580.956 359.897 579.78 359.897 578.46C359.897 577.14 359.621 575.976 359.069 574.968C358.517 573.936 357.749 573.144 356.765 572.592C355.805 572.04 354.713 571.764 353.489 571.764C352.265 571.764 351.161 572.04 350.177 572.592C349.217 573.144 348.449 573.936 347.873 574.968C347.321 575.976 347.045 577.14 347.045 578.46C347.045 579.78 347.321 580.956 347.873 581.988C348.449 582.996 349.217 583.788 350.177 584.364C351.161 584.916 352.265 585.192 353.489 585.192ZM394.139 584.868V588H376.031V585.552L386.291 575.652C387.539 574.452 388.379 573.42 388.811 572.556C389.243 571.668 389.459 570.78 389.459 569.892C389.459 568.572 388.991 567.552 388.055 566.832C387.143 566.088 385.823 565.716 384.095 565.716C381.311 565.716 379.163 566.628 377.651 568.452L375.203 566.328C376.187 565.128 377.471 564.192 379.055 563.52C380.663 562.848 382.451 562.512 384.419 562.512C387.059 562.512 389.159 563.148 390.719 564.42C392.279 565.668 393.059 567.372 393.059 569.532C393.059 570.876 392.771 572.148 392.195 573.348C391.619 574.548 390.527 575.916 388.919 577.452L381.215 584.868H394.139ZM406.747 573.384C409.219 573.624 411.103 574.392 412.399 575.688C413.695 576.96 414.343 578.592 414.343 580.584C414.343 582.024 413.983 583.332 413.263 584.508C412.543 585.66 411.463 586.584 410.023 587.28C408.607 587.952 406.867 588.288 404.803 588.288C403.003 588.288 401.275 588.024 399.619 587.496C397.963 586.944 396.607 586.188 395.551 585.228L397.207 582.384C398.071 583.2 399.175 583.86 400.519 584.364C401.863 584.844 403.291 585.084 404.803 585.084C406.675 585.084 408.127 584.688 409.159 583.896C410.215 583.104 410.743 582.012 410.743 580.62C410.743 579.228 410.227 578.148 409.195 577.38C408.163 576.612 406.603 576.228 404.515 576.228H402.499V573.708L408.835 565.932H396.703V562.8H413.335V565.248L406.747 573.384ZM420.077 588.216C419.405 588.216 418.829 587.988 418.349 587.532C417.869 587.052 417.629 586.452 417.629 585.732C417.629 585.036 417.869 584.46 418.349 584.004C418.829 583.524 419.405 583.284 420.077 583.284C420.749 583.284 421.313 583.512 421.769 583.968C422.225 584.424 422.453 585.012 422.453 585.732C422.453 586.452 422.213 587.052 421.733 587.532C421.277 587.988 420.725 588.216 420.077 588.216ZM435.731 588.288C433.739 588.288 431.963 587.784 430.403 586.776C428.867 585.744 427.655 584.256 426.767 582.312C425.879 580.368 425.435 578.064 425.435 575.4C425.435 572.736 425.879 570.432 426.767 568.488C427.655 566.544 428.867 565.068 430.403 564.06C431.963 563.028 433.739 562.512 435.731 562.512C437.699 562.512 439.451 563.028 440.987 564.06C442.547 565.068 443.771 566.544 444.659 568.488C445.547 570.432 445.991 572.736 445.991 575.4C445.991 578.064 445.547 580.368 444.659 582.312C443.771 584.256 442.547 585.744 440.987 586.776C439.451 587.784 437.699 588.288 435.731 588.288ZM435.731 585.084C437.747 585.084 439.355 584.256 440.555 582.6C441.779 580.944 442.391 578.544 442.391 575.4C442.391 572.256 441.779 569.856 440.555 568.2C439.355 566.544 437.747 565.716 435.731 565.716C433.691 565.716 432.059 566.544 430.835 568.2C429.635 569.856 429.035 572.256 429.035 575.4C429.035 578.544 429.635 580.944 430.835 582.6C432.059 584.256 433.691 585.084 435.731 585.084ZM457.153 562.8V588H453.589V565.932H447.901V562.8H457.153Z" fill="white"/>
</g>
<g filter="url(#filter4_d_433_78)">
<path d="M296.491 873.288C293.947 873.288 291.655 872.736 289.615 871.632C287.575 870.504 285.967 868.956 284.791 866.988C283.639 865.02 283.063 862.824 283.063 860.4C283.063 857.976 283.639 855.78 284.791 853.812C285.967 851.844 287.575 850.308 289.615 849.204C291.655 848.076 293.947 847.512 296.491 847.512C299.011 847.512 301.291 848.076 303.331 849.204C305.371 850.308 306.967 851.844 308.119 853.812C309.271 855.756 309.847 857.952 309.847 860.4C309.847 862.848 309.271 865.056 308.119 867.024C306.967 868.968 305.371 870.504 303.331 871.632C301.291 872.736 299.011 873.288 296.491 873.288ZM296.491 870.084C298.339 870.084 299.995 869.664 301.459 868.824C302.947 867.984 304.111 866.832 304.951 865.368C305.815 863.88 306.247 862.224 306.247 860.4C306.247 858.576 305.815 856.932 304.951 855.468C304.111 853.98 302.947 852.816 301.459 851.976C299.995 851.136 298.339 850.716 296.491 850.716C294.643 850.716 292.963 851.136 291.451 851.976C289.963 852.816 288.787 853.98 287.923 855.468C287.083 856.932 286.663 858.576 286.663 860.4C286.663 862.224 287.083 863.88 287.923 865.368C288.787 866.832 289.963 867.984 291.451 868.824C292.963 869.664 294.643 870.084 296.491 870.084ZM328.888 856.944H321.904V873H318.448V856.944H311.464V853.92H328.888V856.944ZM342.538 853.74C344.386 853.74 346.042 854.148 347.506 854.964C348.97 855.78 350.11 856.92 350.926 858.384C351.766 859.848 352.186 861.54 352.186 863.46C352.186 865.38 351.766 867.084 350.926 868.572C350.11 870.036 348.97 871.176 347.506 871.992C346.042 872.808 344.386 873.216 342.538 873.216C341.17 873.216 339.91 872.952 338.758 872.424C337.63 871.896 336.67 871.128 335.878 870.12V879.984H332.422V853.92H335.734V856.944C336.502 855.888 337.474 855.096 338.65 854.568C339.826 854.016 341.122 853.74 342.538 853.74ZM342.25 870.192C343.474 870.192 344.566 869.916 345.526 869.364C346.51 868.788 347.278 867.996 347.83 866.988C348.406 865.956 348.694 864.78 348.694 863.46C348.694 862.14 348.406 860.976 347.83 859.968C347.278 858.936 346.51 858.144 345.526 857.592C344.566 857.04 343.474 856.764 342.25 856.764C341.05 856.764 339.958 857.052 338.974 857.628C338.014 858.18 337.246 858.96 336.67 859.968C336.118 860.976 335.842 862.14 335.842 863.46C335.842 864.78 336.118 865.956 336.67 866.988C337.222 867.996 337.99 868.788 338.974 869.364C339.958 869.916 341.05 870.192 342.25 870.192ZM357.207 853.92H360.663V867.816L372.363 853.92H375.495V873H372.039V859.104L360.375 873H357.207V853.92ZM404.199 853.92V873H401.067V859.068L393.939 870.84H392.427L385.371 859.032V873H382.203V853.92H385.767L393.255 866.808L400.959 853.92H404.199ZM417.73 853.74C420.37 853.74 422.386 854.388 423.778 855.684C425.194 856.98 425.902 858.912 425.902 861.48V873H422.626V870.48C422.05 871.368 421.222 872.052 420.142 872.532C419.086 872.988 417.826 873.216 416.362 873.216C414.226 873.216 412.51 872.7 411.214 871.668C409.942 870.636 409.306 869.28 409.306 867.6C409.306 865.92 409.918 864.576 411.142 863.568C412.366 862.536 414.31 862.02 416.974 862.02H422.446V861.336C422.446 859.848 422.014 858.708 421.15 857.916C420.286 857.124 419.014 856.728 417.334 856.728C416.206 856.728 415.102 856.92 414.022 857.304C412.942 857.664 412.03 858.156 411.286 858.78L409.846 856.188C410.83 855.396 412.006 854.796 413.374 854.388C414.742 853.956 416.194 853.74 417.73 853.74ZM416.938 870.552C418.258 870.552 419.398 870.264 420.358 869.688C421.318 869.088 422.014 868.248 422.446 867.168V864.504H417.118C414.19 864.504 412.726 865.488 412.726 867.456C412.726 868.416 413.098 869.172 413.842 869.724C414.586 870.276 415.618 870.552 416.938 870.552ZM432.125 853.92H435.581V867.816L447.281 853.92H450.413V873H446.957V859.104L435.293 873H432.125V853.92ZM441.053 851.436C439.277 851.436 437.897 851.016 436.913 850.176C435.929 849.312 435.425 848.076 435.401 846.468H437.741C437.765 847.356 438.065 848.076 438.641 848.628C439.241 849.156 440.033 849.42 441.017 849.42C442.001 849.42 442.793 849.156 443.393 848.628C443.993 848.076 444.305 847.356 444.329 846.468H446.741C446.717 848.076 446.201 849.312 445.193 850.176C444.185 851.016 442.805 851.436 441.053 851.436ZM260.91 907.064C262.182 907.4 263.166 907.94 263.862 908.684C264.558 909.428 264.906 910.352 264.906 911.456C264.906 912.584 264.522 913.592 263.754 914.48C262.986 915.344 261.918 916.028 260.55 916.532C259.206 917.012 257.694 917.252 256.014 917.252C254.598 917.252 253.206 917.072 251.838 916.712C250.494 916.328 249.294 915.788 248.238 915.092L249.282 912.464C250.194 913.04 251.238 913.496 252.414 913.832C253.59 914.144 254.778 914.3 255.978 914.3C257.61 914.3 258.906 914.024 259.866 913.472C260.85 912.896 261.342 912.128 261.342 911.168C261.342 910.28 260.946 909.596 260.154 909.116C259.386 908.636 258.294 908.396 256.878 908.396H253.386V905.912H256.626C257.922 905.912 258.942 905.684 259.686 905.228C260.43 904.772 260.802 904.148 260.802 903.356C260.802 902.492 260.358 901.82 259.47 901.34C258.606 900.86 257.43 900.62 255.942 900.62C254.046 900.62 252.042 901.112 249.93 902.096L248.994 899.432C251.322 898.256 253.758 897.668 256.302 897.668C257.838 897.668 259.218 897.884 260.442 898.316C261.666 898.748 262.626 899.36 263.322 900.152C264.018 900.944 264.366 901.844 264.366 902.852C264.366 903.788 264.054 904.628 263.43 905.372C262.806 906.116 261.966 906.68 260.91 907.064ZM276.965 897.74C279.605 897.74 281.621 898.388 283.013 899.684C284.429 900.98 285.137 902.912 285.137 905.48V917H281.861V914.48C281.285 915.368 280.457 916.052 279.377 916.532C278.321 916.988 277.061 917.216 275.597 917.216C273.461 917.216 271.745 916.7 270.449 915.668C269.177 914.636 268.541 913.28 268.541 911.6C268.541 909.92 269.153 908.576 270.377 907.568C271.601 906.536 273.545 906.02 276.209 906.02H281.681V905.336C281.681 903.848 281.249 902.708 280.385 901.916C279.521 901.124 278.249 900.728 276.569 900.728C275.441 900.728 274.337 900.92 273.257 901.304C272.177 901.664 271.265 902.156 270.521 902.78L269.081 900.188C270.065 899.396 271.241 898.796 272.609 898.388C273.977 897.956 275.429 897.74 276.965 897.74ZM276.173 914.552C277.493 914.552 278.633 914.264 279.593 913.688C280.553 913.088 281.249 912.248 281.681 911.168V908.504H276.353C273.425 908.504 271.961 909.488 271.961 911.456C271.961 912.416 272.333 913.172 273.077 913.724C273.821 914.276 274.853 914.552 276.173 914.552ZM309.036 897.92V917H305.58V900.944H294.816V917H291.36V897.92H309.036ZM325.839 897.74C327.687 897.74 329.343 898.148 330.807 898.964C332.271 899.78 333.411 900.92 334.227 902.384C335.067 903.848 335.487 905.54 335.487 907.46C335.487 909.38 335.067 911.084 334.227 912.572C333.411 914.036 332.271 915.176 330.807 915.992C329.343 916.808 327.687 917.216 325.839 917.216C324.471 917.216 323.211 916.952 322.059 916.424C320.931 915.896 319.971 915.128 319.179 914.12V923.984H315.723V897.92H319.035V900.944C319.803 899.888 320.775 899.096 321.951 898.568C323.127 898.016 324.423 897.74 325.839 897.74ZM325.551 914.192C326.775 914.192 327.867 913.916 328.827 913.364C329.811 912.788 330.579 911.996 331.131 910.988C331.707 909.956 331.995 908.78 331.995 907.46C331.995 906.14 331.707 904.976 331.131 903.968C330.579 902.936 329.811 902.144 328.827 901.592C327.867 901.04 326.775 900.764 325.551 900.764C324.351 900.764 323.259 901.052 322.275 901.628C321.315 902.18 320.547 902.96 319.971 903.968C319.419 904.976 319.143 906.14 319.143 907.46C319.143 908.78 319.419 909.956 319.971 910.988C320.523 911.996 321.291 912.788 322.275 913.364C323.259 913.916 324.351 914.192 325.551 914.192ZM348.68 917.216C346.784 917.216 345.08 916.796 343.568 915.956C342.056 915.116 340.868 913.964 340.004 912.5C339.164 911.012 338.744 909.332 338.744 907.46C338.744 905.588 339.164 903.92 340.004 902.456C340.868 900.968 342.056 899.816 343.568 899C345.08 898.16 346.784 897.74 348.68 897.74C350.576 897.74 352.268 898.16 353.756 899C355.268 899.816 356.444 900.968 357.284 902.456C358.148 903.92 358.58 905.588 358.58 907.46C358.58 909.332 358.148 911.012 357.284 912.5C356.444 913.964 355.268 915.116 353.756 915.956C352.268 916.796 350.576 917.216 348.68 917.216ZM348.68 914.192C349.904 914.192 350.996 913.916 351.956 913.364C352.94 912.788 353.708 911.996 354.26 910.988C354.812 909.956 355.088 908.78 355.088 907.46C355.088 906.14 354.812 904.976 354.26 903.968C353.708 902.936 352.94 902.144 351.956 901.592C350.996 901.04 349.904 900.764 348.68 900.764C347.456 900.764 346.352 901.04 345.368 901.592C344.408 902.144 343.64 902.936 343.064 903.968C342.512 904.976 342.236 906.14 342.236 907.46C342.236 908.78 342.512 909.956 343.064 910.988C343.64 911.996 344.408 912.788 345.368 913.364C346.352 913.916 347.456 914.192 348.68 914.192ZM390.751 897.92V917H363.571V897.92H367.027V913.976H375.451V897.92H378.907V913.976H387.295V897.92H390.751ZM414.705 907.568C414.705 907.832 414.681 908.18 414.633 908.612H399.153C399.369 910.292 400.101 911.648 401.349 912.68C402.621 913.688 404.193 914.192 406.065 914.192C408.345 914.192 410.181 913.424 411.573 911.888L413.481 914.12C412.617 915.128 411.537 915.896 410.241 916.424C408.969 916.952 407.541 917.216 405.957 917.216C403.941 917.216 402.153 916.808 400.593 915.992C399.033 915.152 397.821 913.988 396.957 912.5C396.117 911.012 395.697 909.332 395.697 907.46C395.697 905.612 396.105 903.944 396.921 902.456C397.761 900.968 398.901 899.816 400.341 899C401.805 898.16 403.449 897.74 405.273 897.74C407.097 897.74 408.717 898.16 410.133 899C411.573 899.816 412.689 900.968 413.481 902.456C414.297 903.944 414.705 905.648 414.705 907.568ZM405.273 900.656C403.617 900.656 402.225 901.16 401.097 902.168C399.993 903.176 399.345 904.496 399.153 906.128H411.393C411.201 904.52 410.541 903.212 409.413 902.204C408.309 901.172 406.929 900.656 405.273 900.656ZM420.067 897.92H423.523V906.02H434.395V897.92H437.851V917H434.395V909.008H423.523V917H420.067V897.92ZM444.571 897.92H448.027V906.02H458.899V897.92H462.355V917H458.899V909.008H448.027V917H444.571V897.92ZM484.375 897.92V917H481.279V910.952H475.735H475.339L471.163 917H467.455L472.099 910.484C470.659 910.052 469.555 909.344 468.787 908.36C468.019 907.352 467.635 906.104 467.635 904.616C467.635 902.432 468.379 900.776 469.867 899.648C471.355 898.496 473.407 897.92 476.023 897.92H484.375ZM471.163 904.724C471.163 905.996 471.559 906.944 472.351 907.568C473.167 908.168 474.379 908.468 475.987 908.468H481.279V900.944H476.131C472.819 900.944 471.163 902.204 471.163 904.724ZM313.436 957.976V965.428H310.196V961H294.248V965.428H290.972V957.976H291.98C293.204 957.904 294.044 957.04 294.5 955.384C294.956 953.728 295.268 951.388 295.436 948.364L295.724 941.92H310.52V957.976H313.436ZM298.604 948.616C298.508 951.016 298.304 953.008 297.992 954.592C297.704 956.152 297.164 957.28 296.372 957.976H307.064V944.944H298.784L298.604 948.616ZM326.11 961.216C324.214 961.216 322.51 960.796 320.998 959.956C319.486 959.116 318.298 957.964 317.434 956.5C316.594 955.012 316.174 953.332 316.174 951.46C316.174 949.588 316.594 947.92 317.434 946.456C318.298 944.968 319.486 943.816 320.998 943C322.51 942.16 324.214 941.74 326.11 941.74C328.006 941.74 329.698 942.16 331.186 943C332.698 943.816 333.874 944.968 334.714 946.456C335.578 947.92 336.01 949.588 336.01 951.46C336.01 953.332 335.578 955.012 334.714 956.5C333.874 957.964 332.698 959.116 331.186 959.956C329.698 960.796 328.006 961.216 326.11 961.216ZM326.11 958.192C327.334 958.192 328.426 957.916 329.386 957.364C330.37 956.788 331.138 955.996 331.69 954.988C332.242 953.956 332.518 952.78 332.518 951.46C332.518 950.14 332.242 948.976 331.69 947.968C331.138 946.936 330.37 946.144 329.386 945.592C328.426 945.04 327.334 944.764 326.11 944.764C324.886 944.764 323.782 945.04 322.798 945.592C321.838 946.144 321.07 946.936 320.494 947.968C319.942 948.976 319.666 950.14 319.666 951.46C319.666 952.78 319.942 953.956 320.494 954.988C321.07 955.996 321.838 956.788 322.798 957.364C323.782 957.916 324.886 958.192 326.11 958.192ZM359.344 961.288C357.352 961.288 355.576 960.784 354.016 959.776C352.48 958.744 351.268 957.256 350.38 955.312C349.492 953.368 349.048 951.064 349.048 948.4C349.048 945.736 349.492 943.432 350.38 941.488C351.268 939.544 352.48 938.068 354.016 937.06C355.576 936.028 357.352 935.512 359.344 935.512C361.312 935.512 363.064 936.028 364.6 937.06C366.16 938.068 367.384 939.544 368.272 941.488C369.16 943.432 369.604 945.736 369.604 948.4C369.604 951.064 369.16 953.368 368.272 955.312C367.384 957.256 366.16 958.744 364.6 959.776C363.064 960.784 361.312 961.288 359.344 961.288ZM359.344 958.084C361.36 958.084 362.968 957.256 364.168 955.6C365.392 953.944 366.004 951.544 366.004 948.4C366.004 945.256 365.392 942.856 364.168 941.2C362.968 939.544 361.36 938.716 359.344 938.716C357.304 938.716 355.672 939.544 354.448 941.2C353.248 942.856 352.648 945.256 352.648 948.4C352.648 951.544 353.248 953.944 354.448 955.6C355.672 957.256 357.304 958.084 359.344 958.084ZM380.26 945.844C383.86 945.844 386.5 946.528 388.18 947.896C389.884 949.24 390.736 951.088 390.736 953.44C390.736 954.928 390.376 956.272 389.656 957.472C388.96 958.648 387.892 959.584 386.452 960.28C385.036 960.952 383.284 961.288 381.196 961.288C379.42 961.288 377.704 961.024 376.048 960.496C374.392 959.944 373.024 959.188 371.944 958.228L373.6 955.384C374.464 956.2 375.568 956.86 376.912 957.364C378.256 957.844 379.672 958.084 381.16 958.084C383.056 958.084 384.52 957.688 385.552 956.896C386.608 956.08 387.136 954.976 387.136 953.584C387.136 952.072 386.56 950.932 385.408 950.164C384.256 949.372 382.288 948.976 379.504 948.976H373.78L375.112 935.8H389.332V938.932H378.136L377.452 945.844H380.26ZM396.108 961.216C395.436 961.216 394.86 960.988 394.38 960.532C393.9 960.052 393.66 959.452 393.66 958.732C393.66 958.036 393.9 957.46 394.38 957.004C394.86 956.524 395.436 956.284 396.108 956.284C396.78 956.284 397.344 956.512 397.8 956.968C398.256 957.424 398.484 958.012 398.484 958.732C398.484 959.452 398.244 960.052 397.764 960.532C397.308 960.988 396.756 961.216 396.108 961.216ZM411.762 961.288C409.77 961.288 407.994 960.784 406.434 959.776C404.898 958.744 403.686 957.256 402.798 955.312C401.91 953.368 401.466 951.064 401.466 948.4C401.466 945.736 401.91 943.432 402.798 941.488C403.686 939.544 404.898 938.068 406.434 937.06C407.994 936.028 409.77 935.512 411.762 935.512C413.73 935.512 415.482 936.028 417.018 937.06C418.578 938.068 419.802 939.544 420.69 941.488C421.578 943.432 422.022 945.736 422.022 948.4C422.022 951.064 421.578 953.368 420.69 955.312C419.802 957.256 418.578 958.744 417.018 959.776C415.482 960.784 413.73 961.288 411.762 961.288ZM411.762 958.084C413.778 958.084 415.386 957.256 416.586 955.6C417.81 953.944 418.422 951.544 418.422 948.4C418.422 945.256 417.81 942.856 416.586 941.2C415.386 939.544 413.778 938.716 411.762 938.716C409.722 938.716 408.09 939.544 406.866 941.2C405.666 942.856 405.066 945.256 405.066 948.4C405.066 951.544 405.666 953.944 406.866 955.6C408.09 957.256 409.722 958.084 411.762 958.084ZM443.085 957.868V961H424.977V958.552L435.237 948.652C436.485 947.452 437.325 946.42 437.757 945.556C438.189 944.668 438.405 943.78 438.405 942.892C438.405 941.572 437.937 940.552 437.001 939.832C436.089 939.088 434.769 938.716 433.041 938.716C430.257 938.716 428.109 939.628 426.597 941.452L424.149 939.328C425.133 938.128 426.417 937.192 428.001 936.52C429.609 935.848 431.397 935.512 433.365 935.512C436.005 935.512 438.105 936.148 439.665 937.42C441.225 938.668 442.005 940.372 442.005 942.532C442.005 943.876 441.717 945.148 441.141 946.348C440.565 947.548 439.473 948.916 437.865 950.452L430.161 957.868H443.085Z" fill="white"/>
</g>
<g filter="url(#filter5_d_433_78)">
<path d="M107.674 66.8V134H98.1704V75.152H83.0024V66.8H107.674Z" fill="white"/>
</g>
<g filter="url(#filter6_d_433_78)">
<path d="M124.84 526.648V535H76.552V528.472L103.912 502.072C107.24 498.872 109.48 496.12 110.632 493.816C111.784 491.448 112.36 489.08 112.36 486.712C112.36 483.192 111.112 480.472 108.616 478.552C106.184 476.568 102.664 475.576 98.056 475.576C90.632 475.576 84.904 478.008 80.872 482.872L74.344 477.208C76.968 474.008 80.392 471.512 84.616 469.72C88.904 467.928 93.672 467.032 98.92 467.032C105.96 467.032 111.56 468.728 115.72 472.12C119.88 475.448 121.96 479.992 121.96 485.752C121.96 489.336 121.192 492.728 119.656 495.928C118.12 499.128 115.208 502.776 110.92 506.872L90.376 526.648H124.84Z" fill="white"/>
</g>
<g filter="url(#filter7_d_433_78)">
<path d="M103.336 898.024C109.928 898.664 114.952 900.712 118.408 904.168C121.864 907.56 123.592 911.912 123.592 917.224C123.592 921.064 122.632 924.552 120.712 927.688C118.792 930.76 115.912 933.224 112.072 935.08C108.296 936.872 103.656 937.768 98.152 937.768C93.352 937.768 88.744 937.064 84.328 935.656C79.912 934.184 76.296 932.168 73.48 929.608L77.896 922.024C80.2 924.2 83.144 925.96 86.728 927.304C90.312 928.584 94.12 929.224 98.152 929.224C103.144 929.224 107.016 928.168 109.768 926.056C112.584 923.944 113.992 921.032 113.992 917.32C113.992 913.608 112.616 910.728 109.864 908.68C107.112 906.632 102.952 905.608 97.384 905.608H92.008V898.888L108.904 878.152H76.552V869.8H120.904V876.328L103.336 898.024Z" fill="white"/>
</g>
<g filter="url(#filter8_d_433_78)">
<circle cx="100.5" cy="902.5" r="84" stroke="url(#paint2_linear_433_78)" stroke-width="5"/>
</g>
<g filter="url(#filter9_d_433_78)">
<circle cx="100.5" cy="99.5" r="84" stroke="url(#paint3_linear_433_78)" stroke-width="5"/>
</g>
<g filter="url(#filter10_d_433_78)">
<circle cx="100.5" cy="500.5" r="84" stroke="url(#paint4_linear_433_78)" stroke-width="5"/>
</g>
<g filter="url(#filter11_d_433_78)">
<path d="M97.2322 1218.77C98.2085 1219.74 99.7915 1219.74 100.768 1218.77L116.678 1202.86C117.654 1201.88 117.654 1200.3 116.678 1199.32C115.701 1198.35 114.118 1198.35 113.142 1199.32L99 1213.46L84.8579 1199.32C83.8816 1198.35 82.2986 1198.35 81.3223 1199.32C80.346 1200.3 80.346 1201.88 81.3223 1202.86L97.2322 1218.77ZM96.5 989L96.5 1217H101.5L101.5 989H96.5Z" fill="url(#paint5_linear_433_78)"/>
</g>
<g filter="url(#filter12_d_433_78)">
<path d="M276.832 1272.87V1281.51H273.484V1276H252.748L252.712 1281.51H249.364L249.4 1272.87H250.624C252.208 1272.77 253.324 1271.52 253.972 1269.12C254.62 1266.7 255.016 1263.29 255.16 1258.9L255.412 1250.8H273.124V1272.87H276.832ZM258.328 1259.22C258.208 1262.78 257.92 1265.72 257.464 1268.04C257.032 1270.37 256.324 1271.98 255.34 1272.87H269.56V1253.93H258.508L258.328 1259.22ZM288.928 1276.22C287.032 1276.22 285.328 1275.8 283.816 1274.96C282.304 1274.12 281.116 1272.96 280.252 1271.5C279.412 1270.01 278.992 1268.33 278.992 1266.46C278.992 1264.59 279.412 1262.92 280.252 1261.46C281.116 1259.97 282.304 1258.82 283.816 1258C285.328 1257.16 287.032 1256.74 288.928 1256.74C290.824 1256.74 292.516 1257.16 294.004 1258C295.516 1258.82 296.692 1259.97 297.532 1261.46C298.396 1262.92 298.828 1264.59 298.828 1266.46C298.828 1268.33 298.396 1270.01 297.532 1271.5C296.692 1272.96 295.516 1274.12 294.004 1274.96C292.516 1275.8 290.824 1276.22 288.928 1276.22ZM288.928 1273.19C290.152 1273.19 291.244 1272.92 292.204 1272.36C293.188 1271.79 293.956 1271 294.508 1269.99C295.06 1268.96 295.336 1267.78 295.336 1266.46C295.336 1265.14 295.06 1263.98 294.508 1262.97C293.956 1261.94 293.188 1261.14 292.204 1260.59C291.244 1260.04 290.152 1259.76 288.928 1259.76C287.704 1259.76 286.6 1260.04 285.616 1260.59C284.656 1261.14 283.888 1261.94 283.312 1262.97C282.76 1263.98 282.484 1265.14 282.484 1266.46C282.484 1267.78 282.76 1268.96 283.312 1269.99C283.888 1271 284.656 1271.79 285.616 1272.36C286.6 1272.92 287.704 1273.19 288.928 1273.19ZM320.058 1256.92V1276H316.602V1259.94H308.394L308.178 1264.19C308.058 1266.76 307.83 1268.91 307.494 1270.64C307.158 1272.34 306.606 1273.71 305.838 1274.74C305.07 1275.77 304.002 1276.29 302.634 1276.29C302.01 1276.29 301.302 1276.18 300.51 1275.96L300.726 1273.05C301.038 1273.12 301.326 1273.16 301.59 1273.16C302.55 1273.16 303.27 1272.74 303.75 1271.9C304.23 1271.06 304.542 1270.06 304.686 1268.91C304.83 1267.76 304.962 1266.11 305.082 1263.98L305.406 1256.92H320.058ZM343.769 1256.92L334.517 1277.91C333.701 1279.85 332.741 1281.22 331.637 1282.01C330.557 1282.8 329.249 1283.2 327.713 1283.2C326.777 1283.2 325.865 1283.04 324.977 1282.73C324.113 1282.44 323.393 1282.01 322.817 1281.44L324.293 1278.84C325.277 1279.78 326.417 1280.25 327.713 1280.25C328.553 1280.25 329.249 1280.02 329.801 1279.56C330.377 1279.13 330.893 1278.38 331.349 1277.3L331.961 1275.96L323.537 1256.92H327.137L333.797 1272.18L340.385 1256.92H343.769ZM362.535 1256.92V1276H359.079V1268.3C357.015 1269.26 354.963 1269.74 352.923 1269.74C350.547 1269.74 348.711 1269.18 347.415 1268.08C346.119 1266.98 345.471 1265.32 345.471 1263.11V1256.92H348.927V1262.9C348.927 1264.22 349.335 1265.21 350.151 1265.88C350.991 1266.56 352.155 1266.89 353.643 1266.89C355.323 1266.89 357.135 1266.47 359.079 1265.63V1256.92H362.535ZM376.048 1256.74C378.688 1256.74 380.704 1257.39 382.096 1258.68C383.512 1259.98 384.22 1261.91 384.22 1264.48V1276H380.944V1273.48C380.368 1274.37 379.54 1275.05 378.46 1275.53C377.404 1275.99 376.144 1276.22 374.68 1276.22C372.544 1276.22 370.828 1275.7 369.532 1274.67C368.26 1273.64 367.624 1272.28 367.624 1270.6C367.624 1268.92 368.236 1267.58 369.46 1266.57C370.684 1265.54 372.628 1265.02 375.292 1265.02H380.764V1264.34C380.764 1262.85 380.332 1261.71 379.468 1260.92C378.604 1260.12 377.332 1259.73 375.652 1259.73C374.524 1259.73 373.42 1259.92 372.34 1260.3C371.26 1260.66 370.348 1261.16 369.604 1261.78L368.164 1259.19C369.148 1258.4 370.324 1257.8 371.692 1257.39C373.06 1256.96 374.512 1256.74 376.048 1256.74ZM375.256 1273.55C376.576 1273.55 377.716 1273.26 378.676 1272.69C379.636 1272.09 380.332 1271.25 380.764 1270.17V1267.5H375.436C372.508 1267.5 371.044 1268.49 371.044 1270.46C371.044 1271.42 371.416 1272.17 372.16 1272.72C372.904 1273.28 373.936 1273.55 375.256 1273.55ZM390.444 1256.92H393.9V1270.82L405.6 1256.92H408.732V1276H405.276V1262.1L393.612 1276H390.444V1256.92ZM399.372 1254.44C397.596 1254.44 396.216 1254.02 395.232 1253.18C394.248 1252.31 393.744 1251.08 393.72 1249.47H396.06C396.084 1250.36 396.384 1251.08 396.96 1251.63C397.56 1252.16 398.352 1252.42 399.336 1252.42C400.32 1252.42 401.112 1252.16 401.712 1251.63C402.312 1251.08 402.624 1250.36 402.648 1249.47H405.06C405.036 1251.08 404.52 1252.31 403.512 1253.18C402.504 1254.02 401.124 1254.44 399.372 1254.44ZM423.756 1276.22C421.812 1276.22 420.072 1275.8 418.536 1274.96C417.024 1274.12 415.836 1272.96 414.972 1271.5C414.108 1270.01 413.676 1268.33 413.676 1266.46C413.676 1264.59 414.108 1262.92 414.972 1261.46C415.836 1259.97 417.024 1258.82 418.536 1258C420.072 1257.16 421.812 1256.74 423.756 1256.74C425.484 1256.74 427.02 1257.09 428.364 1257.78C429.732 1258.48 430.788 1259.49 431.532 1260.81L428.904 1262.5C428.304 1261.59 427.56 1260.9 426.672 1260.45C425.784 1259.99 424.8 1259.76 423.72 1259.76C422.472 1259.76 421.344 1260.04 420.336 1260.59C419.352 1261.14 418.572 1261.94 417.996 1262.97C417.444 1263.98 417.168 1265.14 417.168 1266.46C417.168 1267.8 417.444 1268.99 417.996 1270.02C418.572 1271.03 419.352 1271.81 420.336 1272.36C421.344 1272.92 422.472 1273.19 423.72 1273.19C424.8 1273.19 425.784 1272.96 426.672 1272.51C427.56 1272.05 428.304 1271.37 428.904 1270.46L431.532 1272.11C430.788 1273.43 429.732 1274.45 428.364 1275.17C427.02 1275.87 425.484 1276.22 423.756 1276.22ZM450.709 1256.92V1276H447.613V1269.95H442.069H441.673L437.497 1276H433.789L438.433 1269.48C436.993 1269.05 435.889 1268.34 435.121 1267.36C434.353 1266.35 433.969 1265.1 433.969 1263.62C433.969 1261.43 434.713 1259.78 436.201 1258.65C437.689 1257.5 439.741 1256.92 442.357 1256.92H450.709ZM437.497 1263.72C437.497 1265 437.893 1265.94 438.685 1266.57C439.501 1267.17 440.713 1267.47 442.321 1267.47H447.613V1259.94H442.465C439.153 1259.94 437.497 1261.2 437.497 1263.72ZM262.068 1316.98V1324.43H258.828V1320H242.88V1324.43H239.604V1316.98H240.612C241.836 1316.9 242.676 1316.04 243.132 1314.38C243.588 1312.73 243.9 1310.39 244.068 1307.36L244.356 1300.92H259.152V1316.98H262.068ZM247.236 1307.62C247.14 1310.02 246.936 1312.01 246.624 1313.59C246.336 1315.15 245.796 1316.28 245.004 1316.98H255.696V1303.94H247.416L247.236 1307.62ZM274.743 1320.22C272.847 1320.22 271.143 1319.8 269.631 1318.96C268.119 1318.12 266.931 1316.96 266.067 1315.5C265.227 1314.01 264.807 1312.33 264.807 1310.46C264.807 1308.59 265.227 1306.92 266.067 1305.46C266.931 1303.97 268.119 1302.82 269.631 1302C271.143 1301.16 272.847 1300.74 274.743 1300.74C276.639 1300.74 278.331 1301.16 279.819 1302C281.331 1302.82 282.507 1303.97 283.347 1305.46C284.211 1306.92 284.643 1308.59 284.643 1310.46C284.643 1312.33 284.211 1314.01 283.347 1315.5C282.507 1316.96 281.331 1318.12 279.819 1318.96C278.331 1319.8 276.639 1320.22 274.743 1320.22ZM274.743 1317.19C275.967 1317.19 277.059 1316.92 278.019 1316.36C279.003 1315.79 279.771 1315 280.323 1313.99C280.875 1312.96 281.151 1311.78 281.151 1310.46C281.151 1309.14 280.875 1307.98 280.323 1306.97C279.771 1305.94 279.003 1305.14 278.019 1304.59C277.059 1304.04 275.967 1303.76 274.743 1303.76C273.519 1303.76 272.415 1304.04 271.431 1304.59C270.471 1305.14 269.703 1305.94 269.127 1306.97C268.575 1307.98 268.299 1309.14 268.299 1310.46C268.299 1311.78 268.575 1312.96 269.127 1313.99C269.703 1315 270.471 1315.79 271.431 1316.36C272.415 1316.92 273.519 1317.19 274.743 1317.19ZM311.217 1320L305.709 1312.69L300.129 1320H296.277L303.801 1310.24L296.637 1300.92H300.489L305.745 1307.8L310.965 1300.92H314.745L307.545 1310.24L315.141 1320H311.217ZM325.23 1300.74C327.87 1300.74 329.886 1301.39 331.278 1302.68C332.694 1303.98 333.402 1305.91 333.402 1308.48V1320H330.126V1317.48C329.55 1318.37 328.722 1319.05 327.642 1319.53C326.586 1319.99 325.326 1320.22 323.862 1320.22C321.726 1320.22 320.01 1319.7 318.714 1318.67C317.442 1317.64 316.806 1316.28 316.806 1314.6C316.806 1312.92 317.418 1311.58 318.642 1310.57C319.866 1309.54 321.81 1309.02 324.474 1309.02H329.946V1308.34C329.946 1306.85 329.514 1305.71 328.65 1304.92C327.786 1304.12 326.514 1303.73 324.834 1303.73C323.706 1303.73 322.602 1303.92 321.522 1304.3C320.442 1304.66 319.53 1305.16 318.786 1305.78L317.346 1303.19C318.33 1302.4 319.506 1301.8 320.874 1301.39C322.242 1300.96 323.694 1300.74 325.23 1300.74ZM324.438 1317.55C325.758 1317.55 326.898 1317.26 327.858 1316.69C328.818 1316.09 329.514 1315.25 329.946 1314.17V1311.5H324.618C321.69 1311.5 320.226 1312.49 320.226 1314.46C320.226 1315.42 320.598 1316.17 321.342 1316.72C322.086 1317.28 323.118 1317.55 324.438 1317.55ZM347.041 1311.94H343.081V1320H339.625V1300.92H343.081V1308.98H347.113L353.305 1300.92H357.013L349.777 1310.1L357.517 1320H353.449L347.041 1311.94ZM367.593 1300.74C370.233 1300.74 372.249 1301.39 373.641 1302.68C375.057 1303.98 375.765 1305.91 375.765 1308.48V1320H372.489V1317.48C371.913 1318.37 371.085 1319.05 370.005 1319.53C368.949 1319.99 367.689 1320.22 366.225 1320.22C364.089 1320.22 362.373 1319.7 361.077 1318.67C359.805 1317.64 359.169 1316.28 359.169 1314.6C359.169 1312.92 359.781 1311.58 361.005 1310.57C362.229 1309.54 364.173 1309.02 366.837 1309.02H372.309V1308.34C372.309 1306.85 371.877 1305.71 371.013 1304.92C370.149 1304.12 368.877 1303.73 367.197 1303.73C366.069 1303.73 364.965 1303.92 363.885 1304.3C362.805 1304.66 361.893 1305.16 361.149 1305.78L359.709 1303.19C360.693 1302.4 361.869 1301.8 363.237 1301.39C364.605 1300.96 366.057 1300.74 367.593 1300.74ZM366.801 1317.55C368.121 1317.55 369.261 1317.26 370.221 1316.69C371.181 1316.09 371.877 1315.25 372.309 1314.17V1311.5H366.981C364.053 1311.5 362.589 1312.49 362.589 1314.46C362.589 1315.42 362.961 1316.17 363.705 1316.72C364.449 1317.28 365.481 1317.55 366.801 1317.55ZM396.209 1303.94H389.225V1320H385.769V1303.94H378.785V1300.92H396.209V1303.94ZM407.071 1320.22C405.175 1320.22 403.471 1319.8 401.959 1318.96C400.447 1318.12 399.259 1316.96 398.395 1315.5C397.555 1314.01 397.135 1312.33 397.135 1310.46C397.135 1308.59 397.555 1306.92 398.395 1305.46C399.259 1303.97 400.447 1302.82 401.959 1302C403.471 1301.16 405.175 1300.74 407.071 1300.74C408.967 1300.74 410.659 1301.16 412.147 1302C413.659 1302.82 414.835 1303.97 415.675 1305.46C416.539 1306.92 416.971 1308.59 416.971 1310.46C416.971 1312.33 416.539 1314.01 415.675 1315.5C414.835 1316.96 413.659 1318.12 412.147 1318.96C410.659 1319.8 408.967 1320.22 407.071 1320.22ZM407.071 1317.19C408.295 1317.19 409.387 1316.92 410.347 1316.36C411.331 1315.79 412.099 1315 412.651 1313.99C413.203 1312.96 413.479 1311.78 413.479 1310.46C413.479 1309.14 413.203 1307.98 412.651 1306.97C412.099 1305.94 411.331 1305.14 410.347 1304.59C409.387 1304.04 408.295 1303.76 407.071 1303.76C405.847 1303.76 404.743 1304.04 403.759 1304.59C402.799 1305.14 402.031 1305.94 401.455 1306.97C400.903 1307.98 400.627 1309.14 400.627 1310.46C400.627 1311.78 400.903 1312.96 401.455 1313.99C402.031 1315 402.799 1315.79 403.759 1316.36C404.743 1316.92 405.847 1317.19 407.071 1317.19ZM421.961 1300.92H425.417V1309.02H436.289V1300.92H439.745V1320H436.289V1312.01H425.417V1320H421.961V1300.92ZM463.493 1300.92L454.241 1321.91C453.425 1323.85 452.465 1325.22 451.361 1326.01C450.281 1326.8 448.973 1327.2 447.437 1327.2C446.501 1327.2 445.589 1327.04 444.701 1326.73C443.837 1326.44 443.117 1326.01 442.541 1325.44L444.017 1322.84C445.001 1323.78 446.141 1324.25 447.437 1324.25C448.277 1324.25 448.973 1324.02 449.525 1323.56C450.101 1323.13 450.617 1322.38 451.073 1321.3L451.685 1319.96L443.261 1300.92H446.861L453.521 1316.18L460.109 1300.92H463.493ZM296.532 1360.87V1364H278.424V1361.55L288.684 1351.65C289.932 1350.45 290.772 1349.42 291.204 1348.56C291.636 1347.67 291.852 1346.78 291.852 1345.89C291.852 1344.57 291.384 1343.55 290.448 1342.83C289.536 1342.09 288.216 1341.72 286.488 1341.72C283.704 1341.72 281.556 1342.63 280.044 1344.45L277.596 1342.33C278.58 1341.13 279.864 1340.19 281.448 1339.52C283.056 1338.85 284.844 1338.51 286.812 1338.51C289.452 1338.51 291.552 1339.15 293.112 1340.42C294.672 1341.67 295.452 1343.37 295.452 1345.53C295.452 1346.88 295.164 1348.15 294.588 1349.35C294.012 1350.55 292.92 1351.92 291.312 1353.45L283.608 1360.87H296.532ZM310.258 1348.7C311.914 1348.7 313.39 1349.01 314.686 1349.64C316.006 1350.26 317.038 1351.16 317.782 1352.34C318.526 1353.49 318.898 1354.82 318.898 1356.33C318.898 1357.92 318.502 1359.31 317.71 1360.51C316.942 1361.71 315.874 1362.64 314.506 1363.32C313.162 1363.96 311.65 1364.29 309.97 1364.29C306.586 1364.29 303.97 1363.2 302.122 1361.01C300.298 1358.83 299.386 1355.73 299.386 1351.72C299.386 1348.92 299.878 1346.53 300.862 1344.56C301.87 1342.57 303.262 1341.07 305.038 1340.06C306.838 1339.03 308.926 1338.51 311.302 1338.51C312.526 1338.51 313.678 1338.64 314.758 1338.91C315.838 1339.15 316.774 1339.51 317.566 1339.99L316.198 1342.8C314.998 1342 313.39 1341.61 311.374 1341.61C308.758 1341.61 306.706 1342.42 305.218 1344.06C303.73 1345.66 302.986 1348.02 302.986 1351.11C302.986 1351.5 302.998 1351.8 303.022 1352.01C303.742 1350.93 304.726 1350.12 305.974 1349.56C307.246 1348.99 308.674 1348.7 310.258 1348.7ZM309.826 1361.37C311.482 1361.37 312.826 1360.93 313.858 1360.04C314.89 1359.15 315.406 1357.96 315.406 1356.48C315.406 1354.99 314.878 1353.81 313.822 1352.95C312.79 1352.06 311.398 1351.62 309.646 1351.62C308.518 1351.62 307.51 1351.83 306.622 1352.26C305.758 1352.7 305.074 1353.28 304.57 1354.03C304.09 1354.77 303.85 1355.6 303.85 1356.51C303.85 1357.4 304.078 1358.22 304.534 1358.96C305.014 1359.68 305.698 1360.27 306.586 1360.72C307.498 1361.16 308.578 1361.37 309.826 1361.37ZM322.105 1352.62H331.789V1355.61H322.105V1352.62ZM352.817 1360.87V1364H334.709V1361.55L344.969 1351.65C346.217 1350.45 347.057 1349.42 347.489 1348.56C347.921 1347.67 348.137 1346.78 348.137 1345.89C348.137 1344.57 347.669 1343.55 346.733 1342.83C345.821 1342.09 344.501 1341.72 342.773 1341.72C339.989 1341.72 337.841 1342.63 336.329 1344.45L333.881 1342.33C334.865 1341.13 336.149 1340.19 337.733 1339.52C339.341 1338.85 341.129 1338.51 343.097 1338.51C345.737 1338.51 347.837 1339.15 349.397 1340.42C350.957 1341.67 351.737 1343.37 351.737 1345.53C351.737 1346.88 351.449 1348.15 350.873 1349.35C350.297 1350.55 349.205 1351.92 347.597 1353.45L339.893 1360.87H352.817ZM374.031 1338.8V1341.25L363.843 1364H360.027L369.999 1341.93H358.479V1346.43H355.023V1338.8H374.031ZM377.7 1364.22C377.028 1364.22 376.452 1363.99 375.972 1363.53C375.492 1363.05 375.252 1362.45 375.252 1361.73C375.252 1361.04 375.492 1360.46 375.972 1360C376.452 1359.52 377.028 1359.28 377.7 1359.28C378.372 1359.28 378.936 1359.51 379.392 1359.97C379.848 1360.42 380.076 1361.01 380.076 1361.73C380.076 1362.45 379.836 1363.05 379.356 1363.53C378.9 1363.99 378.348 1364.22 377.7 1364.22ZM393.354 1364.29C391.362 1364.29 389.586 1363.78 388.026 1362.78C386.49 1361.74 385.278 1360.26 384.39 1358.31C383.502 1356.37 383.058 1354.06 383.058 1351.4C383.058 1348.74 383.502 1346.43 384.39 1344.49C385.278 1342.54 386.49 1341.07 388.026 1340.06C389.586 1339.03 391.362 1338.51 393.354 1338.51C395.322 1338.51 397.074 1339.03 398.61 1340.06C400.17 1341.07 401.394 1342.54 402.282 1344.49C403.17 1346.43 403.614 1348.74 403.614 1351.4C403.614 1354.06 403.17 1356.37 402.282 1358.31C401.394 1360.26 400.17 1361.74 398.61 1362.78C397.074 1363.78 395.322 1364.29 393.354 1364.29ZM393.354 1361.08C395.37 1361.08 396.978 1360.26 398.178 1358.6C399.402 1356.94 400.014 1354.54 400.014 1351.4C400.014 1348.26 399.402 1345.86 398.178 1344.2C396.978 1342.54 395.37 1341.72 393.354 1341.72C391.314 1341.72 389.682 1342.54 388.458 1344.2C387.258 1345.86 386.658 1348.26 386.658 1351.4C386.658 1354.54 387.258 1356.94 388.458 1358.6C389.682 1360.26 391.314 1361.08 393.354 1361.08ZM424.676 1360.87V1364H406.568V1361.55L416.828 1351.65C418.076 1350.45 418.916 1349.42 419.348 1348.56C419.78 1347.67 419.996 1346.78 419.996 1345.89C419.996 1344.57 419.528 1343.55 418.592 1342.83C417.68 1342.09 416.36 1341.72 414.632 1341.72C411.848 1341.72 409.7 1342.63 408.188 1344.45L405.74 1342.33C406.724 1341.13 408.008 1340.19 409.592 1339.52C411.2 1338.85 412.988 1338.51 414.956 1338.51C417.596 1338.51 419.696 1339.15 421.256 1340.42C422.816 1341.67 423.596 1343.37 423.596 1345.53C423.596 1346.88 423.308 1348.15 422.732 1349.35C422.156 1350.55 421.064 1351.92 419.456 1353.45L411.752 1360.87H424.676Z" fill="white"/>
</g>
<g filter="url(#filter13_d_433_78)">
<path d="M130.072 1324.49H117.304V1341H107.992V1324.49H70.648V1317.77L105.016 1273.8H115.384L82.456 1316.23H108.28V1301.64H117.304V1316.23H130.072V1324.49Z" fill="white"/>
</g>
<g filter="url(#filter14_d_433_78)">
<circle cx="99.5" cy="1305.5" r="84" stroke="url(#paint6_linear_433_78)" stroke-width="5"/>
</g>
<defs>
<filter id="filter0_d_433_78" x="67.5898" y="172" width="64.8203" height="258.5" filterUnits="userSpaceOnUse" color-interpolation-filters="sRGB">
<feFlood flood-opacity="0" result="BackgroundImageFix"/>
<feColorMatrix in="SourceAlpha" type="matrix" values="0 0 0 0 0 0 0 0 0 0 0 0 0 0 0 0 0 0 127 0" result="hardAlpha"/>
<feMorphology radius="2" operator="dilate" in="SourceAlpha" result="effect1_dropShadow_433_78"/>
<feOffset/>
<feGaussianBlur stdDeviation="6"/>
<feColorMatrix type="matrix" values="0 0 0 0 0.0708333 0 0 0 0 0.777 0 0 0 0 1 0 0 0 0.78 0"/>
<feBlend mode="normal" in2="BackgroundImageFix" result="effect1_dropShadow_433_78"/>
<feBlend mode="normal" in="SourceGraphic" in2="effect1_dropShadow_433_78" result="shape"/>
</filter>
<filter id="filter1_d_433_78" x="67.5898" y="574" width="64.8203" height="258.5" filterUnits="userSpaceOnUse" color-interpolation-filters="sRGB">
<feFlood flood-opacity="0" result="BackgroundImageFix"/>
<feColorMatrix in="SourceAlpha" type="matrix" values="0 0 0 0 0 0 0 0 0 0 0 0 0 0 0 0 0 0 127 0" result="hardAlpha"/>
<feMorphology radius="2" operator="dilate" in="SourceAlpha" result="effect1_dropShadow_433_78"/>
<feOffset/>
<feGaussianBlur stdDeviation="6"/>
<feColorMatrix type="matrix" values="0 0 0 0 0.0708333 0 0 0 0 0.777 0 0 0 0 1 0 0 0 0.78 0"/>
<feBlend mode="normal" in2="BackgroundImageFix" result="effect1_dropShadow_433_78"/>
<feBlend mode="normal" in="SourceGraphic" in2="effect1_dropShadow_433_78" result="shape"/>
</filter>
<filter id="filter2_d_433_78" x="220.273" y="60.468" width="281.543" height="98.96" filterUnits="userSpaceOnUse" color-interpolation-filters="sRGB">
<feFlood flood-opacity="0" result="BackgroundImageFix"/>
<feColorMatrix in="SourceAlpha" type="matrix" values="0 0 0 0 0 0 0 0 0 0 0 0 0 0 0 0 0 0 127 0" result="hardAlpha"/>
<feOffset/>
<feGaussianBlur stdDeviation="6"/>
<feColorMatrix type="matrix" values="0 0 0 0 0.0708333 0 0 0 0 0.777 0 0 0 0 1 0 0 0 0.78 0"/>
<feBlend mode="normal" in2="BackgroundImageFix" result="effect1_dropShadow_433_78"/>
<feBlend mode="normal" in="SourceGraphic" in2="effect1_dropShadow_433_78" result="shape"/>
</filter>
<filter id="filter3_d_433_78" x="221.059" y="461.468" width="338.793" height="142.96" filterUnits="userSpaceOnUse" color-interpolation-filters="sRGB">
<feFlood flood-opacity="0" result="BackgroundImageFix"/>
<feColorMatrix in="SourceAlpha" type="matrix" values="0 0 0 0 0 0 0 0 0 0 0 0 0 0 0 0 0 0 127 0" result="hardAlpha"/>
<feOffset/>
<feGaussianBlur stdDeviation="6"/>
<feColorMatrix type="matrix" values="0 0 0 0 0.0708333 0 0 0 0 0.777 0 0 0 0 1 0 0 0 0.78 0"/>
<feBlend mode="normal" in2="BackgroundImageFix" result="effect1_dropShadow_433_78"/>
<feBlend mode="normal" in="SourceGraphic" in2="effect1_dropShadow_433_78" result="shape"/>
</filter>
<filter id="filter4_d_433_78" x="236.238" y="834.468" width="260.137" height="142.96" filterUnits="userSpaceOnUse" color-interpolation-filters="sRGB">
<feFlood flood-opacity="0" result="BackgroundImageFix"/>
<feColorMatrix in="SourceAlpha" type="matrix" values="0 0 0 0 0 0 0 0 0 0 0 0 0 0 0 0 0 0 127 0" result="hardAlpha"/>
<feOffset/>
<feGaussianBlur stdDeviation="6"/>
<feColorMatrix type="matrix" values="0 0 0 0 0.0708333 0 0 0 0 0.777 0 0 0 0 1 0 0 0 0.78 0"/>
<feBlend mode="normal" in2="BackgroundImageFix" result="effect1_dropShadow_433_78"/>
<feBlend mode="normal" in="SourceGraphic" in2="effect1_dropShadow_433_78" result="shape"/>
</filter>
<filter id="filter5_d_433_78" x="71.002" y="54.8" width="48.6729" height="91.2" filterUnits="userSpaceOnUse" color-interpolation-filters="sRGB">
<feFlood flood-opacity="0" result="BackgroundImageFix"/>
<feColorMatrix in="SourceAlpha" type="matrix" values="0 0 0 0 0 0 0 0 0 0 0 0 0 0 0 0 0 0 127 0" result="hardAlpha"/>
<feOffset/>
<feGaussianBlur stdDeviation="6"/>
<feColorMatrix type="matrix" values="0 0 0 0 0.0708333 0 0 0 0 0.777 0 0 0 0 1 0 0 0 0.78 0"/>
<feBlend mode="normal" in2="BackgroundImageFix" result="effect1_dropShadow_433_78"/>
<feBlend mode="normal" in="SourceGraphic" in2="effect1_dropShadow_433_78" result="shape"/>
</filter>
<filter id="filter6_d_433_78" x="62.3438" y="455.032" width="74.4961" height="91.968" filterUnits="userSpaceOnUse" color-interpolation-filters="sRGB">
<feFlood flood-opacity="0" result="BackgroundImageFix"/>
<feColorMatrix in="SourceAlpha" type="matrix" values="0 0 0 0 0 0 0 0 0 0 0 0 0 0 0 0 0 0 127 0" result="hardAlpha"/>
<feOffset/>
<feGaussianBlur stdDeviation="6"/>
<feColorMatrix type="matrix" values="0 0 0 0 0.0708333 0 0 0 0 0.777 0 0 0 0 1 0 0 0 0.78 0"/>
<feBlend mode="normal" in2="BackgroundImageFix" result="effect1_dropShadow_433_78"/>
<feBlend mode="normal" in="SourceGraphic" in2="effect1_dropShadow_433_78" result="shape"/>
</filter>
<filter id="filter7_d_433_78" x="61.4805" y="857.8" width="74.1113" height="91.968" filterUnits="userSpaceOnUse" color-interpolation-filters="sRGB">
<feFlood flood-opacity="0" result="BackgroundImageFix"/>
<feColorMatrix in="SourceAlpha" type="matrix" values="0 0 0 0 0 0 0 0 0 0 0 0 0 0 0 0 0 0 127 0" result="hardAlpha"/>
<feOffset/>
<feGaussianBlur stdDeviation="6"/>
<feColorMatrix type="matrix" values="0 0 0 0 0.0708333 0 0 0 0 0.777 0 0 0 0 1 0 0 0 0.78 0"/>
<feBlend mode="normal" in2="BackgroundImageFix" result="effect1_dropShadow_433_78"/>
<feBlend mode="normal" in="SourceGraphic" in2="effect1_dropShadow_433_78" result="shape"/>
</filter>
<filter id="filter8_d_433_78" x="1" y="803" width="199" height="199" filterUnits="userSpaceOnUse" color-interpolation-filters="sRGB">
<feFlood flood-opacity="0" result="BackgroundImageFix"/>
<feColorMatrix in="SourceAlpha" type="matrix" values="0 0 0 0 0 0 0 0 0 0 0 0 0 0 0 0 0 0 127 0" result="hardAlpha"/>
<feMorphology radius="1" operator="dilate" in="SourceAlpha" result="effect1_dropShadow_433_78"/>
<feOffset/>
<feGaussianBlur stdDeviation="6"/>
<feColorMatrix type="matrix" values="0 0 0 0 0.0708333 0 0 0 0 0.777 0 0 0 0 1 0 0 0 1 0"/>
<feBlend mode="normal" in2="BackgroundImageFix" result="effect1_dropShadow_433_78"/>
<feBlend mode="normal" in="SourceGraphic" in2="effect1_dropShadow_433_78" result="shape"/>
</filter>
<filter id="filter9_d_433_78" x="1" y="0" width="199" height="199" filterUnits="userSpaceOnUse" color-interpolation-filters="sRGB">
<feFlood flood-opacity="0" result="BackgroundImageFix"/>
<feColorMatrix in="SourceAlpha" type="matrix" values="0 0 0 0 0 0 0 0 0 0 0 0 0 0 0 0 0 0 127 0" result="hardAlpha"/>
<feMorphology radius="1" operator="dilate" in="SourceAlpha" result="effect1_dropShadow_433_78"/>
<feOffset/>
<feGaussianBlur stdDeviation="6"/>
<feColorMatrix type="matrix" values="0 0 0 0 0.0708333 0 0 0 0 0.777 0 0 0 0 1 0 0 0 1 0"/>
<feBlend mode="normal" in2="BackgroundImageFix" result="effect1_dropShadow_433_78"/>
<feBlend mode="normal" in="SourceGraphic" in2="effect1_dropShadow_433_78" result="shape"/>
</filter>
<filter id="filter10_d_433_78" x="1" y="401" width="199" height="199" filterUnits="userSpaceOnUse" color-interpolation-filters="sRGB">
<feFlood flood-opacity="0" result="BackgroundImageFix"/>
<feColorMatrix in="SourceAlpha" type="matrix" values="0 0 0 0 0 0 0 0 0 0 0 0 0 0 0 0 0 0 127 0" result="hardAlpha"/>
<feMorphology radius="1" operator="dilate" in="SourceAlpha" result="effect1_dropShadow_433_78"/>
<feOffset/>
<feGaussianBlur stdDeviation="6"/>
<feColorMatrix type="matrix" values="0 0 0 0 0.0708333 0 0 0 0 0.777 0 0 0 0 1 0 0 0 1 0"/>
<feBlend mode="normal" in2="BackgroundImageFix" result="effect1_dropShadow_433_78"/>
<feBlend mode="normal" in="SourceGraphic" in2="effect1_dropShadow_433_78" result="shape"/>
</filter>
<filter id="filter11_d_433_78" x="66.5898" y="975" width="64.8203" height="258.5" filterUnits="userSpaceOnUse" color-interpolation-filters="sRGB">
<feFlood flood-opacity="0" result="BackgroundImageFix"/>
<feColorMatrix in="SourceAlpha" type="matrix" values="0 0 0 0 0 0 0 0 0 0 0 0 0 0 0 0 0 0 127 0" result="hardAlpha"/>
<feMorphology radius="2" operator="dilate" in="SourceAlpha" result="effect1_dropShadow_433_78"/>
<feOffset/>
<feGaussianBlur stdDeviation="6"/>
<feColorMatrix type="matrix" values="0 0 0 0 0.0708333 0 0 0 0 0.777 0 0 0 0 1 0 0 0 0.78 0"/>
<feBlend mode="normal" in2="BackgroundImageFix" result="effect1_dropShadow_433_78"/>
<feBlend mode="normal" in="SourceGraphic" in2="effect1_dropShadow_433_78" result="shape"/>
</filter>
<filter id="filter12_d_433_78" x="227.604" y="1237.47" width="247.889" height="138.82" filterUnits="userSpaceOnUse" color-interpolation-filters="sRGB">
<feFlood flood-opacity="0" result="BackgroundImageFix"/>
<feColorMatrix in="SourceAlpha" type="matrix" values="0 0 0 0 0 0 0 0 0 0 0 0 0 0 0 0 0 0 127 0" result="hardAlpha"/>
<feOffset/>
<feGaussianBlur stdDeviation="6"/>
<feColorMatrix type="matrix" values="0 0 0 0 0.0708333 0 0 0 0 0.777 0 0 0 0 1 0 0 0 0.78 0"/>
<feBlend mode="normal" in2="BackgroundImageFix" result="effect1_dropShadow_433_78"/>
<feBlend mode="normal" in="SourceGraphic" in2="effect1_dropShadow_433_78" result="shape"/>
</filter>
<filter id="filter13_d_433_78" x="58.6484" y="1261.8" width="83.4238" height="91.2" filterUnits="userSpaceOnUse" color-interpolation-filters="sRGB">
<feFlood flood-opacity="0" result="BackgroundImageFix"/>
<feColorMatrix in="SourceAlpha" type="matrix" values="0 0 0 0 0 0 0 0 0 0 0 0 0 0 0 0 0 0 127 0" result="hardAlpha"/>
<feOffset/>
<feGaussianBlur stdDeviation="6"/>
<feColorMatrix type="matrix" values="0 0 0 0 0.0708333 0 0 0 0 0.777 0 0 0 0 1 0 0 0 0.78 0"/>
<feBlend mode="normal" in2="BackgroundImageFix" result="effect1_dropShadow_433_78"/>
<feBlend mode="normal" in="SourceGraphic" in2="effect1_dropShadow_433_78" result="shape"/>
</filter>
<filter id="filter14_d_433_78" x="0" y="1206" width="199" height="199" filterUnits="userSpaceOnUse" color-interpolation-filters="sRGB">
<feFlood flood-opacity="0" result="BackgroundImageFix"/>
<feColorMatrix in="SourceAlpha" type="matrix" values="0 0 0 0 0 0 0 0 0 0 0 0 0 0 0 0 0 0 127 0" result="hardAlpha"/>
<feMorphology radius="1" operator="dilate" in="SourceAlpha" result="effect1_dropShadow_433_78"/>
<feOffset/>
<feGaussianBlur stdDeviation="6"/>
<feColorMatrix type="matrix" values="0 0 0 0 0.0708333 0 0 0 0 0.777 0 0 0 0 1 0 0 0 1 0"/>
<feBlend mode="normal" in2="BackgroundImageFix" result="effect1_dropShadow_433_78"/>
<feBlend mode="normal" in="SourceGraphic" in2="effect1_dropShadow_433_78" result="shape"/>
</filter>
<linearGradient id="paint0_linear_433_78" x1="100" y1="414" x2="100" y2="186" gradientUnits="userSpaceOnUse">
<stop stop-color="white"/>
<stop offset="1" stop-color="#12C6FF" stop-opacity="0.7"/>
</linearGradient>
<linearGradient id="paint1_linear_433_78" x1="100" y1="816" x2="100" y2="588" gradientUnits="userSpaceOnUse">
<stop stop-color="white"/>
<stop offset="1" stop-color="#12C6FF" stop-opacity="0.7"/>
</linearGradient>
<linearGradient id="paint2_linear_433_78" x1="38" y1="892" x2="187" y2="918" gradientUnits="userSpaceOnUse">
<stop stop-color="white"/>
<stop offset="1" stop-color="#12C6FF" stop-opacity="0.7"/>
</linearGradient>
<linearGradient id="paint3_linear_433_78" x1="38" y1="89" x2="187" y2="115" gradientUnits="userSpaceOnUse">
<stop stop-color="white"/>
<stop offset="1" stop-color="#12C6FF" stop-opacity="0.7"/>
</linearGradient>
<linearGradient id="paint4_linear_433_78" x1="38" y1="490" x2="187" y2="516" gradientUnits="userSpaceOnUse">
<stop stop-color="white"/>
<stop offset="1" stop-color="#12C6FF" stop-opacity="0.7"/>
</linearGradient>
<linearGradient id="paint5_linear_433_78" x1="99" y1="1217" x2="99" y2="989" gradientUnits="userSpaceOnUse">
<stop stop-color="white"/>
<stop offset="1" stop-color="#12C6FF" stop-opacity="0.7"/>
</linearGradient>
<linearGradient id="paint6_linear_433_78" x1="37" y1="1295" x2="186" y2="1321" gradientUnits="userSpaceOnUse">
<stop stop-color="white"/>
<stop offset="1" stop-color="#12C6FF" stop-opacity="0.7"/>
</linearGradient>
</defs>
</svg>
